<?xml version="1.0" encoding="UTF-8"?>
<!DOCTYPE svg PUBLIC "-//W3C//DTD SVG 1.1//EN" "http://www.w3.org/Graphics/SVG/1.1/DTD/svg11.dtd">
<!-- Creator: CorelDRAW X7 -->
<svg xmlns="http://www.w3.org/2000/svg" xml:space="preserve" width="0.961016in" height="0.86952in" version="1.1" style="shape-rendering:geometricPrecision; text-rendering:geometricPrecision; image-rendering:optimizeQuality; fill-rule:evenodd; clip-rule:evenodd"
viewBox="0 0 139 126"
 xmlns:xlink="http://www.w3.org/1999/xlink">
 <defs>
  <style type="text/css">
   <![CDATA[
    .fil0 {fill:#FEFEFE}
    .fil3 {fill:#06002E}
    .fil2 {fill:#093799}
    .fil1 {fill:#CC0007}
    .fil4 {fill:#FF0009}
   ]]>
  </style>
 </defs>
 <g id="Layer_x0020_1">
  <metadata id="CorelCorpID_0Corel-Layer"/>
  <g id="_633039016">
   <path class="fil0" d="M98 63c0,0 0,0 0,0 0,0 0,0 0,0 0,0 0,0 0,0zm23 -15c1,0 1,0 2,0 1,0 2,1 2,2 0,0 1,0 1,0 0,0 0,1 1,1 0,0 1,1 1,1 0,1 0,1 1,1 0,1 0,1 0,1 1,1 1,1 1,2 0,0 0,1 0,1 0,0 1,1 1,1 0,1 0,2 0,2 0,0 0,0 0,0 0,1 1,1 1,1 2,2 3,3 3,5 0,1 0,1 0,1 0,0 0,1 0,1 0,0 0,1 -1,1 0,2 0,3 -1,4 0,1 -1,2 -2,2 0,1 -1,2 -2,3 0,0 -1,0 -1,0 0,0 0,0 0,1 -1,0 -1,0 -1,0 0,0 0,1 0,1 -1,1 -1,1 -2,2 0,0 -1,0 -1,1 0,0 -1,1 -1,1 0,0 -1,0 -1,0 0,1 -1,1 -1,2 -1,0 -2,1 -2,1 0,0 -1,1 -1,1 0,0 -1,1 -1,1 -1,0 -1,1 -2,1 0,0 0,0 0,0 0,0 0,1 -1,1 0,1 -1,1 -2,2 -1,0 -1,0 -1,0 -1,1 -1,2 -2,2 -1,1 -2,1 -3,1 0,1 -1,1 -1,1 -1,0 -2,1 -3,1 -1,0 -1,0 -2,0 -1,0 -1,0 -2,0 -1,0 -2,0 -3,-1 0,0 0,0 0,0 -1,0 -2,-1 -3,-2 -1,0 -1,-1 -1,-1 -1,0 -1,0 -1,-1 0,1 0,1 -1,1 0,1 -1,1 -1,1 -1,1 -1,1 -1,1 -1,1 -1,1 -2,1 0,1 0,1 -1,1 0,0 0,1 -1,1 0,0 0,0 0,0 -1,1 -2,2 -3,2 0,1 0,1 0,1 -1,1 -2,1 -3,1 0,1 -1,1 -2,2 0,0 -1,0 -1,0 -1,1 -2,1 -3,1 -1,0 -2,0 -2,1 -1,0 -1,0 -2,-1 -1,0 -2,0 -3,0 0,-1 0,-1 0,-1 -1,0 -2,0 -2,-1 -1,2 -1,3 -2,4 0,1 -1,1 -1,2 -1,1 -1,2 -2,3 -1,0 -2,1 -2,1 -1,1 -1,1 -1,1 -1,1 -2,2 -4,3 -1,0 -3,0 -4,-1 0,0 -1,0 -2,0 0,0 0,0 0,0 -2,-1 -3,-3 -3,-5 0,-1 -1,-1 -1,-1 0,0 0,0 -1,0 0,1 0,1 -1,1 -1,1 -3,1 -5,1 0,0 0,0 0,0 -2,0 -3,-1 -4,-2 0,0 0,0 0,0 0,0 -1,0 -1,0 -1,0 -3,-1 -3,-2 -1,0 -1,1 -1,1 0,0 -1,1 -1,1 0,1 -1,1 -1,2 -1,0 -1,1 -2,2 -1,0 -1,1 -2,1 -1,1 -2,2 -3,2 -1,0 -1,0 -2,0 -1,1 -1,1 -2,1 0,0 -1,0 -1,0 -1,0 -1,0 -2,0 -1,-1 -3,-1 -4,-2 -2,-2 -2,-4 -2,-6 0,-2 0,-3 1,-4 0,-1 1,-2 1,-2 0,0 1,-1 1,-1 0,-1 1,-2 1,-3 0,0 0,-1 1,-1 0,-1 0,-1 1,-2 0,-1 1,-1 1,-2 0,0 0,0 0,0 0,-1 1,-2 2,-2 0,-1 0,-1 1,-2 0,0 0,0 0,0 0,-1 1,-1 2,-2 0,0 0,0 0,-1 1,-1 2,-2 3,-3 1,-1 1,-3 2,-4 1,-1 2,-3 3,-4 1,-1 2,-2 2,-2 0,-1 1,-1 1,-1 0,-1 0,-1 1,-1 0,-1 0,-1 1,-2 1,-1 1,-1 2,-2 1,-1 3,-2 5,-2 0,0 0,0 0,0 0,0 0,-1 0,-1 0,0 0,-1 0,-1 0,0 0,0 0,0 1,-1 1,-1 1,-1 0,-1 0,-1 0,-2 0,-1 1,-1 1,-2 0,0 0,0 0,-1 0,1 0,1 -1,1 0,0 0,1 -1,1 0,1 -1,2 -2,3 0,0 0,1 -1,1 0,0 0,0 -1,0 0,1 0,1 0,1 -1,0 -1,1 -2,2 0,0 -1,0 -1,0 -1,1 -3,2 -4,2 -2,1 -4,2 -6,2 -1,0 -2,0 -3,-1 -1,0 -2,-1 -3,-1 -1,-1 -2,-2 -3,-4 -1,-1 -2,-2 -2,-3 0,-1 0,-2 -1,-3 0,-2 0,-4 0,-6 1,-2 1,-3 1,-5 0,0 0,0 0,0 0,0 0,-1 0,-1 0,-1 1,-2 1,-3 0,-1 1,-1 1,-2 0,-1 0,-3 1,-4 0,-2 1,-3 1,-5 0,-2 1,-3 1,-4 0,-1 0,-1 0,-2 1,0 1,0 1,-1 0,0 0,-1 0,-2 0,0 0,0 0,0 1,-2 1,-4 2,-5 0,-1 0,-2 1,-3 0,-1 0,-2 1,-3 0,0 0,-1 1,-1 0,-1 1,-2 2,-2 1,-1 2,-2 3,-2 1,0 2,-1 3,-1 1,0 1,0 2,0 1,0 1,0 2,1 2,0 3,0 4,1 1,0 1,1 1,1 1,0 1,-1 1,-1 0,-1 0,-1 0,-1 0,-1 0,-2 1,-3 0,-1 1,-2 1,-3 0,0 1,0 1,-1 2,-3 6,-4 9,-2 1,0 2,1 2,2 1,0 1,1 2,1 0,0 0,0 0,0 0,1 0,1 0,1 0,0 0,0 0,0 2,0 3,1 4,3 1,0 1,1 1,2 0,0 0,0 0,0 1,2 1,3 1,4 0,0 0,1 0,2 1,0 2,-1 3,-1 0,0 0,0 0,0 0,0 0,0 1,0 0,0 0,0 0,0 1,0 2,-1 3,-1 0,0 1,-1 2,-1 1,-1 2,-1 3,-1 1,0 1,0 1,0 1,0 1,-1 2,-1 1,0 2,0 3,0 0,0 0,0 0,0 1,0 2,0 4,0 1,1 2,1 3,1 0,0 0,0 0,0 0,1 1,1 2,1 1,1 1,1 2,2 0,0 0,1 1,1 0,0 0,0 0,0 0,0 1,0 1,0 1,0 1,-1 2,-1 0,0 0,0 1,0 0,0 0,0 0,0 1,0 1,-1 2,-1 1,0 2,1 3,1 1,0 2,0 3,1 1,1 2,2 3,3 0,1 1,2 1,3 0,1 0,1 0,2 0,0 0,0 0,0 0,1 0,1 -1,2 0,0 0,1 0,1 1,0 1,0 2,0 0,-1 1,-1 2,-1 0,0 1,0 1,0 1,0 1,0 1,0 1,0 1,0 2,1 1,0 2,0 2,0 0,0 1,0 1,0 0,0 0,0 0,0 1,0 1,0 2,0 1,1 2,1 2,2 0,0 0,0 0,0 1,0 1,0 1,0 0,0 1,1 1,1 1,0 2,1 3,3 1,1 2,3 2,6 0,0 0,0 0,1 0,2 -1,3 -1,5 -1,1 -1,2 -2,2 0,0 0,0 0,1z"/>
   <g>
    <path class="fil1" d="M13 45c0,0 0,0 0,0 0,-1 1,-3 1,-4 0,-1 1,-2 1,-4 0,-1 1,-3 1,-5 1,-1 1,-3 1,-5 1,0 1,-1 1,-2 0,-1 0,-1 0,-2 1,-1 1,-3 2,-4 0,-1 1,-3 1,-4 0,0 0,0 0,0 0,0 0,0 0,0 0,-1 1,-1 1,-2 0,0 1,-1 1,-1 0,0 0,0 0,1 0,0 0,0 0,0 0,0 0,0 0,0 1,0 1,-1 1,-1 0,0 0,0 0,0 0,0 1,0 1,0 0,0 0,0 0,0 0,0 0,0 0,0 1,0 1,0 1,0 0,0 0,0 0,0 0,-1 0,-1 0,0 0,0 1,0 1,0 0,0 0,0 0,0 0,0 0,0 0,0 1,0 1,0 1,0 0,0 1,0 1,0 0,0 0,1 0,1 1,0 1,0 1,0 0,0 0,0 0,0 0,1 0,2 0,3 0,1 0,2 0,2 0,0 0,0 0,1 -1,0 -1,0 0,0 -1,0 -1,1 -1,1 0,1 0,1 0,1 0,1 0,1 0,2 0,0 0,0 -1,0 0,1 0,1 0,1 0,0 0,0 0,0 0,0 0,1 0,2 0,0 0,1 -1,2 0,0 0,1 0,1 -1,1 -1,1 -1,2 0,0 0,0 0,0 0,0 0,0 0,0 0,0 0,1 0,1 0,1 -1,1 -1,2 0,0 0,1 0,1 0,1 0,1 -1,2 0,1 0,1 0,2 0,0 0,1 0,1 -1,0 -1,1 -1,1 0,1 0,1 0,2 0,0 0,0 0,1 0,0 0,0 0,1 0,0 1,0 1,0 0,0 1,0 1,0 0,-1 1,-1 1,-2 1,0 1,-1 2,-2 0,0 1,-1 1,-1 0,0 0,0 0,-1 1,0 1,-1 1,-1 0,0 0,-1 1,-1 0,-1 0,-1 0,-1 0,0 0,-1 0,-1 1,0 1,-1 1,-1 0,0 0,0 0,0 0,-1 0,-1 0,-1 1,0 1,-1 1,-1 0,0 0,0 0,0 0,-1 0,-1 1,-1 0,-1 0,-1 0,-1 0,-1 0,-1 0,-1 0,-1 0,-1 1,-2 0,0 0,-1 0,-1 0,-1 1,-1 1,-2 0,-1 0,-1 1,-2 0,-1 0,-1 0,-2 0,0 0,0 0,-1 0,0 0,0 1,-1 0,0 0,-1 0,-1 0,0 0,-1 1,-1 0,0 0,-1 0,-1 0,0 0,0 0,0 0,-1 0,-1 1,-2 0,-1 0,-1 0,-2 0,-1 1,-1 1,-2 0,-1 1,-2 1,-3 0,0 0,-1 0,-1 0,-1 0,-1 1,-1 0,0 0,0 0,0 0,0 0,0 0,0 0,0 0,0 0,-1 0,0 0,0 0,0 0,0 0,-1 1,-1 0,0 0,0 0,0 0,1 0,1 0,1 0,0 0,1 0,1 0,0 0,0 0,0 0,-1 0,-1 0,-1 0,0 1,0 1,0 0,1 0,1 -1,1 1,0 1,0 1,0 0,0 0,0 0,0 0,0 0,0 0,0 0,0 0,0 0,0 0,0 1,0 1,0 0,0 0,0 0,0 0,1 0,1 0,1 0,0 1,0 1,0 0,0 0,0 0,0 0,1 0,1 0,1 0,0 0,0 0,0 0,0 0,-1 0,-1 0,1 0,1 1,1 0,0 0,0 0,0 0,1 0,1 0,1 0,0 0,0 0,0 1,0 1,0 1,0 0,0 0,0 0,-1 0,0 1,1 1,1 0,0 0,0 0,0 -1,0 -1,0 -1,1 0,0 1,0 1,0 0,0 0,0 0,0 0,0 0,0 0,0 0,0 0,1 0,1 0,1 0,2 0,3 0,1 0,2 -1,3 0,2 0,3 -1,4 0,1 0,2 0,3l0 0c-1,1 -1,2 -2,3 0,1 -1,2 -1,4 -1,0 -1,1 -1,2 -1,1 -1,1 -1,2 -1,1 -1,2 -2,4 -1,1 -1,2 -2,3 0,0 0,0 0,1 0,0 0,0 0,0 0,1 -1,1 -1,1 0,0 0,1 0,1 -1,1 -1,1 -1,2 -1,0 -1,1 -2,1 0,1 -1,2 -1,2 -1,1 -1,1 -2,2 0,0 0,1 0,1 -1,0 -1,1 -1,1 -1,1 -1,1 -2,2 0,1 -1,2 -2,2 0,0 0,1 0,1 0,0 -1,0 -1,0 0,1 0,1 0,1 -1,0 -1,0 -1,0 0,0 0,1 0,1 0,0 -1,0 -1,0 0,0 0,0 0,0 0,0 0,0 0,0 -1,1 -3,2 -4,2 -1,1 -2,1 -3,1 0,0 0,0 0,0 0,0 0,0 0,0 -1,0 -2,0 -2,-1 -1,0 -1,-1 -2,-1 0,-1 -1,-2 -1,-2 0,-1 0,-2 0,-3 -1,-1 -1,-2 0,-4 0,-1 0,-2 0,-4 1,0 1,0 1,-1 0,0 0,0 0,0 0,0 0,-1 0,-1 0,0 0,0 0,0zm17 -32c0,0 0,0 0,0 -1,0 -1,0 -1,0 0,0 0,0 0,0 0,0 1,0 1,0zm10 51c1,0 1,0 1,0 0,0 0,-1 0,-1 0,0 0,0 0,0 0,0 0,0 0,0 0,0 0,0 0,-1 0,0 0,0 0,0 0,0 0,0 0,0 0,-1 0,-1 0,-2 0,0 1,0 1,-1 0,0 0,0 0,-1 0,0 1,-1 1,-1 0,0 0,0 0,0 0,0 0,0 0,-1 0,-1 0,-2 1,-3 0,-1 1,-2 1,-3 0,0 0,0 0,0 0,0 0,-1 0,-1 0,0 0,-1 1,-1 0,-1 0,-1 0,-2 0,0 1,-1 1,-1 0,-1 0,-1 0,-2 0,0 0,0 0,0 1,0 1,0 1,0 0,-1 0,-1 0,-1 0,0 0,-1 0,-1 1,0 1,-1 1,-1 0,-1 0,-1 1,-2 0,0 0,0 0,0 0,0 0,0 0,0 0,-1 1,-3 2,-4 0,-1 1,-2 1,-4 0,0 0,0 0,0 0,1 -1,1 -1,1 0,0 -1,0 -1,0 -1,0 -1,0 -2,0 0,0 0,0 0,0 0,0 0,0 0,-1 -1,0 -1,0 -1,0 0,1 0,1 0,1 0,-1 0,-1 0,-1 0,0 0,0 0,0 0,0 0,0 0,-1 0,0 -1,-1 -1,-1 1,0 1,0 1,0 0,-1 0,0 -1,0 0,0 0,0 0,0 0,0 0,0 0,0 0,0 1,-1 0,-1 1,0 1,0 1,0 0,-1 1,-1 1,-1 0,0 0,0 0,0 0,0 0,0 0,-1 1,0 2,-1 3,-1 1,-1 2,-2 3,-2 0,-1 1,-1 1,-1 0,0 1,0 1,-1 0,0 0,0 0,0 1,0 1,0 0,-1 1,0 1,0 1,0 0,-1 1,-1 1,-1l0 0c0,0 0,0 0,0 0,0 0,0 0,0 1,0 1,0 1,0 1,0 1,0 2,-1 0,0 0,0 0,0 0,0 0,0 0,0 0,0 0,0 0,0 0,0 0,0 0,0 0,0 1,0 1,0 1,-1 2,-1 3,-1 1,-1 2,-1 3,-1 0,-1 1,-1 1,-1 1,0 1,0 2,0 0,0 0,0 1,-1 0,0 1,0 1,0 1,0 1,0 2,0 0,0 1,0 1,1 1,0 1,0 1,0 1,0 1,0 1,0 1,0 1,0 1,0 0,0 0,1 1,1 0,0 0,0 0,0 0,0 1,1 1,1 0,0 1,1 1,1 0,1 0,1 0,2 0,1 0,1 0,2 -1,0 -1,0 -1,0 0,0 0,0 0,1 0,0 0,0 0,0 0,0 -1,1 -1,2 -1,0 -1,1 -2,2 0,0 0,0 0,0 0,0 0,0 0,0 0,0 0,0 0,0 0,0 0,0 0,0 0,1 0,1 0,1 0,0 0,0 0,0 -1,0 -1,1 -2,2 -1,1 -1,2 -2,2 0,0 0,1 0,1 0,0 -1,0 -1,0 0,0 0,1 0,1 0,0 0,0 0,0 -2,1 -3,3 -4,4 -2,1 -3,2 -4,3 -1,1 -1,1 -1,1 0,0 1,0 1,0 0,0 0,0 0,0 0,0 0,1 0,1 0,0 -1,0 -1,1 -1,0 -1,0 -1,1l0 0c0,0 0,0 0,0 0,0 -1,0 -1,0 0,0 0,0 0,0 0,0 0,0 -1,1 0,0 0,0 0,0 0,0 0,0 0,0 0,0 0,0 0,0 0,0 -1,0 -1,0 0,0 -1,0 -1,0 0,0 0,1 0,1 0,0 0,0 -1,0 0,0 0,0 0,0 0,0 0,0 0,0 0,0 0,0 0,0 -1,0 -1,0 -1,0 0,0 0,0 0,0 0,0 0,0 0,0 0,0 0,0 0,0 0,0 0,0 -1,0 0,0 0,0 -1,0 0,0 0,0 -1,1 1,-1 1,-1 0,-1 0,0 0,0 0,0 0,0 0,0 0,0 0,0 0,0 0,0 0,-1 0,-1 0,-1 0,-1 1,-1 1,-1 0,-2 1,-3 2,-4 1,-1 2,-2 3,-3 1,0 1,-1 2,-1 0,-1 1,-1 1,-2 0,0 1,0 1,0 0,-1 1,-2 1,-3 1,-1 1,-2 2,-3 0,0 1,-1 2,-2 0,-1 1,-2 1,-2 0,-1 1,-1 1,-2 0,0 1,0 1,-1 -1,0 -1,0 -1,0 -1,0 -1,1 -2,1 0,0 0,0 -1,0 0,0 0,0 -1,0 0,0 0,0 0,0 0,0 0,0 0,0 0,0 -1,1 -2,1 -1,0 -2,1 -3,1 -1,3 -2,5 -3,7 -1,3 -2,5 -3,8 0,0 0,0 0,0 0,0 0,0 0,0 0,0 0,0 0,0 0,0 0,0 0,1 0,0 0,0 0,0 0,0 0,0 0,0 0,0 0,0 0,0 0,0 0,0 0,0 -1,2 -1,3 -2,4 0,1 -1,2 -1,3 0,0 0,0 0,0 0,0 0,1 0,1 0,0 0,0 0,0 0,0 0,0 0,0 -1,1 -1,2 -1,3 -1,1 -1,2 -1,3 -1,0 -1,1 -1,1 0,0 0,1 0,1 0,0 0,0 -1,0 0,1 0,1 0,1 0,0 0,0 0,0 0,0 0,0 0,0 0,0 0,0 0,0 0,0 0,0 0,1 0,0 0,-1 0,0 0,0 0,0 0,0 0,0 0,0 0,0 0,0 0,0 0,0 -1,0 -1,0 -1,1 0,0 0,0 0,0 0,0 0,0 0,0 0,0 0,0 0,1 0,0 -1,1 -1,1 0,0 0,0 0,0 0,0 0,0 0,0 0,0 0,1 0,1 0,0 0,0 0,0 0,0 0,0 -1,0 0,1 0,1 0,1 0,0 0,0 0,0 0,0 0,0 0,0 0,0 0,0 0,1 0,0 0,0 0,0 0,1 0,1 -1,1 0,0 0,0 0,0 0,0 0,0 0,1 0,0 0,0 0,0 0,0 0,0 0,0 0,1 -1,1 -1,1 0,0 0,1 0,1 0,0 0,0 0,0 0,0 0,1 0,1 0,0 0,0 0,0 0,1 0,1 0,1 -1,0 -1,0 -1,0 0,1 0,1 0,1 0,0 0,0 0,0 0,0 0,0 0,0 0,0 0,0 0,0 0,0 0,0 0,0 -1,0 -1,0 -1,0 0,0 0,0 0,0 0,0 0,0 0,0 0,0 0,0 0,0 -1,0 -1,0 -1,0 0,0 0,-1 0,-1 0,0 0,0 0,0 0,0 -1,0 -1,0 0,0 0,-1 0,-1 0,-1 0,-1 0,-2 0,0 0,0 0,0 0,0 0,0 0,0 -1,-1 -1,-1 0,-2 0,0 0,0 -1,-1zm28 -26c0,0 0,0 0,0 0,0 0,0 0,0 0,0 0,0 0,0 0,0 0,0 0,0z"/>
    <g>
     <path class="fil2" d="M39 69c0,0 0,0 0,0 -1,0 -1,1 -1,1 1,0 2,1 2,1 0,0 0,1 1,1 0,1 0,1 0,2 0,0 0,1 0,1 0,1 0,1 0,1 0,1 0,2 0,2 0,1 -1,1 0,2 -1,0 -1,0 -1,1 0,0 0,0 0,0 1,0 1,0 1,-1 0,0 1,0 1,-1 0,0 1,0 1,-1 0,0 1,-1 1,-1 0,-1 1,-1 1,-2 0,0 0,0 1,-1 0,0 0,0 0,-1 1,-1 2,-2 2,-3 1,-1 2,-2 3,-3 0,0 0,-1 0,-1 1,-1 1,-1 2,-2 0,0 0,-1 0,-1 1,-1 1,-1 2,-2 0,-1 1,-2 1,-3 1,-1 2,-1 2,-2 1,-1 1,-1 1,-1 0,0 0,-1 1,-1 0,0 0,0 0,0 0,-1 0,-1 1,-1 0,0 0,-1 0,-1 0,0 1,0 1,-1 0,0 0,0 0,0 0,0 0,0 0,0 1,-1 1,-1 2,-2 1,-1 1,-1 2,-2 0,0 0,-1 1,-1 0,0 1,0 1,0 0,0 1,-1 1,-1 1,0 1,0 2,0 0,0 1,0 1,0 0,0 0,0 0,1 1,0 1,0 1,0 0,0 0,0 0,0 1,0 1,0 1,0 0,1 0,1 0,2 0,1 0,1 1,1 -1,1 -1,1 -1,2 0,1 0,1 0,2 0,0 0,0 -1,1 0,0 0,1 0,1 -1,2 -1,3 -2,5 -1,2 -1,3 -2,5 0,0 0,1 0,1 -1,0 -1,1 -1,1 0,0 0,0 0,0 0,1 0,2 -1,2 0,1 0,1 0,2 -1,0 -1,0 -1,0 0,0 0,0 0,0 0,1 0,2 0,2 -1,1 -1,2 -1,3 -1,0 -1,1 -1,2 0,1 -1,2 -1,2 0,1 -1,1 -1,2 0,0 0,1 0,1 -1,1 -1,1 -1,2 0,0 0,1 0,1 -1,1 -1,1 -1,2 -1,1 -1,1 -1,2 0,0 0,0 0,0 0,0 0,0 0,0 0,1 -1,2 -1,2 0,1 0,1 -1,2 0,0 0,0 0,0 0,0 0,0 0,0 0,1 0,1 0,2 -1,0 -1,1 -1,1 0,1 -1,2 -2,3 0,1 -1,2 -1,4 0,0 0,0 0,0 -1,0 -1,0 -1,0 0,0 0,0 0,0 0,0 0,0 0,0 0,0 0,0 0,0 0,0 0,0 0,-1 -1,1 -1,1 -1,1 0,0 0,0 0,0 0,0 -1,0 0,0 -1,0 -1,1 -1,1 0,0 0,0 0,1 -1,0 -1,0 -1,1 0,0 0,0 -1,0 0,0 0,0 0,0 0,-1 0,-1 0,-1 -1,0 -1,1 -1,1 0,0 0,0 0,0 0,0 0,0 0,0 0,0 0,0 0,0 0,-1 0,-2 0,-2 0,0 0,-1 0,-1 0,-1 0,-1 0,-1 1,0 1,0 1,0 0,0 0,0 -1,0 0,0 0,0 0,0 1,-1 1,-2 1,-3 0,-1 0,-2 0,-2 0,-1 0,-1 0,-1 0,-1 0,-1 0,-1 0,-2 1,-3 1,-5 0,0 0,0 0,0 0,0 0,0 0,0 0,0 0,-1 0,-1 0,0 0,0 0,-1 1,-1 1,-2 1,-3 0,-1 1,-3 1,-4 -1,1 -1,2 -2,4 -1,1 -2,2 -3,3 0,0 0,0 0,0 0,0 0,0 0,1 0,0 0,0 -1,1 0,0 -1,1 -1,1 0,1 0,1 -1,2 0,0 0,0 0,1 0,0 -1,0 -1,0 0,1 0,1 0,1 0,0 -1,1 -1,1 0,1 -1,1 -1,1 0,1 0,1 0,1 -1,0 -1,1 -1,1 0,0 -1,0 -1,1 0,0 -1,0 -1,0 -1,1 -1,1 -2,1 0,0 0,0 -1,0 0,0 0,0 0,0 -1,0 -1,0 -1,0 0,0 0,0 0,0 -1,0 -1,-1 -1,-1 0,0 0,0 -1,0 0,0 -1,0 -1,0 0,0 0,0 -1,0 0,-1 0,-1 0,-2 0,0 0,0 -1,-1 0,0 0,0 0,0 0,0 0,1 0,0 0,0 0,0 0,0 0,-1 0,-1 0,-1 0,-1 -1,-1 -1,-1 0,0 0,-1 0,-1 0,-1 0,-1 0,-2 0,-1 1,-2 1,-3 -1,1 -2,3 -3,4 -1,1 -2,3 -3,4 -1,0 -1,1 -1,1 -1,1 -1,1 -1,2 -1,0 -1,0 -1,1 0,0 -1,1 -1,1 0,0 0,0 0,0 0,0 -1,0 -1,1 0,0 0,0 0,0 0,0 -1,1 -1,1 0,0 -1,1 -1,1 0,1 -1,1 -2,1 0,0 0,0 0,1 0,0 0,0 0,0 0,0 0,0 0,0 0,0 0,-1 0,-1 -1,1 -1,1 -1,1 -1,0 -1,0 -1,0 0,0 0,0 0,0 -1,0 -1,0 -2,0 0,0 0,0 -1,0 1,-1 1,-1 0,-2 0,0 1,0 1,-1 0,0 0,0 0,0 0,0 0,0 0,0 1,-1 1,-2 2,-3 0,-1 1,-2 1,-3 0,0 0,0 0,0 0,0 0,0 0,0 1,-1 1,-1 1,-2 1,-1 1,-1 1,-2 0,0 1,0 1,0 0,0 0,-1 0,-1 0,0 0,0 0,0 0,0 0,0 0,0 1,-1 1,-1 2,-2 0,0 0,-1 1,-1 0,0 0,-1 0,-1 1,0 1,0 1,-1 1,-1 2,-2 3,-4 1,-1 2,-2 3,-4 0,-1 1,-2 2,-3 1,-1 2,-2 3,-3 0,0 0,0 0,-1 0,0 0,0 0,0 0,0 0,0 0,0 0,0 1,0 1,0 0,-1 0,-1 1,-2 0,0 0,0 0,-1 1,0 2,-1 3,-1 1,0 2,-1 4,-1zm-28 39c0,0 0,-1 0,0 0,0 0,0 0,0 0,0 0,0 0,0 0,0 0,0 0,0 0,0 0,0 0,0zm15 -16c0,0 0,0 0,0 -1,1 -1,1 -1,1 0,0 1,0 1,-1 0,0 0,0 0,0zm27 11c0,0 0,0 0,0 0,0 0,0 0,0 0,-1 0,-1 0,-1 0,0 -1,0 -1,1l0 0c0,0 0,0 0,0 1,0 1,0 1,0zm42 -31c0,0 0,0 0,0 0,0 0,0 0,0 0,0 0,0 1,0 0,-1 0,-1 1,-1 0,0 0,0 0,0 -1,0 -1,0 -1,1 1,0 1,0 1,0 0,-1 0,-1 0,-1 0,1 0,1 0,1 0,0 0,0 0,0 0,0 0,0 0,0 0,0 -1,0 -1,0 0,0 0,0 0,1 1,0 1,-1 1,-1 0,1 0,1 0,1 0,0 -1,0 -1,1 0,0 0,0 0,0 0,0 0,0 0,0 0,0 0,0 0,0l0 0c-1,1 -1,1 -1,1 0,0 0,0 0,0 0,0 0,0 0,0 0,0 0,0 1,0 0,0 0,0 0,0 0,0 0,0 0,0 0,0 0,0 0,0 0,0 -1,0 -1,0 0,0 0,0 0,0 0,0 0,0 0,0 0,0 0,0 0,1 0,0 0,0 0,0 0,0 -1,0 -1,0 0,1 0,1 -1,1 0,0 0,0 0,0 0,0 0,0 0,1 -1,0 -1,0 -1,0 0,0 0,0 0,0 0,0 0,0 0,0 -1,0 -1,0 -1,1 0,0 0,0 0,0 0,0 0,0 0,0 0,1 -1,1 -1,0 0,1 0,1 0,1 0,0 0,0 0,0 0,0 0,0 0,0 0,0 0,0 0,0 0,0 0,1 0,1 -1,0 -1,0 -1,1 0,0 0,0 0,0 0,0 0,0 0,0 0,0 0,0 -1,0 0,0 0,0 0,0 0,0 0,1 0,1 0,0 0,0 0,0 -1,1 -2,1 -3,2 0,0 -1,1 -2,2 0,0 -1,0 -1,1 -1,0 -1,1 -2,1 0,0 -1,1 -2,2 0,0 0,0 0,0 0,0 1,-1 1,-1 -1,1 -1,1 -2,2 -1,0 -1,1 -2,1 0,0 -1,1 -1,1 -1,0 -1,1 -2,1 0,0 0,0 0,0 0,0 -1,0 -1,0 0,0 -1,1 -1,1 -1,0 -1,0 -2,0 0,0 0,0 0,0 0,0 0,0 -1,0 0,0 0,0 0,0 0,0 0,0 0,0 0,0 0,0 0,0 0,-1 0,-1 -1,-1 0,0 0,0 0,0 0,0 -1,0 -1,0 0,0 0,0 0,0 0,0 0,0 0,0 0,0 0,0 0,0 0,0 0,-1 0,-1 0,0 0,0 0,0 0,0 0,0 0,0 0,0 0,0 0,0 -1,0 -1,0 -1,-1 -1,0 -1,-1 -1,-1 0,-1 -1,-1 -1,-1 0,0 0,0 0,0 0,0 0,0 0,0 0,-1 -1,-2 -1,-3 0,-1 1,-2 1,-3 0,0 0,0 0,-1 0,0 1,0 1,0 0,-2 1,-3 2,-4 0,-1 1,-2 2,-3 0,0 0,0 0,-1 1,0 1,0 1,0 0,0 0,-1 0,-1 1,0 1,-1 1,-1 0,0 1,0 1,-1 0,0 1,-1 1,-1 0,-1 1,-1 1,-1 0,0 0,-1 0,-1 0,0 0,0 0,0 1,0 1,0 1,0 0,-1 1,-1 1,-1 0,0 0,-1 1,-1 0,0 0,-1 0,-1 0,0 0,0 1,0 0,0 0,0 0,0 0,-1 0,-1 1,-1 0,-1 1,-1 2,-2 0,0 1,-1 2,-1 0,-1 1,-1 1,-2 1,0 1,0 2,-1 0,0 0,0 0,0 0,0 0,0 0,0 1,0 1,0 1,0 0,-1 1,-1 1,-1 0,0 1,0 1,-1 0,0 1,0 1,0 1,0 1,0 1,0 1,0 1,0 0,0 0,0 0,0 0,0 1,0 1,0 1,1 0,0 0,0 0,0 1,0 1,0 1,0 0,1 0,1 0,1 0,0 0,0 0,0 0,0 0,0 0,0 1,0 1,0 1,0 0,0 0,1 0,1 0,0 0,0 0,0 0,0 0,1 1,1 0,0 0,0 0,0 0,0 0,0 0,0 0,1 0,1 0,1 0,0 0,0 0,0 0,0 0,1 0,1 0,0 0,0 0,0 0,0 0,1 0,1 0,0 0,0 0,0 0,0 0,0 0,0 0,1 -1,1 -1,2 0,0 -1,1 -1,1 0,0 0,0 0,0 0,1 0,1 0,1 0,0 -1,0 -1,0 0,1 0,1 0,1 0,0 -1,0 -1,0 0,0 0,1 0,1 0,0 0,0 0,0 0,0 -1,0 -1,1 0,0 0,0 0,0 -1,0 -1,1 -1,1 -1,0 -1,1 -2,2 -1,0 -1,1 -2,1 0,1 -1,1 -1,1 0,0 0,0 0,0 -1,0 -1,0 -1,1 0,0 0,0 -1,0 0,0 0,0 0,0 0,0 0,0 0,0 0,1 -1,1 -1,1 -1,1 -1,1 -2,1 0,0 0,0 0,0 0,0 -1,0 -1,1 0,0 0,0 0,0 0,0 0,0 0,0 -1,0 -1,0 -1,0 -1,1 -1,1 -1,1 -1,0 -1,0 -1,0 0,0 0,0 0,0 0,0 0,0 0,0 -1,0 -1,0 -1,0 0,0 0,0 0,0 0,0 0,0 0,0 -1,0 -1,1 -2,1 0,1 0,1 0,2 0,0 -1,0 -1,0 0,0 0,0 0,0 0,0 0,0 0,0 0,0 0,1 0,1 0,0 0,0 0,1 0,0 -1,1 -1,1 1,0 1,-1 2,-1 0,0 1,0 1,-1 0,0 0,0 0,0 0,0 0,0 1,0 0,0 0,0 0,0 0,0 1,0 1,-1 0,0 0,0 0,0 0,0 1,0 1,0 0,0 1,-1 1,-1 0,0 1,0 1,-1 1,0 1,0 2,0 0,-1 0,-1 1,-1 0,0 0,0 0,-1 1,0 1,0 1,0 1,0 1,-1 1,-1 0,0 0,0 0,0 0,0 0,0 1,0l0 0c0,0 0,-1 0,-1 1,0 1,0 1,0 1,-1 1,-1 2,-1l0 0c0,0 0,0 0,0 0,0 0,0 0,0 0,0 0,0 0,0 0,-1 0,-1 0,-1 1,0 2,0 2,-1 1,0 2,-1 2,-1 1,0 1,0 1,-1 0,0 0,0 0,0 0,0 1,0 1,0 0,0 1,-1 1,-1 1,0 1,0 1,0 0,-1 1,-1 1,-1 0,0 1,0 1,0 0,-1 1,-1 1,-1 0,0 0,0 0,0 1,0 1,0 1,-1 0,1 0,1 0,1 0,0 0,0 0,0 -1,0 -1,0 -1,0 0,1 0,1 -1,1 0,0 0,0 0,0 0,0 0,0 0,0zm-18 2c1,0 1,0 1,0 0,0 0,0 0,0 0,0 0,0 0,0 1,0 1,0 1,0 0,0 0,0 0,0 0,-1 0,-1 0,-1 0,0 0,0 0,0 0,0 0,0 0,0 1,0 1,0 1,0 0,-1 0,-1 0,-1 1,0 1,0 1,0 0,0 0,-1 1,-1 0,0 0,0 1,0 0,-1 0,-1 1,-2 0,0 0,0 1,-1 0,-1 0,-1 0,-1 0,0 0,0 0,0 0,0 0,0 -1,0 0,0 0,1 0,1 0,0 0,0 0,0 0,0 -1,0 -1,0 0,1 0,1 -1,1 0,0 0,0 0,1 -1,0 -1,0 -1,0 0,0 0,1 0,1 -1,0 -1,0 -1,0 0,0 0,0 0,0 0,0 0,0 -1,0 0,1 0,1 0,1 0,0 0,0 0,0 0,0 0,0 0,0 0,0 0,0 0,0 0,0 0,0 0,0 0,0 0,0 0,0 0,1 -1,1 -1,1 0,0 -1,1 -1,1l0 0 0 0c0,0 0,0 0,0 0,0 0,0 0,0z"/>
     <path class="fil2" d="M126 64c0,0 0,0 0,0 0,0 0,0 0,0 0,0 1,0 1,-1 0,0 1,0 1,0 0,0 0,0 0,0 0,0 0,0 0,0 0,0 0,0 0,0 0,0 0,0 0,0 0,0 0,0 0,0 0,0 0,0 0,0 0,0 0,1 0,1 0,0 0,0 0,0 0,0 0,0 0,0 0,0 0,0 0,0 0,0 0,0 0,1 0,0 0,0 0,0 -1,0 -1,1 -1,1 0,0 0,0 0,0 0,0 0,0 0,0l0 0c0,0 -1,0 -1,0 0,0 0,1 0,1 0,0 0,0 1,0 0,-1 0,-1 0,-1 0,0 0,0 0,0 0,0 0,0 0,1 0,0 0,0 0,0 0,0 0,0 0,0 0,0 0,0 -1,0 0,0 0,0 0,0 0,0 0,0 0,0 0,0 0,0 0,1 0,0 0,0 -1,0 0,0 0,0 0,0 -1,1 -1,1 -1,1 0,0 0,0 0,0 0,0 0,0 0,0 0,0 -1,0 -1,0 0,1 0,1 0,1 0,0 -1,0 -1,0 0,0 0,0 0,0 0,1 0,1 0,1 0,0 0,0 0,0 -1,0 -1,0 -1,1 0,0 0,0 0,0 0,0 0,0 0,0 0,0 0,0 1,0 -1,0 -1,0 -1,1 -1,0 -1,0 -1,0 0,0 0,0 0,0 0,0 0,0 0,0 0,0 0,1 0,1 0,0 0,0 0,0 -1,0 -1,0 -1,1 0,0 0,0 0,0 -1,0 -2,1 -2,1 -1,1 -2,2 -2,2 -1,0 -1,1 -2,1 0,1 -1,1 -2,2 0,0 -1,1 -1,1 0,0 0,0 0,0 0,0 0,0 0,0 -1,1 -1,1 -2,1 -1,1 -1,1 -2,2 0,0 -1,0 -1,1 -1,0 -1,0 -2,1 0,0 0,0 0,0 0,0 0,0 -1,0 0,0 0,0 -1,0 -1,0 -1,1 -2,1 0,0 0,0 0,-1 0,0 0,0 0,0 0,0 0,0 0,0 -1,1 -1,1 -1,0 0,0 0,0 0,0 0,0 0,0 0,0 -1,0 -1,0 -1,0 0,0 0,0 -1,0 0,-1 0,-1 0,-1 0,0 0,0 0,0 0,0 0,0 0,0 0,0 0,0 0,0 0,0 0,0 0,0 0,0 0,0 0,0 0,0 0,0 0,0 -1,0 -1,-1 -1,-1 0,-1 -1,-1 -1,-1 0,-1 0,-2 -1,-2 0,0 0,0 0,0 0,0 0,0 0,0 0,0 0,-1 0,-2 0,-1 0,-2 0,-3 0,0 0,-1 1,-1 0,0 0,0 0,-1 1,-1 1,-2 2,-3 1,-1 1,-2 2,-3 0,-1 0,-1 1,-1 0,0 0,0 0,-1 0,0 0,0 1,0 0,-1 0,-1 0,-1 1,-1 1,-1 1,-1 1,-1 1,-1 1,-2 1,0 1,0 1,-1 0,0 0,0 0,0 0,0 0,0 0,0 1,0 1,0 1,-1 1,0 1,0 1,-1 0,0 1,0 1,0 0,-1 0,-1 0,-1 0,0 1,0 1,0 0,0 0,-1 0,-1 0,0 1,0 1,0 0,-1 1,-2 2,-2 0,-1 1,-1 2,-2 0,0 1,-1 1,-1 1,0 2,-1 2,-1 0,0 0,0 0,0 0,0 1,0 1,-1 0,0 0,0 0,0 0,0 1,0 1,0 0,-1 1,-1 1,-1 1,0 1,0 1,0 1,0 1,0 2,0 0,0 0,0 0,0 0,0 0,0 0,0 0,0 0,0 0,0 0,0 1,0 1,1 0,0 0,0 0,0 0,0 0,0 1,0 -1,1 -1,1 -1,1 1,0 1,0 1,0 0,0 0,0 0,0 0,0 0,0 0,0 0,1 0,1 0,1 1,0 1,0 1,0 0,1 0,1 0,1 0,0 0,0 0,0 0,0 0,1 0,1 0,0 0,0 0,0 0,0 0,0 0,0 0,1 0,1 0,1 0,0 0,0 0,0 0,1 0,1 0,1 0,0 0,0 0,0 0,0 -1,1 -1,1 0,1 0,2 -1,2 0,0 0,0 0,0 0,0 0,0 0,0 0,1 0,1 -1,1 0,0 0,1 0,1 0,0 0,0 0,0 -1,0 -1,0 -1,0 0,1 0,1 0,1 0,0 0,0 0,0 -1,0 -1,1 -1,1 0,0 -1,0 -1,0 -1,1 -1,2 -2,2 -1,1 -1,1 -2,2 0,0 0,0 -1,0 0,0 0,1 0,1 0,0 -1,0 -1,0 0,0 0,1 0,1 -1,0 -1,0 -1,0 0,0 0,0 0,0 0,0 -1,1 -1,1 -1,0 -1,1 -2,1 0,0 0,0 0,0 0,0 0,0 0,0 -1,0 -1,0 -1,0 0,0 0,1 0,1 -1,0 -1,0 -1,0 -1,0 -1,0 -1,0 0,0 0,0 0,0 0,0 0,1 0,1 -1,0 -1,0 -1,0 0,0 -1,0 -1,-1 0,0 0,0 0,1 0,0 0,0 0,0 -1,0 -1,0 -1,1 -1,0 -1,1 -1,2 0,0 0,0 0,0 0,0 0,0 0,0 0,0 -1,0 -1,0 0,0 0,0 0,1 0,0 0,0 0,0 0,1 0,1 -1,1 1,0 1,0 2,0 0,0 1,-1 1,-1 1,0 1,0 1,0 0,0 0,0 0,0 0,0 0,0 1,-1 0,0 0,0 0,0 0,0 0,0 0,0 1,0 1,0 1,-1 0,0 1,0 1,0 0,0 1,-1 1,-1 1,0 1,-1 2,-1 0,0 0,0 1,0 0,-1 0,-1 1,-1 0,0 0,-1 1,-1 0,0 0,0 0,0 1,0 1,0 1,0 0,0 0,0 0,0l0 0c0,-1 0,-1 1,-1 0,0 0,0 1,-1 0,0 1,0 1,-1l0 0c0,0 0,0 0,0 0,0 0,0 0,0 0,0 0,0 0,0 1,0 1,0 1,0 0,0 1,-1 2,-1 0,-1 1,-1 2,-2 0,0 0,0 0,0 0,0 0,0 0,0 1,0 1,0 1,-1 1,0 1,0 1,0 1,0 1,-1 1,-1 0,0 1,0 1,0 0,0 1,0 1,-1 0,0 1,0 1,-1 0,0 0,0 1,0 0,0 0,0 0,0 0,0 0,0 0,0 0,0 0,0 0,1 0,0 -1,0 -1,0 0,0 0,0 0,0 -1,0 -1,0 -1,0 0,1 0,1 0,1zm-17 2c0,-1 0,-1 0,-1 0,1 1,0 1,0 0,0 0,1 0,1 0,0 0,-1 0,-1 0,0 0,0 0,0 0,0 0,0 0,0 0,0 0,0 0,0 0,0 1,0 1,0 0,0 0,0 0,-1 0,0 0,0 1,0 0,0 0,-1 0,-1 0,0 1,0 1,0 0,0 0,0 1,-1 0,0 1,-1 1,-1 0,0 1,-1 1,-1 0,-1 0,-1 0,-1 0,0 0,0 0,0 0,0 0,0 0,0 -1,0 -1,0 -1,0 0,0 0,0 0,0 0,1 0,1 -1,1 0,0 0,1 0,1 -1,0 -1,0 -1,0 0,1 -1,1 -1,1 0,0 0,0 0,0 0,1 0,1 -1,1 0,0 0,0 0,0 0,0 0,0 0,0 0,0 0,0 0,0 0,0 0,0 0,0 -1,0 -1,0 -1,1 0,0 0,0 0,0 0,0 0,0 0,0 0,0 0,0 0,0 0,0 -1,0 -1,1 0,0 0,0 -1,1l0 0 0 0c0,0 0,0 0,0 0,0 1,0 1,0z"/>
    </g>
    <path class="fil3" d="M79 58c0,0 0,0 0,0 0,0 0,0 0,0 0,0 0,0 0,0 -1,0 -1,0 -1,0 0,-1 0,-1 0,-1 0,0 0,0 0,0 0,0 0,0 0,0 0,0 0,0 0,0 0,-1 0,-1 0,-2 -1,0 -1,-1 0,-1 0,0 0,-1 0,-1 0,0 0,-1 0,-1 0,-1 0,-1 0,-2 0,0 0,0 0,-1 0,0 0,0 0,0l0 0c1,-1 1,-1 1,-2 0,0 0,-1 0,-1 0,0 0,0 0,0 0,0 0,0 0,0 0,-1 1,-1 1,-2 0,0 0,-1 0,-1 0,0 0,0 0,0 0,0 0,0 -1,0 0,0 0,0 0,0 -1,0 -1,1 -1,1 0,0 -1,0 -1,0 0,0 -1,0 -1,0 0,-1 0,-1 0,-1 0,0 0,0 0,0 0,0 0,0 0,0 0,0 0,0 0,0 0,0 0,0 0,0 -1,0 -1,0 -1,-1 0,1 0,1 0,1 0,0 0,0 0,0 0,-1 0,-1 0,-1 0,0 0,0 0,0 0,0 0,0 0,0 0,0 0,0 0,0 0,0 -1,0 -1,0 0,0 0,0 0,0 0,0 0,0 0,0 0,0 0,0 0,0 0,0 0,0 0,0 0,0 0,0 0,0 0,-1 0,-1 0,0 0,-1 0,-1 0,-1 0,0 0,0 0,0 0,0 1,0 1,0 0,0 0,0 0,0 0,0 1,0 1,0 0,-1 0,-1 0,-1 0,0 0,0 0,0 0,0 0,0 0,0 0,0 1,0 1,0 0,0 1,-1 1,-1 0,0 0,0 1,0 0,0 0,0 0,0 0,-1 1,-1 1,-1 0,0 0,0 0,0 1,0 1,-1 1,-1 1,0 1,0 1,0 0,-1 1,-1 1,-2 0,0 0,-1 0,-1 0,-1 0,-1 0,-1 1,0 1,0 1,0 0,0 0,-1 0,-1 0,-1 1,-1 1,-1 0,-1 0,-1 0,-1 0,0 0,0 0,0 0,0 0,0 0,-1 0,0 0,0 1,0 0,0 0,0 0,-1 0,0 0,0 0,0 0,0 0,0 0,0 0,0 0,0 0,0 0,0 0,0 0,0 0,0 0,0 0,-1 0,0 0,0 0,0 0,0 0,0 0,0 1,0 1,0 1,0 0,0 0,-1 0,-1 0,0 0,0 0,0 0,0 0,-1 0,-1 0,0 0,0 0,0 0,0 1,-1 1,-1 0,0 0,0 0,0 0,0 0,-1 0,-1 0,0 0,0 0,0 1,-1 1,-1 1,-2 0,0 0,-1 0,-1 1,0 1,0 1,-1 0,0 0,0 0,0 0,0 0,0 0,0l0 0c0,-1 0,-1 1,-1 0,0 0,0 0,0 0,-1 0,-1 0,-1 0,0 0,0 0,0 0,0 0,1 0,1 0,0 0,0 0,0 1,0 1,0 1,0 0,-1 0,-1 0,-1 0,0 0,0 0,0 0,0 0,0 0,0 0,0 0,0 0,0 0,0 0,0 0,0 0,0 0,0 1,0 0,0 0,0 0,0 0,0 0,0 0,0 0,0 0,0 0,0 0,0 0,0 0,0 0,0 0,0 0,0 0,0 0,0 0,0 1,0 1,0 1,0 0,0 1,0 1,0 0,0 0,0 0,0 1,0 1,1 1,1 0,0 0,0 0,0 0,1 0,1 0,1 0,0 0,0 0,0 0,0 0,0 0,0 0,1 0,1 0,1 0,0 0,1 0,1 0,1 -1,1 -1,2 0,0 0,0 0,1 0,0 0,0 0,0 0,0 -1,1 -1,1 0,0 0,0 0,1 0,0 0,0 -1,1 0,0 0,0 0,0 0,1 0,1 0,1 0,0 0,0 0,0 0,0 0,0 0,0 -1,1 -1,2 -1,2 -1,1 -1,2 -1,2 0,1 0,1 0,1 -1,0 -1,0 -1,0 1,0 1,0 2,0 0,0 0,0 0,-1 1,0 1,0 1,0 0,0 0,0 0,0 1,0 2,0 3,-1 1,0 2,0 3,-1 0,0 0,1 0,1 0,0 0,0 0,0 0,0 0,0 0,0 0,0 0,0 0,0 1,0 0,0 0,0 0,0 0,0 0,1 0,0 0,0 0,0 0,0 0,0 0,0 0,0 0,0 0,0 0,0 0,0 0,0 0,0 0,0 0,0 0,0 0,1 -1,1 0,0 0,0 0,0 0,0 0,0 0,0 -1,0 -1,0 -1,0 0,0 0,0 0,0 0,1 0,1 0,1 0,0 0,0 0,0 0,0 0,0 0,-1 0,0 0,0 1,0 0,0 -1,0 -1,1 0,0 0,0 0,0 0,0 0,0 0,0 1,0 1,0 1,0 0,0 0,0 0,0 0,0 0,0 0,0 -1,0 -1,0 -1,0 0,0 0,1 -1,1 0,0 0,0 0,0 0,0 -1,0 -1,0 0,0 0,0 0,1 0,0 -1,0 -1,0 0,0 0,0 0,0 0,0 0,0 0,0 0,0 -1,1 -1,1 0,0 -1,0 -1,0 0,0 0,0 0,0 0,0 0,0 0,0 -1,1 -2,1 -2,1 -1,1 -2,1 -2,1 -1,1 -1,1 -1,1 0,1 0,1 0,1 0,1 -1,1 -1,1 0,0 0,1 0,1 0,0 0,1 0,1 -1,0 -1,1 -1,1 0,1 0,1 -1,2 0,0 0,1 0,1 0,1 0,1 0,1 0,1 0,1 -1,2 0,0 0,1 0,1 0,1 0,2 0,2 -1,1 -1,1 -1,1 0,0 0,1 0,1 0,0 0,0 0,0 0,0 0,0 0,0 0,0 0,0 0,0 0,1 -1,2 -1,2 0,0 0,0 0,0 0,1 0,1 0,1 0,0 0,0 0,0 0,0 0,0 0,0 0,0 0,0 0,0 -1,0 -1,0 0,0 -1,0 -1,0 -1,0 0,0 0,0 0,0 0,0 0,0 0,0 0,0 0,0 0,0 0,0 0,0 0,0 0,0 0,0 0,0 0,0 0,0 0,0 0,0 0,0 0,0 0,0 -1,0 -1,0 0,0 0,0 0,-1l0 0c0,0 0,0 0,0 0,0 0,0 0,0 0,0 0,0 0,0zm-4 -16c0,0 0,0 0,0 0,0 0,0 0,0zm1 1c0,0 0,0 0,0 0,0 0,0 0,0zm1 1c0,-1 0,-1 0,-1 0,0 0,0 0,1 0,0 0,0 0,0 0,0 0,0 0,0zm19 -4c1,0 1,0 1,0 0,-1 0,-1 0,-1 0,0 0,0 0,-1 1,0 1,0 1,0 0,0 0,-1 1,-2 0,0 1,-1 1,-1 0,-1 1,-1 1,-2 0,-1 1,-1 1,-2 0,0 0,0 0,0 0,0 0,0 0,0 0,0 0,0 0,0 0,0 0,0 0,0l0 0c1,-1 1,-1 2,-2 0,0 1,0 1,-1 0,0 0,1 0,1 1,0 1,-1 2,-1 0,1 1,1 1,1l0 0c0,0 0,0 0,0 0,0 0,0 0,0 1,0 1,0 1,0 1,0 1,0 1,0l0 0c1,0 1,0 1,0 0,0 1,0 1,0 0,0 0,0 0,0 0,0 0,0 1,0 0,0 0,0 0,0 0,0 0,0 0,1 0,0 1,0 1,0 0,0 1,1 1,1 0,0 0,0 0,0 1,0 1,1 2,1 0,1 1,2 1,2 0,1 0,1 0,1 -1,0 -1,0 -1,0l0 0c0,1 0,2 0,3 0,0 -1,1 -1,2 0,0 -1,0 -1,0 0,0 0,1 0,1l0 0c0,0 0,0 -1,0 0,1 -1,1 -1,2 0,0 -1,0 -1,1 0,0 0,0 0,0 0,0 0,1 -1,1 0,0 0,1 -1,1 0,0 0,1 -1,1 0,0 -1,0 -1,1 -1,0 -1,1 -2,2 -1,0 -2,1 -2,1 0,0 0,0 0,0 0,0 0,0 -1,0 0,0 0,0 0,0 0,0 0,0 0,0 0,0 0,0 0,0 0,0 -1,1 -2,1 0,0 -1,0 -1,0 -1,0 -1,0 -1,0l0 0c-1,0 -1,0 -1,0 0,0 -1,0 -1,0 0,-1 0,-1 0,-1 -1,0 -1,0 -1,0 0,-1 0,-1 0,-1 -1,0 -1,-1 -1,-1l0 0c0,0 0,-1 0,-1 0,0 0,0 0,0 0,0 0,0 0,-1 0,0 0,0 0,0l0 -1 0 0c0,0 0,-1 0,-1 0,0 0,0 0,0 0,-1 0,-1 0,-1l0 0c0,-1 0,-1 1,-2 0,-1 0,-1 0,-2 0,0 0,0 0,0 0,0 0,0 0,0l0 0zm7 4c0,0 1,-1 1,-1 0,0 1,0 1,-1 0,0 0,0 0,0 0,0 0,0 0,0 0,0 1,0 1,0l0 0c0,0 0,-1 0,-1 1,0 1,-1 2,-1 0,-1 1,-1 1,-1 0,-1 1,-1 1,-1 0,0 0,-1 0,-1 0,0 0,0 1,0 0,-1 0,-1 0,-1 0,0 0,-1 0,-1 0,0 0,-1 0,-1 0,0 0,0 0,0 -1,0 -1,-1 -1,-1 0,0 -1,0 -1,0 0,1 -1,2 -2,2 0,1 -1,2 -2,4 0,0 -1,1 -2,2 0,1 0,2 -1,3l0 0c0,0 1,0 1,0 0,0 0,0 0,0z"/>
   </g>
   <path class="fil0" d="M9 117c-3,-2 -5,-3 -6,-2 1,2 2,4 2,6 -1,4 3,3 2,0 0,-3 1,-4 2,-4z"/>
   <path class="fil0" d="M15 117c-2,-1 -4,0 -6,1 1,0 2,1 1,4 -2,6 4,5 2,0 0,-3 1,-4 3,-5z"/>
   <path class="fil0" d="M50 110c-3,0 -4,1 -5,2 2,-1 3,0 2,3 -2,4 -1,6 1,6 1,0 1,-2 1,-5 -1,-4 0,-6 1,-6z"/>
   <path class="fil0" d="M73 96c-3,0 -6,1 -8,3 3,-1 5,2 4,7 -2,6 -2,9 0,9 2,1 3,-1 3,-4 -1,-8 -1,-13 1,-15z"/>
   <path class="fil0" d="M134 67c-3,0 -6,1 -7,3 2,8 -1,14 -1,22 1,6 7,2 4,-12 -1,-8 1,-13 4,-13z"/>
   <path class="fil0" d="M113 89c-7,3 -13,6 -16,9 2,2 3,3 3,3 0,2 1,2 2,0 0,-1 0,-2 1,-2 1,1 1,3 1,6 -1,3 -1,5 1,5 2,0 2,-2 1,-5 -1,-4 -1,-7 1,-8 1,0 2,1 2,2 -2,4 -1,6 1,6 2,0 3,-2 1,-7 0,-4 0,-7 2,-9z"/>
   <path class="fil0" d="M123 39c0,0 1,-1 1,-1 2,3 2,8 0,9 -1,1 -1,0 -1,-2 0,-4 0,-5 0,-6z"/>
   <path class="fil0" d="M8 67c6,3 8,6 7,7 1,3 0,6 -2,4 1,-3 0,-4 -1,-5 -2,2 2,9 -2,10 -1,0 -2,-2 -1,-7 1,-4 0,-7 -1,-9z"/>
   <path class="fil0" d="M4 75c1,1 3,2 2,2 0,1 -1,2 -3,1 -1,0 -3,-1 -2,-2 0,-1 1,-1 3,-1z"/>
   <path class="fil0" d="M6 84c-1,0 -2,1 -2,1 0,1 1,2 3,1 1,0 2,-1 2,-1 -1,-1 -2,-1 -3,-1z"/>
   <path class="fil0" d="M1 81c-1,1 -1,1 -1,1 0,1 1,1 1,1 1,0 2,-1 2,-1 0,0 -1,-1 -2,-1z"/>
   <path class="fil0" d="M64 6c0,0 0,1 -1,2 0,1 -1,1 -2,1 -1,0 0,-2 0,-2 1,-1 2,-2 3,-1z"/>
   <path class="fil0" d="M63 10c1,0 1,1 0,1 0,1 -1,1 -1,1 0,0 0,-1 0,-1 1,-1 1,-1 1,-1z"/>
   <path class="fil0" d="M112 20c1,1 1,2 0,3 -1,1 -2,2 -3,1 -1,-1 -1,-2 0,-3 1,-1 2,-1 3,-1z"/>
   <path class="fil0" d="M116 22c0,0 0,1 -1,1 0,1 -1,1 -1,1 -1,0 -1,-1 0,-2 0,-1 1,-1 2,0z"/>
   <path class="fil0" d="M137 69c1,0 2,0 2,1 0,1 0,2 0,2 -1,0 -2,0 -2,-1 -1,-1 0,-1 0,-2z"/>
   <path class="fil0" d="M137 67c0,0 0,0 1,0 0,0 0,1 -1,1 0,0 0,0 0,-1 0,0 0,0 0,0z"/>
   <path class="fil0" d="M53 120c0,0 1,0 2,1 0,0 0,1 -1,2 0,0 -1,0 -2,-1 0,-1 0,-2 1,-2z"/>
   <path class="fil0" d="M50 119c0,0 1,0 1,0 0,1 0,1 0,2 0,0 -1,0 -1,-1 -1,0 -1,-1 0,-1z"/>
   <path class="fil0" d="M29 108c5,3 7,4 6,6 0,1 0,2 0,3 -1,1 -1,1 -2,0 0,-2 0,-3 -1,-4 0,0 0,2 0,4 1,3 0,4 -1,4 -1,0 -2,-2 0,-6 0,-3 -1,-5 -2,-7z"/>
   <path class="fil3" d="M111 42c-7,2 -11,5 -15,8 2,1 3,2 3,3 0,1 1,1 2,0 0,-1 0,-2 1,-2 1,1 1,3 1,5 -2,3 -1,5 1,5 2,0 2,-2 1,-4 -1,-5 -1,-7 0,-8 2,0 2,1 2,2 -1,4 -1,6 1,6 2,-1 3,-3 1,-7 0,-4 1,-7 2,-8z"/>
   <path class="fil3" d="M82 55c-4,2 -5,3 -4,4 -1,2 0,4 1,2 -1,-1 0,-2 1,-3 1,2 -2,6 0,7 2,0 2,-2 1,-5 0,-2 0,-4 1,-5z"/>
   <path class="fil4" d="M36 46c-2,1 -3,2 -3,3 1,1 2,1 4,1 2,0 3,-1 3,-2 0,-1 -2,-2 -4,-2z"/>
   <path class="fil4" d="M34 56c1,0 2,1 2,2 0,1 -1,1 -3,1 -1,0 -2,-1 -2,-2 0,-1 1,-1 3,-1z"/>
   <path class="fil4" d="M39 53c1,1 2,1 2,2 -1,0 -1,0 -2,0 -1,0 -2,-1 -1,-1 0,0 0,-1 1,-1z"/>
   <path class="fil2" d="M91 76c-2,1 -3,2 -3,3 0,1 2,1 4,1 2,0 3,-1 3,-2 0,-1 -2,-2 -4,-2z"/>
   <path class="fil2" d="M89 86c1,0 2,1 2,2 0,1 -2,1 -3,1 -1,0 -2,-1 -2,-2 0,-1 1,-1 3,-1z"/>
   <path class="fil2" d="M94 83c1,1 1,1 1,2 0,0 0,0 -1,0 -1,0 -2,-1 -2,-1 0,0 1,-1 2,-1z"/>
  </g>
 </g>
</svg>
