<?xml version="1.0" encoding="UTF-8"?>
<svg xmlns="http://www.w3.org/2000/svg" xmlns:xlink="http://www.w3.org/1999/xlink" width="50pt" height="50pt" viewBox="0 0 50 50" version="1.1">
<g id="surface1">
<path style=" stroke:none;fill-rule:nonzero;fill:rgb(95.686275%,83.921569%,27.843137%);fill-opacity:1;" d="M 45.316406 25.640625 C 45.316406 33.765625 35.679688 38.796875 25 38.796875 C 14.320312 38.796875 4.683594 33.765625 4.683594 25.640625 C 4.683594 17.515625 14.320312 7.78125 25 7.78125 C 35.679688 7.78125 45.316406 17.515625 45.316406 25.640625 Z M 45.316406 25.640625 "/>
<path style=" stroke:none;fill-rule:nonzero;fill:rgb(88.627451%,72.54902%,5.490196%);fill-opacity:1;" d="M 45.316406 25.640625 C 45.316406 33.765625 35.679688 38.273438 25 38.273438 C 14.320312 38.273438 4.683594 33.765625 4.683594 25.640625 C 4.683594 17.515625 14.320312 11.917969 25 11.917969 C 35.679688 11.917969 45.316406 17.515625 45.316406 25.640625 Z M 45.316406 25.640625 "/>
<path style=" stroke:none;fill-rule:nonzero;fill:rgb(88.627451%,72.54902%,5.490196%);fill-opacity:1;" d="M 29.117188 36.835938 C 29.117188 37.382812 27.273438 37.480469 25 37.480469 C 22.726562 37.480469 20.882812 37.382812 20.882812 36.835938 C 20.882812 36.289062 22.726562 34.859375 25 34.859375 C 27.273438 34.859375 29.117188 36.289062 29.117188 36.835938 Z M 29.117188 36.835938 "/>
<path style=" stroke:none;fill-rule:nonzero;fill:rgb(87.843137%,62.745098%,6.27451%);fill-opacity:1;" d="M 45.316406 25.640625 C 45.316406 17.515625 41.875 32.847656 25 32.847656 C 8.125 32.847656 4.683594 17.515625 4.683594 25.640625 C 4.683594 30.351562 8.523438 33.691406 12.671875 37.203125 L 21.222656 44.855469 C 23.308594 46.652344 26.691406 46.652344 28.777344 44.855469 L 37.328125 37.203125 C 41.476562 33.234375 45.316406 30.332031 45.316406 25.640625 Z M 45.316406 25.640625 "/>
<path style=" stroke:none;fill-rule:nonzero;fill:rgb(95.686275%,92.54902%,55.686275%);fill-opacity:1;" d="M 32.648438 41.390625 C 30.789062 39.257812 28.054688 37.90625 25 37.90625 C 21.945312 37.90625 19.210938 39.257812 17.351562 41.390625 L 21.222656 44.855469 C 23.308594 46.652344 26.691406 46.652344 28.777344 44.855469 Z M 32.648438 41.390625 "/>
<path style=" stroke:none;fill-rule:nonzero;fill:rgb(20%,21.176471%,22.745098%);fill-opacity:1;" d="M 45.90625 25.640625 C 45.90625 17.335938 36.257812 7.191406 25 7.191406 C 13.742188 7.191406 4.09375 17.335938 4.09375 25.640625 C 4.09375 28.683594 5.316406 30.914062 7.496094 32.777344 C 7.5 32.78125 7.5 32.789062 7.507812 32.792969 L 20.808594 45.894531 C 20.816406 45.902344 20.828125 45.914062 20.835938 45.921875 C 21.984375 46.910156 23.492188 47.402344 25 47.402344 C 26.507812 47.402344 28.015625 46.910156 29.164062 45.921875 C 29.171875 45.910156 29.183594 45.902344 29.191406 45.894531 L 42.425781 32.847656 C 44.65625 30.96875 45.90625 28.722656 45.90625 25.640625 Z M 28.378906 45.039062 C 26.511719 46.636719 23.488281 46.636719 21.621094 45.039062 L 18.039062 41.511719 C 19.84375 39.589844 22.359375 38.496094 25 38.496094 C 27.640625 38.496094 30.152344 39.589844 31.957031 41.511719 Z M 32.796875 40.683594 C 30.773438 38.539062 27.957031 37.316406 25 37.316406 C 22.042969 37.316406 19.226562 38.539062 17.199219 40.6875 L 12.152344 35.71875 C 12.875 36.078125 13.636719 36.429688 14.4375 36.785156 C 14.738281 36.914062 15.085938 36.78125 15.214844 36.480469 C 15.347656 36.183594 15.210938 35.835938 14.914062 35.707031 C 8.960938 33.078125 5.273438 30.480469 5.273438 25.640625 C 5.273438 18.027344 14.5625 8.371094 25 8.371094 C 35.4375 8.371094 44.726562 18.027344 44.726562 25.640625 C 44.726562 27.792969 43.996094 29.496094 42.664062 30.960938 C 42.660156 30.96875 42.652344 30.96875 42.648438 30.972656 L 41.871094 31.742188 C 40.214844 33.21875 37.910156 34.460938 35.085938 35.707031 C 34.789062 35.835938 34.652344 36.183594 34.785156 36.484375 C 34.882812 36.703125 35.097656 36.835938 35.324219 36.835938 C 35.402344 36.835938 35.484375 36.816406 35.5625 36.785156 C 36.355469 36.433594 37.109375 36.085938 37.824219 35.726562 Z M 32.796875 40.683594 "/>
<path style=" stroke:none;fill-rule:nonzero;fill:rgb(88.627451%,72.54902%,5.490196%);fill-opacity:1;" d="M 3.945312 3.1875 C 0.949219 6.210938 -0.257812 10.601562 1.230469 14.613281 C 2.71875 18.625 6.496094 21.167969 10.738281 21.511719 C 13.734375 18.480469 16.585938 15.929688 15.097656 11.917969 C 13.613281 7.90625 8.191406 3.527344 3.945312 3.1875 Z M 3.945312 3.1875 "/>
<path style=" stroke:none;fill-rule:nonzero;fill:rgb(95.686275%,92.54902%,55.686275%);fill-opacity:1;" d="M 3.945312 3.1875 C 0.949219 6.210938 -0.257812 10.601562 1.230469 14.613281 C 2.71875 18.625 6.496094 21.167969 10.738281 21.511719 C 13.734375 18.480469 8.183594 19.152344 6.695312 15.140625 C 5.210938 11.128906 8.191406 3.527344 3.945312 3.1875 Z M 3.945312 3.1875 "/>
<path style=" stroke:none;fill-rule:nonzero;fill:rgb(85.882353%,82.352941%,47.45098%);fill-opacity:1;" d="M 6.695312 15.140625 C 5.480469 11.859375 7.253906 6.175781 5.613281 4.03125 C 3.179688 6.996094 2.292969 10.960938 3.648438 14.613281 C 4.886719 17.949219 7.710938 20.265625 11.070312 21.148438 C 13.269531 18.53125 8.121094 18.984375 6.695312 15.140625 Z M 6.695312 15.140625 "/>
<path style=" stroke:none;fill-rule:nonzero;fill:rgb(20%,21.176471%,22.745098%);fill-opacity:1;" d="M 10.738281 22.101562 C 10.589844 22.101562 10.441406 22.042969 10.324219 21.929688 C 10.09375 21.699219 10.09375 21.328125 10.320312 21.097656 C 10.996094 20.414062 11.035156 20.101562 11.023438 20 C 10.984375 19.710938 10.34375 19.339844 9.722656 18.980469 C 8.523438 18.292969 6.886719 17.347656 6.144531 15.347656 C 5.53125 13.691406 5.621094 11.570312 5.710938 9.515625 C 5.855469 6.058594 5.847656 3.929688 3.898438 3.773438 C 3.574219 3.746094 3.332031 3.464844 3.359375 3.140625 C 3.382812 2.8125 3.664062 2.578125 3.992188 2.597656 C 7.171875 2.855469 7.027344 6.265625 6.886719 9.566406 C 6.804688 11.503906 6.71875 13.503906 7.25 14.9375 C 7.84375 16.539062 9.210938 17.328125 10.3125 17.960938 C 11.257812 18.507812 12.074219 18.976562 12.191406 19.839844 C 12.273438 20.464844 11.945312 21.128906 11.160156 21.925781 C 11.042969 22.042969 10.890625 22.101562 10.738281 22.101562 Z M 10.738281 22.101562 "/>
<path style=" stroke:none;fill-rule:nonzero;fill:rgb(20%,21.176471%,22.745098%);fill-opacity:1;" d="M 10.742188 22.101562 C 10.726562 22.101562 10.710938 22.097656 10.691406 22.097656 C 6.039062 21.722656 2.203125 18.933594 0.679688 14.816406 C -0.847656 10.703125 0.242188 6.089844 3.527344 2.773438 C 3.648438 2.648438 3.816406 2.585938 3.992188 2.597656 C 8.453125 2.957031 14.675781 8.757812 16.246094 12.988281 C 16.359375 13.292969 16.203125 13.632812 15.898438 13.746094 C 15.59375 13.859375 15.253906 13.703125 15.140625 13.398438 C 13.746094 9.644531 8.15625 4.339844 4.167969 3.800781 C 1.363281 6.773438 0.449219 10.8125 1.785156 14.40625 C 3.148438 18.085938 6.597656 20.585938 10.789062 20.921875 C 11.113281 20.949219 11.355469 21.234375 11.328125 21.558594 C 11.304688 21.867188 11.046875 22.101562 10.742188 22.101562 Z M 10.742188 22.101562 "/>
<path style=" stroke:none;fill-rule:nonzero;fill:rgb(20%,21.176471%,22.745098%);fill-opacity:1;" d="M 8.523438 25.113281 C 8.390625 25.113281 8.253906 25.066406 8.144531 24.972656 C 7.894531 24.765625 7.863281 24.394531 8.070312 24.144531 C 9.34375 22.632812 10.796875 20.757812 10.929688 20.367188 C 10.980469 20.046875 11.277344 19.839844 11.601562 19.898438 C 11.921875 19.949219 12.136719 20.269531 12.085938 20.589844 C 11.984375 21.21875 10.335938 23.28125 8.972656 24.902344 C 8.859375 25.039062 8.691406 25.113281 8.523438 25.113281 Z M 8.523438 25.113281 "/>
<path style=" stroke:none;fill-rule:nonzero;fill:rgb(88.627451%,72.54902%,5.490196%);fill-opacity:1;" d="M 46.054688 3.1875 C 49.050781 6.210938 50.257812 10.601562 48.769531 14.613281 C 47.28125 18.625 43.503906 21.167969 39.257812 21.511719 C 36.265625 18.480469 33.414062 15.929688 34.898438 11.917969 C 36.386719 7.90625 41.808594 3.527344 46.054688 3.1875 Z M 46.054688 3.1875 "/>
<path style=" stroke:none;fill-rule:nonzero;fill:rgb(95.686275%,92.54902%,55.686275%);fill-opacity:1;" d="M 46.054688 3.1875 C 49.050781 6.210938 50.257812 10.601562 48.769531 14.613281 C 47.28125 18.625 43.503906 21.167969 39.257812 21.511719 C 36.265625 18.480469 41.816406 19.152344 43.304688 15.140625 C 44.789062 11.128906 41.808594 3.527344 46.054688 3.1875 Z M 46.054688 3.1875 "/>
<path style=" stroke:none;fill-rule:nonzero;fill:rgb(85.882353%,82.352941%,47.45098%);fill-opacity:1;" d="M 43.304688 15.140625 C 44.519531 11.859375 42.746094 6.175781 44.386719 4.03125 C 46.820312 6.996094 47.707031 10.960938 46.347656 14.613281 C 45.113281 17.953125 42.289062 20.265625 38.929688 21.148438 C 36.730469 18.53125 41.878906 18.984375 43.304688 15.140625 Z M 43.304688 15.140625 "/>
<path style=" stroke:none;fill-rule:nonzero;fill:rgb(20%,21.176471%,22.745098%);fill-opacity:1;" d="M 39.257812 22.101562 C 39.105469 22.101562 38.957031 22.042969 38.839844 21.925781 C 38.054688 21.128906 37.726562 20.464844 37.808594 19.839844 C 37.925781 18.976562 38.742188 18.507812 39.691406 17.960938 C 40.789062 17.328125 42.15625 16.539062 42.75 14.9375 C 43.28125 13.507812 43.195312 11.503906 43.113281 9.570312 C 42.972656 6.269531 42.828125 2.855469 46.007812 2.597656 C 46.335938 2.578125 46.617188 2.816406 46.640625 3.140625 C 46.667969 3.464844 46.425781 3.746094 46.101562 3.773438 C 44.152344 3.929688 44.144531 6.058594 44.289062 9.519531 C 44.378906 11.570312 44.46875 13.695312 43.855469 15.347656 C 43.113281 17.347656 41.476562 18.292969 40.277344 18.980469 C 39.65625 19.339844 39.015625 19.710938 38.976562 20 C 38.964844 20.101562 39.003906 20.414062 39.679688 21.097656 C 39.90625 21.328125 39.90625 21.699219 39.675781 21.929688 C 39.558594 22.042969 39.410156 22.101562 39.257812 22.101562 Z M 39.257812 22.101562 "/>
<path style=" stroke:none;fill-rule:nonzero;fill:rgb(20%,21.176471%,22.745098%);fill-opacity:1;" d="M 39.257812 22.101562 C 38.953125 22.101562 38.695312 21.867188 38.671875 21.558594 C 38.644531 21.234375 38.886719 20.949219 39.210938 20.921875 C 43.402344 20.585938 46.851562 18.089844 48.214844 14.410156 C 49.550781 10.8125 48.636719 6.773438 45.832031 3.804688 C 41.84375 4.339844 36.253906 9.644531 34.859375 13.398438 C 34.746094 13.703125 34.40625 13.859375 34.101562 13.746094 C 33.796875 13.632812 33.640625 13.296875 33.753906 12.992188 C 35.324219 8.757812 41.546875 2.957031 46.007812 2.597656 C 46.183594 2.585938 46.351562 2.648438 46.472656 2.773438 C 49.757812 6.089844 50.847656 10.703125 49.320312 14.816406 C 47.796875 18.933594 43.960938 21.722656 39.308594 22.097656 C 39.289062 22.097656 39.273438 22.101562 39.257812 22.101562 Z M 39.257812 22.101562 "/>
<path style=" stroke:none;fill-rule:nonzero;fill:rgb(20%,21.176471%,22.745098%);fill-opacity:1;" d="M 41.476562 25.113281 C 41.308594 25.113281 41.140625 25.039062 41.027344 24.902344 C 39.660156 23.28125 38.015625 21.214844 37.914062 20.589844 C 37.863281 20.269531 38.082031 19.964844 38.402344 19.914062 C 38.722656 19.863281 39.027344 20.082031 39.078125 20.402344 C 39.203125 20.757812 40.65625 22.632812 41.929688 24.144531 C 42.136719 24.394531 42.105469 24.765625 41.855469 24.972656 C 41.746094 25.066406 41.609375 25.113281 41.476562 25.113281 Z M 41.476562 25.113281 "/>
<path style=" stroke:none;fill-rule:nonzero;fill:rgb(20%,21.176471%,22.745098%);fill-opacity:1;" d="M 21.136719 36.757812 C 20.902344 36.757812 20.679688 36.617188 20.585938 36.386719 C 20.578125 36.363281 19.691406 34.125 19.429688 33.503906 C 18.777344 32.972656 14.144531 30.488281 10.972656 28.847656 C 10.683594 28.699219 10.570312 28.34375 10.71875 28.054688 C 10.871094 27.765625 11.226562 27.652344 11.515625 27.800781 C 20.175781 32.277344 20.375 32.722656 20.46875 32.9375 C 20.679688 33.417969 21.640625 35.851562 21.683594 35.953125 C 21.804688 36.257812 21.65625 36.597656 21.351562 36.71875 C 21.28125 36.746094 21.207031 36.757812 21.136719 36.757812 Z M 21.136719 36.757812 "/>
<path style=" stroke:none;fill-rule:nonzero;fill:rgb(20%,21.176471%,22.745098%);fill-opacity:1;" d="M 28.863281 36.757812 C 28.792969 36.757812 28.71875 36.746094 28.648438 36.71875 C 28.347656 36.597656 28.199219 36.257812 28.316406 35.953125 C 28.359375 35.851562 29.320312 33.414062 29.53125 32.9375 C 29.625 32.726562 29.824219 32.28125 38.484375 27.800781 C 38.773438 27.652344 39.128906 27.765625 39.277344 28.054688 C 39.429688 28.34375 39.316406 28.699219 39.027344 28.847656 C 35.851562 30.488281 31.222656 32.972656 30.570312 33.503906 C 30.308594 34.125 29.421875 36.363281 29.414062 36.386719 C 29.320312 36.617188 29.097656 36.757812 28.863281 36.757812 Z M 28.863281 36.757812 "/>
<path style=" stroke:none;fill-rule:nonzero;fill:rgb(20%,21.176471%,22.745098%);fill-opacity:1;" d="M 23.886719 44.21875 C 23.644531 44.21875 23.414062 44.066406 23.332031 43.824219 L 22.964844 42.792969 C 22.859375 42.484375 23.019531 42.148438 23.328125 42.039062 C 23.632812 41.933594 23.96875 42.09375 24.078125 42.398438 L 24.441406 43.429688 C 24.550781 43.738281 24.390625 44.074219 24.082031 44.183594 C 24.015625 44.207031 23.953125 44.21875 23.886719 44.21875 Z M 23.886719 44.21875 "/>
<path style=" stroke:none;fill-rule:nonzero;fill:rgb(20%,21.176471%,22.745098%);fill-opacity:1;" d="M 26.113281 44.21875 C 26.046875 44.21875 25.980469 44.207031 25.917969 44.183594 C 25.609375 44.074219 25.449219 43.738281 25.558594 43.429688 L 25.921875 42.398438 C 26.03125 42.09375 26.367188 41.933594 26.671875 42.039062 C 26.980469 42.148438 27.140625 42.484375 27.035156 42.792969 L 26.667969 43.824219 C 26.585938 44.066406 26.355469 44.21875 26.113281 44.21875 Z M 26.113281 44.21875 "/>
</g>
</svg>
