<?xml version="1.0" encoding="UTF-8"?>
<svg xmlns="http://www.w3.org/2000/svg" xmlns:xlink="http://www.w3.org/1999/xlink" width="5pt" height="9pt" viewBox="0 0 5 9" version="1.1">
<g id="surface1">
<path style=" stroke:none;fill-rule:evenodd;fill:rgb(0%,0%,0%);fill-opacity:1;" d="M 0.640625 1.550781 C 0.640625 1.539062 0.652344 1.527344 0.664062 1.515625 C 0.691406 1.480469 0.730469 1.457031 0.769531 1.445312 C 0.820312 1.410156 0.886719 1.386719 0.953125 1.363281 C 1.042969 1.339844 1.109375 1.269531 1.160156 1.1875 C 1.171875 1.164062 1.1875 1.152344 1.199219 1.128906 C 1.199219 1.105469 1.210938 1.082031 1.226562 1.058594 L 1.226562 1.046875 C 1.253906 1 1.34375 1 1.394531 1.011719 C 1.488281 1.023438 1.566406 1.058594 1.632812 1.117188 C 1.683594 1.164062 1.722656 1.222656 1.734375 1.28125 C 1.761719 1.351562 1.789062 1.480469 1.761719 1.550781 C 1.773438 1.5625 1.789062 1.5625 1.789062 1.574219 L 1.789062 1.597656 C 1.800781 1.585938 1.800781 1.574219 1.800781 1.5625 C 1.867188 1.421875 1.945312 1.28125 2.046875 1.164062 C 2.0625 1.140625 2.074219 1.117188 2.101562 1.09375 C 2.21875 0.964844 2.375 0.867188 2.542969 0.796875 C 2.648438 0.738281 2.753906 0.691406 2.859375 0.644531 C 3 0.585938 3.144531 0.527344 3.273438 0.46875 C 3.5625 0.351562 3.863281 0.242188 4.148438 0.136719 C 4.265625 0.101562 4.382812 0.0546875 4.515625 0.0195312 L 4.554688 0.0078125 L 4.578125 0.0429688 C 4.59375 0.078125 4.605469 0.113281 4.617188 0.148438 C 4.632812 0.230469 4.644531 0.328125 4.632812 0.410156 C 4.59375 0.714844 4.371094 0.964844 4.097656 1.140625 C 4.109375 1.164062 4.109375 1.1875 4.109375 1.210938 C 4.109375 1.28125 4.070312 1.351562 3.992188 1.386719 C 3.953125 1.410156 3.902344 1.410156 3.847656 1.421875 C 3.785156 1.421875 3.71875 1.421875 3.652344 1.433594 C 3.5625 1.433594 3.46875 1.457031 3.378906 1.46875 C 3.289062 1.492188 3.195312 1.527344 3.105469 1.5625 C 2.949219 1.625 2.804688 1.71875 2.726562 1.859375 C 2.699219 1.90625 2.6875 1.953125 2.675781 2 C 2.660156 2.046875 2.648438 2.082031 2.636719 2.128906 C 2.621094 2.152344 2.621094 2.175781 2.621094 2.199219 C 2.609375 2.246094 2.597656 2.308594 2.597656 2.363281 C 2.597656 2.390625 2.597656 2.414062 2.597656 2.4375 C 2.597656 2.460938 2.597656 2.472656 2.609375 2.496094 C 2.609375 2.53125 2.609375 2.578125 2.582031 2.613281 C 2.582031 2.625 2.582031 2.636719 2.570312 2.648438 C 2.558594 2.648438 2.542969 2.660156 2.53125 2.660156 C 2.519531 2.671875 2.492188 2.671875 2.464844 2.671875 C 2.464844 2.683594 2.453125 2.683594 2.4375 2.683594 C 2.4375 2.707031 2.4375 2.730469 2.4375 2.753906 C 2.414062 2.882812 2.398438 3.011719 2.375 3.132812 C 2.359375 3.191406 2.347656 3.261719 2.347656 3.332031 C 2.335938 3.425781 2.320312 3.519531 2.320312 3.613281 C 2.320312 3.769531 2.320312 3.933594 2.320312 4.085938 C 2.375 4.144531 2.414062 4.203125 2.464844 4.261719 C 2.636719 4.496094 2.820312 4.734375 3 4.96875 C 3.429688 5.5 3.863281 6.042969 4.292969 6.570312 C 4.4375 6.75 4.578125 6.9375 4.722656 7.113281 C 4.761719 7.160156 4.800781 7.21875 4.851562 7.265625 C 4.867188 7.289062 4.867188 7.300781 4.878906 7.316406 C 4.890625 7.328125 4.90625 7.339844 4.90625 7.351562 C 4.917969 7.410156 4.867188 7.46875 4.828125 7.503906 C 4.773438 7.5625 4.722656 7.609375 4.65625 7.65625 C 4.617188 7.679688 4.566406 7.714844 4.527344 7.738281 C 4.488281 7.761719 4.449219 7.785156 4.410156 7.808594 C 4.382812 7.820312 4.359375 7.832031 4.332031 7.832031 C 4.265625 7.832031 4.226562 7.808594 4.1875 7.773438 C 4.164062 7.75 4.136719 7.738281 4.109375 7.714844 C 4.070312 7.679688 4.046875 7.644531 4.007812 7.609375 C 3.902344 7.492188 3.808594 7.382812 3.703125 7.265625 C 3.535156 7.089844 3.367188 6.902344 3.195312 6.710938 C 3.078125 6.59375 2.976562 6.476562 2.871094 6.359375 C 2.765625 6.242188 2.675781 6.113281 2.570312 5.996094 C 2.597656 6.335938 2.609375 6.679688 2.597656 7.019531 C 2.570312 7.574219 2.476562 8.398438 2.101562 8.859375 L 2.023438 8.929688 L 1.996094 8.835938 C 1.996094 8.800781 1.984375 8.753906 1.96875 8.714844 C 1.945312 8.609375 1.929688 8.492188 1.90625 8.386719 C 1.839844 7.972656 1.789062 7.5625 1.75 7.148438 C 1.683594 6.5 1.65625 5.839844 1.644531 5.195312 C 1.644531 5.0625 1.644531 4.945312 1.644531 4.816406 C 1.460938 4.570312 1.28125 4.320312 1.09375 4.074219 C 0.914062 3.824219 0.742188 3.589844 0.5625 3.34375 C 0.445312 3.152344 0.3125 2.976562 0.183594 2.789062 C 0.15625 2.730469 0.117188 2.671875 0.078125 2.613281 C 0.0664062 2.601562 0.0546875 2.578125 0.0390625 2.554688 C 0.0390625 2.542969 0.0273438 2.53125 0.0273438 2.519531 C 0 2.4375 -0.0117188 2.351562 0.0117188 2.269531 C 0.0117188 2.246094 0.0273438 2.210938 0.0273438 2.1875 C 0.0273438 2.1875 0.0273438 2.175781 0.0390625 2.175781 C 0.0390625 2.175781 0.0390625 2.164062 0.0390625 2.164062 C 0.0390625 2.140625 0.0664062 2.09375 0.078125 2.082031 C 0.105469 2.035156 0.132812 2 0.15625 1.964844 C 0.195312 1.929688 0.273438 1.8125 0.3125 1.800781 C 0.339844 1.789062 0.367188 1.789062 0.390625 1.789062 C 0.40625 1.777344 0.417969 1.777344 0.417969 1.777344 C 0.417969 1.777344 0.417969 1.765625 0.429688 1.765625 C 0.429688 1.691406 0.507812 1.609375 0.574219 1.5625 C 0.585938 1.550781 0.613281 1.550781 0.640625 1.550781 Z M 1.722656 1.8125 C 1.710938 1.835938 1.695312 1.859375 1.683594 1.871094 C 1.65625 1.90625 1.644531 1.929688 1.617188 1.953125 C 1.605469 1.964844 1.605469 1.964844 1.605469 1.964844 C 1.617188 1.976562 1.644531 1.976562 1.65625 1.988281 C 1.683594 2.011719 1.671875 2.058594 1.65625 2.082031 C 1.644531 2.105469 1.632812 2.117188 1.605469 2.128906 C 1.59375 2.128906 1.59375 2.128906 1.578125 2.140625 C 1.566406 2.152344 1.539062 2.164062 1.527344 2.175781 C 1.460938 2.234375 1.421875 2.308594 1.382812 2.378906 C 1.359375 2.4375 1.332031 2.507812 1.34375 2.589844 C 1.34375 2.601562 1.359375 2.636719 1.371094 2.660156 C 1.394531 2.71875 1.433594 2.777344 1.460938 2.835938 C 1.5 2.917969 1.554688 2.988281 1.605469 3.058594 C 1.632812 3.121094 1.671875 3.179688 1.710938 3.226562 C 1.722656 3.035156 1.734375 2.835938 1.75 2.648438 C 1.75 2.648438 1.734375 2.636719 1.722656 2.636719 C 1.683594 2.625 1.644531 2.601562 1.617188 2.566406 C 1.617188 2.566406 1.617188 2.554688 1.617188 2.542969 C 1.605469 2.53125 1.605469 2.507812 1.605469 2.496094 C 1.605469 2.460938 1.617188 2.4375 1.632812 2.402344 C 1.644531 2.390625 1.644531 2.378906 1.65625 2.363281 C 1.671875 2.28125 1.683594 2.199219 1.695312 2.105469 C 1.695312 2.058594 1.710938 2.011719 1.710938 1.964844 C 1.710938 1.929688 1.722656 1.894531 1.722656 1.859375 C 1.722656 1.847656 1.722656 1.824219 1.722656 1.8125 Z M 1.722656 1.8125 "/>
<path style=" stroke:none;fill-rule:evenodd;fill:rgb(0%,0%,0%);fill-opacity:1;" d="M 0.0546875 2.164062 C 0.0546875 2.140625 0.078125 2.105469 0.09375 2.082031 C 0.117188 2.046875 0.144531 2.011719 0.171875 1.976562 C 0.195312 1.941406 0.289062 1.824219 0.328125 1.8125 C 0.351562 1.800781 0.378906 1.800781 0.40625 1.800781 C 0.417969 1.789062 0.429688 1.789062 0.445312 1.765625 C 0.445312 1.691406 0.523438 1.625 0.574219 1.574219 C 0.601562 1.5625 0.625 1.5625 0.640625 1.574219 C 0.652344 1.550781 0.664062 1.539062 0.679688 1.527344 C 0.703125 1.492188 0.730469 1.46875 0.769531 1.457031 C 0.835938 1.421875 0.898438 1.398438 0.964844 1.375 C 1.054688 1.351562 1.121094 1.28125 1.171875 1.199219 C 1.199219 1.164062 1.226562 1.105469 1.238281 1.070312 L 1.238281 1.058594 C 1.265625 1.011719 1.34375 1.011719 1.394531 1.023438 C 1.488281 1.03125 1.566406 1.070312 1.617188 1.128906 C 1.671875 1.175781 1.710938 1.234375 1.722656 1.292969 C 1.75 1.351562 1.773438 1.480469 1.75 1.539062 C 1.75 1.550781 1.75 1.550781 1.75 1.550781 C 1.761719 1.5625 1.773438 1.574219 1.773438 1.585938 L 1.773438 1.597656 C 1.773438 1.691406 1.734375 1.789062 1.671875 1.871094 C 1.644531 1.894531 1.632812 1.917969 1.605469 1.941406 C 1.59375 1.953125 1.578125 1.964844 1.578125 1.976562 C 1.578125 1.976562 1.578125 1.976562 1.59375 1.976562 C 1.605469 1.988281 1.632812 1.988281 1.644531 2 C 1.671875 2.023438 1.65625 2.058594 1.644531 2.082031 C 1.632812 2.09375 1.617188 2.105469 1.605469 2.117188 C 1.59375 2.117188 1.578125 2.117188 1.566406 2.128906 C 1.554688 2.140625 1.527344 2.152344 1.515625 2.175781 C 1.449219 2.222656 1.410156 2.296875 1.371094 2.363281 C 1.34375 2.4375 1.320312 2.507812 1.332031 2.589844 C 1.332031 2.613281 1.34375 2.648438 1.359375 2.660156 L 1.359375 2.671875 C 1.382812 2.730469 1.421875 2.789062 1.449219 2.847656 C 1.488281 2.917969 1.539062 2.988281 1.59375 3.070312 C 1.710938 3.261719 1.839844 3.4375 1.96875 3.625 C 2.125 3.839844 2.28125 4.0625 2.453125 4.273438 C 2.621094 4.507812 2.804688 4.746094 2.988281 4.96875 C 3.417969 5.511719 3.847656 6.042969 4.28125 6.582031 C 4.421875 6.761719 4.566406 6.9375 4.710938 7.113281 C 4.75 7.171875 4.800781 7.21875 4.839844 7.277344 C 4.851562 7.289062 4.851562 7.316406 4.867188 7.328125 C 4.878906 7.339844 4.878906 7.351562 4.890625 7.351562 C 4.90625 7.410156 4.851562 7.457031 4.8125 7.492188 C 4.773438 7.550781 4.710938 7.597656 4.644531 7.644531 C 4.605469 7.679688 4.566406 7.703125 4.515625 7.726562 C 4.476562 7.75 4.4375 7.773438 4.398438 7.796875 C 4.371094 7.808594 4.359375 7.808594 4.332031 7.820312 C 4.28125 7.820312 4.242188 7.796875 4.203125 7.761719 C 4.175781 7.75 4.148438 7.726562 4.125 7.703125 C 4.085938 7.667969 4.058594 7.632812 4.019531 7.597656 C 3.914062 7.492188 3.808594 7.371094 3.71875 7.265625 C 3.546875 7.078125 3.378906 6.890625 3.210938 6.710938 C 3.09375 6.59375 2.988281 6.464844 2.882812 6.347656 C 2.765625 6.207031 2.636719 6.054688 2.519531 5.910156 C 2.242188 5.570312 1.984375 5.230469 1.722656 4.886719 C 1.515625 4.617188 1.304688 4.332031 1.109375 4.0625 C 0.925781 3.824219 0.757812 3.578125 0.574219 3.332031 C 0.457031 3.152344 0.328125 2.964844 0.210938 2.789062 C 0.171875 2.730469 0.132812 2.671875 0.09375 2.613281 C 0.078125 2.589844 0.0664062 2.578125 0.0546875 2.554688 C 0.0546875 2.542969 0.0390625 2.53125 0.0390625 2.507812 C 0.0117188 2.4375 0.0117188 2.351562 0.0273438 2.269531 C 0.0273438 2.246094 0.0390625 2.222656 0.0390625 2.199219 C 0.0546875 2.1875 0.0546875 2.175781 0.0546875 2.164062 Z M 0.0546875 2.164062 "/>
<path style=" stroke:none;fill-rule:evenodd;fill:rgb(94.117647%,63.921569%,37.647059%);fill-opacity:1;" d="M 1.28125 1.070312 C 1.28125 1.070312 1.199219 1.328125 0.976562 1.410156 C 0.742188 1.492188 0.703125 1.515625 0.664062 1.625 C 0.664062 1.625 0.613281 1.585938 0.601562 1.597656 C 0.601562 1.609375 0.484375 1.691406 0.484375 1.765625 C 0.46875 1.847656 0.378906 1.824219 0.339844 1.847656 C 0.300781 1.859375 0.09375 2.128906 0.09375 2.164062 C 0.09375 2.1875 0.0117188 2.308594 0.078125 2.507812 C 0.132812 2.695312 2.242188 5.628906 3.234375 6.691406 C 4.214844 7.738281 4.226562 7.832031 4.382812 7.761719 C 4.539062 7.691406 4.878906 7.445312 4.851562 7.359375 C 4.828125 7.277344 1.734375 3.613281 1.320312 2.683594 C 1.320312 2.683594 1.238281 2.554688 1.332031 2.351562 C 1.433594 2.152344 1.566406 2.082031 1.59375 2.082031 C 1.605469 2.070312 1.632812 2.035156 1.617188 2.023438 C 1.617188 2.023438 1.527344 2.011719 1.527344 1.976562 C 1.539062 1.941406 1.722656 1.824219 1.734375 1.597656 C 1.734375 1.597656 1.734375 1.585938 1.722656 1.585938 C 1.710938 1.574219 1.710938 1.550781 1.710938 1.527344 C 1.75 1.457031 1.695312 1.246094 1.59375 1.152344 C 1.460938 1.03125 1.292969 1.03125 1.28125 1.070312 Z M 1.28125 1.070312 "/>
<path style=" stroke:none;fill-rule:evenodd;fill:rgb(80%,50.980392%,25.882353%);fill-opacity:1;" d="M 1.28125 1.070312 C 1.28125 1.070312 1.199219 1.328125 0.976562 1.410156 C 0.742188 1.492188 0.703125 1.515625 0.664062 1.625 C 0.664062 1.625 0.613281 1.585938 0.601562 1.597656 C 0.601562 1.609375 0.484375 1.691406 0.484375 1.765625 C 0.46875 1.847656 0.378906 1.824219 0.339844 1.847656 C 0.3125 1.847656 0.234375 1.953125 0.171875 2.035156 C 0.261719 2.328125 0.40625 2.601562 0.40625 2.601562 C 0.40625 2.601562 0.601562 2.507812 0.546875 2.269531 C 0.496094 2.035156 0.730469 1.929688 0.730469 1.929688 C 0.730469 1.929688 0.574219 2.082031 0.613281 2.234375 C 0.640625 2.390625 0.585938 2.625 0.523438 2.777344 C 0.496094 2.847656 0.484375 2.976562 0.46875 3.109375 C 0.507812 3.167969 0.5625 3.238281 0.601562 3.296875 C 0.71875 3.238281 0.835938 3.152344 0.835938 3.152344 C 0.835938 3.152344 3.367188 6.628906 3.390625 6.710938 C 3.417969 6.785156 3.808594 7.316406 4.109375 7.433594 C 4.214844 7.480469 4.382812 7.574219 4.554688 7.667969 C 4.695312 7.574219 4.867188 7.421875 4.851562 7.359375 C 4.828125 7.277344 1.734375 3.613281 1.320312 2.683594 C 1.320312 2.683594 1.238281 2.554688 1.332031 2.351562 C 1.433594 2.152344 1.566406 2.082031 1.59375 2.082031 C 1.605469 2.070312 1.632812 2.035156 1.617188 2.023438 C 1.617188 2.023438 1.527344 2.011719 1.527344 1.976562 C 1.539062 1.941406 1.722656 1.824219 1.734375 1.597656 C 1.734375 1.597656 1.734375 1.585938 1.722656 1.585938 C 1.710938 1.574219 1.710938 1.550781 1.710938 1.527344 C 1.75 1.457031 1.695312 1.246094 1.59375 1.152344 C 1.460938 1.03125 1.292969 1.03125 1.28125 1.070312 Z M 1.28125 1.070312 "/>
<path style=" stroke:none;fill-rule:evenodd;fill:rgb(58.823529%,37.647059%,18.823529%);fill-opacity:1;" d="M 1.28125 1.070312 C 1.28125 1.070312 1.199219 1.328125 0.976562 1.410156 C 0.742188 1.492188 0.703125 1.515625 0.664062 1.625 C 0.664062 1.625 0.613281 1.585938 0.601562 1.597656 C 0.601562 1.597656 0.574219 1.625 0.546875 1.648438 C 0.769531 1.71875 1.015625 1.777344 1.042969 1.648438 C 1.082031 1.410156 1.394531 1.363281 1.394531 1.363281 C 1.394531 1.363281 1.09375 1.480469 1.121094 1.648438 C 1.148438 1.8125 0.964844 2.011719 0.964844 2.011719 C 1.1875 1.988281 1.253906 1.765625 1.253906 1.765625 C 1.226562 1.976562 1.042969 2.035156 0.925781 2.28125 C 0.796875 2.519531 1.09375 2.847656 1.054688 3.011719 C 1.03125 3.179688 3.523438 6.476562 3.585938 6.628906 C 3.652344 6.796875 4.085938 7.101562 4.398438 7.21875 C 4.515625 7.265625 4.644531 7.371094 4.761719 7.503906 C 4.8125 7.445312 4.867188 7.398438 4.851562 7.359375 C 4.828125 7.277344 1.734375 3.613281 1.320312 2.683594 C 1.320312 2.683594 1.238281 2.554688 1.332031 2.351562 C 1.433594 2.152344 1.566406 2.082031 1.59375 2.082031 C 1.605469 2.070312 1.632812 2.035156 1.617188 2.023438 C 1.617188 2.023438 1.527344 2.011719 1.527344 1.976562 C 1.539062 1.941406 1.722656 1.824219 1.734375 1.597656 C 1.734375 1.597656 1.734375 1.585938 1.722656 1.585938 C 1.710938 1.574219 1.710938 1.550781 1.710938 1.527344 C 1.75 1.457031 1.695312 1.246094 1.59375 1.152344 C 1.460938 1.03125 1.292969 1.03125 1.28125 1.070312 Z M 1.28125 1.070312 "/>
<path style=" stroke:none;fill-rule:evenodd;fill:rgb(36.862745%,21.960784%,8.627451%);fill-opacity:1;" d="M 1.617188 2.035156 C 1.617188 2.035156 1.617188 2.023438 1.617188 2.023438 C 1.617188 2.023438 1.527344 2.011719 1.527344 1.976562 C 1.539062 1.941406 1.722656 1.824219 1.734375 1.597656 C 1.734375 1.597656 1.734375 1.585938 1.722656 1.585938 C 1.710938 1.574219 1.710938 1.550781 1.710938 1.527344 C 1.75 1.457031 1.695312 1.246094 1.59375 1.152344 C 1.5 1.070312 1.394531 1.046875 1.332031 1.046875 C 1.449219 1.070312 1.578125 1.128906 1.617188 1.269531 C 1.671875 1.527344 1.671875 1.574219 1.695312 1.574219 C 1.722656 1.585938 1.65625 1.765625 1.605469 1.824219 C 1.554688 1.871094 1.449219 1.941406 1.488281 1.976562 C 1.515625 2 1.578125 2.023438 1.617188 2.035156 Z M 1.617188 2.035156 "/>
<path style=" stroke:none;fill-rule:evenodd;fill:rgb(78.039216%,31.372549%,15.686275%);fill-opacity:1;" d="M 0.484375 3.121094 C 1.148438 4.085938 2.503906 5.898438 3.234375 6.691406 C 3.390625 6.867188 3.535156 7.007812 3.640625 7.136719 C 3.863281 7.054688 4.125 6.914062 4.292969 6.667969 C 3.378906 5.535156 1.632812 3.367188 1.320312 2.683594 C 1.320312 2.683594 1.304688 2.660156 1.292969 2.613281 C 1.03125 2.707031 0.664062 2.882812 0.484375 3.121094 Z M 0.484375 3.121094 "/>
<path style=" stroke:none;fill-rule:evenodd;fill:rgb(63.921569%,24.705882%,11.372549%);fill-opacity:1;" d="M 3.953125 6.984375 C 4.070312 6.902344 4.203125 6.796875 4.292969 6.667969 C 3.378906 5.535156 1.632812 3.367188 1.320312 2.683594 C 1.320312 2.683594 1.304688 2.660156 1.292969 2.613281 C 1.082031 2.695312 0.808594 2.8125 0.613281 2.988281 C 0.703125 3.4375 1.320312 4.167969 1.410156 4.226562 C 1.515625 4.296875 1.644531 4.507812 1.644531 4.507812 C 1.566406 4.132812 1.410156 3.957031 1.410156 3.957031 C 1.515625 4.003906 1.878906 4.558594 2.21875 5.195312 C 2.558594 5.828125 3.3125 6.570312 3.3125 6.570312 C 2.949219 6.089844 2.960938 5.582031 2.960938 5.582031 C 3.078125 6.125 3.546875 6.628906 3.953125 6.984375 Z M 3.953125 6.984375 "/>
<path style=" stroke:none;fill-rule:evenodd;fill:rgb(47.058824%,20%,10.980392%);fill-opacity:1;" d="M 4.214844 6.773438 C 4.242188 6.738281 4.265625 6.703125 4.292969 6.667969 C 3.378906 5.535156 1.632812 3.367188 1.320312 2.683594 C 1.320312 2.683594 1.304688 2.660156 1.292969 2.613281 C 1.132812 2.671875 0.9375 2.753906 0.769531 2.871094 C 0.808594 3.070312 0.875 3.238281 0.875 3.238281 C 0.914062 3.152344 1.1875 3.152344 1.1875 3.152344 C 1.015625 3.285156 1.199219 3.625 1.199219 3.625 C 1.332031 3.425781 1.578125 3.472656 1.578125 3.472656 C 1.394531 3.472656 1.320312 3.71875 1.320312 3.71875 C 1.394531 3.695312 1.761719 3.78125 1.851562 4.074219 C 1.945312 4.367188 2.414062 4.722656 2.414062 4.722656 C 2.375 5.003906 2.726562 5.464844 2.726562 5.464844 C 2.660156 5.242188 2.78125 5.207031 2.765625 5.039062 C 2.765625 4.886719 2.582031 4.757812 2.582031 4.757812 C 2.765625 4.816406 2.949219 5.21875 3.585938 6.195312 C 3.808594 6.535156 4.03125 6.703125 4.214844 6.773438 Z M 4.214844 6.773438 "/>
<path style=" stroke:none;fill-rule:evenodd;fill:rgb(0%,0%,0%);fill-opacity:1;" d="M 1.671875 2.378906 C 1.683594 2.28125 1.695312 2.199219 1.710938 2.117188 C 1.710938 2.058594 1.722656 2.011719 1.722656 1.964844 C 1.734375 1.929688 1.734375 1.894531 1.734375 1.859375 C 1.734375 1.824219 1.75 1.777344 1.761719 1.742188 C 1.773438 1.679688 1.800781 1.625 1.828125 1.5625 C 1.878906 1.421875 1.957031 1.292969 2.0625 1.164062 C 2.074219 1.140625 2.085938 1.128906 2.113281 1.105469 C 2.230469 0.976562 2.386719 0.878906 2.542969 0.808594 C 2.648438 0.75 2.765625 0.703125 2.871094 0.65625 C 3 0.597656 3.144531 0.539062 3.289062 0.480469 C 3.574219 0.375 3.863281 0.253906 4.164062 0.160156 C 4.28125 0.113281 4.398438 0.078125 4.515625 0.03125 L 4.554688 0.0195312 L 4.566406 0.0546875 C 4.578125 0.078125 4.59375 0.125 4.605469 0.148438 C 4.617188 0.230469 4.632812 0.328125 4.617188 0.410156 C 4.578125 0.714844 4.34375 0.953125 4.085938 1.128906 C 4.097656 1.152344 4.097656 1.1875 4.097656 1.210938 C 4.097656 1.28125 4.058594 1.339844 3.992188 1.375 C 3.941406 1.398438 3.886719 1.398438 3.847656 1.410156 C 3.785156 1.410156 3.71875 1.410156 3.652344 1.421875 C 3.457031 1.433594 3.273438 1.46875 3.105469 1.550781 C 2.949219 1.609375 2.792969 1.703125 2.714844 1.847656 C 2.6875 1.894531 2.675781 1.941406 2.648438 2 C 2.636719 2.035156 2.636719 2.082031 2.621094 2.117188 C 2.609375 2.140625 2.609375 2.164062 2.597656 2.1875 C 2.597656 2.246094 2.582031 2.308594 2.582031 2.363281 C 2.582031 2.390625 2.570312 2.414062 2.570312 2.449219 C 2.582031 2.460938 2.582031 2.484375 2.582031 2.496094 C 2.597656 2.53125 2.597656 2.578125 2.570312 2.613281 C 2.570312 2.625 2.570312 2.625 2.558594 2.636719 C 2.558594 2.636719 2.542969 2.648438 2.53125 2.648438 C 2.503906 2.660156 2.492188 2.660156 2.464844 2.660156 C 2.425781 2.671875 2.386719 2.671875 2.347656 2.683594 C 2.296875 2.683594 2.21875 2.683594 2.164062 2.683594 C 2.085938 2.671875 2.007812 2.671875 1.929688 2.660156 C 1.890625 2.648438 1.867188 2.648438 1.828125 2.636719 C 1.800781 2.636719 1.75 2.636719 1.722656 2.625 C 1.683594 2.613281 1.65625 2.589844 1.644531 2.566406 C 1.632812 2.554688 1.632812 2.542969 1.632812 2.542969 C 1.617188 2.519531 1.617188 2.507812 1.617188 2.496094 C 1.632812 2.472656 1.632812 2.4375 1.644531 2.414062 C 1.65625 2.402344 1.65625 2.390625 1.671875 2.378906 Z M 1.671875 2.378906 "/>
<path style=" stroke:none;fill-rule:evenodd;fill:rgb(94.117647%,63.921569%,37.647059%);fill-opacity:1;" d="M 1.839844 2.601562 C 1.839844 2.601562 1.710938 2.613281 1.671875 2.554688 C 1.644531 2.484375 1.695312 2.402344 1.710938 2.390625 C 1.710938 2.390625 1.761719 1.976562 1.773438 1.871094 C 1.789062 1.753906 1.878906 1.445312 2.085938 1.1875 C 2.296875 0.925781 2.621094 0.796875 3.300781 0.515625 C 3.980469 0.230469 4.527344 0.0664062 4.527344 0.0664062 C 4.527344 0.0664062 4.828125 0.609375 4.046875 1.117188 C 4.046875 1.117188 4.097656 1.269531 3.96875 1.339844 C 3.835938 1.410156 3.535156 1.328125 3.078125 1.515625 C 2.636719 1.71875 2.621094 1.964844 2.582031 2.117188 C 2.542969 2.257812 2.53125 2.449219 2.53125 2.449219 C 2.53125 2.449219 2.570312 2.53125 2.542969 2.601562 C 2.542969 2.601562 2.542969 2.625 2.347656 2.648438 C 2.152344 2.671875 1.839844 2.601562 1.839844 2.601562 Z M 1.839844 2.601562 "/>
<path style=" stroke:none;fill-rule:evenodd;fill:rgb(80%,50.980392%,25.882353%);fill-opacity:1;" d="M 1.761719 1.988281 C 1.761719 1.941406 1.773438 1.894531 1.773438 1.871094 C 1.789062 1.753906 1.878906 1.445312 2.085938 1.1875 C 2.296875 0.925781 2.621094 0.796875 3.300781 0.515625 C 3.390625 0.480469 3.46875 0.445312 3.546875 0.421875 C 3.640625 0.679688 3.730469 0.902344 3.730469 0.902344 L 3.078125 1.339844 C 3.078125 1.339844 2.792969 1.257812 2.792969 1.363281 C 2.792969 1.46875 2.726562 1.515625 2.726562 1.515625 C 2.78125 1.503906 2.820312 1.386719 2.820312 1.386719 C 2.820312 1.386719 2.84375 1.433594 2.765625 1.585938 C 2.753906 1.625 2.753906 1.671875 2.765625 1.71875 C 2.648438 1.847656 2.621094 1.976562 2.597656 2.070312 Z M 1.761719 1.988281 "/>
<path style=" stroke:none;fill-rule:evenodd;fill:rgb(70.196078%,70.196078%,70.196078%);fill-opacity:1;" d="M 1.839844 2.601562 C 1.839844 2.601562 1.710938 2.613281 1.671875 2.554688 C 1.644531 2.484375 1.695312 2.402344 1.710938 2.390625 C 1.710938 2.390625 1.761719 1.988281 1.773438 1.871094 C 1.929688 1.824219 2.257812 1.777344 2.621094 1.976562 C 2.609375 2.023438 2.597656 2.070312 2.582031 2.117188 C 2.542969 2.257812 2.53125 2.449219 2.53125 2.449219 C 2.53125 2.449219 2.570312 2.53125 2.542969 2.601562 C 2.542969 2.601562 2.542969 2.625 2.347656 2.648438 C 2.152344 2.671875 1.839844 2.601562 1.839844 2.601562 Z M 1.839844 2.601562 "/>
<path style=" stroke:none;fill-rule:evenodd;fill:rgb(90.196078%,90.196078%,90.196078%);fill-opacity:1;" d="M 1.828125 1.859375 C 1.867188 1.847656 1.90625 1.847656 1.957031 1.835938 C 1.929688 1.988281 1.890625 2.269531 1.867188 2.328125 C 1.828125 2.414062 1.839844 2.507812 1.839844 2.507812 C 1.839844 2.507812 2.359375 2.53125 2.476562 2.578125 C 2.476562 2.578125 1.867188 2.496094 1.710938 2.542969 C 1.710938 2.542969 1.695312 2.4375 1.75 2.390625 C 1.773438 2.351562 1.8125 2.023438 1.828125 1.859375 Z M 1.828125 1.859375 "/>
<path style=" stroke:none;fill-rule:evenodd;fill:rgb(20%,20%,20%);fill-opacity:1;" d="M 1.984375 1.835938 C 2.035156 1.824219 2.113281 1.824219 2.179688 1.835938 C 2.203125 2.011719 2.140625 2.328125 2.140625 2.328125 C 2.140625 2.328125 2.347656 2.378906 2.375 2.363281 C 2.398438 2.351562 2.425781 2.105469 2.425781 2.105469 C 2.386719 2.222656 2.335938 2.210938 2.335938 2.210938 C 2.375 2.199219 2.414062 1.976562 2.425781 1.882812 C 2.464844 1.90625 2.519531 1.917969 2.570312 1.941406 L 2.503906 2.414062 L 2.53125 2.425781 C 2.53125 2.4375 2.53125 2.449219 2.53125 2.449219 C 2.53125 2.449219 2.558594 2.484375 2.558594 2.542969 C 2.308594 2.425781 1.917969 2.414062 1.917969 2.414062 Z M 1.984375 1.835938 "/>
<path style=" stroke:none;fill-rule:evenodd;fill:rgb(58.823529%,37.647059%,18.823529%);fill-opacity:1;" d="M 1.996094 1.304688 C 2.023438 1.269531 2.0625 1.222656 2.085938 1.1875 C 2.296875 0.925781 2.621094 0.796875 3.300781 0.515625 C 3.980469 0.230469 4.527344 0.0664062 4.527344 0.0664062 C 4.644531 0.515625 4.058594 0.878906 4.007812 0.914062 C 3.96875 0.9375 4.007812 1.046875 4.046875 1.117188 C 4.046875 1.117188 4.070312 1.199219 4.046875 1.269531 C 3.875 0.976562 3.078125 1.339844 3.078125 1.339844 C 3.105469 1.152344 3.40625 1.046875 3.40625 1.046875 C 2.9375 1.03125 2.425781 1.585938 2.425781 1.585938 C 2.425781 1.585938 2.503906 1.222656 2.832031 1.09375 C 3.15625 0.953125 3.144531 0.855469 3.144531 0.855469 C 3.015625 0.988281 2.726562 1.058594 2.558594 1.082031 C 2.4375 1.09375 2.152344 1.234375 1.996094 1.304688 Z M 1.996094 1.304688 "/>
<path style=" stroke:none;fill-rule:evenodd;fill:rgb(0%,0%,0%);fill-opacity:1;" d="M 2.007812 8.835938 C 2.007812 8.789062 1.996094 8.753906 1.984375 8.714844 C 1.96875 8.609375 1.945312 8.492188 1.929688 8.386719 C 1.851562 7.972656 1.800781 7.5625 1.761719 7.148438 C 1.695312 6.5 1.671875 5.839844 1.671875 5.195312 C 1.65625 4.320312 1.695312 3.460938 1.773438 2.589844 L 1.773438 2.578125 C 1.984375 2.519531 2.21875 2.554688 2.4375 2.589844 L 2.425781 2.601562 C 2.425781 2.660156 2.425781 2.707031 2.414062 2.753906 C 2.398438 2.882812 2.386719 3 2.359375 3.132812 C 2.335938 3.191406 2.335938 3.261719 2.320312 3.320312 C 2.320312 3.425781 2.308594 3.519531 2.308594 3.613281 C 2.296875 3.863281 2.308594 4.109375 2.320312 4.34375 C 2.335938 4.460938 2.347656 4.582031 2.359375 4.699219 C 2.375 4.816406 2.398438 4.921875 2.425781 5.027344 C 2.453125 5.144531 2.464844 5.265625 2.476562 5.371094 C 2.503906 5.535156 2.53125 5.6875 2.542969 5.839844 C 2.582031 6.230469 2.597656 6.628906 2.582031 7.019531 C 2.558594 7.5625 2.464844 8.398438 2.085938 8.847656 L 2.035156 8.90625 Z M 2.007812 8.835938 "/>
<path style=" stroke:none;fill-rule:evenodd;fill:rgb(70.196078%,70.196078%,70.196078%);fill-opacity:1;" d="M 2.046875 8.824219 C 2.046875 8.824219 1.460938 6.441406 1.8125 2.589844 C 1.8125 2.589844 1.984375 2.542969 2.398438 2.601562 C 2.398438 2.601562 2.386719 2.835938 2.320312 3.121094 C 2.257812 3.402344 2.230469 4.390625 2.386719 5.039062 C 2.542969 5.6875 2.765625 8 2.046875 8.824219 Z M 2.046875 8.824219 "/>
<path style=" stroke:none;fill-rule:evenodd;fill:rgb(60%,60%,60%);fill-opacity:1;" d="M 1.710938 5.289062 C 1.695312 4.6875 1.710938 4.027344 1.761719 3.308594 C 1.789062 3.367188 1.800781 3.425781 1.8125 3.472656 C 1.851562 3.671875 1.878906 3.71875 1.917969 3.8125 C 1.945312 3.898438 1.839844 3.839844 1.945312 3.96875 C 2.035156 4.097656 2.046875 4.097656 1.984375 4.191406 C 1.984375 4.191406 2.023438 4.097656 1.945312 4.074219 C 1.945312 4.074219 1.984375 4.097656 1.945312 4.144531 C 1.90625 4.203125 1.722656 4.414062 1.75 4.570312 C 1.789062 4.722656 1.710938 4.898438 1.90625 5.074219 C 2.113281 5.242188 2.28125 5.476562 2.203125 5.640625 C 2.125 5.816406 2.035156 5.804688 2.0625 5.910156 C 2.101562 6.03125 2.007812 6.066406 2.007812 6.066406 C 2.007812 6.066406 2.125 6.054688 2.140625 5.910156 C 2.140625 5.910156 2.257812 6.042969 2.21875 6.183594 C 2.164062 6.324219 2.203125 6.359375 2.230469 6.441406 C 2.269531 6.511719 2.230469 6.59375 2.074219 6.667969 C 2.074219 6.667969 2.347656 6.679688 2.335938 6.796875 C 2.320312 6.914062 2.269531 7.054688 2.296875 7.113281 C 2.308594 7.183594 2.21875 7.289062 2.257812 7.328125 C 2.296875 7.359375 2.375 7.339844 2.335938 7.421875 C 2.296875 7.492188 2.28125 7.515625 2.308594 7.539062 C 2.308594 7.539062 2.164062 7.527344 2.179688 7.398438 C 2.179688 7.398438 2.113281 7.65625 2.230469 7.632812 C 2.347656 7.609375 2.359375 7.597656 2.359375 7.597656 C 2.359375 7.597656 2.28125 7.644531 2.296875 7.679688 C 2.296875 7.703125 2.269531 7.878906 2.140625 7.808594 C 2.140625 7.808594 1.996094 7.609375 2.046875 7.457031 C 2.113281 7.289062 2.007812 7.054688 1.945312 7.007812 C 1.945312 7.007812 2.023438 6.972656 2.085938 7.101562 C 2.085938 7.101562 2.074219 6.984375 1.984375 6.949219 C 1.878906 6.914062 2.085938 6.761719 2.152344 6.773438 C 2.152344 6.773438 2.023438 6.710938 1.917969 6.796875 C 1.917969 6.796875 1.96875 6.582031 2.101562 6.511719 C 2.21875 6.441406 1.929688 6.277344 1.996094 6.136719 C 1.996094 6.136719 1.828125 6.195312 1.878906 6.371094 C 1.878906 6.371094 1.710938 6.078125 1.8125 5.867188 C 1.851562 5.769531 1.789062 5.535156 1.710938 5.289062 Z M 1.710938 5.289062 "/>
<path style=" stroke:none;fill-rule:evenodd;fill:rgb(50.196078%,50.196078%,50.196078%);fill-opacity:1;" d="M 2.046875 8.824219 C 2.046875 8.824219 2.035156 8.742188 2.007812 8.597656 C 2.085938 8.457031 2.085938 8.117188 2.046875 8.007812 C 2.007812 7.878906 2.140625 7.890625 2.140625 7.890625 C 2.152344 8.070312 2.203125 8.105469 2.203125 8.105469 C 2.152344 7.988281 2.230469 7.925781 2.296875 7.890625 C 2.375 7.867188 2.359375 7.773438 2.335938 7.703125 C 2.308594 7.632812 2.359375 7.644531 2.386719 7.609375 C 2.425781 7.574219 2.347656 7.574219 2.386719 7.445312 C 2.425781 7.328125 2.375 7.359375 2.320312 7.316406 C 2.269531 7.265625 2.386719 7.195312 2.347656 7.101562 C 2.320312 7.019531 2.375 6.984375 2.398438 6.832031 C 2.425781 6.667969 2.230469 6.628906 2.230469 6.628906 C 2.398438 6.582031 2.269531 6.40625 2.296875 6.277344 C 2.320312 6.148438 2.296875 5.417969 2.191406 5.230469 C 2.085938 5.039062 2.074219 4.792969 2.074219 4.792969 C 2.101562 4.886719 2.21875 4.96875 2.21875 4.96875 C 2.113281 4.816406 2.023438 3.460938 2.125 3.355469 C 2.21875 3.238281 2.242188 3.058594 2.242188 3.058594 C 2.203125 3.109375 2.152344 3.132812 2.152344 3.132812 C 2.269531 2.988281 2.296875 2.777344 2.296875 2.589844 C 2.320312 2.589844 2.359375 2.601562 2.398438 2.601562 C 2.398438 2.601562 2.386719 2.835938 2.320312 3.121094 C 2.257812 3.402344 2.230469 4.390625 2.386719 5.039062 C 2.542969 5.6875 2.765625 8 2.046875 8.824219 Z M 1.851562 7.585938 C 1.800781 7.136719 1.75 6.570312 1.722656 5.898438 C 1.800781 6.207031 1.828125 6.511719 1.800781 6.605469 C 1.773438 6.738281 1.828125 7.066406 1.929688 7.300781 C 1.984375 7.421875 1.917969 7.515625 1.851562 7.585938 Z M 1.851562 7.585938 "/>
<path style=" stroke:none;fill-rule:evenodd;fill:rgb(0%,0%,0%);fill-opacity:1;" d="M 2.832031 3.566406 C 2.804688 3.601562 2.78125 3.625 2.742188 3.648438 C 2.726562 3.648438 2.726562 3.648438 2.714844 3.660156 C 2.660156 3.660156 2.609375 3.660156 2.570312 3.625 C 2.558594 3.601562 2.542969 3.589844 2.542969 3.566406 C 2.542969 3.554688 2.542969 3.554688 2.542969 3.542969 C 2.53125 3.507812 2.542969 3.460938 2.582031 3.425781 C 2.597656 3.414062 2.609375 3.414062 2.636719 3.414062 C 2.648438 3.414062 2.660156 3.4375 2.660156 3.449219 C 2.660156 3.449219 2.675781 3.460938 2.675781 3.460938 C 2.675781 3.460938 2.675781 3.460938 2.6875 3.460938 C 2.699219 3.460938 2.714844 3.4375 2.714844 3.425781 C 2.726562 3.414062 2.726562 3.402344 2.742188 3.378906 C 2.742188 3.367188 2.742188 3.367188 2.742188 3.355469 C 2.742188 3.355469 2.742188 3.355469 2.726562 3.355469 C 2.699219 3.34375 2.675781 3.332031 2.648438 3.320312 C 2.636719 3.320312 2.636719 3.308594 2.621094 3.308594 C 2.597656 3.285156 2.582031 3.273438 2.582031 3.238281 C 2.570312 3.203125 2.570312 3.167969 2.597656 3.140625 C 2.609375 3.109375 2.636719 3.085938 2.675781 3.058594 C 2.714844 3.023438 2.753906 3 2.804688 2.988281 C 2.960938 2.953125 3.132812 2.988281 3.183594 3.140625 C 3.183594 3.152344 3.195312 3.179688 3.195312 3.191406 C 3.210938 3.179688 3.234375 3.167969 3.273438 3.167969 C 3.289062 3.152344 3.3125 3.152344 3.339844 3.167969 C 3.339844 3.167969 3.351562 3.167969 3.367188 3.167969 C 3.390625 3.152344 3.417969 3.167969 3.445312 3.179688 C 3.445312 3.191406 3.457031 3.191406 3.457031 3.191406 C 3.46875 3.179688 3.496094 3.167969 3.507812 3.167969 C 3.546875 3.152344 3.585938 3.152344 3.613281 3.167969 C 3.625 3.179688 3.640625 3.179688 3.652344 3.191406 C 3.664062 3.179688 3.703125 3.167969 3.730469 3.167969 C 3.746094 3.167969 3.757812 3.167969 3.769531 3.179688 C 3.785156 3.179688 3.785156 3.167969 3.796875 3.167969 C 3.824219 3.167969 3.835938 3.167969 3.847656 3.179688 C 3.847656 3.179688 3.847656 3.179688 3.847656 3.167969 C 3.847656 3.167969 3.847656 3.152344 3.847656 3.140625 C 3.863281 3.121094 3.875 3.121094 3.902344 3.121094 C 3.902344 3.121094 3.914062 3.121094 3.914062 3.121094 C 3.914062 3.109375 3.925781 3.085938 3.925781 3.070312 C 3.925781 3.035156 3.953125 3.011719 3.992188 3 C 4.019531 3 4.058594 3 4.085938 3.023438 C 4.097656 3.035156 4.097656 3.058594 4.097656 3.070312 C 4.097656 3.085938 4.085938 3.097656 4.070312 3.097656 C 4.070312 3.097656 4.070312 3.097656 4.070312 3.109375 C 4.058594 3.109375 4.058594 3.121094 4.058594 3.121094 C 4.085938 3.132812 4.097656 3.140625 4.109375 3.167969 C 4.109375 3.167969 4.109375 3.167969 4.125 3.167969 C 4.148438 3.152344 4.1875 3.152344 4.214844 3.167969 C 4.226562 3.179688 4.242188 3.179688 4.253906 3.191406 C 4.28125 3.179688 4.304688 3.167969 4.34375 3.167969 C 4.34375 3.167969 4.359375 3.167969 4.371094 3.179688 C 4.382812 3.179688 4.398438 3.167969 4.398438 3.167969 C 4.449219 3.167969 4.488281 3.191406 4.515625 3.226562 C 4.539062 3.191406 4.578125 3.167969 4.617188 3.167969 C 4.644531 3.152344 4.671875 3.152344 4.683594 3.167969 C 4.695312 3.167969 4.710938 3.167969 4.710938 3.152344 C 4.722656 3.152344 4.734375 3.152344 4.734375 3.152344 C 4.75 3.121094 4.773438 3.085938 4.8125 3.085938 C 4.867188 3.085938 4.890625 3.121094 4.890625 3.152344 C 4.890625 3.167969 4.890625 3.179688 4.890625 3.191406 C 4.890625 3.203125 4.90625 3.214844 4.890625 3.226562 C 4.890625 3.238281 4.878906 3.25 4.867188 3.25 C 4.867188 3.261719 4.867188 3.261719 4.867188 3.261719 C 4.851562 3.285156 4.851562 3.308594 4.839844 3.332031 C 4.851562 3.332031 4.851562 3.332031 4.851562 3.332031 C 4.867188 3.320312 4.890625 3.308594 4.917969 3.320312 C 4.929688 3.332031 4.945312 3.355469 4.929688 3.378906 C 4.929688 3.378906 4.929688 3.378906 4.929688 3.390625 C 4.917969 3.414062 4.890625 3.425781 4.878906 3.449219 C 4.851562 3.460938 4.8125 3.484375 4.789062 3.484375 C 4.761719 3.484375 4.75 3.472656 4.734375 3.460938 C 4.722656 3.496094 4.722656 3.519531 4.710938 3.542969 C 4.695312 3.601562 4.644531 3.648438 4.578125 3.660156 C 4.527344 3.671875 4.449219 3.648438 4.421875 3.601562 C 4.421875 3.589844 4.421875 3.566406 4.4375 3.554688 C 4.449219 3.542969 4.460938 3.542969 4.488281 3.542969 C 4.5 3.554688 4.527344 3.554688 4.554688 3.542969 C 4.566406 3.53125 4.566406 3.519531 4.578125 3.507812 C 4.578125 3.507812 4.578125 3.496094 4.578125 3.496094 C 4.578125 3.484375 4.578125 3.484375 4.578125 3.472656 C 4.578125 3.472656 4.578125 3.472656 4.566406 3.472656 C 4.539062 3.472656 4.527344 3.472656 4.5 3.460938 C 4.476562 3.472656 4.460938 3.472656 4.4375 3.472656 C 4.410156 3.472656 4.382812 3.460938 4.371094 3.4375 C 4.359375 3.414062 4.359375 3.402344 4.359375 3.378906 C 4.359375 3.367188 4.371094 3.355469 4.371094 3.34375 C 4.371094 3.332031 4.382812 3.308594 4.382812 3.285156 C 4.371094 3.285156 4.371094 3.296875 4.359375 3.296875 L 4.359375 3.355469 L 4.34375 3.402344 C 4.332031 3.4375 4.304688 3.460938 4.265625 3.472656 C 4.242188 3.484375 4.214844 3.472656 4.1875 3.460938 C 4.164062 3.472656 4.136719 3.484375 4.097656 3.472656 C 4.070312 3.472656 4.046875 3.472656 4.019531 3.449219 C 3.992188 3.460938 3.96875 3.472656 3.941406 3.472656 C 3.925781 3.472656 3.914062 3.472656 3.886719 3.460938 C 3.875 3.472656 3.847656 3.472656 3.835938 3.472656 C 3.796875 3.472656 3.769531 3.460938 3.757812 3.4375 C 3.757812 3.414062 3.757812 3.402344 3.757812 3.378906 C 3.757812 3.367188 3.757812 3.355469 3.769531 3.34375 C 3.769531 3.332031 3.769531 3.308594 3.785156 3.285156 C 3.785156 3.285156 3.785156 3.285156 3.769531 3.285156 C 3.769531 3.285156 3.757812 3.296875 3.757812 3.296875 L 3.746094 3.355469 L 3.730469 3.402344 C 3.730469 3.425781 3.71875 3.4375 3.71875 3.449219 C 3.769531 3.449219 3.796875 3.472656 3.808594 3.519531 C 3.808594 3.519531 3.808594 3.519531 3.808594 3.53125 C 3.808594 3.566406 3.785156 3.601562 3.746094 3.625 C 3.730469 3.636719 3.703125 3.636719 3.691406 3.636719 C 3.691406 3.648438 3.703125 3.660156 3.703125 3.671875 C 3.703125 3.683594 3.691406 3.695312 3.691406 3.707031 C 3.703125 3.71875 3.703125 3.730469 3.703125 3.742188 C 3.691406 3.757812 3.679688 3.769531 3.664062 3.769531 C 3.664062 3.769531 3.664062 3.78125 3.664062 3.78125 C 3.664062 3.800781 3.652344 3.824219 3.652344 3.851562 C 3.652344 3.851562 3.652344 3.851562 3.664062 3.851562 C 3.679688 3.824219 3.703125 3.824219 3.71875 3.839844 C 3.71875 3.839844 3.71875 3.839844 3.730469 3.839844 C 3.730469 3.8125 3.746094 3.78125 3.746094 3.757812 C 3.746094 3.742188 3.746094 3.742188 3.746094 3.742188 C 3.769531 3.695312 3.808594 3.683594 3.863281 3.683594 C 3.875 3.683594 3.886719 3.683594 3.886719 3.695312 C 3.902344 3.683594 3.914062 3.683594 3.925781 3.683594 C 3.953125 3.683594 3.992188 3.695312 4.007812 3.707031 C 4.019531 3.695312 4.03125 3.683594 4.058594 3.671875 C 4.097656 3.671875 4.125 3.683594 4.148438 3.695312 C 4.164062 3.707031 4.164062 3.707031 4.164062 3.707031 C 4.175781 3.695312 4.1875 3.683594 4.214844 3.671875 C 4.253906 3.671875 4.28125 3.683594 4.304688 3.695312 C 4.320312 3.707031 4.332031 3.730469 4.320312 3.742188 C 4.320312 3.757812 4.304688 3.769531 4.292969 3.769531 C 4.292969 3.78125 4.28125 3.800781 4.28125 3.8125 C 4.28125 3.824219 4.28125 3.839844 4.28125 3.839844 C 4.292969 3.824219 4.320312 3.824219 4.332031 3.839844 C 4.359375 3.851562 4.359375 3.886719 4.34375 3.910156 C 4.320312 3.945312 4.265625 3.992188 4.203125 3.992188 C 4.175781 3.992188 4.164062 3.992188 4.148438 3.980469 C 4.109375 3.992188 4.058594 4.003906 4.019531 3.980469 C 3.992188 3.980469 3.980469 3.992188 3.953125 3.992188 C 3.925781 3.992188 3.902344 3.980469 3.886719 3.957031 C 3.875 3.933594 3.875 3.921875 3.875 3.898438 C 3.886719 3.886719 3.886719 3.875 3.886719 3.863281 C 3.886719 3.839844 3.902344 3.824219 3.902344 3.800781 C 3.886719 3.800781 3.886719 3.8125 3.886719 3.8125 L 3.875 3.863281 L 3.863281 3.921875 C 3.847656 3.957031 3.824219 3.980469 3.796875 3.992188 C 3.757812 4.003906 3.71875 3.992188 3.691406 3.96875 C 3.691406 3.96875 3.691406 3.957031 3.691406 3.957031 C 3.679688 3.957031 3.679688 3.957031 3.679688 3.957031 C 3.652344 3.980469 3.625 3.992188 3.585938 3.992188 C 3.5625 3.992188 3.546875 3.992188 3.535156 3.980469 C 3.496094 3.945312 3.496094 3.898438 3.507812 3.851562 C 3.496094 3.851562 3.496094 3.851562 3.484375 3.851562 C 3.46875 3.851562 3.46875 3.839844 3.457031 3.839844 C 3.457031 3.839844 3.457031 3.839844 3.445312 3.839844 L 3.429688 3.921875 C 3.417969 3.957031 3.40625 3.980469 3.367188 3.992188 C 3.339844 3.992188 3.328125 3.992188 3.300781 3.992188 C 3.300781 3.992188 3.289062 3.992188 3.273438 3.992188 C 3.261719 3.992188 3.261719 3.992188 3.261719 3.992188 C 3.261719 3.992188 3.25 3.992188 3.25 3.992188 C 3.25 4.003906 3.25 4.003906 3.234375 4.003906 C 3.234375 4.0625 3.222656 4.109375 3.183594 4.144531 C 3.171875 4.167969 3.144531 4.179688 3.132812 4.179688 C 3.078125 4.214844 3.027344 4.226562 2.960938 4.226562 C 2.859375 4.226562 2.726562 4.167969 2.699219 4.0625 C 2.6875 4.015625 2.6875 3.980469 2.699219 3.933594 C 2.714844 3.898438 2.742188 3.863281 2.765625 3.839844 C 2.78125 3.824219 2.792969 3.824219 2.804688 3.8125 C 2.804688 3.8125 2.820312 3.8125 2.832031 3.8125 C 2.882812 3.789062 2.949219 3.800781 3 3.8125 C 3.015625 3.824219 3.027344 3.839844 3.027344 3.851562 C 3.027344 3.863281 3.027344 3.875 3.015625 3.886719 C 2.988281 3.910156 2.960938 3.933594 2.949219 3.980469 C 2.949219 4.003906 2.960938 4.050781 3 4.0625 C 3 4.0625 3.015625 4.0625 3.015625 4.0625 C 3.027344 4.0625 3.054688 4.0625 3.054688 4.050781 C 3.066406 4.050781 3.066406 4.050781 3.066406 4.050781 C 3.066406 4.050781 3.066406 4.050781 3.078125 4.050781 C 3.105469 4.003906 3.078125 3.910156 3.066406 3.851562 C 3.066406 3.824219 3.054688 3.789062 3.039062 3.757812 C 3.039062 3.730469 3.027344 3.71875 3.027344 3.695312 C 2.949219 3.683594 2.859375 3.636719 2.832031 3.566406 Z M 2.882812 3.4375 C 2.898438 3.4375 2.910156 3.425781 2.921875 3.425781 C 2.9375 3.4375 2.949219 3.4375 2.949219 3.449219 C 2.976562 3.484375 3 3.519531 3.039062 3.542969 C 3.039062 3.53125 3.039062 3.53125 3.054688 3.53125 C 3.066406 3.519531 3.078125 3.496094 3.105469 3.496094 C 3.15625 3.472656 3.210938 3.472656 3.261719 3.496094 C 3.273438 3.507812 3.289062 3.53125 3.300781 3.542969 C 3.3125 3.566406 3.3125 3.589844 3.300781 3.601562 C 3.351562 3.601562 3.378906 3.636719 3.378906 3.671875 C 3.378906 3.683594 3.378906 3.683594 3.378906 3.683594 C 3.390625 3.683594 3.40625 3.683594 3.417969 3.683594 C 3.429688 3.683594 3.429688 3.683594 3.429688 3.683594 C 3.429688 3.683594 3.429688 3.683594 3.445312 3.683594 C 3.445312 3.683594 3.457031 3.683594 3.457031 3.683594 C 3.46875 3.683594 3.46875 3.683594 3.484375 3.683594 C 3.484375 3.683594 3.496094 3.683594 3.496094 3.683594 C 3.523438 3.683594 3.535156 3.695312 3.546875 3.71875 C 3.546875 3.707031 3.546875 3.707031 3.546875 3.707031 C 3.546875 3.695312 3.546875 3.683594 3.546875 3.671875 C 3.546875 3.636719 3.574219 3.613281 3.613281 3.601562 C 3.613281 3.589844 3.601562 3.578125 3.613281 3.566406 C 3.613281 3.554688 3.625 3.542969 3.640625 3.542969 C 3.625 3.53125 3.640625 3.507812 3.640625 3.484375 C 3.652344 3.484375 3.652344 3.484375 3.652344 3.484375 C 3.625 3.484375 3.613281 3.472656 3.585938 3.460938 C 3.5625 3.472656 3.523438 3.484375 3.496094 3.472656 C 3.46875 3.472656 3.445312 3.472656 3.417969 3.460938 C 3.40625 3.472656 3.378906 3.484375 3.351562 3.484375 C 3.328125 3.472656 3.3125 3.472656 3.289062 3.460938 C 3.273438 3.472656 3.25 3.484375 3.222656 3.472656 C 3.183594 3.472656 3.15625 3.460938 3.132812 3.449219 C 3.117188 3.425781 3.105469 3.402344 3.105469 3.378906 C 3.078125 3.378906 3.066406 3.390625 3.054688 3.402344 C 3 3.414062 2.9375 3.414062 2.882812 3.402344 C 2.882812 3.414062 2.882812 3.425781 2.882812 3.4375 Z M 4.148438 3.769531 C 4.148438 3.769531 4.136719 3.769531 4.136719 3.769531 C 4.136719 3.78125 4.136719 3.800781 4.125 3.8125 C 4.125 3.839844 4.125 3.851562 4.109375 3.875 C 4.125 3.875 4.125 3.875 4.125 3.875 Z M 4.148438 3.769531 "/>
<path style=" stroke:none;fill-rule:evenodd;fill:rgb(47.058824%,20%,10.980392%);fill-opacity:1;" d="M 4.773438 3.203125 C 4.789062 3.203125 4.789062 3.191406 4.789062 3.191406 C 4.773438 3.191406 4.773438 3.167969 4.773438 3.152344 C 4.773438 3.132812 4.800781 3.121094 4.8125 3.121094 C 4.839844 3.121094 4.867188 3.132812 4.867188 3.152344 C 4.867188 3.179688 4.851562 3.191406 4.839844 3.191406 C 4.851562 3.203125 4.851562 3.203125 4.867188 3.203125 C 4.867188 3.214844 4.867188 3.214844 4.867188 3.214844 C 4.867188 3.226562 4.851562 3.226562 4.851562 3.226562 C 4.839844 3.226562 4.839844 3.25 4.839844 3.25 C 4.839844 3.25 4.839844 3.25 4.828125 3.25 C 4.828125 3.285156 4.8125 3.320312 4.8125 3.355469 C 4.8125 3.367188 4.800781 3.390625 4.800781 3.402344 C 4.8125 3.390625 4.828125 3.378906 4.839844 3.378906 C 4.839844 3.378906 4.851562 3.367188 4.867188 3.367188 C 4.867188 3.355469 4.867188 3.355469 4.878906 3.355469 C 4.890625 3.332031 4.917969 3.355469 4.90625 3.367188 C 4.90625 3.367188 4.90625 3.367188 4.90625 3.378906 C 4.890625 3.390625 4.867188 3.414062 4.851562 3.425781 C 4.839844 3.4375 4.8125 3.449219 4.789062 3.449219 C 4.773438 3.449219 4.761719 3.449219 4.75 3.4375 C 4.722656 3.414062 4.734375 3.355469 4.734375 3.320312 C 4.75 3.296875 4.75 3.261719 4.761719 3.238281 C 4.761719 3.238281 4.761719 3.226562 4.761719 3.226562 C 4.761719 3.238281 4.75 3.25 4.75 3.25 C 4.722656 3.34375 4.695312 3.449219 4.683594 3.542969 C 4.671875 3.589844 4.632812 3.625 4.566406 3.636719 C 4.527344 3.636719 4.476562 3.625 4.449219 3.589844 C 4.449219 3.589844 4.449219 3.578125 4.460938 3.578125 C 4.460938 3.566406 4.460938 3.566406 4.476562 3.566406 C 4.5 3.578125 4.539062 3.589844 4.566406 3.566406 C 4.59375 3.554688 4.605469 3.53125 4.605469 3.507812 C 4.617188 3.484375 4.617188 3.460938 4.632812 3.4375 C 4.605469 3.449219 4.59375 3.449219 4.566406 3.449219 C 4.539062 3.449219 4.515625 3.4375 4.5 3.414062 C 4.488281 3.4375 4.460938 3.449219 4.4375 3.449219 C 4.421875 3.449219 4.398438 3.4375 4.398438 3.425781 C 4.382812 3.414062 4.398438 3.402344 4.398438 3.390625 C 4.398438 3.378906 4.398438 3.367188 4.398438 3.355469 C 4.410156 3.332031 4.410156 3.320312 4.410156 3.296875 C 4.421875 3.285156 4.421875 3.261719 4.410156 3.261719 C 4.410156 3.261719 4.410156 3.25 4.398438 3.25 C 4.382812 3.25 4.371094 3.261719 4.359375 3.261719 C 4.34375 3.273438 4.34375 3.285156 4.332031 3.296875 L 4.320312 3.34375 L 4.304688 3.402344 C 4.304688 3.425781 4.292969 3.4375 4.265625 3.449219 C 4.242188 3.449219 4.214844 3.449219 4.203125 3.4375 C 4.164062 3.449219 4.136719 3.449219 4.097656 3.449219 C 4.070312 3.449219 4.046875 3.4375 4.019531 3.414062 C 4.007812 3.425781 3.96875 3.449219 3.941406 3.449219 C 3.925781 3.449219 3.925781 3.449219 3.914062 3.4375 C 3.902344 3.4375 3.902344 3.425781 3.902344 3.425781 C 3.875 3.4375 3.863281 3.449219 3.835938 3.449219 C 3.808594 3.449219 3.796875 3.4375 3.796875 3.425781 C 3.785156 3.414062 3.785156 3.402344 3.785156 3.390625 C 3.796875 3.378906 3.796875 3.367188 3.796875 3.355469 C 3.796875 3.332031 3.808594 3.320312 3.808594 3.296875 C 3.808594 3.285156 3.824219 3.261719 3.808594 3.261719 C 3.808594 3.261719 3.796875 3.25 3.796875 3.25 C 3.785156 3.25 3.769531 3.261719 3.757812 3.261719 C 3.746094 3.273438 3.730469 3.285156 3.730469 3.296875 L 3.71875 3.34375 L 3.703125 3.402344 C 3.703125 3.425781 3.691406 3.4375 3.664062 3.449219 C 3.640625 3.449219 3.613281 3.449219 3.601562 3.4375 C 3.5625 3.449219 3.535156 3.449219 3.496094 3.449219 C 3.46875 3.449219 3.445312 3.4375 3.417969 3.414062 C 3.40625 3.4375 3.378906 3.449219 3.351562 3.449219 C 3.328125 3.449219 3.3125 3.4375 3.300781 3.425781 C 3.300781 3.425781 3.300781 3.414062 3.300781 3.414062 C 3.300781 3.425781 3.289062 3.425781 3.289062 3.425781 C 3.273438 3.4375 3.25 3.449219 3.222656 3.449219 C 3.195312 3.449219 3.171875 3.4375 3.15625 3.425781 C 3.132812 3.402344 3.132812 3.367188 3.132812 3.34375 C 3.132812 3.308594 3.15625 3.273438 3.171875 3.25 C 3.195312 3.214844 3.234375 3.203125 3.273438 3.191406 C 3.300781 3.191406 3.328125 3.191406 3.339844 3.214844 C 3.339844 3.203125 3.351562 3.191406 3.367188 3.191406 C 3.390625 3.191406 3.40625 3.191406 3.417969 3.203125 C 3.429688 3.214844 3.429688 3.214844 3.429688 3.226562 C 3.429688 3.226562 3.417969 3.226562 3.417969 3.226562 C 3.40625 3.226562 3.40625 3.25 3.390625 3.25 C 3.390625 3.285156 3.378906 3.320312 3.378906 3.367188 C 3.367188 3.367188 3.367188 3.390625 3.367188 3.402344 C 3.378906 3.390625 3.390625 3.390625 3.40625 3.378906 C 3.390625 3.34375 3.40625 3.320312 3.417969 3.285156 C 3.445312 3.238281 3.46875 3.203125 3.523438 3.191406 C 3.546875 3.191406 3.574219 3.191406 3.601562 3.191406 C 3.613281 3.203125 3.640625 3.214844 3.640625 3.238281 C 3.640625 3.238281 3.640625 3.25 3.640625 3.25 C 3.640625 3.285156 3.613281 3.296875 3.601562 3.320312 C 3.585938 3.332031 3.5625 3.34375 3.546875 3.34375 C 3.523438 3.355469 3.507812 3.355469 3.484375 3.34375 C 3.484375 3.34375 3.484375 3.332031 3.484375 3.332031 C 3.484375 3.34375 3.46875 3.355469 3.46875 3.355469 C 3.46875 3.367188 3.484375 3.378906 3.484375 3.390625 C 3.496094 3.390625 3.496094 3.390625 3.496094 3.390625 C 3.496094 3.390625 3.496094 3.390625 3.507812 3.390625 C 3.546875 3.402344 3.585938 3.390625 3.625 3.367188 C 3.625 3.355469 3.625 3.34375 3.640625 3.34375 C 3.640625 3.308594 3.652344 3.273438 3.652344 3.238281 C 3.664062 3.203125 3.703125 3.191406 3.730469 3.191406 C 3.746094 3.191406 3.746094 3.191406 3.746094 3.203125 C 3.746094 3.203125 3.746094 3.214844 3.746094 3.214844 C 3.757812 3.203125 3.785156 3.203125 3.808594 3.203125 C 3.835938 3.203125 3.875 3.214844 3.886719 3.238281 C 3.886719 3.261719 3.886719 3.296875 3.875 3.320312 C 3.875 3.34375 3.863281 3.355469 3.863281 3.367188 C 3.863281 3.378906 3.863281 3.390625 3.863281 3.390625 C 3.863281 3.390625 3.886719 3.378906 3.886719 3.378906 C 3.886719 3.378906 3.886719 3.378906 3.886719 3.367188 C 3.902344 3.355469 3.902344 3.332031 3.902344 3.320312 C 3.914062 3.273438 3.914062 3.238281 3.925781 3.203125 C 3.902344 3.203125 3.875 3.191406 3.875 3.167969 C 3.875 3.167969 3.875 3.152344 3.875 3.152344 C 3.875 3.152344 3.886719 3.140625 3.902344 3.140625 C 3.914062 3.152344 3.925781 3.152344 3.941406 3.140625 C 3.941406 3.121094 3.953125 3.097656 3.953125 3.070312 C 3.96875 3.058594 3.980469 3.035156 3.992188 3.035156 C 4.019531 3.023438 4.046875 3.035156 4.058594 3.046875 C 4.070312 3.046875 4.070312 3.058594 4.070312 3.058594 C 4.058594 3.070312 4.058594 3.070312 4.058594 3.070312 C 4.046875 3.070312 4.03125 3.085938 4.03125 3.097656 C 4.03125 3.109375 4.03125 3.132812 4.019531 3.140625 C 4.019531 3.140625 4.019531 3.140625 4.03125 3.140625 C 4.058594 3.140625 4.070312 3.152344 4.070312 3.191406 C 4.070312 3.191406 4.070312 3.191406 4.070312 3.203125 C 4.058594 3.203125 4.058594 3.203125 4.058594 3.203125 C 4.046875 3.191406 4.03125 3.191406 4.007812 3.203125 C 3.992188 3.261719 3.980469 3.320312 3.96875 3.390625 C 3.96875 3.390625 3.96875 3.390625 3.96875 3.402344 C 3.980469 3.390625 3.992188 3.378906 3.992188 3.378906 C 3.992188 3.378906 4.007812 3.378906 4.007812 3.378906 C 3.992188 3.34375 4.007812 3.308594 4.019531 3.285156 C 4.046875 3.238281 4.070312 3.203125 4.125 3.191406 C 4.148438 3.191406 4.175781 3.191406 4.203125 3.191406 C 4.226562 3.203125 4.242188 3.214844 4.242188 3.238281 C 4.242188 3.238281 4.242188 3.25 4.242188 3.25 C 4.242188 3.285156 4.226562 3.296875 4.203125 3.320312 C 4.1875 3.332031 4.164062 3.34375 4.148438 3.34375 C 4.136719 3.355469 4.109375 3.355469 4.097656 3.34375 C 4.085938 3.34375 4.085938 3.332031 4.085938 3.332031 C 4.085938 3.34375 4.085938 3.355469 4.085938 3.355469 C 4.085938 3.367188 4.085938 3.378906 4.097656 3.390625 C 4.109375 3.390625 4.109375 3.390625 4.109375 3.390625 C 4.148438 3.402344 4.1875 3.390625 4.226562 3.367188 C 4.226562 3.355469 4.242188 3.34375 4.242188 3.34375 C 4.242188 3.308594 4.253906 3.273438 4.253906 3.238281 C 4.265625 3.203125 4.304688 3.191406 4.34375 3.191406 C 4.34375 3.191406 4.34375 3.191406 4.34375 3.203125 C 4.359375 3.203125 4.359375 3.214844 4.34375 3.214844 C 4.371094 3.203125 4.382812 3.203125 4.410156 3.203125 C 4.4375 3.203125 4.476562 3.214844 4.488281 3.238281 C 4.5 3.261719 4.488281 3.296875 4.476562 3.320312 C 4.476562 3.34375 4.476562 3.355469 4.460938 3.367188 C 4.460938 3.378906 4.460938 3.390625 4.460938 3.390625 C 4.460938 3.390625 4.476562 3.378906 4.488281 3.378906 C 4.476562 3.332031 4.5 3.285156 4.527344 3.25 C 4.554688 3.214844 4.59375 3.203125 4.632812 3.191406 C 4.65625 3.191406 4.671875 3.191406 4.683594 3.214844 C 4.695312 3.203125 4.710938 3.191406 4.722656 3.191406 C 4.734375 3.179688 4.761719 3.191406 4.773438 3.203125 Z M 3.585938 3.238281 C 3.574219 3.238281 3.574219 3.238281 3.574219 3.238281 C 3.5625 3.238281 3.5625 3.238281 3.546875 3.25 C 3.523438 3.261719 3.507812 3.273438 3.496094 3.285156 C 3.507812 3.285156 3.523438 3.285156 3.535156 3.273438 C 3.546875 3.273438 3.5625 3.261719 3.574219 3.261719 C 3.574219 3.25 3.585938 3.25 3.585938 3.238281 Z M 4.109375 3.285156 C 4.125 3.285156 4.125 3.285156 4.136719 3.273438 C 4.148438 3.273438 4.164062 3.261719 4.175781 3.261719 C 4.175781 3.25 4.1875 3.25 4.1875 3.238281 C 4.1875 3.238281 4.175781 3.238281 4.175781 3.238281 C 4.164062 3.238281 4.164062 3.238281 4.148438 3.25 C 4.136719 3.261719 4.109375 3.273438 4.109375 3.285156 Z M 4.671875 3.25 C 4.644531 3.25 4.617188 3.261719 4.59375 3.285156 C 4.578125 3.308594 4.566406 3.332031 4.566406 3.355469 C 4.566406 3.367188 4.566406 3.378906 4.578125 3.390625 C 4.578125 3.390625 4.59375 3.390625 4.59375 3.390625 C 4.617188 3.390625 4.632812 3.378906 4.644531 3.367188 C 4.644531 3.332031 4.65625 3.285156 4.671875 3.25 Z M 3.3125 3.25 C 3.289062 3.25 3.261719 3.261719 3.25 3.285156 C 3.222656 3.308594 3.210938 3.332031 3.210938 3.355469 C 3.210938 3.367188 3.210938 3.378906 3.222656 3.390625 C 3.222656 3.390625 3.234375 3.390625 3.25 3.390625 C 3.261719 3.390625 3.289062 3.378906 3.300781 3.367188 C 3.300781 3.320312 3.3125 3.285156 3.3125 3.25 Z M 2.882812 3.058594 C 2.859375 3.070312 2.832031 3.085938 2.804688 3.097656 C 2.753906 3.152344 2.726562 3.238281 2.753906 3.308594 C 2.753906 3.308594 2.753906 3.320312 2.753906 3.320312 C 2.742188 3.320312 2.742188 3.320312 2.742188 3.320312 C 2.699219 3.320312 2.675781 3.308594 2.660156 3.285156 C 2.660156 3.285156 2.648438 3.285156 2.648438 3.285156 C 2.621094 3.273438 2.609375 3.25 2.609375 3.238281 C 2.597656 3.203125 2.609375 3.179688 2.621094 3.152344 C 2.636719 3.121094 2.660156 3.097656 2.6875 3.070312 C 2.726562 3.046875 2.78125 3.035156 2.820312 3.023438 C 2.949219 2.976562 3.105469 3.011719 3.15625 3.152344 C 3.183594 3.238281 3.144531 3.332031 3.039062 3.367188 C 2.988281 3.390625 2.921875 3.390625 2.871094 3.367188 C 2.859375 3.414062 2.84375 3.449219 2.832031 3.496094 C 2.820312 3.542969 2.792969 3.601562 2.726562 3.625 C 2.726562 3.625 2.714844 3.625 2.699219 3.625 C 2.660156 3.636719 2.621094 3.636719 2.597656 3.601562 C 2.582031 3.589844 2.570312 3.578125 2.570312 3.566406 C 2.570312 3.554688 2.582031 3.554688 2.582031 3.554688 C 2.558594 3.519531 2.582031 3.472656 2.609375 3.449219 C 2.609375 3.4375 2.609375 3.4375 2.621094 3.4375 C 2.621094 3.449219 2.636719 3.449219 2.636719 3.449219 C 2.636719 3.460938 2.648438 3.472656 2.648438 3.484375 C 2.660156 3.484375 2.675781 3.496094 2.6875 3.496094 C 2.742188 3.484375 2.753906 3.425781 2.765625 3.390625 C 2.78125 3.367188 2.78125 3.332031 2.792969 3.308594 C 2.792969 3.285156 2.804688 3.25 2.804688 3.226562 C 2.804688 3.203125 2.820312 3.167969 2.832031 3.140625 C 2.84375 3.109375 2.859375 3.070312 2.882812 3.058594 Z M 2.960938 3.058594 C 2.976562 3.058594 2.976562 3.070312 2.988281 3.070312 C 2.988281 3.085938 2.988281 3.085938 2.988281 3.097656 C 2.988281 3.097656 2.976562 3.097656 2.976562 3.097656 C 2.960938 3.097656 2.9375 3.097656 2.9375 3.109375 C 2.910156 3.132812 2.910156 3.152344 2.898438 3.179688 C 2.898438 3.179688 2.898438 3.191406 2.898438 3.191406 L 2.871094 3.308594 C 2.910156 3.320312 2.949219 3.320312 2.976562 3.296875 C 3.027344 3.273438 3.039062 3.214844 3.039062 3.167969 C 3.039062 3.121094 3.027344 3.085938 2.976562 3.058594 C 2.976562 3.058594 2.960938 3.058594 2.960938 3.058594 Z M 2.960938 3.058594 "/>
<path style=" stroke:none;fill-rule:evenodd;fill:rgb(94.117647%,63.921569%,37.647059%);fill-opacity:1;" d="M 2.9375 3.058594 C 2.859375 3.046875 2.832031 3.179688 2.820312 3.226562 C 2.804688 3.296875 2.804688 3.320312 2.78125 3.390625 C 2.765625 3.449219 2.742188 3.496094 2.699219 3.507812 C 2.648438 3.507812 2.621094 3.472656 2.621094 3.460938 C 2.53125 3.554688 2.648438 3.601562 2.742188 3.578125 C 2.6875 3.601562 2.636719 3.601562 2.582031 3.566406 C 2.597656 3.613281 2.675781 3.625 2.726562 3.613281 C 2.78125 3.589844 2.804688 3.542969 2.820312 3.484375 C 2.832031 3.449219 2.84375 3.402344 2.859375 3.355469 C 2.910156 3.378906 2.976562 3.378906 3.027344 3.355469 C 3.132812 3.320312 3.15625 3.238281 3.144531 3.152344 C 3.078125 2.976562 2.832031 2.988281 2.699219 3.085938 C 2.609375 3.152344 2.597656 3.226562 2.648438 3.273438 C 2.636719 3.238281 2.636719 3.191406 2.660156 3.167969 C 2.636719 3.238281 2.648438 3.296875 2.742188 3.308594 C 2.660156 3.046875 3.039062 2.941406 3.054688 3.167969 C 3.066406 3.261719 2.988281 3.367188 2.859375 3.320312 L 2.882812 3.191406 C 2.898438 3.132812 2.910156 3.085938 2.976562 3.085938 C 2.960938 3.070312 2.949219 3.070312 2.9375 3.058594 Z M 3.3125 3.367188 C 3.195312 3.460938 3.15625 3.355469 3.234375 3.273438 C 3.261719 3.25 3.289062 3.226562 3.328125 3.238281 C 3.328125 3.214844 3.3125 3.203125 3.273438 3.203125 C 3.144531 3.226562 3.09375 3.4375 3.222656 3.4375 C 3.273438 3.4375 3.300781 3.390625 3.3125 3.390625 C 3.3125 3.390625 3.3125 3.4375 3.351562 3.4375 C 3.390625 3.4375 3.445312 3.390625 3.457031 3.367188 C 3.457031 3.355469 3.457031 3.355469 3.445312 3.355469 C 3.445312 3.367188 3.390625 3.414062 3.367188 3.414062 C 3.351562 3.414062 3.351562 3.378906 3.351562 3.355469 C 3.367188 3.320312 3.378906 3.285156 3.378906 3.25 C 3.390625 3.238281 3.390625 3.214844 3.417969 3.214844 C 3.390625 3.191406 3.351562 3.191406 3.339844 3.238281 C 3.328125 3.285156 3.3125 3.332031 3.3125 3.378906 Z M 3.496094 3.402344 C 3.457031 3.402344 3.445312 3.355469 3.484375 3.296875 C 3.523438 3.226562 3.574219 3.226562 3.585938 3.226562 C 3.625 3.25 3.535156 3.308594 3.484375 3.308594 C 3.484375 3.378906 3.640625 3.308594 3.625 3.238281 C 3.625 3.226562 3.613281 3.214844 3.601562 3.203125 C 3.574219 3.203125 3.484375 3.179688 3.429688 3.285156 C 3.378906 3.378906 3.429688 3.4375 3.496094 3.4375 C 3.585938 3.4375 3.652344 3.390625 3.679688 3.355469 C 3.664062 3.355469 3.585938 3.414062 3.496094 3.402344 Z M 3.664062 3.25 C 3.652344 3.308594 3.652344 3.320312 3.652344 3.34375 C 3.640625 3.355469 3.640625 3.367188 3.640625 3.390625 C 3.625 3.402344 3.625 3.425781 3.601562 3.425781 C 3.640625 3.449219 3.679688 3.4375 3.691406 3.402344 L 3.703125 3.34375 L 3.71875 3.285156 C 3.730469 3.25 3.785156 3.238281 3.796875 3.238281 C 3.824219 3.25 3.835938 3.261719 3.824219 3.296875 C 3.808594 3.34375 3.808594 3.378906 3.808594 3.390625 C 3.796875 3.402344 3.796875 3.4375 3.835938 3.4375 C 3.875 3.4375 3.925781 3.390625 3.941406 3.367188 C 3.941406 3.355469 3.941406 3.355469 3.941406 3.355469 C 3.925781 3.367188 3.875 3.414062 3.847656 3.402344 C 3.824219 3.402344 3.886719 3.285156 3.875 3.25 C 3.863281 3.226562 3.835938 3.214844 3.808594 3.214844 C 3.757812 3.214844 3.730469 3.238281 3.730469 3.238281 C 3.71875 3.226562 3.730469 3.214844 3.730469 3.203125 C 3.691406 3.203125 3.679688 3.226562 3.664062 3.25 Z M 3.886719 3.152344 C 3.886719 3.179688 3.902344 3.191406 3.925781 3.191406 C 3.925781 3.191406 3.941406 3.191406 3.941406 3.191406 C 3.941406 3.226562 3.925781 3.273438 3.914062 3.320312 C 3.914062 3.34375 3.886719 3.4375 3.941406 3.4375 C 3.980469 3.4375 4.019531 3.390625 4.046875 3.367188 C 4.058594 3.355469 4.046875 3.355469 4.046875 3.355469 C 4.03125 3.367188 3.980469 3.414062 3.953125 3.414062 C 3.953125 3.402344 3.953125 3.390625 3.953125 3.378906 C 3.96875 3.320312 3.980469 3.25 4.007812 3.191406 C 4.019531 3.179688 4.03125 3.179688 4.058594 3.191406 C 4.058594 3.167969 4.058594 3.167969 4.03125 3.152344 C 4.019531 3.152344 4.007812 3.152344 4.007812 3.152344 C 4.007812 3.140625 4.019531 3.121094 4.019531 3.097656 C 4.03125 3.070312 4.03125 3.058594 4.058594 3.058594 C 4.019531 3.035156 3.980469 3.035156 3.96875 3.085938 C 3.96875 3.109375 3.953125 3.132812 3.953125 3.152344 C 3.925781 3.167969 3.914062 3.167969 3.886719 3.152344 Z M 4.097656 3.402344 C 4.058594 3.402344 4.046875 3.355469 4.085938 3.296875 C 4.125 3.226562 4.175781 3.226562 4.1875 3.226562 C 4.226562 3.25 4.136719 3.308594 4.085938 3.308594 C 4.097656 3.378906 4.242188 3.308594 4.226562 3.238281 C 4.226562 3.226562 4.214844 3.214844 4.203125 3.203125 C 4.175781 3.203125 4.085938 3.179688 4.03125 3.285156 C 3.992188 3.378906 4.046875 3.4375 4.097656 3.4375 C 4.1875 3.4375 4.253906 3.390625 4.28125 3.355469 C 4.292969 3.355469 4.292969 3.355469 4.28125 3.355469 C 4.265625 3.355469 4.1875 3.414062 4.097656 3.402344 Z M 4.265625 3.25 C 4.253906 3.308594 4.253906 3.320312 4.253906 3.34375 C 4.253906 3.355469 4.242188 3.367188 4.242188 3.390625 C 4.242188 3.402344 4.226562 3.425781 4.214844 3.425781 C 4.242188 3.449219 4.28125 3.4375 4.292969 3.402344 L 4.304688 3.34375 L 4.320312 3.285156 C 4.332031 3.25 4.382812 3.238281 4.398438 3.238281 C 4.421875 3.25 4.4375 3.261719 4.421875 3.296875 C 4.410156 3.34375 4.410156 3.378906 4.410156 3.390625 C 4.410156 3.402344 4.398438 3.4375 4.4375 3.4375 C 4.476562 3.4375 4.527344 3.390625 4.539062 3.367188 C 4.539062 3.355469 4.539062 3.355469 4.539062 3.355469 C 4.527344 3.367188 4.476562 3.414062 4.449219 3.402344 C 4.421875 3.402344 4.488281 3.285156 4.476562 3.25 C 4.460938 3.226562 4.4375 3.214844 4.410156 3.214844 C 4.371094 3.214844 4.332031 3.238281 4.332031 3.238281 C 4.332031 3.226562 4.332031 3.214844 4.34375 3.203125 C 4.292969 3.203125 4.28125 3.226562 4.265625 3.25 Z M 4.617188 3.519531 C 4.605469 3.578125 4.539062 3.613281 4.460938 3.578125 C 4.5 3.636719 4.644531 3.636719 4.671875 3.53125 C 4.683594 3.4375 4.710938 3.34375 4.734375 3.25 C 4.734375 3.238281 4.75 3.214844 4.761719 3.214844 C 4.734375 3.191406 4.695312 3.191406 4.683594 3.238281 C 4.683594 3.273438 4.65625 3.332031 4.65625 3.367188 C 4.539062 3.460938 4.515625 3.355469 4.578125 3.285156 C 4.605469 3.25 4.644531 3.226562 4.683594 3.238281 C 4.683594 3.214844 4.671875 3.203125 4.632812 3.203125 C 4.5 3.226562 4.449219 3.4375 4.566406 3.4375 C 4.605469 3.4375 4.632812 3.425781 4.644531 3.402344 C 4.644531 3.449219 4.632812 3.484375 4.617188 3.519531 Z M 4.851562 3.152344 C 4.851562 3.140625 4.839844 3.132812 4.8125 3.132812 C 4.800781 3.132812 4.789062 3.140625 4.789062 3.152344 C 4.789062 3.179688 4.800781 3.191406 4.8125 3.191406 C 4.839844 3.191406 4.851562 3.179688 4.851562 3.152344 Z M 4.890625 3.367188 C 4.890625 3.355469 4.890625 3.355469 4.890625 3.355469 C 4.878906 3.367188 4.828125 3.414062 4.800781 3.414062 C 4.789062 3.414062 4.789062 3.378906 4.800781 3.355469 C 4.800781 3.320312 4.8125 3.285156 4.8125 3.25 C 4.828125 3.238281 4.828125 3.214844 4.851562 3.214844 C 4.828125 3.191406 4.789062 3.191406 4.773438 3.238281 C 4.761719 3.261719 4.761719 3.296875 4.75 3.320312 C 4.75 3.355469 4.722656 3.4375 4.789062 3.4375 C 4.828125 3.4375 4.878906 3.390625 4.890625 3.367188 Z M 4.890625 3.367188 "/>
<path style=" stroke:none;fill-rule:evenodd;fill:rgb(47.058824%,20%,10.980392%);fill-opacity:1;" d="M 3.5625 3.78125 C 3.5625 3.769531 3.5625 3.769531 3.5625 3.757812 C 3.574219 3.730469 3.585938 3.71875 3.601562 3.707031 C 3.585938 3.695312 3.574219 3.683594 3.574219 3.671875 C 3.574219 3.648438 3.601562 3.636719 3.625 3.636719 C 3.652344 3.636719 3.664062 3.648438 3.664062 3.671875 C 3.664062 3.683594 3.664062 3.695312 3.640625 3.707031 C 3.652344 3.707031 3.664062 3.71875 3.664062 3.71875 C 3.664062 3.71875 3.664062 3.730469 3.664062 3.730469 C 3.664062 3.742188 3.664062 3.742188 3.652344 3.742188 C 3.652344 3.742188 3.640625 3.757812 3.640625 3.769531 C 3.625 3.800781 3.625 3.839844 3.613281 3.875 C 3.613281 3.886719 3.613281 3.910156 3.613281 3.910156 C 3.625 3.910156 3.640625 3.898438 3.640625 3.898438 C 3.652344 3.886719 3.664062 3.886719 3.664062 3.875 C 3.679688 3.875 3.679688 3.875 3.679688 3.863281 C 3.691406 3.851562 3.71875 3.875 3.703125 3.886719 C 3.691406 3.910156 3.679688 3.921875 3.664062 3.945312 C 3.640625 3.957031 3.613281 3.96875 3.585938 3.96875 C 3.574219 3.96875 3.5625 3.96875 3.5625 3.957031 C 3.523438 3.933594 3.535156 3.875 3.546875 3.839844 C 3.546875 3.824219 3.546875 3.824219 3.546875 3.8125 C 3.535156 3.824219 3.507812 3.824219 3.496094 3.824219 C 3.484375 3.8125 3.46875 3.800781 3.457031 3.789062 C 3.457031 3.800781 3.457031 3.800781 3.445312 3.800781 C 3.445312 3.8125 3.429688 3.8125 3.429688 3.8125 C 3.417969 3.8125 3.417969 3.8125 3.417969 3.8125 L 3.390625 3.910156 C 3.390625 3.933594 3.378906 3.957031 3.351562 3.96875 C 3.339844 3.96875 3.328125 3.96875 3.300781 3.957031 C 3.300781 3.96875 3.289062 3.96875 3.273438 3.96875 C 3.261719 3.96875 3.25 3.96875 3.234375 3.957031 C 3.210938 3.933594 3.222656 3.875 3.222656 3.839844 C 3.234375 3.800781 3.234375 3.78125 3.25 3.757812 C 3.25 3.730469 3.261719 3.71875 3.273438 3.707031 C 3.261719 3.695312 3.261719 3.683594 3.261719 3.671875 C 3.261719 3.648438 3.273438 3.636719 3.300781 3.636719 C 3.328125 3.636719 3.351562 3.648438 3.351562 3.671875 C 3.351562 3.683594 3.339844 3.695312 3.328125 3.707031 C 3.328125 3.707031 3.339844 3.71875 3.339844 3.71875 C 3.351562 3.71875 3.351562 3.730469 3.351562 3.730469 C 3.351562 3.742188 3.339844 3.742188 3.339844 3.742188 C 3.328125 3.742188 3.328125 3.757812 3.3125 3.769531 C 3.3125 3.800781 3.300781 3.839844 3.289062 3.875 C 3.289062 3.886719 3.289062 3.910156 3.289062 3.910156 C 3.300781 3.910156 3.3125 3.910156 3.3125 3.898438 L 3.351562 3.757812 C 3.351562 3.71875 3.390625 3.707031 3.429688 3.707031 C 3.429688 3.707031 3.429688 3.707031 3.445312 3.707031 C 3.445312 3.707031 3.457031 3.707031 3.457031 3.71875 C 3.457031 3.71875 3.457031 3.71875 3.457031 3.730469 C 3.457031 3.71875 3.457031 3.71875 3.457031 3.71875 C 3.46875 3.707031 3.46875 3.707031 3.484375 3.707031 C 3.484375 3.71875 3.496094 3.71875 3.496094 3.71875 C 3.507812 3.71875 3.507812 3.71875 3.523438 3.730469 C 3.523438 3.769531 3.523438 3.769531 3.5625 3.78125 Z M 4.019531 3.933594 C 4.007812 3.957031 3.980469 3.96875 3.953125 3.96875 C 3.941406 3.96875 3.925781 3.957031 3.914062 3.945312 C 3.914062 3.933594 3.914062 3.921875 3.914062 3.898438 C 3.914062 3.898438 3.914062 3.886719 3.914062 3.875 C 3.925781 3.851562 3.925781 3.824219 3.941406 3.8125 C 3.941406 3.800781 3.941406 3.78125 3.925781 3.78125 C 3.925781 3.769531 3.925781 3.769531 3.914062 3.769531 C 3.914062 3.769531 3.886719 3.769531 3.886719 3.78125 C 3.875 3.78125 3.863281 3.789062 3.847656 3.8125 L 3.835938 3.863281 L 3.824219 3.921875 C 3.824219 3.933594 3.808594 3.957031 3.785156 3.96875 C 3.757812 3.96875 3.730469 3.96875 3.71875 3.945312 C 3.71875 3.945312 3.71875 3.945312 3.71875 3.933594 C 3.71875 3.933594 3.71875 3.921875 3.730469 3.921875 C 3.746094 3.921875 3.746094 3.910156 3.746094 3.898438 C 3.746094 3.886719 3.757812 3.875 3.757812 3.851562 C 3.757812 3.824219 3.769531 3.789062 3.769531 3.757812 C 3.769531 3.757812 3.785156 3.757812 3.785156 3.757812 C 3.785156 3.71875 3.824219 3.707031 3.863281 3.707031 C 3.863281 3.707031 3.863281 3.707031 3.875 3.71875 C 3.875 3.71875 3.875 3.71875 3.875 3.730469 C 3.886719 3.71875 3.902344 3.71875 3.925781 3.71875 C 3.953125 3.707031 3.992188 3.71875 4.007812 3.757812 C 4.019531 3.78125 4.007812 3.8125 3.992188 3.839844 C 3.992188 3.851562 3.992188 3.875 3.980469 3.886719 C 3.980469 3.898438 3.980469 3.910156 3.980469 3.910156 C 3.992188 3.910156 3.992188 3.898438 4.007812 3.898438 C 4.007812 3.886719 4.007812 3.875 4.007812 3.851562 L 4.03125 3.757812 C 4.03125 3.730469 4.046875 3.707031 4.070312 3.707031 C 4.085938 3.695312 4.109375 3.707031 4.136719 3.71875 C 4.136719 3.71875 4.136719 3.730469 4.136719 3.730469 C 4.136719 3.742188 4.125 3.742188 4.125 3.742188 C 4.109375 3.757812 4.097656 3.789062 4.097656 3.800781 C 4.097656 3.824219 4.085938 3.851562 4.085938 3.863281 C 4.085938 3.875 4.085938 3.898438 4.097656 3.910156 C 4.109375 3.910156 4.125 3.910156 4.136719 3.898438 C 4.136719 3.898438 4.148438 3.886719 4.148438 3.875 L 4.175781 3.757812 C 4.1875 3.730469 4.203125 3.707031 4.226562 3.707031 C 4.242188 3.695312 4.265625 3.707031 4.292969 3.71875 C 4.292969 3.71875 4.292969 3.730469 4.292969 3.730469 C 4.292969 3.742188 4.28125 3.742188 4.28125 3.742188 C 4.265625 3.757812 4.253906 3.789062 4.253906 3.800781 C 4.242188 3.839844 4.242188 3.863281 4.226562 3.886719 C 4.226562 3.886719 4.226562 3.898438 4.226562 3.898438 C 4.226562 3.898438 4.226562 3.910156 4.226562 3.910156 C 4.242188 3.910156 4.253906 3.898438 4.253906 3.898438 C 4.265625 3.886719 4.265625 3.886719 4.28125 3.875 C 4.28125 3.875 4.292969 3.875 4.292969 3.863281 C 4.304688 3.863281 4.304688 3.863281 4.320312 3.863281 C 4.320312 3.875 4.332031 3.875 4.320312 3.886719 C 4.292969 3.921875 4.253906 3.96875 4.203125 3.96875 C 4.175781 3.96875 4.164062 3.957031 4.164062 3.945312 C 4.148438 3.945312 4.148438 3.945312 4.136719 3.957031 C 4.097656 3.96875 4.046875 3.96875 4.019531 3.933594 Z M 2.832031 3.851562 C 2.882812 3.8125 2.9375 3.824219 2.988281 3.851562 C 2.988281 3.851562 3 3.851562 3 3.851562 C 3 3.863281 3 3.863281 2.988281 3.863281 C 2.960938 3.898438 2.921875 3.921875 2.921875 3.96875 C 2.910156 4.015625 2.9375 4.074219 2.988281 4.085938 C 3 4.097656 3 4.097656 3.015625 4.097656 C 3.039062 4.097656 3.066406 4.097656 3.078125 4.074219 C 3.078125 4.074219 3.078125 4.074219 3.09375 4.074219 C 3.09375 4.074219 3.09375 4.0625 3.105469 4.0625 C 3.144531 4.003906 3.117188 3.910156 3.105469 3.851562 C 3.09375 3.8125 3.078125 3.78125 3.078125 3.742188 C 3.066406 3.71875 3.054688 3.695312 3.054688 3.671875 C 2.988281 3.660156 2.882812 3.625 2.859375 3.554688 C 2.859375 3.554688 2.859375 3.542969 2.859375 3.53125 C 2.859375 3.519531 2.871094 3.519531 2.871094 3.519531 C 2.871094 3.496094 2.882812 3.472656 2.910156 3.460938 C 2.921875 3.460938 2.921875 3.460938 2.921875 3.460938 C 2.960938 3.519531 3 3.554688 3.054688 3.578125 C 3.054688 3.566406 3.066406 3.554688 3.078125 3.542969 C 3.078125 3.53125 3.105469 3.519531 3.117188 3.519531 C 3.15625 3.496094 3.210938 3.496094 3.234375 3.519531 C 3.261719 3.53125 3.261719 3.542969 3.273438 3.554688 C 3.273438 3.566406 3.273438 3.589844 3.273438 3.601562 C 3.261719 3.636719 3.222656 3.660156 3.183594 3.671875 C 3.15625 3.671875 3.144531 3.683594 3.117188 3.683594 C 3.132812 3.695312 3.132812 3.695312 3.132812 3.707031 C 3.144531 3.730469 3.144531 3.742188 3.15625 3.769531 C 3.15625 3.78125 3.171875 3.800781 3.183594 3.824219 C 3.195312 3.886719 3.210938 3.945312 3.210938 4.003906 C 3.210938 4.050781 3.195312 4.097656 3.15625 4.132812 C 3.144531 4.144531 3.132812 4.15625 3.117188 4.15625 C 3.066406 4.179688 3.015625 4.191406 2.960938 4.191406 C 2.871094 4.191406 2.765625 4.144531 2.726562 4.050781 C 2.726562 4.015625 2.714844 3.980469 2.726562 3.945312 C 2.742188 3.910156 2.765625 3.875 2.792969 3.863281 C 2.792969 3.851562 2.804688 3.851562 2.820312 3.839844 C 2.820312 3.839844 2.832031 3.839844 2.832031 3.851562 Z M 3.769531 3.519531 C 3.769531 3.519531 3.769531 3.53125 3.769531 3.53125 C 3.769531 3.554688 3.757812 3.578125 3.730469 3.601562 C 3.703125 3.613281 3.664062 3.613281 3.652344 3.589844 C 3.640625 3.589844 3.640625 3.589844 3.640625 3.578125 C 3.640625 3.578125 3.652344 3.566406 3.652344 3.566406 C 3.664062 3.566406 3.679688 3.566406 3.679688 3.566406 C 3.664062 3.542969 3.664062 3.519531 3.679688 3.507812 C 3.679688 3.484375 3.703125 3.484375 3.71875 3.484375 C 3.746094 3.484375 3.769531 3.496094 3.769531 3.519531 Z M 3.15625 3.566406 C 3.15625 3.578125 3.15625 3.578125 3.15625 3.578125 C 3.132812 3.578125 3.132812 3.589844 3.117188 3.613281 C 3.144531 3.613281 3.171875 3.613281 3.183594 3.601562 C 3.195312 3.601562 3.195312 3.589844 3.195312 3.589844 C 3.210938 3.578125 3.210938 3.578125 3.195312 3.566406 C 3.195312 3.554688 3.171875 3.566406 3.15625 3.566406 Z M 3.15625 3.566406 "/>
<path style=" stroke:none;fill-rule:evenodd;fill:rgb(94.117647%,63.921569%,37.647059%);fill-opacity:1;" d="M 3.09375 4.085938 C 3.066406 4.109375 3.039062 4.109375 3.015625 4.109375 C 2.949219 4.097656 2.898438 4.039062 2.910156 3.96875 C 2.910156 3.921875 2.9375 3.898438 2.988281 3.863281 C 2.832031 3.789062 2.78125 3.910156 2.78125 3.992188 C 2.753906 3.945312 2.78125 3.898438 2.820312 3.851562 C 2.753906 3.886719 2.726562 3.957031 2.753906 4.050781 C 2.792969 4.191406 3.039062 4.226562 3.144531 4.121094 C 3.195312 4.0625 3.222656 3.96875 3.171875 3.824219 C 3.144531 3.78125 3.117188 3.71875 3.105469 3.660156 C 3.132812 3.671875 3.15625 3.660156 3.183594 3.660156 C 3.234375 3.648438 3.273438 3.601562 3.261719 3.554688 C 3.222656 3.484375 3.078125 3.519531 3.066406 3.601562 C 3 3.566406 2.949219 3.542969 2.910156 3.472656 C 2.859375 3.519531 2.898438 3.566406 2.9375 3.601562 C 2.910156 3.589844 2.882812 3.566406 2.871094 3.53125 C 2.859375 3.589844 2.960938 3.636719 3.066406 3.660156 C 3.09375 3.78125 3.195312 4.003906 3.09375 4.085938 Z M 3.144531 3.566406 C 3.25 3.519531 3.234375 3.660156 3.105469 3.613281 C 3.105469 3.589844 3.117188 3.578125 3.144531 3.566406 Z M 3.339844 3.671875 C 3.339844 3.660156 3.328125 3.648438 3.300781 3.648438 C 3.289062 3.648438 3.273438 3.660156 3.273438 3.671875 C 3.273438 3.683594 3.289062 3.695312 3.300781 3.695312 C 3.3125 3.695312 3.328125 3.683594 3.339844 3.671875 Z M 3.378906 3.886719 C 3.378906 3.875 3.378906 3.875 3.367188 3.875 C 3.367188 3.886719 3.300781 3.933594 3.289062 3.933594 C 3.273438 3.921875 3.273438 3.898438 3.273438 3.875 C 3.289062 3.839844 3.289062 3.800781 3.300781 3.769531 C 3.3125 3.742188 3.3125 3.730469 3.339844 3.730469 C 3.3125 3.707031 3.273438 3.707031 3.261719 3.757812 C 3.25 3.78125 3.25 3.8125 3.234375 3.839844 C 3.234375 3.875 3.210938 3.957031 3.273438 3.957031 C 3.3125 3.957031 3.367188 3.910156 3.378906 3.886719 Z M 3.429688 3.71875 C 3.390625 3.71875 3.367188 3.742188 3.367188 3.757812 L 3.328125 3.898438 C 3.328125 3.921875 3.3125 3.933594 3.300781 3.933594 C 3.339844 3.96875 3.378906 3.957031 3.378906 3.910156 L 3.40625 3.8125 C 3.40625 3.8125 3.457031 3.789062 3.46875 3.78125 C 3.484375 3.8125 3.507812 3.8125 3.546875 3.800781 C 3.523438 3.78125 3.507812 3.769531 3.496094 3.730469 C 3.496094 3.730469 3.46875 3.71875 3.46875 3.71875 C 3.457031 3.757812 3.445312 3.769531 3.417969 3.78125 C 3.417969 3.769531 3.429688 3.742188 3.445312 3.71875 C 3.445312 3.71875 3.429688 3.71875 3.429688 3.71875 Z M 3.652344 3.671875 C 3.652344 3.660156 3.640625 3.648438 3.625 3.648438 C 3.613281 3.648438 3.601562 3.660156 3.585938 3.671875 C 3.585938 3.683594 3.601562 3.695312 3.625 3.695312 C 3.640625 3.695312 3.652344 3.683594 3.652344 3.671875 Z M 3.691406 3.886719 C 3.703125 3.875 3.691406 3.875 3.691406 3.875 C 3.679688 3.886719 3.625 3.933594 3.601562 3.933594 C 3.585938 3.921875 3.601562 3.898438 3.601562 3.875 C 3.601562 3.839844 3.613281 3.800781 3.625 3.769531 C 3.625 3.742188 3.640625 3.730469 3.652344 3.730469 C 3.625 3.707031 3.585938 3.707031 3.574219 3.757812 C 3.574219 3.78125 3.5625 3.8125 3.5625 3.839844 C 3.546875 3.875 3.535156 3.957031 3.585938 3.957031 C 3.625 3.957031 3.679688 3.910156 3.691406 3.886719 Z M 3.757812 3.53125 C 3.757812 3.507812 3.746094 3.496094 3.71875 3.496094 C 3.679688 3.496094 3.664062 3.554688 3.703125 3.566406 C 3.691406 3.578125 3.679688 3.578125 3.652344 3.578125 C 3.703125 3.613281 3.757812 3.578125 3.757812 3.53125 Z M 3.796875 3.757812 C 3.785156 3.8125 3.769531 3.839844 3.769531 3.863281 C 3.769531 3.875 3.757812 3.886719 3.757812 3.910156 C 3.757812 3.921875 3.746094 3.933594 3.730469 3.945312 C 3.757812 3.96875 3.796875 3.957031 3.808594 3.910156 L 3.824219 3.863281 L 3.835938 3.800781 C 3.847656 3.769531 3.902344 3.757812 3.925781 3.757812 C 3.941406 3.757812 3.953125 3.78125 3.953125 3.8125 C 3.941406 3.863281 3.925781 3.898438 3.925781 3.910156 C 3.925781 3.910156 3.914062 3.945312 3.953125 3.945312 C 3.992188 3.957031 4.046875 3.898438 4.058594 3.875 C 4.046875 3.886719 3.992188 3.933594 3.96875 3.921875 C 3.953125 3.921875 4.007812 3.800781 3.992188 3.757812 C 3.980469 3.742188 3.96875 3.71875 3.925781 3.730469 C 3.886719 3.730469 3.847656 3.757812 3.847656 3.757812 C 3.847656 3.742188 3.847656 3.730469 3.863281 3.71875 C 3.808594 3.71875 3.796875 3.742188 3.796875 3.769531 Z M 4.214844 3.886719 C 4.226562 3.863281 4.226562 3.824219 4.242188 3.800781 C 4.242188 3.78125 4.253906 3.730469 4.28125 3.730469 C 4.253906 3.707031 4.203125 3.707031 4.203125 3.757812 L 4.164062 3.875 C 4.164062 3.921875 4.058594 3.957031 4.070312 3.863281 C 4.070312 3.851562 4.085938 3.824219 4.085938 3.800781 C 4.085938 3.78125 4.097656 3.730469 4.125 3.730469 C 4.097656 3.707031 4.046875 3.707031 4.046875 3.757812 L 4.019531 3.851562 C 3.992188 3.96875 4.109375 3.96875 4.164062 3.921875 C 4.164062 3.945312 4.175781 3.957031 4.203125 3.957031 C 4.242188 3.957031 4.28125 3.910156 4.304688 3.886719 C 4.304688 3.875 4.304688 3.875 4.304688 3.875 C 4.292969 3.886719 4.242188 3.933594 4.214844 3.933594 C 4.203125 3.921875 4.214844 3.910156 4.214844 3.886719 Z M 4.214844 3.886719 "/>
</g>
</svg>
