<?xml version="1.0" encoding="UTF-8"?>
<!DOCTYPE svg PUBLIC "-//W3C//DTD SVG 1.1//EN" "http://www.w3.org/Graphics/SVG/1.1/DTD/svg11.dtd">
<!-- Creator: CorelDRAW X7 -->
<svg xmlns="http://www.w3.org/2000/svg" xml:space="preserve" width="10.494cm" height="21cm" version="1.1" style="shape-rendering:geometricPrecision; text-rendering:geometricPrecision; image-rendering:optimizeQuality; fill-rule:evenodd; clip-rule:evenodd"
viewBox="0 0 379 757"
 xmlns:xlink="http://www.w3.org/1999/xlink">
 <defs>
  <style type="text/css">
   <![CDATA[
    .fil1 {fill:black}
    .fil0 {fill:black}
    .fil13 {fill:#333333}
    .fil5 {fill:#5E3816}
    .fil8 {fill:#78331C}
    .fil17 {fill:gray}
    .fil4 {fill:#966030}
    .fil14 {fill:#966030}
    .fil16 {fill:#999999}
    .fil7 {fill:#A33F1D}
    .fil15 {fill:#B3B3B3}
    .fil11 {fill:#B3B3B3}
    .fil6 {fill:#C75028}
    .fil3 {fill:#CC8242}
    .fil10 {fill:#CC8242}
    .fil12 {fill:#E6E6E6}
    .fil2 {fill:#F0A360}
    .fil9 {fill:#F0A360}
   ]]>
  </style>
 </defs>
 <g id="Layer_x0020_1">
  <metadata id="CorelCorpID_0Corel-Layer"/>
  <g id="_851733392">
   <g>
    <path class="fil0" d="M49 131c0,-1 1,-2 2,-3 2,-3 5,-5 8,-6 4,-3 9,-5 14,-7 7,-2 12,-8 16,-15 1,-2 2,-3 3,-5 0,-2 1,-4 2,-6l0 0 0 -1c2,-4 9,-4 13,-3 7,1 13,4 18,9 4,4 7,9 8,14 2,6 4,17 2,23 1,1 2,1 2,2l0 1 0 1c1,-1 1,-2 1,-3 5,-12 11,-24 19,-34 1,-2 2,-4 4,-6 9,-11 21,-19 34,-25 8,-5 16,-9 24,-13 11,-5 22,-10 32,-15 22,-10 45,-19 67,-28 9,-3 18,-7 28,-10l3 -1 2 3c1,3 2,6 3,9 1,7 2,15 1,22 -3,26 -20,47 -41,62 1,2 1,4 1,6 0,6 -3,12 -9,15 -3,2 -7,2 -11,3 -5,0 -10,0 -15,1 -7,0 -14,2 -21,3 -7,2 -14,5 -21,8 -12,5 -23,13 -29,25 -2,4 -3,8 -4,12 -1,4 -2,7 -3,11 -1,2 -1,4 -1,6 -1,4 -2,9 -2,14 0,2 0,4 0,6 0,2 0,3 1,5 0,3 0,7 -2,10 0,1 0,2 -1,3 -1,0 -2,1 -3,1 -1,1 -3,1 -5,1 0,1 -1,1 -2,1 0,2 0,4 0,6 -2,11 -3,22 -5,32 -1,5 -2,11 -2,17 -1,8 -2,16 -2,24 0,13 0,27 0,40 4,5 7,10 11,15 13,20 27,40 41,60 33,45 66,91 99,136 11,15 22,31 33,46 3,4 6,9 10,13 1,2 1,3 2,4 1,1 2,2 2,3 1,5 -3,10 -6,13 -4,5 -8,9 -13,13 -3,2 -7,5 -10,7 -3,2 -6,4 -9,6 -2,1 -4,2 -6,2 -5,0 -8,-2 -11,-5 -2,-2 -4,-3 -6,-5 -3,-3 -5,-6 -8,-9 -8,-10 -15,-19 -23,-29 -13,-15 -26,-31 -39,-47 -9,-10 -17,-20 -25,-30 -8,-10 -15,-21 -23,-31 2,29 3,58 2,87 -2,47 -9,117 -38,156l-6 6 -2 -8c0,-3 -1,-7 -2,-10 -2,-9 -3,-19 -5,-28 -5,-35 -9,-70 -12,-105 -5,-55 -7,-111 -8,-166 0,-11 0,-21 0,-32 -14,-21 -28,-42 -42,-63 -14,-21 -27,-41 -41,-62 -9,-16 -19,-31 -29,-47 -2,-5 -5,-10 -8,-15 -1,-1 -2,-3 -3,-5 0,-1 -1,-2 -1,-3 -2,-7 -3,-14 -1,-21 0,-2 1,-5 1,-7 0,0 0,-1 1,-1 0,0 0,-1 0,-1 0,-2 2,-6 3,-7 2,-4 4,-7 6,-10 3,-3 9,-13 12,-14 2,-1 4,-1 6,-1 1,-1 2,-1 2,-1 0,0 0,-1 1,-1 0,-6 6,-13 11,-17 1,-1 3,-1 5,-1zm83 22c-1,2 -2,4 -3,5 -2,3 -3,5 -5,7 -1,1 -1,1 -1,1 1,1 3,1 4,2 2,2 1,6 0,8 -1,2 -2,3 -4,4 -1,0 -1,0 -2,1 -1,1 -3,2 -4,3 -5,5 -8,11 -11,17 -2,5 -4,11 -3,18 0,1 1,4 2,6l0 0 0 0c2,5 5,10 7,15 3,7 7,13 11,19 2,5 5,10 8,14 1,-16 2,-33 3,-49 0,0 -1,-1 -2,-1 -3,-1 -6,-3 -8,-6 0,0 0,-1 0,-2 -1,-1 -1,-3 -1,-4 0,-3 1,-5 2,-8 1,-1 1,-2 2,-3 1,-7 2,-14 3,-22 0,-4 1,-8 1,-12 0,-3 1,-6 1,-9 0,-1 0,-3 0,-4z"/>
    <path class="fil1" d="M4 183c0,-2 2,-5 3,-7 2,-3 4,-6 6,-9 2,-3 9,-13 12,-14 2,-1 4,-1 6,-1 1,-1 2,-1 3,-3 0,-6 6,-12 10,-16 2,-1 4,-1 5,0 1,-2 2,-3 3,-4 2,-3 4,-5 7,-6 5,-3 10,-5 15,-7 7,-2 12,-8 16,-15 2,-3 4,-8 5,-11l0 -1 0 0c2,-4 8,-4 12,-3 7,1 13,4 17,9 4,4 7,9 8,14 2,5 4,16 2,21 0,1 0,1 0,1 1,1 2,2 2,3l0 0 0 1c0,8 -3,16 -8,23 -2,2 -3,4 -5,6 -1,1 -2,2 -2,3 0,0 0,0 1,0 1,1 3,1 4,2 2,2 1,5 0,7 -1,1 -2,2 -3,3 -1,0 -2,0 -3,1 -1,1 -3,2 -4,4 -5,4 -8,10 -11,16 -2,6 -4,12 -3,19 0,2 1,5 2,6l0 0 0 1c2,5 5,10 7,15 3,6 7,12 11,19 9,16 19,31 29,47 12,18 24,37 37,55 13,20 27,40 41,59 33,46 66,91 99,137 11,15 22,30 33,45 3,5 7,9 10,14 1,1 1,3 2,4 1,1 1,2 2,2 1,5 -3,9 -6,12 -3,5 -8,9 -13,13 -3,3 -6,5 -10,7 -3,2 -6,4 -9,6 -2,1 -3,1 -5,2 -4,0 -7,-2 -10,-5 -2,-1 -4,-3 -6,-5 -3,-3 -5,-6 -8,-9 -8,-9 -16,-19 -23,-28 -13,-16 -26,-32 -39,-47 -9,-10 -17,-21 -25,-31 -9,-12 -19,-25 -28,-37 -21,-29 -41,-58 -61,-87 -16,-23 -32,-47 -47,-70 -14,-20 -27,-41 -41,-62 -9,-15 -19,-31 -28,-46 -3,-5 -6,-10 -9,-15 -1,-2 -2,-3 -3,-5 0,-1 -1,-2 -1,-4 -2,-6 -2,-13 -1,-20 0,-2 1,-4 1,-6 1,-1 1,-2 1,-3z"/>
    <path class="fil2" d="M98 90c0,0 -6,22 -23,29 -18,7 -21,9 -24,18 0,0 -4,-3 -5,-2 0,1 -9,8 -9,14 -1,7 -8,5 -11,7 -3,1 -19,24 -19,27 0,2 -6,12 -1,29 4,16 166,265 242,355 75,89 76,97 88,91 12,-6 38,-27 36,-34 -2,-7 -239,-318 -271,-397 0,0 -6,-11 1,-28 8,-17 18,-23 20,-23 1,-1 3,-4 2,-5 0,0 -7,-1 -7,-4 1,-3 15,-13 16,-32 0,0 0,-1 -1,-1 -1,-1 -1,-3 -1,-5 3,-6 -1,-24 -9,-32 -10,-10 -23,-10 -24,-7z"/>
    <path class="fil3" d="M98 90c0,0 -6,22 -23,29 -18,7 -21,9 -24,18 0,0 -4,-3 -5,-2 0,1 -9,8 -9,14 -1,7 -8,5 -11,7 -2,0 -8,9 -13,16 7,25 18,48 18,48 0,0 15,-8 11,-28 -4,-20 14,-29 14,-29 0,0 -12,13 -9,26 2,13 -2,33 -7,46 -2,6 -3,17 -4,28 3,5 7,11 10,16 9,-5 18,-12 18,-12 0,0 194,295 196,302 2,6 32,51 55,61 8,4 21,12 34,20 11,-8 24,-21 23,-26 -2,-7 -239,-318 -271,-397 0,0 -6,-11 1,-28 8,-17 18,-23 20,-23 1,-1 3,-4 2,-5 0,0 -7,-1 -7,-4 1,-3 15,-13 16,-32 0,0 0,-1 -1,-1 -1,-1 -1,-3 -1,-5 3,-6 -1,-24 -9,-32 -10,-10 -23,-10 -24,-7z"/>
    <path class="fil4" d="M98 90c0,0 -6,22 -23,29 -18,7 -21,9 -24,18 0,0 -4,-3 -5,-2 0,0 -2,2 -4,4 17,6 36,11 38,0 3,-20 27,-24 27,-24 0,0 -23,10 -21,24 2,14 -12,31 -12,31 17,-2 22,-21 22,-21 -2,18 -16,23 -25,44 -10,20 13,48 10,62 -2,14 189,294 194,307 5,14 38,40 62,50 9,4 19,13 28,24 4,-5 8,-9 7,-12 -2,-7 -239,-318 -271,-397 0,0 -6,-11 1,-28 8,-17 18,-23 20,-23 1,-1 3,-4 2,-5 0,0 -7,-1 -7,-4 1,-3 15,-13 16,-32 0,0 0,-1 -1,-1 -1,-1 -1,-3 -1,-5 3,-6 -1,-24 -9,-32 -10,-10 -23,-10 -24,-7z"/>
    <path class="fil5" d="M124 172c0,0 0,-1 0,-1 0,0 -7,-1 -7,-4 1,-3 15,-13 16,-32 0,0 0,-1 -1,-1 -1,-1 -1,-3 -1,-5 3,-6 -1,-24 -9,-32 -7,-7 -15,-9 -20,-9 9,2 19,7 22,19 4,22 4,26 6,26 2,1 -3,16 -7,21 -4,4 -12,10 -9,13 2,2 7,4 10,5z"/>
    <path class="fil6" d="M37 264c51,82 155,236 211,303 12,15 23,27 31,38 17,-7 37,-19 50,-40 -70,-96 -204,-280 -228,-338 0,0 -1,-2 -2,-6 -20,8 -48,23 -62,43z"/>
    <path class="fil7" d="M303 592c9,-7 19,-16 26,-27 -70,-96 -204,-280 -228,-338 0,0 -1,-2 -2,-6 -16,7 -37,17 -52,32 7,38 54,100 61,105 8,6 18,24 18,24 -6,-32 -18,-47 -18,-47 8,4 36,51 62,105 26,54 84,117 84,117 -28,-41 -27,-84 -27,-84 9,46 45,89 76,119z"/>
    <path class="fil8" d="M323 574c2,-3 4,-6 6,-9 -70,-96 -204,-280 -228,-338 0,0 -1,-2 -2,-6 -12,5 -27,12 -40,22 3,17 8,31 8,31 3,-7 24,-7 24,-7 -13,11 1,40 1,40 10,-17 29,-13 29,-13 -14,0 -20,21 -20,21 6,-2 34,5 41,30 7,25 43,55 43,55 -3,24 24,63 24,63 -5,-19 4,-22 3,-36 0,-13 -14,-24 -14,-24 14,5 28,39 77,122 17,29 34,43 48,49z"/>
    <path class="fil1" d="M128 201c1,-8 2,-15 3,-22 0,-5 1,-9 1,-13 1,-3 1,-6 1,-9 0,-3 1,-7 2,-10 1,-5 3,-10 5,-15 4,-12 10,-23 18,-34 1,-2 2,-3 4,-5 9,-11 21,-19 33,-25 8,-5 17,-9 25,-13 10,-5 21,-10 32,-15 22,-9 44,-19 67,-27 9,-4 18,-7 27,-11l3 -1 1 3c1,2 2,6 3,8 1,7 2,15 1,22 -3,26 -21,46 -41,61 1,2 1,5 1,7 0,6 -3,11 -8,14 -4,2 -8,2 -11,3 -5,0 -10,0 -15,1 -15,1 -29,4 -42,11 -12,5 -24,13 -30,25 -2,4 -3,8 -5,13 -1,3 -1,7 -2,10 -1,2 -1,4 -2,6 0,5 -1,10 -1,15 0,2 -1,4 -1,7 1,1 1,3 1,4 1,3 1,7 -1,10 0,1 0,1 -1,2 0,0 -1,1 -2,1 -2,1 -3,1 -5,1 -3,1 -6,1 -9,2 -4,0 -10,0 -14,0 -6,-1 -12,-1 -18,-2 -3,-1 -5,-1 -8,-2 -2,0 -6,0 -8,-1 -3,-1 -5,-3 -6,-5 -1,-1 -1,-2 -1,-2 -1,-2 -1,-3 -1,-4 1,-2 1,-5 2,-7 1,-1 1,-2 2,-3z"/>
    <path class="fil9" d="M141 220c0,0 -10,1 -13,-4 -2,-6 2,-13 3,-14 0,0 4,-35 5,-44 1,-10 8,-36 24,-58 16,-22 41,-33 93,-57 52,-24 94,-38 94,-38 0,0 23,46 -37,89 0,0 4,13 -6,19 -10,6 -33,-1 -68,15 -34,17 -35,38 -38,51 -3,12 -4,28 -4,28 0,0 3,7 1,13 0,0 0,2 -15,4 -15,2 -39,-4 -39,-4z"/>
    <path class="fil10" d="M135 168c0,-4 1,-8 1,-10 1,-10 8,-36 24,-58 16,-22 41,-33 93,-57 7,-3 13,-6 19,-8 7,22 14,41 14,41l-50 37c0,0 -22,-7 -22,2 0,9 -5,13 -5,13 4,-1 7,-11 7,-11 0,0 2,4 -4,17 -1,3 -1,7 0,11 -9,11 -11,22 -13,30l-64 -7z"/>
    <path class="fil11" d="M141 220c0,0 -10,1 -13,-4 -2,-6 2,-13 3,-14 0,0 4,-34 5,-44 12,-4 37,-8 65,9 -1,4 -2,8 -3,12 -3,12 -4,28 -4,28 0,0 3,7 1,13 0,0 0,2 -15,4 -15,2 -39,-4 -39,-4z"/>
    <path class="fil12" d="M140 157c3,-1 6,-1 10,-2 -2,13 -5,37 -7,42 -3,7 -2,15 -2,15 0,0 40,2 49,6 0,0 -47,-7 -59,-3 0,0 -1,-9 3,-13 2,-3 5,-31 6,-45z"/>
    <path class="fil13" d="M152 155c4,-1 10,-1 15,0 2,15 -3,42 -3,42 0,0 16,4 18,3 2,-1 4,-22 4,-22 -3,10 -7,9 -7,9 3,-1 6,-20 7,-28 3,2 7,3 11,5l-5 40 2 1c0,1 0,2 0,2 0,0 2,3 2,8 -19,-10 -49,-11 -49,-11l5 -49z"/>
    <path class="fil14" d="M153 110c2,-3 5,-7 7,-10 16,-22 41,-33 93,-57 52,-24 94,-38 94,-38 9,38 -36,69 -40,72 -3,2 0,11 3,17 0,0 2,7 0,13 -13,-25 -74,6 -74,6 2,-16 25,-25 25,-25 -36,-1 -75,46 -75,46 0,0 6,-31 31,-42 25,-12 24,-20 24,-20 -10,11 -32,17 -45,19 -9,1 -31,13 -43,19z"/>
    <path class="fil1" d="M154 749c0,-4 -1,-7 -2,-10 -1,-9 -3,-19 -4,-28 -6,-35 -10,-70 -13,-105 -5,-55 -7,-111 -7,-166 -1,-74 2,-147 8,-221l0 -1c16,-5 34,-2 51,1l-1 1c0,5 0,9 -1,13 -1,11 -2,21 -4,32 -2,5 -2,11 -3,16 0,9 -1,17 -1,25 -1,21 0,42 1,62 1,10 2,20 3,30 1,10 3,19 5,28 2,10 3,20 4,29 2,14 4,27 5,40 3,33 4,67 3,100 -2,46 -9,117 -38,155l-4 5 -2 -6z"/>
    <path class="fil15" d="M157 748c0,0 -45,-202 -18,-529 0,0 13,-4 45,1 0,0 -1,20 -6,44 -5,24 -7,108 5,163 12,55 29,251 -26,321z"/>
    <path class="fil16" d="M131 448c-1,-51 0,-107 4,-168 2,5 3,10 4,14 3,17 5,21 8,29 2,7 -6,2 2,13 7,11 8,11 3,19 0,0 3,-8 -3,-10 0,0 3,2 0,6 -3,5 -17,23 -15,36 3,13 -3,28 12,43 16,14 29,34 23,48 -6,15 -13,14 -11,23 3,10 -4,13 -4,13 0,0 9,-1 10,-13 0,0 9,11 6,23 -4,12 -1,15 1,22 3,6 0,13 -12,19 0,0 21,1 20,11 -1,10 -5,22 -3,27 1,6 -6,15 -3,18 3,3 9,1 6,8 -3,6 -4,8 -2,10 0,0 -11,-1 -10,-12 0,0 -5,22 4,20 9,-2 10,-3 10,-3 0,0 -6,4 -5,7 0,2 -2,17 -12,11 0,0 -11,-17 -7,-30 5,-14 -3,-34 -8,-38 0,0 6,-3 11,8 0,0 -1,-10 -8,-13 -8,-3 8,-16 13,-15 0,0 -10,-5 -18,2 0,0 4,-18 14,-24 9,-6 -13,-20 -8,-32 0,0 -13,5 -9,20 0,0 -13,-25 -5,-43 3,-8 -2,-28 -8,-49z"/>
    <path class="fil17" d="M157 748c0,0 -1,-7 -3,-19 6,-12 6,-41 3,-50 -3,-11 7,-10 7,-10 1,15 5,18 5,18 -4,-10 2,-15 7,-18 6,-2 5,-10 3,-16 -2,-6 2,-5 4,-8 3,-3 -3,-3 0,-14 3,-10 -1,-7 -5,-11 -4,-4 5,-10 2,-18 -2,-7 2,-10 4,-23 2,-14 -13,-17 -13,-17 13,-4 3,-19 5,-30 2,-11 0,-73 -8,-89 -8,-16 -9,-37 -9,-37 2,8 11,15 11,15 -8,-13 -15,-128 -7,-137 7,-10 9,-25 9,-25 -3,4 -7,6 -7,6 9,-12 11,-30 11,-46 2,0 5,1 8,1 0,0 -1,20 -6,44 -5,24 -7,108 5,163 12,55 29,251 -26,321zm-15 -105c-4,-38 -8,-86 -10,-143 6,26 8,52 6,60 -2,11 2,39 10,59 4,10 -1,18 -6,24z"/>
   </g>
   <path class="fil0" d="M217 302c-2,3 -4,5 -7,7 -1,0 -1,0 -2,1 -4,0 -8,0 -11,-3 -1,-2 -2,-3 -2,-5 0,-1 0,-1 0,-2 -1,-3 0,-7 3,-10 1,-1 2,-1 4,-1 1,0 2,2 2,3 0,0 1,1 1,1 0,0 0,0 1,0 1,0 2,-2 2,-3 1,-1 1,-2 2,-4 0,-1 0,-1 0,-2 0,0 0,0 -1,0 -2,-1 -4,-2 -6,-3 -1,0 -1,-1 -2,-1 -2,-2 -3,-3 -3,-6 -1,-3 -1,-6 1,-8 1,-3 3,-5 6,-7 3,-3 6,-5 10,-6 12,-3 25,0 29,13 0,1 1,3 1,4 1,-1 3,-2 6,-2 1,-1 3,-1 5,0 0,0 1,0 2,0 2,-1 4,0 6,1 0,1 1,1 1,1 1,-1 3,-2 4,-2 3,-1 6,-1 8,0 0,0 0,0 0,0 1,1 2,1 3,2 1,-1 4,-2 6,-2 1,0 2,0 3,1 1,0 1,-1 2,-1 2,0 3,0 4,1 0,0 0,0 0,-1 0,0 0,-1 0,-2 1,-2 2,-2 4,-2 0,0 1,0 1,0 0,-1 1,-3 1,-4 0,-3 2,-5 5,-6 2,0 5,0 7,2 1,1 1,3 1,4 0,1 -1,2 -2,2 0,0 0,0 0,1 -1,0 -1,1 -1,1 2,1 3,2 4,4 0,0 0,0 1,0 2,-1 5,-1 7,0 0,0 0,0 0,0 1,1 2,1 3,2 2,-1 4,-2 7,-2 0,0 1,0 2,1 1,0 2,-1 2,-1 4,0 7,2 9,5 2,-3 5,-5 8,-5 2,-1 4,-1 5,0 1,0 2,0 2,-1 1,0 2,0 2,0 0,0 0,0 0,0 1,-3 3,-6 6,-6 4,0 6,3 6,6 0,1 0,2 0,3 0,1 1,2 0,3 0,1 -1,2 -2,2 0,1 0,1 0,1 0,0 0,0 0,0 -1,2 -1,4 -2,6 1,0 1,0 1,0 1,-1 3,-2 5,-1 1,1 2,3 1,5 0,0 0,0 0,1 -1,2 -3,3 -4,5 -2,1 -5,3 -7,3 0,0 0,0 0,0 -2,0 -3,-1 -4,-2 -1,3 -1,5 -2,7 -1,5 -5,9 -10,10 -4,1 -10,-1 -12,-5 0,-1 0,-3 1,-4 1,-1 2,-1 4,-1 1,1 3,1 5,0 1,-1 1,-2 2,-3 0,0 0,-1 0,-1 0,-1 0,-1 0,-2 0,0 0,0 -1,0 -2,0 -3,0 -5,-1 -2,1 -3,1 -5,1 0,0 0,0 0,0 -2,0 -4,-1 -5,-3 -1,-2 -1,-3 -1,-5 0,0 0,0 0,0 0,-1 1,-2 1,-3 0,-1 1,-3 1,-5 0,0 0,0 0,0 0,0 0,0 0,0 -1,0 -1,1 -2,1l0 5 -1 4c-1,3 -3,5 -6,6 -2,1 -4,0 -6,-1 -2,1 -4,2 -7,1 -2,0 -4,0 -6,-2 -2,1 -4,2 -6,2 -1,0 -2,0 -4,-1 0,0 0,0 0,0 -1,1 -3,1 -4,1 0,0 0,0 0,0 -3,0 -5,-1 -6,-3 0,-2 0,-3 0,-5 0,0 0,0 0,0 0,-1 0,-2 1,-3 0,-1 0,-3 1,-5 0,0 0,0 0,0 0,0 0,0 -1,0 0,0 -1,1 -1,1l-1 5 -1 4c0,2 -1,3 -1,4 0,0 0,0 0,0 4,0 6,2 7,6 0,0 0,0 0,1 0,3 -2,6 -5,8 -1,1 -3,1 -4,1 0,1 1,2 1,3 0,1 -1,2 -1,3 1,1 1,2 1,3 -1,1 -2,2 -3,2 0,0 0,1 0,1 0,0 0,0 0,0 0,2 -1,4 -1,6 0,0 0,0 1,0 1,-2 3,-2 4,-1 0,0 0,0 1,0 0,-2 1,-5 1,-7 0,-1 0,-1 0,-1 2,-4 5,-5 9,-5 1,0 2,0 2,1 1,-1 2,-1 3,-1 2,0 5,1 6,2 1,-1 2,-2 4,-3 3,0 5,1 7,2 1,1 1,1 1,1 1,-1 2,-2 4,-3 3,0 5,1 7,2 1,1 2,3 1,4 0,1 -1,2 -2,2 0,1 -1,3 -1,4 0,0 0,0 0,0 0,1 0,2 0,2 1,-1 3,-1 4,0 2,1 2,4 1,6 0,0 0,0 0,0 -2,3 -6,7 -11,7 -2,0 -3,0 -4,-1 -3,1 -7,2 -10,0 -2,0 -3,1 -5,1 0,0 0,0 0,0 -2,0 -4,-1 -5,-3 -1,-2 -1,-3 -1,-5 0,0 0,0 0,0 1,-1 1,-2 1,-3 0,-2 1,-3 1,-5 0,0 0,0 0,0 0,0 0,0 0,0 -1,0 -1,1 -1,1l-1 4 -1 5c-1,3 -3,5 -5,6 -3,1 -6,0 -8,-2 0,0 0,-1 0,-1 -1,0 -1,0 -1,0 -2,2 -4,3 -7,3 0,0 0,0 0,0 -2,0 -3,0 -4,-1 -3,-3 -3,-7 -2,-11 -1,0 -1,0 -2,0 -1,0 -1,-1 -2,-1 0,0 0,0 -1,0l-1 7c-1,3 -2,5 -5,6 -2,0 -3,0 -5,0 0,0 -1,0 -2,0 -1,0 -1,0 -1,0 0,0 -1,0 -1,0 0,1 0,1 -1,1 0,5 -1,9 -4,12 -1,2 -3,3 -4,3 -4,3 -8,4 -13,4 -8,0 -18,-5 -20,-14 -1,-4 -1,-7 0,-11 1,-3 3,-6 5,-8 1,-1 2,-1 3,-2 0,0 1,0 2,0 4,-2 9,-1 13,0 1,1 2,2 2,3 0,1 0,2 -1,3 -2,2 -4,4 -5,8 0,2 1,6 4,7 0,0 1,0 1,0 1,0 3,0 3,-1 1,0 1,0 1,0 0,0 0,0 1,0 2,-4 0,-12 -1,-17 0,-2 -1,-5 -2,-8 0,-2 -1,-3 -1,-5 -6,-1 -13,-5 -15,-11zm4 -11c1,0 2,-1 3,-1 1,1 2,1 2,2 2,3 4,6 7,8 0,-1 0,-1 1,-1 1,-1 2,-3 4,-3 4,-2 8,-2 12,0 1,1 2,3 3,4 1,2 1,4 0,5 4,0 6,3 6,6 0,1 0,1 0,1 1,0 2,0 3,0 1,0 1,0 1,0 0,0 0,0 1,0 0,0 1,0 1,0 1,0 1,0 2,0 0,0 1,0 1,0 2,0 3,1 4,3 0,-1 0,-1 0,-1 0,-1 0,-2 0,-3 0,-3 2,-5 5,-6 0,-1 -1,-2 0,-3 0,-1 1,-2 2,-2 -1,-1 0,-3 0,-5 1,0 1,0 1,0 -2,0 -3,-1 -5,-2 -2,1 -5,2 -7,1 -2,0 -4,0 -6,-1 -1,1 -3,2 -5,2 0,0 0,0 0,0 -2,-1 -3,-1 -5,-2 -1,1 -3,2 -5,1 -3,0 -5,-1 -7,-2 -1,-2 -2,-4 -2,-6 -2,0 -3,1 -4,2 -4,1 -9,1 -13,0 0,1 0,2 0,3zm97 28c0,0 -1,0 -1,0 0,1 0,3 -1,4 0,0 0,0 0,0 0,2 0,3 -1,5 0,0 0,0 0,0 0,0 0,0 0,0 1,0 1,0 1,0l2 -9z"/>
   <g>
    <path class="fil8" d="M366 271c1,0 1,-1 1,-1 -1,0 -1,-2 -1,-3 0,-2 2,-3 3,-3 2,0 4,1 4,3 0,2 -1,3 -2,3 1,1 1,1 2,1 0,1 0,1 0,1 0,1 -1,1 -1,1 -1,0 -1,2 -1,2 0,0 0,0 -1,0 0,3 -1,6 -1,9 0,1 -1,3 -1,4 1,-1 2,-2 3,-2 0,0 1,-1 2,-1 0,-1 0,-1 1,-1 1,-2 3,0 2,1l0 0c0,0 0,0 0,1 -1,1 -3,3 -4,4 -1,1 -3,2 -5,2 0,0 0,0 0,0 -1,0 -2,0 -3,-1 -2,-2 -1,-7 -1,-10 1,-2 1,-5 2,-7 0,0 0,-1 0,-1 0,1 -1,2 -1,2 -2,8 -4,17 -5,25 -1,4 -4,7 -9,8 -3,0 -7,-1 -9,-4 0,0 0,-1 1,-1 0,-1 0,-1 1,-1 2,1 5,2 7,0 2,-1 3,-3 3,-5 0,0 0,0 0,0 1,-2 1,-4 2,-6 -2,1 -3,1 -5,1 -2,0 -4,-1 -5,-3 -1,2 -3,3 -5,3 0,0 0,0 0,0 -1,0 -3,-1 -3,-2 -1,-1 0,-2 0,-3 0,0 0,0 0,0 0,-1 0,-2 0,-3 1,-2 1,-3 1,-5 1,-1 1,-3 0,-3 0,0 0,-1 -1,-1 -1,0 -2,1 -3,1 -1,1 -1,2 -2,3l-1 4 -1 5c0,2 -1,3 -3,4 -2,0 -4,0 -5,-1 0,0 0,0 0,0 -3,1 -5,1 -8,1 -2,0 -4,-1 -6,-3 -1,1 -4,3 -6,3 -1,0 -1,0 -2,-1 -1,0 -1,-1 -1,-1 -2,1 -3,2 -5,2 0,0 0,0 0,0 -2,0 -3,-1 -3,-2 -1,-1 -1,-2 -1,-3 0,0 0,0 0,0 1,-1 1,-2 1,-3 0,-2 1,-3 1,-5 0,-1 1,-3 0,-3 0,0 -1,-1 -1,-1 -1,0 -2,1 -3,1 -1,1 -2,2 -2,3l-1 4 -1 5c0,2 -1,3 -3,4 -2,0 -4,0 -5,-1 0,0 0,0 0,0 -3,1 -5,1 -8,1 -2,0 -4,-1 -6,-3 -1,2 -3,3 -5,3 0,0 0,0 0,0 -2,0 -3,-1 -4,-2 0,0 0,-1 0,-1 0,1 -1,1 -1,1 -1,1 -3,2 -5,2 -2,0 -4,-1 -5,-2 -2,-2 -2,-5 -2,-7 0,-3 2,-6 3,-8 2,-3 5,-4 8,-5 2,0 4,0 5,2 0,-1 1,-2 2,-2 2,0 3,0 4,1 1,1 1,1 1,2 0,0 -1,0 -1,0 -1,0 -1,2 -2,2 0,3 -1,6 -1,10 -1,0 -1,2 -1,3 1,-1 2,-1 3,-2 -1,-3 0,-5 1,-8 2,-4 4,-7 8,-8 2,0 4,0 6,0 0,0 0,0 0,0 1,1 3,2 3,4 0,0 0,1 0,1 0,3 -2,4 -3,6 -1,1 -3,2 -4,2 -2,1 -3,1 -5,0 0,0 0,-1 0,-1 0,1 -1,2 -1,2 0,1 1,2 1,3 1,0 1,0 1,0 0,0 0,0 1,0 3,1 6,0 9,-2 0,-1 0,-2 1,-2 0,-3 1,-6 1,-9 0,0 0,0 0,0 1,-3 4,-4 6,-4 1,0 1,0 1,1 0,0 0,1 0,1 0,0 0,0 0,0 1,-1 3,-1 5,-1 2,0 5,1 6,3 0,0 0,0 0,0 0,2 0,5 -1,7 0,2 -1,3 -1,4 0,1 0,2 0,2 0,0 2,-1 2,-1 0,0 0,0 0,-1 1,-1 1,-3 1,-4 1,-4 1,-7 2,-10 0,0 0,0 0,0 0,0 0,0 0,0 -2,0 -4,-1 -4,-3 0,0 0,-1 0,-1 0,0 1,-1 2,-1 1,1 2,1 3,0 0,-2 1,-4 1,-6 1,-1 2,-3 3,-3 2,-1 4,0 5,1 1,0 1,1 1,1 -1,1 -1,1 -1,1 -1,0 -2,1 -2,2 0,1 0,3 -1,4 0,0 0,0 1,0 0,0 0,0 0,0 2,0 3,1 3,4 0,0 0,0 0,1 -1,0 -1,0 -1,0 -1,-1 -2,-1 -4,0 -1,5 -2,10 -3,16 0,0 0,0 0,1 1,-1 2,-2 2,-2 0,0 1,0 1,0 -1,-3 0,-6 1,-8 2,-4 4,-7 8,-8 2,0 4,0 6,0 0,0 0,0 0,0 2,1 3,2 3,4 0,0 0,1 0,1 0,3 -1,4 -3,6 -1,1 -3,2 -4,2 -1,1 -3,1 -4,0 -1,0 -1,-1 -1,-1 0,1 0,2 0,2 0,1 0,2 1,3 0,0 0,0 0,0 1,0 1,0 1,0 3,1 6,0 9,-2 0,-1 1,-2 1,-2 0,-3 1,-6 1,-9 0,0 0,0 0,0 1,-3 4,-4 7,-4 0,0 0,0 0,1 1,0 1,1 0,1 0,0 0,0 0,0 2,-1 3,-1 5,-1 2,0 5,1 6,3 0,0 0,0 0,0 1,2 0,5 -1,7 0,2 0,3 -1,4 0,1 0,2 0,2 0,0 1,-1 2,-1 -1,-4 1,-8 3,-11 2,-3 5,-4 8,-5 2,0 3,0 4,2 1,-1 2,-2 3,-2 1,-1 3,0 4,1 0,0 0,0 0,0zm-91 3c0,0 0,0 0,0 -1,0 -1,0 -1,0 -1,0 -1,0 -2,1 -2,1 -3,2 -4,3 1,0 2,0 3,-1 1,0 2,-1 3,-1 0,-1 1,-1 1,-2zm40 4c1,0 1,0 2,-1 1,0 2,-1 3,-1 0,-1 1,-1 1,-2 0,0 0,0 0,0 0,0 -1,0 -1,0 -1,0 -1,0 -2,1 -1,1 -3,2 -3,3zm43 -3c-2,0 -4,1 -6,3 -1,2 -2,4 -2,6 0,1 0,2 1,3 0,0 1,0 1,0 2,0 3,-1 4,-2 0,-3 1,-7 2,-10zm-104 0c-2,0 -4,1 -5,3 -2,2 -3,4 -3,6 0,1 0,2 1,3 0,0 1,0 2,0 1,0 3,-1 4,-2 0,-4 1,-7 1,-10zm-33 -16c-2,1 -4,2 -6,3 -4,5 -6,12 -4,18 0,0 0,1 0,1 -1,0 -1,0 -1,0 -3,0 -5,-1 -6,-3 0,0 -1,0 -1,0 -2,-1 -3,-3 -3,-4 -1,-3 0,-5 1,-7 1,-3 3,-5 5,-7 3,-2 7,-3 10,-4 10,-4 22,-1 26,11 2,7 -1,15 -9,18 -4,2 -9,2 -13,0 -1,4 -2,7 -3,11 -1,4 -3,9 -8,11 0,0 -1,0 -2,0 -3,1 -6,1 -8,-2 -1,-1 -2,-2 -2,-3 0,-1 1,-1 1,-1 0,0 0,0 0,0 0,0 0,0 0,0 -2,-3 0,-7 2,-9 0,-1 0,-1 1,-1 0,1 1,1 1,1 0,1 1,2 1,3 1,0 2,1 3,1 4,-1 5,-6 6,-9 1,-2 1,-5 2,-7 0,-2 1,-5 1,-7 0,-2 1,-5 2,-7 1,-3 2,-6 4,-7zm6 0c1,0 1,1 2,1 0,1 0,1 0,2 0,0 -1,0 -1,0 -1,0 -3,0 -3,1 -2,2 -2,4 -3,6 0,0 0,1 0,1l-2 10c3,1 6,1 8,-1 4,-2 5,-7 5,-11 0,-4 -1,-7 -5,-9 0,0 -1,0 -1,0z"/>
    <path class="fil9" d="M225 259c-6,-1 -8,10 -9,14 -1,6 -1,8 -3,14 -1,5 -3,9 -6,10 -4,0 -6,-3 -6,-4 -7,8 2,12 9,10 -4,2 -8,2 -12,-1 1,4 7,5 11,4 4,-2 6,-6 7,-11 1,-3 2,-7 3,-11 4,2 9,2 13,0 8,-3 10,-10 9,-17 -5,-15 -24,-14 -34,-6 -7,6 -8,12 -4,16 -1,-3 -1,-7 1,-9 -2,6 -1,11 6,12 -6,-22 23,-31 24,-12 1,8 -5,17 -15,13l2 -11c1,-5 2,-9 7,-9 -1,-1 -2,-1 -3,-2l0 0zm29 26c-9,8 -12,-1 -6,-8 2,-2 4,-4 7,-3 0,-2 -1,-3 -4,-3 -10,2 -14,20 -4,20 4,0 6,-4 7,-4 0,0 0,4 3,4 3,0 7,-4 8,-6 0,-1 0,-1 -1,-1 0,1 -4,5 -6,5 -1,0 -1,-3 -1,-5 1,-3 2,-6 2,-9 1,-1 1,-3 3,-3 -2,-2 -5,-2 -6,2 -1,4 -2,8 -2,12l0 -1zm14 3c-3,0 -4,-4 -1,-9 3,-6 7,-6 8,-6 3,2 -4,7 -8,7 0,6 12,0 11,-6 0,-1 -1,-2 -2,-3 -2,0 -9,-2 -13,7 -4,8 0,13 5,13 7,0 12,-4 14,-7 0,0 0,0 0,0 -1,0 -7,5 -14,4l0 0zm13 -13c-1,5 -1,6 -1,8 -1,1 -1,2 -1,4 -1,1 -1,3 -3,3 3,2 6,1 7,-2l1 -5 1 -5c1,-3 5,-4 6,-4 2,1 3,2 2,5 -1,4 -1,7 -1,8 -1,1 -1,4 2,4 3,0 7,-4 8,-6 0,-1 0,-1 0,-1 -1,1 -5,5 -7,4 -2,0 3,-10 2,-13 -1,-2 -3,-3 -5,-3 -4,0 -6,2 -6,2 -1,-1 0,-2 0,-3 -3,0 -4,2 -5,4l0 0zm17 -8c0,2 1,3 3,3 0,0 1,0 1,0 0,3 -1,7 -2,11 0,2 -2,10 2,10 3,0 6,-4 8,-6 1,-1 0,-1 0,-1 -1,1 -5,5 -7,5 0,-1 0,-2 0,-3 1,-5 2,-11 4,-16 1,-1 2,-1 4,0 0,-2 0,-2 -2,-3 -1,0 -2,0 -2,0 0,-1 1,-3 1,-5 1,-2 1,-3 3,-3 -3,-2 -6,-2 -7,2 0,2 -1,4 -1,6 -2,1 -3,1 -5,0l0 0zm16 21c-3,0 -4,-4 -1,-9 3,-6 7,-6 8,-6 3,2 -4,7 -8,7 1,6 12,0 11,-6 0,-1 -1,-2 -2,-3 -2,0 -9,-2 -13,7 -3,8 1,13 5,13 7,0 12,-4 14,-7 1,0 1,0 0,0 -1,0 -7,5 -14,4l0 0zm13 -13c-1,5 -1,6 -1,8 0,1 -1,2 -1,4 0,1 -1,3 -2,3 2,2 5,1 6,-2l1 -5 1 -5c1,-3 5,-4 6,-4 2,1 3,2 2,5 -1,4 -1,7 -1,8 0,1 -1,4 2,4 3,0 7,-4 8,-6 0,-1 0,-1 0,-1 -1,1 -5,5 -7,4 -2,0 3,-10 2,-13 -1,-2 -3,-3 -5,-3 -3,0 -6,2 -6,2 0,-1 0,-2 1,-3 -4,0 -5,2 -6,4l0 0zm27 23c-1,5 -6,8 -12,5 3,5 14,5 16,-4 1,-8 3,-16 5,-24 0,-1 1,-3 2,-3 -2,-2 -5,-2 -6,2 0,3 -2,8 -2,11 -9,8 -11,-1 -6,-7 2,-3 5,-5 8,-4 0,-2 -1,-3 -4,-3 -10,2 -14,20 -5,20 3,0 5,-1 6,-3 0,4 -1,7 -2,10l0 0zm18 -31c0,-1 -1,-2 -3,-2 -1,0 -2,1 -2,2 0,2 1,3 2,3 2,0 3,-1 3,-3zm3 18c0,-1 0,-1 0,-1 -1,1 -5,5 -7,5 -1,0 -1,-3 0,-5 0,-3 1,-6 1,-9 1,-1 1,-3 3,-3 -2,-2 -5,-2 -6,2 -1,2 -1,5 -2,7 0,3 -2,10 3,10 3,0 7,-4 8,-6l0 0z"/>
    <path class="fil8" d="M273 320c0,-1 0,-1 0,-2 1,-2 2,-3 3,-4 -1,-1 -2,-2 -2,-3 0,-2 2,-3 4,-3 2,0 3,1 3,3 0,1 0,2 -2,3 1,0 2,1 2,1 0,0 0,1 0,1 0,1 0,1 -1,1 0,0 -1,1 -1,2 0,0 0,0 0,0 -1,3 -1,6 -2,9 0,1 0,3 0,3 1,0 2,-1 2,-1 1,-1 2,-1 2,-2 1,0 1,0 1,-1 1,-1 3,1 2,2l0 0c0,0 0,0 0,0 -1,2 -2,3 -3,5 -2,1 -4,2 -6,2 0,0 0,0 0,0 -1,0 -2,0 -2,-1 -3,-2 -2,-7 -1,-10 0,-1 0,-1 0,-2 -1,1 -3,1 -4,1 -1,-1 -2,-2 -3,-3 0,1 0,1 -1,1 0,1 -1,1 -1,1 -1,0 -1,0 -1,0l-2 8c0,2 -1,4 -3,5 -1,0 -2,0 -4,-1 0,1 -1,1 -2,1 0,0 0,0 0,0 -1,0 -2,0 -3,-1 -2,-2 -1,-7 -1,-10 1,-3 1,-5 2,-7 0,-2 1,-3 2,-4 -1,-1 -1,-2 -1,-3 0,-2 1,-3 3,-3 2,0 4,1 4,3 0,1 -1,2 -2,3 0,0 1,1 1,1 1,0 1,1 1,1 0,1 -1,1 -1,1 -1,0 -1,1 -2,2 0,0 0,0 0,0 0,3 -1,6 -2,9 0,1 0,3 0,3 1,0 2,0 2,-1l3 -12c0,-3 3,-4 6,-4 0,0 0,0 0,0 0,0 0,0 1,0 0,0 1,0 1,1 0,0 0,0 0,1 0,-1 0,-1 0,-1 1,-1 1,-1 2,-1 0,1 1,1 1,1 1,0 1,0 2,1 0,3 0,3 3,4zm35 13c-1,2 -3,3 -5,3 0,0 0,0 0,0 -1,0 -2,-1 -3,-2 0,-1 0,-2 0,-4 0,0 0,0 0,0 0,0 0,-1 0,-2 1,-2 1,-4 2,-5 0,-1 0,-3 -1,-3 0,-1 0,-1 -1,-1 0,0 -2,0 -2,1 -1,0 -2,1 -3,3l-1 4 -1 5c0,1 -1,3 -3,4 -2,0 -4,0 -5,-2 0,0 0,0 0,-1 0,0 0,-1 1,-1 1,0 1,-1 1,-2 0,-1 1,-2 1,-4 0,-2 1,-5 1,-8 0,0 1,0 1,0 0,-3 3,-4 6,-4 0,0 0,0 1,1 0,0 0,0 0,1 0,0 0,0 0,0 1,-1 2,-1 4,-1 2,-1 5,0 6,3 0,0 0,0 0,0 1,2 0,5 -1,7 0,1 0,3 -1,4 0,1 0,2 0,2 1,0 1,-1 2,-1 0,-1 0,-2 0,-4 0,0 0,0 0,0l2 -8c0,0 0,0 0,0 0,-2 1,-4 3,-4 1,-1 3,0 5,1 0,0 0,1 0,1 0,1 -1,1 -1,1 0,0 0,0 0,0 -1,1 -2,4 -2,5 0,0 0,0 0,0 0,2 -1,4 -1,5 0,1 0,3 1,4 1,0 2,0 3,-1 0,0 1,-1 1,-2l2 -10c0,0 0,0 0,0 1,-2 2,-4 4,-4 1,-1 3,0 5,1 0,0 0,1 0,1 0,1 -1,1 -1,1 0,0 0,0 0,0 -1,1 -2,4 -2,5 0,0 0,0 0,0 -1,3 -1,5 -2,7 0,0 0,1 0,1 0,0 0,1 0,1 1,0 2,-1 2,-1 1,-1 1,-1 2,-2 0,0 1,0 1,-1 1,0 1,0 2,0 0,1 1,1 0,2 0,0 0,0 0,0 -2,3 -5,7 -9,7 -2,0 -3,-1 -3,-2 -1,0 -1,0 -2,1 -3,1 -7,1 -9,-2zm-91 -7c4,-3 8,-2 12,0 0,0 1,0 1,0 0,1 0,1 -1,1 -2,3 -5,5 -5,9 -1,4 1,9 5,10 1,1 1,1 2,1 2,0 4,0 5,-2 0,0 0,0 1,0 0,0 0,-1 1,-1 3,-5 1,-13 0,-18 -1,-3 -2,-6 -2,-9 -1,-2 -2,-4 -2,-6 -5,-1 -13,-4 -15,-10 0,0 0,-1 0,-2 0,-1 1,-1 1,-1 0,-2 1,-4 3,-5 0,0 0,0 0,0 1,0 1,0 1,0 3,5 6,8 10,10 0,-1 1,-2 2,-3 0,-1 2,-2 3,-2 3,-2 7,-2 9,0 2,1 2,2 3,3 0,1 0,3 0,4 -1,3 -4,5 -7,6 -2,0 -3,1 -5,1 1,1 1,1 1,2 1,2 1,3 2,5 0,1 1,3 2,5 1,5 2,10 2,15 0,4 -1,8 -4,11 -1,1 -2,2 -3,2 -4,2 -8,3 -12,3 -7,0 -15,-4 -18,-12 0,-3 -1,-6 0,-9 1,-3 3,-6 5,-7 0,-1 1,-1 2,-2 0,0 1,0 1,1zm72 -28c0,0 0,1 0,1 0,2 -1,4 -3,6 -2,1 -5,1 -6,-1 -1,0 -1,0 -1,-1 0,0 1,-1 1,-1 1,0 2,0 2,0 -1,-2 -1,-4 0,-5 0,-2 2,-2 3,-2 2,0 4,1 4,3zm-47 4c0,1 0,1 0,1 -2,0 -2,1 -3,3 2,0 4,0 5,-1 1,0 1,-1 1,-1 1,-1 1,-1 0,-2 0,-1 -2,0 -3,0z"/>
    <path class="fil9" d="M237 346c-2,2 -4,2 -6,2 -5,-1 -9,-6 -8,-12 0,-4 2,-6 6,-9 -12,-6 -16,4 -16,11 -2,-4 0,-8 3,-12 -5,3 -7,9 -5,17 3,12 22,15 30,6 4,-5 6,-13 2,-25 -2,-4 -4,-9 -5,-14 2,1 4,0 6,0 4,-1 7,-5 6,-9 -3,-6 -14,-3 -15,4 -5,-3 -9,-5 -12,-11 -4,4 -1,8 2,11 -2,-1 -4,-3 -5,-6 -1,5 7,9 15,11 2,10 10,29 2,36l0 0zm4 -44c8,-4 7,8 -3,4 0,-2 1,-3 3,-4l0 0zm15 9c0,-1 -1,-2 -3,-2 -1,0 -2,1 -2,2 0,1 1,2 2,2 1,0 2,-1 3,-2zm3 18c0,-1 0,-1 -1,-1 0,1 -5,5 -6,5 -1,-1 -1,-3 -1,-5 1,-3 1,-6 2,-9 1,-2 1,-3 3,-3 -2,-2 -5,-2 -6,2 -1,2 -1,5 -2,7 0,3 -2,10 3,10 3,0 7,-4 8,-6l0 0zm4 -14c-3,0 -5,2 -5,3l-3 12c0,2 -1,3 -2,3 3,3 6,2 6,-2l2 -8c0,0 4,-2 5,-3 1,3 3,3 6,2 -2,-2 -3,-3 -4,-6 0,0 -2,-1 -2,-1 -1,3 -2,4 -4,5 0,-1 1,-3 2,-5 0,0 -1,0 -1,0l0 0zm17 -4c0,-1 -1,-2 -2,-2 -1,0 -2,1 -3,2 0,1 1,2 3,2 1,0 2,-1 2,-2zm3 18c1,-1 0,-1 0,-1 -1,1 -5,5 -7,5 -1,-1 0,-3 0,-5 0,-3 1,-6 2,-9 0,-2 1,-3 2,-3 -2,-2 -5,-2 -6,2 0,2 -1,5 -1,7 -1,3 -2,10 2,10 3,0 7,-4 8,-6l0 0zm5 -30c0,-2 -1,-3 -3,-3 -3,0 -4,5 -1,6 -1,1 -2,1 -4,1 4,3 8,0 8,-4l0 0zm3 19c-1,5 -2,7 -2,9 0,1 -1,2 -1,4 0,1 -1,2 -2,3 2,2 5,1 6,-3l1 -4 1 -5c1,-3 5,-4 7,-4 1,0 2,2 2,5 -1,4 -2,7 -2,8 0,0 -1,3 2,3 3,1 7,-4 8,-6 0,0 0,0 0,0 -1,1 -5,5 -7,4 -1,0 3,-10 2,-14 -1,-1 -2,-3 -5,-2 -3,0 -6,2 -6,2 0,-1 0,-2 1,-3 -4,0 -5,2 -5,4l0 -1zm32 11c1,-2 1,-5 2,-7 0,-2 1,-6 3,-6 -2,-2 -6,-2 -6,2l-3 10c0,4 -8,7 -7,-1 0,-1 1,-3 1,-5 0,-2 1,-6 3,-6 -2,-2 -6,-2 -6,2l-2 8c-2,10 7,10 11,6 0,2 1,3 3,3 3,0 6,-4 8,-6 0,-1 0,-1 0,-1 -1,1 -5,5 -7,5 -1,-1 0,-2 0,-4l0 0z"/>
   </g>
  </g>
 </g>
</svg>
