<?xml version="1.0" encoding="UTF-8"?>
<!DOCTYPE svg PUBLIC "-//W3C//DTD SVG 1.1//EN" "http://www.w3.org/Graphics/SVG/1.1/DTD/svg11.dtd">
<!-- Creator: CorelDRAW X7 -->
<svg xmlns="http://www.w3.org/2000/svg" xml:space="preserve" width="21cm" height="18.5184cm" version="1.1" style="shape-rendering:geometricPrecision; text-rendering:geometricPrecision; image-rendering:optimizeQuality; fill-rule:evenodd; clip-rule:evenodd"
viewBox="0 0 67327 59371"
 xmlns:xlink="http://www.w3.org/1999/xlink">
 <defs>
  <style type="text/css">
   <![CDATA[
    .str0 {stroke:black;stroke-width:56.5551}
    .fil1 {fill:none}
    .fil2 {fill:black}
    .fil3 {fill:white}
    .fil0 {fill:black;fill-rule:nonzero}
    .fil4 {fill:white;fill-rule:nonzero}
   ]]>
  </style>
 </defs>
 <g id="Layer_x0020_1">
  <metadata id="CorelCorpID_0Corel-Layer"/>
  <g id="_816445032">
   <g>
    <g>
     <path class="fil0" d="M2327 18840l24 416c-66,-5165 -119,-10330 -145,-15488 2,-117 19,-200 63,-308 43,-98 93,-173 169,-250 78,-76 150,-124 250,-168 18,-6 48,-13 84,-20 -27,8 -53,18 -80,30 -98,44 -168,93 -244,169 -74,77 -120,148 -163,246 -22,35 -74,273 -58,301 181,6287 233,12589 278,18901 198,5434 193,11172 184,16743 36,1786 78,3572 132,5359 127,3797 269,7635 310,11434 2240,-154 32655,-111 36445,-97 5215,18 10413,-76 15625,-120 -251,-14199 -670,-28359 -1133,-42551 -75,-2366 -200,-4744 -279,-7115l-607 -9c-3,4207 71,8657 -183,12440 -162,-4019 -86,-8316 -23,-12443 -1266,-18 -2718,-39 -3690,-56 -4186,-79 -8014,-384 -12188,-628 -1546,-87 -11524,-518 -12513,-1105 6556,-1016 23679,-759 31009,-889 27,0 31,5 53,9 16,3 33,22 45,29 13,9 23,32 31,44 7,17 11,34 12,54 40,27 214,15611 214,17492 -4,3190 -304,8755 296,11863 506,1831 -14,-14444 -38,-18432 -12,-3643 -82,-7282 -106,-10923 -2,-75 -13,-128 -41,-197 -12,-56 -81,-119 -109,-160 -33,-48 -118,-79 -160,-107 -23,-16 -176,-49 -197,-39 -99,48 -30509,502 -34445,554 -1199,23 -2837,-210 -1555,666 595,420 -12469,-760 -15624,-1368 -4296,-941 13709,-922 14370,-952 12322,-538 24910,-564 37254,-707 339,5 588,55 902,182 297,131 500,268 733,493 223,230 364,439 494,732 127,310 179,568 184,903 3,5 244,20122 288,22484 188,10026 241,20087 264,30115 -6,418 -70,732 -227,1118 -160,364 -334,623 -612,908 -286,279 -542,451 -907,613 -386,156 -703,221 -1119,227 -8512,38 -17024,62 -25536,105 -9022,48 -18042,33 -27063,24 -434,-6 -767,-73 -1169,-237 -381,-168 -651,-350 -949,-640 -292,-301 -471,-566 -640,-949 -164,-404 -231,-733 -237,-1169 3,-1830 3,-3661 13,-5490 130,-11879 285,-23758 452,-35636 263,-19161 -248,23078 -230,25003 173,4868 435,-25666 598,-32339 508,10092 -80,24744 -395,35148 -230,6132 326,-5577 351,-6245 99,-2623 -212,15556 -246,19559 5,355 60,628 194,957 138,313 285,532 524,777 246,240 462,386 777,525 330,135 600,189 957,195 10064,67 20109,51 30173,-56 27696,-335 -27777,-161 -30173,-168 -324,-5 -570,-55 -870,-177 -283,-125 -485,-261 -706,-477 -217,-222 -351,-422 -476,-706 -122,-300 -172,-546 -177,-870 20,-4692 41,-9389 133,-14080 267,-12856 -38,-4481 38,1857 133,114 298,-24658 318,-28276 64,-10551 -34,38127 -38,40499 4,259 43,454 140,694 100,226 208,386 380,564 178,172 337,280 564,380 241,98 434,136 694,141 17533,31 35066,74 52599,90 271,-4 479,-45 730,-148 237,-104 406,-218 592,-399 181,-186 295,-355 400,-593 102,-251 144,-458 148,-729 0,-404 2,-809 -1,-1213 -2,-147 -6,721 -8,1213 -4,272 -45,474 -148,726 -105,237 -216,403 -397,589 -185,181 -354,294 -590,398 -249,101 -457,143 -726,147 -17531,-52 -35070,-45 -52599,-168 -248,-4 -431,-42 -660,-135 -214,-95 -368,-197 -536,-362 -163,-168 -266,-321 -360,-536 -67,-99 -149,-537 -134,-659 5,-450 -6,-983 24,-1428 91,-1027 85,-1738 91,-2809 9,-1569 28,-3121 74,-4689 15,-1045 29,-2090 40,-3136 21,999 48,1990 80,2973 99,456 154,-1903 168,-2646 69,1240 114,2495 120,3737 -1,2153 -53,4430 39,6570 79,1491 62,-4635 74,-5154 171,-11923 -10,-24021 -96,-35960 89,3052 297,6160 444,9217 -12,-1401 -24,-2802 -36,-4202zm360 26507c1,437 3,872 5,1304l-5 -1304zm85 -42325c169,-33 455,-65 117,-27 -41,6 -79,15 -117,27zm360 53336c0,-16 -3,-29 -10,-46l10 46 0 0zm50650 -50245l-13 -417 -585 16 -1 367 467 26 132 8zm-16 -524l-8 -286c-153,-181 -263,-361 -369,-600 -132,-323 -185,-587 -191,-935 -4,309 -7,620 -9,934l29 74c145,328 299,556 548,813zm396 97l-285 7c218,194 427,325 710,450l2 1c337,9 675,13 1005,16 -348,-5 -612,-59 -934,-189 -193,-85 -349,-174 -498,-285zm-1177 31c-2645,72 -3930,122 -5,350l5 -350zm2473 628c56,4 102,5 136,2l-136 -2zm-53924 37960c100,-9000 65,-18050 89,-27044 -36,8794 -275,18194 -89,27044z"/>
    </g>
   </g>
   <polygon class="fil1" points="2821,3594 55768,3594 55768,56541 2821,56541 "/>
   <polygon class="fil2 str0" points="2894,3331 56385,3331 56385,56367 2894,56367 "/>
   <g id="_816446592">
    <path class="fil0" d="M58547 737c-49,-6 -101,-12 -158,-16 -624,38 -1239,54 -1869,24 623,11 1238,0 1856,-26 -582,-48 -1523,-18 -2317,-4 -205,-17 -413,-40 -624,-68 -2071,-312 -3750,-358 -5842,-403 -16,1 -38,0 -54,-1 -2984,-65 -5874,-77 -8815,494 -363,70 -698,116 -1064,202 -558,125 -546,112 -201,-176l1614 -763c-452,36 -1591,613 -2025,846 -460,251 -500,386 -897,723 -194,158 -1038,697 -906,935 223,276 4083,-914 4588,-1076 415,-134 942,-404 1325,-201 181,143 -1626,458 -1917,551 -1399,479 -2772,906 -4226,1183 -297,57 -248,-80 -244,-309 4,-251 -1531,939 -1632,1041 -413,467 1445,213 1798,209 1787,-8 3916,-1132 5748,-1465 2513,-464 4272,-556 6852,-470 446,20 891,43 1336,70 1292,74 2601,141 3895,129 646,-32 1275,-82 1901,-148 -249,14 -485,20 -701,15 -445,-56 2799,-416 3960,-612 12,-1 182,-31 198,-41 29,-17 -198,13 -201,13 -1376,186 -2952,313 -4280,538 -694,136 636,-194 712,-210 1,0 -3541,169 -5902,-10 -284,-23 -627,-68 -907,-73 -703,-48 -650,-58 1,-43 1970,61 4243,272 6178,85 1504,-187 476,13 -209,-17 -4,-18 3270,-363 3502,-391 308,-41 -1411,23 -3623,75l262 -18c-202,-1 -372,-9 -492,-28 -86,-58 290,-93 290,-93 -134,-34 -272,-59 -410,-62 -164,0 -578,16 -716,-26 -115,-33 439,-22 561,-35 1444,-103 2887,-77 4385,-202 -433,-29 -858,-66 -1289,-114 186,-9 373,-20 559,-32zm-158 -16l-13 -2 92 -4 -79 6zm-2787 -1c-133,1 -258,1 -370,-2 123,2 247,2 370,2zm2866 -5c452,-20 905,-48 1365,-83l724 31c-271,-79 -446,-84 -728,-60 -464,43 -915,83 -1361,112zm-1799 1303c824,-87 1643,-201 2487,-332 262,-42 527,-88 789,-126 61,-10 56,-7 0,5 -920,176 -2214,391 -3276,453zm-5685 -616c-507,-2 -989,-9 -1428,-21 -1150,-25 -2163,-5 -3304,61 -20,-3 1795,-105 3305,-75 198,-9 758,10 1427,35zm4675 -73c1050,-72 2059,-114 3144,-234 -627,72 -2223,236 -3144,234z"/>
   </g>
   <path class="fil1" d="M34986 3451c5227,-550 5674,-3257 14599,-2972 4286,137 5980,364 10212,-146 363,-44 468,-29 796,4"/>
   <path class="fil3" d="M26601 8685c249,522 442,1128 578,1820 136,692 204,1412 204,2160 0,1678 -318,3119 -947,4320 -726,1384 -1763,2212 -3124,2484 -380,68 -833,130 -1355,187 -521,57 -879,85 -1083,85 -476,0 -879,-40 -1207,-119 -324,-80 -669,-221 -1032,-425 -794,-499 -1316,-1129 -1576,-1888 -261,-760 -392,-1684 -392,-2773 0,-363 0,-731 0,-1105 0,-375 0,-754 0,-1140 0,-612 -158,-1253 -476,-1922 -317,-669 -624,-1321 -918,-1956 -68,-181 -148,-448 -239,-799 -90,-352 -136,-641 -136,-868 0,-363 102,-544 307,-544 204,0 498,181 884,544 794,749 1383,1848 1769,3300 295,1134 442,2347 442,3640 0,1338 335,2472 1004,3402 669,929 1604,1394 2806,1394 295,0 601,-34 919,-102 884,-181 1655,-777 2313,-1786 658,-1009 986,-1978 986,-2908 0,-454 -226,-1372 -680,-2756 -227,-680 -340,-1213 -340,-1599 0,-317 62,-623 187,-918 125,-295 312,-567 561,-816 23,22 46,45 68,68 227,430 386,771 477,1020zm8844 -2483c1270,0 2461,459 3572,1378 1111,918 1860,2024 2245,3316 159,545 238,1146 238,1803 0,1724 -544,3147 -1632,4281 -499,521 -1134,952 -1905,1293 -477,204 -1134,419 -1973,646 -499,159 -823,334 -970,527 -147,193 -221,482 -221,868 0,204 17,510 51,918 34,408 51,646 51,714 0,1316 68,2574 204,3776 159,1021 267,1747 323,2178 57,430 176,1020 357,1769 182,748 273,1315 273,1700 0,499 -108,1044 -329,1633 -1083,-323 -1735,-1961 -1956,-4932 -68,-1134 -125,-2047 -165,-2739 -45,-692 -73,-1145 -85,-1360 -11,-216 -17,-403 -17,-562 0,-317 0,-743 0,-1270 0,-533 0,-879 0,-1037 0,-681 -374,-1270 -1122,-1769 -749,-499 -1123,-1044 -1123,-1633 0,-182 11,-329 34,-442 227,90 550,249 970,476 419,227 652,351 697,374 136,-680 204,-1349 204,-2007 0,-748 -125,-1905 -374,-3470 -250,-1565 -374,-2789 -374,-3674 1020,431 1667,1803 1939,4116 363,2971 635,4650 816,5035 1474,-816 2529,-1508 3164,-2075 1066,-953 1667,-2018 1803,-3198 22,-113 34,-283 34,-510 0,-1474 -766,-2738 -2296,-3793 -1531,-1055 -3181,-1582 -4950,-1582 -862,0 -1633,165 -2313,493 -681,329 -1191,834 -1531,1514 -45,-68 -227,-283 -544,-646 -159,-182 -239,-340 -239,-476 0,-204 159,-454 477,-749 317,-295 810,-527 1480,-697 669,-170 1298,-323 1888,-459 0,68 436,130 1309,187 873,56 1537,85 1990,85z"/>
   <path class="fil3" d="M15450 45974c-145,-371 -217,-784 -217,-1238 0,-412 103,-1248 310,-2511 123,-763 185,-1279 185,-1547 0,-227 -10,-418 -31,-572 -20,-155 -247,-934 -680,-2336 -207,-661 -310,-1156 -310,-1486 0,-598 248,-974 743,-1119 124,459 247,877 371,1259 124,386 258,629 402,732 145,103 299,155 464,155 269,0 619,-124 1052,-372 557,-309 887,-484 990,-526 661,-247 1248,-371 1764,-371 784,0 1702,382 2754,1145 309,247 536,428 680,541 145,114 289,170 434,170 165,0 371,-61 618,-185 248,-124 702,-433 1362,-928 474,-351 866,-547 1176,-588 309,-41 587,-62 835,-62 1299,0 2341,505 3125,1516 722,949 1083,2135 1083,3558 0,1150 -72,2295 -217,3429 -41,310 -216,1413 -526,3311 -41,289 -113,1140 -216,2552 -104,1413 -289,2491 -557,3234 -433,-274 -738,-635 -913,-1099 -175,-464 -263,-1026 -263,-1686 0,-619 82,-1361 247,-2228 0,-41 145,-711 434,-2011 20,-144 170,-820 448,-2026 279,-1207 418,-2218 418,-3043 0,-722 -77,-1346 -232,-1872 -155,-526 -449,-1057 -882,-1593 -268,-330 -552,-572 -851,-727 -299,-155 -613,-232 -943,-232 -475,0 -1032,165 -1671,495 -289,144 -815,464 -1578,959 -640,433 -1021,1408 -1145,2924 -124,1516 -495,2470 -1114,2862 -165,-346 -247,-830 -247,-1444 0,-284 31,-763 93,-1439 61,-675 92,-1186 92,-1537 0,-773 -134,-1376 -402,-1810 -351,-531 -949,-855 -1794,-979 -104,-21 -258,-31 -465,-31 -886,0 -1681,299 -2382,892 -701,593 -1093,1299 -1176,2119 0,392 16,954 47,1692 31,737 46,1124 46,1165 0,944 -82,1671 -247,2187 -227,696 -599,1093 -1114,1196l0 -495zm31930 -1516l-247 247c-21,103 -165,268 -434,495 -453,392 -814,650 -1082,774 -557,227 -1186,397 -1888,510 -701,114 -1433,171 -2197,171 -887,0 -1701,-62 -2444,-186 -1732,-289 -3022,-1289 -3867,-3001 -702,-1424 -1052,-3136 -1052,-5136 0,-330 0,-614 0,-851 0,-237 56,-691 170,-1362 113,-670 753,-1346 1918,-2026 1166,-681 2367,-1021 3605,-1021 804,0 1474,170 2011,510 536,341 866,872 990,1594 62,289 93,567 93,835 0,1300 -433,2444 -1300,3434 -866,991 -1877,1486 -3032,1486 -454,0 -887,-78 -1299,-232 -413,-155 -836,-408 -1269,-758 -41,288 -62,505 -62,649 0,1011 377,1980 1129,2909 753,928 1656,1588 2708,1980 206,82 443,144 711,186 269,41 526,61 774,61 660,0 1433,-154 2320,-464 2001,-701 3249,-1052 3744,-1052l0 248zm-11541 -8292c-268,515 -402,980 -402,1392 0,660 289,1181 861,1563 578,381 1295,572 2156,572l371 0c779,0 1521,-382 2218,-1145 696,-763 1046,-1557 1046,-2382 0,-701 -206,-1212 -613,-1532 -413,-319 -949,-479 -1604,-479 -779,0 -1578,196 -2388,588 -809,392 -1361,866 -1645,1423zm25867 8292l-248 247c-21,103 -165,268 -433,495 -454,392 -815,650 -1083,774 -557,227 -1186,397 -1887,510 -702,114 -1434,171 -2197,171 -887,0 -1702,-62 -2444,-186 -1733,-289 -3022,-1289 -3868,-3001 -701,-1424 -1052,-3136 -1052,-5136 0,-330 0,-614 0,-851 0,-237 57,-691 170,-1362 114,-670 753,-1346 1919,-2026 1165,-681 2366,-1021 3604,-1021 805,0 1475,170 2011,510 536,341 867,872 990,1594 62,289 93,567 93,835 0,1300 -433,2444 -1299,3434 -867,991 -1877,1486 -3033,1486 -453,0 -887,-78 -1299,-232 -413,-155 -835,-408 -1269,-758 -41,288 -61,505 -61,649 0,1011 376,1980 1129,2909 753,928 1655,1588 2707,1980 206,82 444,144 712,186 268,41 526,61 773,61 660,0 1434,-154 2321,-464 2001,-701 3249,-1052 3744,-1052l0 248zm-11541 -8292c-268,515 -402,980 -402,1392 0,660 288,1181 861,1563 577,381 1294,572 2155,572l372 0c778,0 1521,-382 2217,-1145 696,-763 1047,-1557 1047,-2382 0,-701 -207,-1212 -614,-1532 -412,-319 -949,-479 -1604,-479 -778,0 -1578,196 -2387,588 -810,392 -1362,866 -1645,1423z"/>
   <g id="_816445488">
    <path class="fil4" d="M61712 50649c81,8 366,39 264,31 3254,346 2898,304 -264,-31zm4051 -132c-105,-15 -210,-29 -314,-43 104,14 209,28 314,43zm188 458c0,0 70,13 50,13 41,5 82,11 123,16 21,3 44,6 66,9 29,4 25,5 0,-1 -72,-17 -164,-26 -239,-37zm-5321 -825c-44,-5 -89,-9 -133,-14 -714,-73 -5841,-539 -6238,-711 -114,-25 -256,-39 -375,-57 125,-2 255,1 378,-4 1061,-78 5031,413 6258,538 1420,114 2872,329 4291,490 212,24 426,54 638,82 -211,-29 -430,-51 -638,-84 -1399,-223 -2877,-320 -4291,-492 -4455,-462 -3710,-404 4,-40 1419,104 2877,307 4295,465 421,52 837,107 1256,170 -417,-64 -841,-107 -1256,-171 -1408,-218 -2874,-320 -4291,-503 -6696,-721 -8671,-988 7,-66 1,0 2,1 3,1 -1,0 -2,-1 -3,-1 -7349,-870 -5787,-764 16,-159 1420,115 2876,341 4295,510 490,58 971,142 1458,215 156,23 306,61 460,93 67,14 127,39 190,59 47,15 89,43 131,64 92,45 197,169 242,257 -65,-118 -130,-187 -242,-258 -15,-16 -104,-50 -130,-63 -55,-27 -133,-40 -191,-59 -139,-46 -316,-61 -460,-95 -461,-107 -989,-136 -1458,-217 -1388,-240 -2889,-337 -4294,-519 -1944,-210 -4382,-365 -6267,-679 -3828,-270 -7934,-180 -11768,-88 -3317,93 -6595,255 -9904,495 -17637,1750 -34962,6514 -4487,2512 1544,-189 3093,-348 4642,-497 7026,-645 14401,-1146 21457,-1170 635,-25 6226,445 6226,444l2851 232c-947,-99 -1899,-183 -2845,-287 -2615,-258 -2895,-294 1,-11 -1,5 2644,276 2844,298 86,10 172,19 258,29 -812,-93 -1625,-180 -2438,-265 284,29 570,62 854,86 -470,-51 -1054,-119 -1512,-211 -479,-70 -566,-95 5,-53 5,-32 3329,338 3517,360 -1170,-142 -2345,-252 -3513,-395 -3925,-408 -3419,-370 3,-33 0,0 3924,429 4283,470 400,45 808,103 1206,164 -17,-5 -34,-9 -51,-13 -383,-58 -774,-97 -1154,-157 -1405,-222 -2867,-317 -4279,-516 -4330,-496 -4876,-636 16,-160 44,4 89,9 133,14z"/>
   </g>
   <path class="fil1" d="M11188 54180c7039,-3760 35965,-4820 43059,-4485 68,3 12383,1082 12536,1378"/>
   <g id="_816445008">
    <path class="fil3" d="M22638 26791c0,272 33,441 99,507 66,66 235,99 507,99l1707 0c-99,186 -235,310 -408,373 -173,64 -384,97 -631,97 -91,0 -179,0 -266,0 -86,0 -175,0 -266,0 -305,0 -528,46 -668,136 -181,122 -272,353 -272,689 0,501 41,878 124,1133 132,402 392,660 779,776 17,8 64,18 142,30 79,13 142,19 192,19 206,0 421,-76 643,-231 371,-251 581,-387 631,-412 16,113 25,196 25,245 0,276 -101,495 -303,654 -202,160 -477,255 -823,288 -41,8 -111,13 -210,13 -338,0 -660,-79 -965,-235 -305,-159 -515,-386 -631,-685 -82,-206 -138,-424 -166,-657 -29,-231 -44,-481 -44,-744 0,-99 11,-227 31,-380 21,-152 31,-237 31,-253 0,-126 -29,-217 -86,-274 -58,-58 -182,-95 -371,-112 -91,0 -252,9 -483,25 -231,17 -350,25 -358,25 -198,0 -357,-21 -477,-64 -119,-43 -216,-130 -290,-258 181,-78 344,-130 488,-156 145,-27 328,-42 551,-42 107,0 208,0 303,0 94,0 183,0 266,0 230,0 395,-70 494,-210 99,-140 149,-326 149,-556 0,-149 -13,-297 -38,-446 -214,-694 -424,-1387 -630,-2079 0,-174 41,-318 123,-435 314,200 582,657 804,1375 198,634 297,1218 297,1745zm5429 -197c314,156 528,272 643,346 273,173 462,358 569,556 157,272 279,559 365,860 87,301 130,600 130,896 0,339 -66,656 -198,953 -165,379 -552,639 -1162,779 -363,82 -845,124 -1447,124 -544,0 -951,-169 -1218,-507 -268,-339 -402,-767 -402,-1287 0,-519 121,-1028 364,-1527 244,-499 563,-864 959,-1095 239,-148 519,-222 841,-222 214,0 400,41 556,124zm-395 593c-297,50 -590,95 -878,136 -248,83 -460,309 -637,680 -178,371 -266,767 -266,1188 0,445 103,799 309,1063 239,305 594,458 1064,458 338,0 676,-54 1014,-161 420,-132 721,-313 902,-544 75,-91 128,-206 161,-346 33,-141 50,-285 50,-433 0,-165 -9,-301 -25,-408 -17,-108 -45,-248 -87,-421 -90,-346 -270,-637 -538,-872 -268,-235 -562,-352 -884,-352 -82,0 -144,4 -185,12z"/>
    <g>
     <path class="fil4" d="M22675 23020c-275,-128 -545,-262 -823,-386 -433,-162 -723,-229 -1207,-194 -296,11 -440,64 -670,85 -341,49 -1014,385 -1311,548 547,-482 1059,-854 1804,-1139 599,-169 1030,-179 1650,-86 132,-11 1245,276 1455,325 638,201 1162,277 1853,317 945,62 1871,171 2823,223 482,23 934,32 1415,2 503,-44 601,-102 1010,-177 58,2 115,10 165,35 266,179 -994,563 -1084,585 -187,76 -1051,143 -1281,154 -65,3 -164,2 -224,9 -939,28 -1896,-3 -2824,45 -585,5 -2228,-70 -2751,-346z"/>
    </g>
    <path class="fil1" d="M18741 23148c3008,-1980 3370,-227 6685,-227 1514,0 4202,310 5438,-317"/>
    <g>
     <path class="fil4" d="M26897 32432c276,127 545,262 824,385 433,163 723,229 1207,195 296,-11 440,-65 670,-86 340,-48 1014,-384 1310,-548 -546,483 -1059,855 -1803,1140 -599,169 -1030,178 -1651,86 -131,11 -1244,-277 -1454,-325 -638,-201 -1162,-278 -1853,-318 -945,-61 -1872,-170 -2823,-222 -482,-24 -934,-32 -1415,-3 -504,44 -602,103 -1011,177 -58,-1 -114,-10 -164,-34 -266,-180 994,-563 1084,-585 187,-77 1051,-143 1281,-155 65,-3 164,-2 224,-9 939,-28 1895,3 2824,-44 585,-6 2228,69 2750,346z"/>
    </g>
    <path class="fil1" d="M30832 32304c-3008,1980 -3370,227 -6685,227 -1514,0 -4202,-311 -5439,317"/>
   </g>
  </g>
 </g>
</svg>
