<?xml version="1.0" encoding="UTF-8"?>
<!DOCTYPE svg PUBLIC "-//W3C//DTD SVG 1.1//EN" "http://www.w3.org/Graphics/SVG/1.1/DTD/svg11.dtd">
<!-- Creator: CorelDRAW X7 -->
<svg xmlns="http://www.w3.org/2000/svg" xml:space="preserve" width="18.7177cm" height="21cm" version="1.1" style="shape-rendering:geometricPrecision; text-rendering:geometricPrecision; image-rendering:optimizeQuality; fill-rule:evenodd; clip-rule:evenodd"
viewBox="0 0 39667 44504"
 xmlns:xlink="http://www.w3.org/1999/xlink">
 <defs>
  <style type="text/css">
   <![CDATA[
    .fil5 {fill:white}
    .fil3 {fill:#FEFEFE;fill-rule:nonzero}
    .fil1 {fill:#FDD53B;fill-rule:nonzero}
    .fil0 {fill:black;fill-rule:nonzero}
    .fil2 {fill:black;fill-rule:nonzero}
    .fil4 {fill:#C70000;fill-rule:nonzero}
   ]]>
  </style>
 </defs>
 <g id="Layer_x0020_1">
  <metadata id="CorelCorpID_0Corel-Layer"/>
  <g id="_794078688">
   <g>
    <path class="fil0" d="M30843 33717c15,-7 17,5 0,0l0 0zm7631 -17419c-828,-2192 -2124,-4339 -4043,-5748 -1168,-856 -2588,-1350 -3981,-1702 -1612,-408 -3278,-562 -4937,-458 -1522,94 -3023,393 -4482,830 -1543,460 -3019,1114 -4649,1206 -1040,60 -2187,-72 -3063,-680 -360,-252 -691,-607 -534,-1074 191,-570 890,-879 1409,-1062 1863,-659 4438,-238 5553,-2241 926,-1661 898,-4452 -1196,-5174 -664,-230 -1382,-218 -2073,-157 -270,25 -629,14 -874,133 -392,190 -513,669 -432,1067 66,322 288,670 616,775 316,103 690,-36 1006,-71 674,-73 1531,181 1726,926 132,501 -354,852 -741,1059 -1165,624 -2567,788 -3849,1025 -1014,186 -2109,469 -2863,1217 -802,797 -1056,2068 -940,3162 99,939 721,1712 1470,2248 1729,1236 4280,1641 6344,1225 915,-185 1801,-568 2704,-810 1205,-322 2429,-580 3663,-760 2634,-382 5677,-555 8060,834 1159,675 2277,1742 2421,3143 63,622 -136,1730 -969,1711 -859,-20 -1311,-1049 -1786,-1612 -533,-631 -1339,-1171 -2028,-1616 -580,-374 -1192,-697 -1838,-944 -2051,-784 -4272,-590 -6162,518 -1017,596 -2144,1477 -2697,2548 -478,974 -758,2035 -1094,3061 -160,490 -324,982 -537,1451 -125,275 -303,698 -598,842 -1131,551 -1439,-2383 -1560,-2943 -17,-78 -283,-423 -376,-276 -190,301 -380,603 -570,904 -117,184 -221,400 -360,568 -23,28 -60,136 -94,150 -9,4 -341,-130 -406,-146 -992,-254 -2139,-240 -3124,88 -438,-509 -877,-1017 -1316,-1526 -57,-66 -316,-268 -322,-68 -21,753 44,1555 -147,2284 -362,1384 -460,2876 -113,4273 485,1951 1821,3483 3450,4605 622,429 1206,709 1600,1383 549,941 880,2018 1182,3059 312,1072 567,2159 802,3250 169,789 417,1615 364,2427 -80,1238 -476,2450 -935,3594 -169,421 -190,841 192,1146 195,155 445,235 690,162 418,-125 690,-574 884,-930 342,-627 566,-1317 750,-2003 468,-1743 479,-3566 975,-5300 96,-336 996,-2850 1685,-1883 189,265 220,700 262,1010 64,478 87,961 95,1442 19,1127 -48,2257 -169,3378 -85,783 -157,1625 -420,2374 -138,394 -423,676 -438,1121 -10,309 71,667 351,835 348,210 764,159 1072,-89 472,-382 720,-1051 916,-1602 367,-1038 587,-2130 778,-3212 290,-1642 489,-3300 658,-4959 155,-1522 313,-3041 879,-4478 330,-835 806,-1716 1561,-2244 385,-270 1020,-507 1431,-152 473,409 416,1275 323,1819 -113,657 -380,1278 -537,1926 -191,788 -297,1595 -313,2406 -25,1241 189,2457 532,3645 117,406 260,808 354,1220 125,552 88,1131 34,1690 -62,646 -167,1288 -293,1924 -88,451 -275,944 -271,1406 6,850 952,1002 1390,316 348,-546 422,-1336 533,-1955 193,-1067 338,-2142 499,-3214 158,-1050 316,-2104 557,-3139 149,-635 316,-1197 702,-1715 2,-3 3,-4 5,-6 33,69 52,154 71,216 96,313 141,643 183,966 116,891 159,1791 188,2687 30,944 37,1888 22,2832 -9,560 32,1180 -81,1733 -123,605 -1113,1394 -579,2024 713,842 1550,-229 1868,-848 1683,-3279 3084,-6757 4388,-10198 653,-1721 1268,-3455 1843,-5203 438,-1334 800,-2636 900,-4041 183,-2569 -240,-5198 -1151,-7605z"/>
    <path class="fil1" d="M9620 22818c0,0 1314,-843 2699,583 0,0 -1314,843 -2699,-583z"/>
    <path class="fil2" d="M11455 23002c-32,-271 -279,-464 -550,-432 -272,32 -466,278 -434,549 33,271 279,464 551,432 272,-33 466,-278 433,-549z"/>
    <path class="fil3" d="M13216 24212c9,-26 -47,-27 -61,-25 -227,27 -454,54 -681,81 -10,1 -44,7 -35,24 131,240 262,479 393,719 1,2 6,2 8,4 3,2 5,3 9,5 4,1 8,3 13,3 22,5 45,3 57,-6 1,-1 2,-1 2,-2 2,-1 6,-2 7,-4 96,-266 192,-533 288,-799z"/>
    <path class="fil1" d="M15293 22107c0,0 -1476,-510 -2484,1201 0,0 1476,510 2484,-1201z"/>
    <path class="fil2" d="M14519 22601c-32,-270 -279,-464 -551,-431 -271,32 -465,278 -433,549 33,270 279,464 551,431 272,-32 466,-278 433,-549z"/>
    <path class="fil2" d="M10694 24343c-1330,6 -2660,11 -3990,17 -71,0 -297,149 -216,149 1331,-6 2661,-11 3991,-17 70,0 297,-149 215,-149l0 0z"/>
    <path class="fil2" d="M10815 24914c-2149,437 -4298,873 -6446,1309 -145,29 -205,212 -10,173 2149,-436 4298,-873 6446,-1309 145,-29 205,-212 10,-173l0 0z"/>
    <path class="fil2" d="M10932 25594c-1415,577 -2830,1153 -4246,1730 -168,69 -96,227 71,158 1415,-576 2831,-1153 4246,-1730 168,-68 97,-226 -71,-158l0 0z"/>
    <path class="fil3" d="M16060 22316c1038,-736 2076,-1471 3113,-2207 155,-109 -107,-55 -169,-11 -1038,736 -2076,1472 -3114,2208 -154,109 108,54 170,10l0 0z"/>
    <path class="fil3" d="M15924 22996c1833,-728 3665,-1456 5497,-2185 166,-66 108,-193 -57,-127 -1832,728 -3664,1456 -5497,2185 -165,65 -108,193 57,127l0 0z"/>
    <path class="fil3" d="M16133 23701c1603,-293 3206,-586 4809,-879 163,-30 184,-250 -9,-215 -1603,293 -3206,586 -4809,879 -162,30 -183,250 9,215l0 0z"/>
    <path class="fil4" d="M16306 25342c-12,-20 -84,-29 -96,-6 -304,600 -617,1196 -913,1800 -40,82 -5,52 -119,65 -185,23 -370,45 -556,67 -336,40 -672,81 -1009,121 -20,2 -23,8 -20,13 -2,3 -6,5 -4,8 379,480 757,961 1136,1441 15,20 88,31 98,1 92,-282 185,-563 277,-845 64,-194 128,-389 192,-583 19,-57 33,-119 57,-173 10,-23 11,-30 8,-32 78,-46 248,-46 332,-63 204,-39 408,-79 612,-119 289,-56 579,-113 868,-169 8,-2 32,-8 24,-21 -296,-502 -591,-1004 -887,-1505z"/>
   </g>
   <path class="fil2" d="M6424 19603c1508,-691 2390,-2079 2390,-3486 0,-2166 -1974,-3922 -4407,-3922 -2433,0 -4407,1756 -4407,3922 0,2165 1974,3921 4407,3921 128,0 236,-4 364,-13 909,742 1818,1484 2728,2227 -1075,-2649 -717,-1766 -1075,-2649z"/>
   <path class="fil5" d="M2826 15462c-69,89 -140,159 -215,211 -75,52 -148,86 -218,103 -69,17 -134,15 -194,-4 -60,-18 -109,-53 -147,-104 -39,-51 -64,-119 -76,-202 -11,-84 -5,-183 20,-296 51,-237 115,-450 191,-639 76,-188 158,-355 246,-501 -121,17 -221,41 -299,70 -79,29 -142,65 -190,108 -48,43 -84,93 -106,151 -23,57 -37,122 -43,193 -30,0 -59,0 -86,-1 -27,-1 -51,-3 -71,-6 -39,-7 -74,-19 -105,-36 -31,-16 -55,-39 -72,-66 -17,-28 -27,-61 -28,-99 -2,-37 6,-82 24,-133 23,-64 68,-125 135,-184 67,-59 147,-111 239,-156 93,-46 193,-82 303,-109 109,-26 217,-40 324,-40 107,0 208,15 304,45 96,30 178,80 245,149 -26,27 -56,65 -88,114 -33,50 -67,106 -103,169 -36,64 -72,132 -108,207 -37,74 -72,148 -106,223 -34,75 -66,149 -94,221 -28,72 -53,138 -73,198 -13,39 -25,83 -36,133 -11,49 -15,90 -12,123 3,33 17,49 41,48 25,-1 66,-31 123,-93 55,-59 114,-131 178,-216 63,-84 126,-174 190,-268 63,-95 124,-190 184,-286 60,-97 114,-187 163,-271 49,-85 90,-160 123,-225 34,-66 56,-114 68,-146 43,17 81,33 113,47 32,13 61,29 85,45 25,17 48,37 69,59 21,23 42,52 63,87 -49,134 -101,274 -157,422 -56,148 -104,297 -144,449 -40,151 -65,302 -74,452 -9,150 9,295 56,434 -134,-8 -236,-36 -305,-82 -69,-45 -114,-104 -134,-174 -21,-71 -22,-152 -5,-243 18,-91 46,-185 83,-282 -42,64 -88,132 -138,204 -50,72 -98,138 -143,197zm3974 -1174c-35,8 -77,12 -126,12 -49,-1 -101,-2 -156,-4 -55,-1 -113,-2 -173,-2 -61,0 -122,5 -183,13 -81,109 -160,231 -237,364 -76,133 -143,271 -199,413 -57,142 -100,285 -128,429 -29,144 -35,282 -19,415 -51,-5 -101,-12 -150,-22 -50,-10 -94,-26 -133,-46 -38,-21 -69,-47 -92,-81 -24,-33 -35,-76 -35,-129 1,-46 10,-104 27,-173 17,-70 39,-144 67,-225 27,-81 60,-165 97,-252 37,-88 76,-173 118,-257 41,-84 84,-163 130,-238 45,-75 88,-141 131,-198 -98,3 -188,16 -270,37 -82,22 -154,53 -215,92 -61,39 -110,88 -145,144 -36,57 -57,123 -63,197 -30,0 -59,-1 -86,-1 -27,-1 -50,-3 -71,-6 -80,-16 -135,-55 -166,-119 -30,-63 -35,-135 -15,-215 22,-83 65,-151 130,-205 65,-54 145,-98 240,-131 95,-34 202,-58 320,-73 118,-16 240,-26 366,-31 126,-5 253,-7 381,-5 128,1 249,2 364,3 115,1 221,-1 317,-4 96,-4 175,-14 236,-30l-262 328zm-2723 482c32,-13 71,-25 117,-37 46,-12 91,-18 137,-18 46,-1 88,6 127,21 39,16 67,44 84,84 23,75 27,153 11,236 -16,83 -44,164 -85,243 -41,78 -91,153 -150,222 -59,70 -120,130 -182,178 -63,49 -124,84 -182,106 -59,22 -110,25 -152,9 -19,-6 -36,-10 -52,-12 -15,-2 -30,-8 -46,-19 -11,48 -19,98 -27,149 -7,51 -12,102 -15,153 -3,51 -2,101 2,151 5,51 13,98 26,144 -35,0 -72,-1 -112,-3 -40,-1 -79,-6 -116,-14 -37,-8 -71,-21 -101,-39 -31,-18 -53,-44 -68,-78 -3,-67 5,-149 23,-247 18,-99 42,-202 73,-312 31,-109 65,-219 104,-329 38,-111 78,-212 119,-304 41,-92 79,-169 117,-231 37,-63 68,-102 95,-118 27,-5 65,-7 113,-7 48,0 102,4 162,11 -3,6 -7,16 -11,30 -5,13 -8,24 -11,31zm-236 474c-14,32 -28,71 -40,116 -13,45 -15,94 -8,146 9,60 25,89 49,86 24,-2 52,-20 84,-55 32,-32 63,-68 93,-107 30,-40 56,-81 79,-124 22,-43 40,-87 53,-133 13,-46 19,-91 18,-134 -2,-28 -7,-49 -15,-64 -8,-14 -18,-24 -31,-28 -13,-4 -27,-4 -42,0 -14,4 -29,12 -43,22 -25,16 -48,36 -68,60 -20,24 -39,49 -56,75 -17,27 -31,52 -43,77 -13,25 -23,46 -30,63zm2714 369c-27,36 -61,71 -100,104 -39,33 -82,60 -127,82 -45,22 -92,35 -140,41 -48,6 -93,-1 -137,-19l2 0c-70,-27 -121,-63 -154,-111 -33,-47 -52,-100 -58,-158 -3,-41 0,-84 7,-129 7,-45 18,-90 31,-135 14,-45 31,-89 51,-131 19,-42 40,-81 62,-116 42,-61 83,-112 123,-152 40,-40 79,-71 116,-94 37,-22 73,-38 107,-47 34,-8 67,-13 97,-13 70,0 130,18 180,53 51,35 79,88 87,159 39,15 63,41 72,80 8,38 9,80 1,125 -8,45 -22,90 -41,132 -19,43 -36,76 -52,98 10,13 21,16 32,8 11,-7 19,-14 25,-21 13,-18 26,-38 40,-59 14,-22 27,-43 38,-64 12,-20 23,-39 33,-58 10,-18 19,-31 26,-40 18,-33 39,-55 65,-64 25,-10 48,-10 67,0 20,9 34,26 41,52 7,25 1,56 -18,93 -20,38 -38,71 -53,99 -15,29 -29,54 -42,77 -12,22 -24,43 -36,62 -11,19 -24,38 -37,57 -38,51 -85,84 -141,101 -56,17 -111,13 -167,-12zm-312 -22c9,0 19,-5 32,-16 12,-11 24,-24 37,-41 12,-16 24,-32 36,-50 11,-17 22,-33 33,-48 -21,-36 -35,-74 -43,-113 -8,-40 -9,-77 -2,-114 6,-36 20,-70 40,-100 21,-31 50,-56 88,-75l-11 0c-12,-5 -23,-10 -33,-15 -10,-4 -18,-10 -22,-17 -23,3 -47,19 -71,50 -24,30 -46,68 -66,111 -21,44 -38,91 -52,140 -14,50 -23,96 -27,139 -4,43 -2,78 8,107 9,28 27,42 53,42zm-2541 2130c21,-12 44,-26 70,-45 27,-18 54,-42 83,-71 29,-26 53,-56 72,-89 19,-34 32,-62 37,-85 6,-24 4,-38 -7,-43 -11,-5 -31,7 -60,36 -19,19 -38,42 -58,69 -20,27 -38,54 -56,81 -17,27 -33,52 -48,76 -14,24 -25,43 -33,56l0 15zm46 550c-35,0 -72,-4 -111,-14 -39,-9 -76,-23 -111,-41 -35,-19 -67,-41 -94,-69 -28,-28 -48,-60 -59,-96 -15,-37 -23,-73 -25,-110 -3,-38 -1,-75 4,-112 5,-37 14,-73 26,-108 13,-35 27,-68 43,-100 30,-60 67,-116 109,-167 42,-52 88,-97 137,-136 50,-38 101,-69 153,-91 53,-23 104,-34 153,-34 88,0 150,15 189,44 39,30 58,68 59,115 1,47 -14,98 -45,155 -30,57 -70,113 -118,168 -48,56 -102,106 -163,152 -62,46 -122,81 -182,106 2,39 9,68 22,87 13,19 30,31 52,35 21,5 45,3 72,-5 26,-8 53,-21 79,-39 26,-14 54,-37 82,-68 29,-32 57,-66 86,-103 30,-37 58,-76 84,-116 27,-40 52,-77 74,-112 17,-32 39,-53 64,-62 25,-10 48,-10 68,-1 19,8 34,24 42,47 9,22 5,49 -11,79 -46,77 -93,152 -140,223 -48,71 -98,135 -152,190 -54,55 -113,100 -176,133 -63,34 -134,50 -211,50zm758 -550c20,-12 44,-26 70,-45 26,-18 54,-42 83,-71 29,-26 53,-56 72,-89 19,-34 31,-62 37,-85 6,-24 3,-38 -8,-43 -11,-5 -31,7 -60,36 -19,19 -38,42 -58,69 -19,27 -38,54 -55,81 -18,27 -34,52 -48,76 -15,24 -26,43 -33,56l0 15zm46 550c-35,0 -72,-4 -112,-14 -39,-9 -76,-23 -111,-41 -35,-19 -66,-41 -94,-69 -27,-28 -47,-60 -59,-96 -14,-37 -23,-73 -25,-110 -2,-38 -1,-75 5,-112 5,-37 13,-73 26,-108 12,-35 26,-68 42,-100 31,-60 67,-116 109,-167 43,-52 89,-97 138,-136 50,-38 100,-69 153,-91 52,-23 103,-34 153,-34 87,0 150,15 189,44 38,30 58,68 59,115 0,47 -15,98 -45,155 -31,57 -70,113 -118,168 -48,56 -103,106 -164,152 -61,46 -121,81 -181,106 1,39 9,68 22,87 13,19 30,31 51,35 21,5 45,3 72,-5 27,-8 54,-21 80,-39 26,-14 53,-37 82,-68 28,-32 57,-66 86,-103 29,-37 57,-76 84,-116 27,-40 51,-77 73,-112 18,-32 39,-53 65,-62 25,-10 48,-10 67,-1 20,8 34,24 43,47 9,22 5,49 -11,79 -47,77 -94,152 -141,223 -47,71 -98,135 -152,190 -54,55 -112,100 -175,133 -64,34 -134,50 -211,50zm-2970 37c-36,-5 -72,-12 -108,-18 -36,-7 -68,-17 -97,-31 -29,-13 -54,-33 -74,-59 -21,-25 -33,-60 -37,-103 19,-120 54,-243 107,-370 52,-128 113,-252 182,-373 69,-121 143,-235 222,-343 78,-107 154,-202 227,-283 -108,20 -208,49 -301,86 -92,37 -173,80 -242,129 -69,48 -124,103 -166,163 -41,61 -65,125 -71,191 -30,0 -59,0 -86,-1 -27,0 -51,-2 -71,-5 -39,-7 -74,-19 -105,-36 -31,-17 -55,-39 -72,-67 -17,-27 -27,-60 -28,-98 -2,-38 6,-82 24,-133 17,-48 47,-94 88,-137 42,-43 92,-83 151,-120 59,-37 125,-71 198,-101 74,-31 151,-58 233,-81 82,-23 165,-43 251,-58 86,-15 171,-27 256,-34 49,-4 107,-7 172,-10 66,-2 131,1 198,8 66,7 128,22 186,43 59,21 105,52 140,92 -22,31 -44,72 -65,124 -22,51 -44,109 -65,173 -21,64 -41,132 -59,202 -18,71 -34,140 -49,207 -14,67 -26,129 -35,188 -9,58 -14,107 -17,146 29,-48 64,-104 105,-167 40,-64 85,-130 133,-200 48,-70 98,-141 150,-212 53,-71 104,-139 155,-203 51,-64 101,-122 149,-175 48,-52 92,-94 131,-126 25,-2 57,0 97,5 40,5 79,14 117,28 38,13 70,29 97,49 27,19 41,42 41,68 -25,25 -54,72 -86,140 -32,69 -64,151 -98,247 -33,96 -67,201 -99,314 -33,114 -63,228 -90,343 -27,115 -50,226 -69,333 -19,107 -31,201 -37,283 -27,3 -52,5 -74,6 -22,2 -38,3 -48,3 -35,0 -65,-3 -92,-9 -26,-6 -50,-14 -71,-25 -21,-11 -41,-25 -61,-41 -19,-16 -40,-35 -62,-56 20,-140 45,-282 74,-425 29,-143 68,-290 116,-440 -103,138 -193,259 -270,362 -76,104 -143,201 -200,293 -30,13 -64,22 -100,26 -36,5 -72,4 -107,-1 -35,-5 -67,-16 -96,-33 -29,-16 -51,-39 -66,-68 5,-56 10,-123 15,-201 5,-79 11,-160 18,-243 7,-83 15,-162 24,-238 9,-75 18,-138 26,-187 -45,50 -91,109 -137,176 -47,67 -91,138 -132,213 -42,75 -80,153 -116,233 -36,80 -66,158 -90,235 -24,76 -41,150 -51,220 -10,71 -11,134 -2,191l-81 -9zm4086 -235c-28,36 -62,71 -101,103 -39,33 -81,60 -126,82 -46,22 -92,36 -140,42 -48,6 -94,-1 -138,-20l2 0c-69,-26 -121,-63 -154,-110 -32,-48 -52,-100 -57,-159 -3,-40 -1,-83 6,-128 7,-45 18,-91 32,-136 14,-45 30,-88 50,-131 20,-42 40,-81 62,-115 42,-62 84,-112 124,-152 40,-40 78,-72 115,-94 38,-23 73,-38 107,-47 35,-9 67,-13 98,-13 69,0 129,17 180,52 50,35 79,88 86,160 39,14 63,41 72,79 9,39 9,81 1,126 -8,45 -21,89 -40,132 -19,43 -37,75 -53,97 10,13 21,16 32,9 11,-7 19,-15 25,-22 13,-17 27,-37 40,-59 14,-22 27,-43 39,-63 11,-21 22,-40 32,-58 11,-18 19,-32 27,-40 17,-34 39,-55 64,-65 25,-9 48,-9 68,0 19,10 33,27 40,53 7,25 2,56 -17,92 -21,38 -39,71 -54,100 -15,28 -29,54 -41,76 -13,23 -25,43 -36,62 -12,19 -24,38 -37,57 -38,51 -85,85 -141,102 -56,16 -112,12 -167,-12zm-313 -22c9,0 20,-6 32,-17 12,-10 25,-24 37,-40 13,-16 25,-33 36,-50 12,-18 23,-34 33,-48 -20,-37 -35,-74 -43,-114 -8,-39 -8,-77 -2,-113 7,-37 20,-70 41,-101 20,-30 49,-55 87,-74l-11 0c-12,-6 -23,-11 -33,-15 -10,-5 -17,-10 -22,-18 -23,3 -47,20 -71,50 -24,31 -46,68 -66,112 -21,43 -38,90 -51,140 -14,49 -23,95 -28,138 -4,43 -2,79 8,107 9,29 27,43 53,43zm1088 74c-35,52 -84,94 -145,123 -62,30 -124,45 -186,45 -62,0 -116,-18 -164,-53 -47,-36 -73,-94 -77,-174 -3,-48 1,-102 13,-161 11,-60 27,-121 46,-182 19,-61 39,-121 62,-179 22,-58 44,-110 64,-155 21,-45 38,-82 52,-110 13,-28 20,-44 20,-47 12,-20 38,-33 79,-38 41,-5 83,-5 126,0 43,5 79,15 109,29 30,15 39,31 27,48 -12,25 -24,52 -38,82 -14,30 -27,60 -41,91 -13,30 -25,61 -37,91 -11,31 -22,59 -30,86 -16,43 -31,87 -43,131 -12,43 -22,82 -29,115 -15,73 -10,111 15,114 25,3 57,-28 96,-92 15,-20 29,-43 43,-70 13,-26 28,-56 44,-89 9,-54 23,-109 41,-165 18,-56 37,-108 57,-155 19,-47 37,-87 52,-119 15,-32 25,-51 29,-57 8,-10 22,-18 43,-24 21,-6 45,-9 73,-10 28,0 56,1 85,4 29,2 56,7 79,13 23,6 42,13 56,23 13,9 19,20 16,31 -50,92 -95,184 -137,275 -41,92 -72,186 -92,282 -10,51 -13,88 -9,111 4,24 14,36 28,36 15,1 32,-9 53,-29 20,-20 42,-49 65,-85 10,-16 23,-36 37,-60 15,-24 31,-56 48,-95 2,-50 6,-106 14,-169 7,-64 21,-123 42,-179 21,-57 51,-103 89,-141 37,-38 88,-56 150,-55 45,4 78,18 100,40 21,23 33,51 38,83 4,33 2,68 -7,105 -8,37 -19,71 -33,102 -5,16 -17,39 -36,70 -18,30 -46,78 -84,142 0,4 0,11 0,21 0,11 1,22 3,33 1,12 3,23 6,33 3,10 8,17 15,22 6,-2 15,-9 27,-22 11,-13 25,-30 40,-50 15,-21 31,-43 48,-67 17,-24 32,-48 47,-73 15,-31 33,-51 57,-60 23,-9 45,-11 65,-4 21,6 36,20 46,40 10,20 9,45 -4,74 -8,15 -21,41 -41,80 -19,38 -45,79 -76,120 -31,41 -67,78 -108,110 -41,32 -85,48 -133,48 -53,0 -99,-15 -138,-46 -16,28 -37,60 -63,97 -26,36 -57,71 -92,103 -35,33 -73,61 -116,83 -42,23 -87,34 -135,34 -10,0 -26,0 -47,1 -21,1 -44,-2 -68,-10 -24,-7 -48,-21 -73,-43 -25,-22 -46,-56 -63,-103z"/>
  </g>
 </g>
</svg>
