<?xml version="1.0" encoding="UTF-8"?>
<!DOCTYPE svg PUBLIC "-//W3C//DTD SVG 1.1//EN" "http://www.w3.org/Graphics/SVG/1.1/DTD/svg11.dtd">
<!-- Creator: CorelDRAW X7 -->
<svg xmlns="http://www.w3.org/2000/svg" xml:space="preserve" width="12.1835cm" height="20.9999cm" version="1.1" style="shape-rendering:geometricPrecision; text-rendering:geometricPrecision; image-rendering:optimizeQuality; fill-rule:evenodd; clip-rule:evenodd"
viewBox="0 0 4902 8450"
 xmlns:xlink="http://www.w3.org/1999/xlink">
 <defs>
  <style type="text/css">
   <![CDATA[
    .fil0 {fill:#FCB119}
   ]]>
  </style>
 </defs>
 <g id="Layer_x0020_1">
  <metadata id="CorelCorpID_0Corel-Layer"/>
  <g id="_794090016">
   <path class="fil0" d="M1271 2604l772 0c0,1 -1,3 -4,4 -3,0 -4,1 -4,1 -4,2 -9,4 -17,8 -8,3 -14,6 -18,8 -30,12 -61,23 -95,32 -34,8 -70,15 -109,18 -5,2 -13,3 -24,4 -10,1 -16,1 -18,1l-96 0 -98 0c-3,0 -11,0 -22,-1 -12,-1 -20,-2 -25,-4 -41,-5 -81,-13 -120,-24 -21,-5 -42,-11 -62,-18 -20,-7 -40,-17 -60,-29zm-143 -91l1053 0 -8 8c-2,2 -6,5 -11,10 -5,4 -10,7 -13,9 -4,3 -8,7 -12,11 -4,3 -7,5 -7,5l-949 0c0,0 -2,-2 -8,-5 -5,-4 -10,-8 -13,-11 -2,-2 -6,-5 -12,-11 -6,-5 -11,-9 -15,-13 -1,0 -3,0 -4,-1 0,-1 -1,-2 -1,-2zm-79 -100l1217 0c0,1 -2,5 -6,10 -3,5 -6,9 -8,10 -3,4 -7,10 -12,17 -4,7 -6,10 -6,10l-1154 0 -13 -15c-2,-1 -4,-5 -8,-10 -3,-5 -6,-10 -8,-13l-2 -9zm-56 -96l383 0c-4,-2 -9,-3 -15,-6 -6,-3 -11,-4 -15,-4 -1,-1 -8,-4 -18,-7 -11,-4 -17,-6 -19,-8 -3,-1 -10,-4 -21,-9 -11,-4 -18,-7 -22,-11l-294 0c0,0 -1,-1 -2,-4 -1,-3 -2,-5 -4,-7 -1,-4 -3,-9 -5,-17 -2,-7 -3,-12 -3,-14 -1,0 -2,-2 -2,-8l220 0c-1,0 -3,-2 -5,-5 -2,-4 -4,-5 -5,-5 -6,-5 -14,-12 -24,-22 -11,-9 -17,-13 -19,-13l-180 0c0,0 -1,-3 -2,-10 -1,-7 -2,-12 -4,-15l0 -23 139 0c-2,-4 -7,-11 -14,-21 -7,-10 -11,-17 -13,-21 -2,0 -3,-1 -4,-3 -1,-1 -2,-2 -2,-2l-114 0c0,0 -1,-5 -2,-13 -2,-9 -3,-15 -3,-19l0 -16 85 0 0 -7c-4,-7 -8,-16 -12,-25 -5,-10 -7,-14 -7,-14l-66 0 0 -48 42 0 0 -8c0,0 -1,-4 -4,-12 -2,-8 -4,-13 -4,-16 -1,-2 -3,-4 -4,-7 0,-3 -1,-4 -1,-4l-29 0 0 -45c2,0 4,0 8,-1 3,-1 5,-3 5,-4 0,0 1,-1 2,-3 0,-2 1,-4 1,-5 0,-2 -1,-4 -1,-7 -1,-3 -2,-4 -2,-4 0,-3 0,-8 -1,-13 -1,-5 -1,-9 -1,-11 -4,-3 -7,-5 -11,-5l0 -1461 501 0 0 1273c0,3 1,10 3,21 2,10 2,18 2,21 2,0 3,1 3,3l0 2 -3 0 -2 3 0 45c2,0 4,1 6,1 3,1 5,2 7,2 0,2 1,3 3,4 1,1 2,1 2,1 2,4 5,10 8,20 4,10 6,16 6,20l-32 0 0 48 61 0 42 47 -103 0 0 45 456 0 0 -45 -106 0 42 -47 64 0 0 -48 -32 0 0 -3c0,-3 1,-6 3,-8 0,-2 0,-5 2,-10 2,-6 4,-10 6,-14 1,-1 3,-4 4,-6 0,-3 1,-4 1,-4 2,0 4,-1 8,-2 3,0 6,-1 8,-1l0 -45 -3 -5 5 -1318 501 0 0 1461c0,3 -1,5 -5,5 0,2 0,4 -1,7 -1,3 -1,5 -1,6 -4,11 -6,19 -6,24l0 3 0 3c4,3 8,5 13,5l0 42c-5,0 -13,2 -23,6l-6 5c0,2 -1,6 -4,13 -2,7 -4,11 -4,13l0 13 37 0 0 48 -60 0c0,0 -3,4 -7,14 -5,9 -9,18 -12,25l0 7 82 0c0,2 0,6 -1,12 -1,7 -2,11 -2,15 0,3 0,8 -1,13 -1,5 -2,8 -4,8l-109 0c0,0 -1,1 -5,5 -3,4 -6,7 -8,11 -4,3 -8,8 -12,14 -5,6 -7,9 -7,9l0 8 139 0 0 11c-2,2 -4,6 -4,13 -1,6 -2,10 -2,13 -2,1 -3,4 -4,6 -1,3 -1,5 -1,5l-181 0 -18 17c-2,0 -6,3 -12,8 -6,5 -10,8 -12,10 -2,0 -4,1 -6,5 -1,3 -3,5 -5,5l223 0 -13 50 -295 0 -109 45 383 0c0,0 -1,1 -1,3 -1,2 -2,4 -2,6l-18 39 -1289 0c0,0 -1,-2 -4,-6 -3,-3 -5,-6 -6,-8 0,-4 -2,-8 -4,-13 -3,-4 -4,-7 -4,-7 0,-1 -1,-4 -2,-7 -1,-2 -1,-5 -1,-7zm501 -188l42 48 236 0c2,0 4,-1 6,-3 1,-2 3,-3 5,-3l29 -29c0,0 1,-1 1,-4 1,-2 2,-5 2,-6l-321 -3zm-48 -88c0,2 2,6 4,13 3,6 4,10 4,12 4,4 6,7 6,10 1,0 3,1 4,3 0,1 1,2 1,2l384 0c0,0 2,-3 4,-9 3,-5 5,-10 7,-13 0,-2 0,-4 1,-8 1,-3 2,-6 2,-7l2 -3 -419 0zm-16 -98l0 34c2,2 3,4 4,7 1,3 2,4 2,4l442 0 0 -45 -448 0zm-506 -1662l498 0 0 45 -498 0 0 -45zm962 0l501 0 0 45 -501 0 0 -45zm-962 -98l498 0 0 48 -498 0 0 -48zm962 0l501 0 0 48 -501 0 0 -48zm-962 -96l498 0 0 46 -498 0 0 -46zm962 0l501 0 0 46 -501 0 0 -46zm-962 -87l498 0 0 37 -498 0 0 -37zm962 0l501 0 0 37 -501 0 0 -37zm676 2604l502 0 0 34 -502 0 0 -34zm0 -91l502 0 0 43 -502 0 0 -43zm0 -100l502 0 0 47 -502 0 0 -47zm0 -96l502 0 0 43 -502 0 0 -43zm0 -1986l764 0c4,0 16,2 36,5 20,2 35,5 44,6 5,0 17,3 35,6 19,4 31,7 36,9 4,2 13,4 28,8 15,4 25,7 31,8l368 0c0,0 0,2 1,3 1,2 3,4 4,6 0,4 2,8 6,11 0,2 1,7 4,14 2,8 4,13 4,17l-260 0c0,6 2,8 5,8 2,2 8,6 17,12 10,6 17,10 20,12l24 16 207 0c3,0 5,5 5,16 4,10 5,18 5,24l0 8 -156 0c0,7 2,10 5,10 4,6 10,13 19,23 9,10 13,14 13,14l130 0c0,0 1,5 1,14 1,8 2,16 2,21 0,2 0,4 1,6 1,3 1,5 1,7l-100 0 23 48 80 0 0 45 -56 0c0,3 2,10 6,21 3,11 6,18 8,21l5 6 40 0c0,0 -1,2 -2,8 -1,5 -1,9 -1,13 0,3 0,8 -1,14 -1,7 -3,10 -4,10 0,7 -6,9 -19,5l0 5 0 6c2,1 3,5 4,12 1,6 1,10 1,11 0,0 1,2 2,4 1,3 2,4 4,4 0,4 2,6 5,6 -2,1 -3,9 -3,21 0,12 1,19 3,21 0,2 1,8 1,19 1,10 2,16 2,18l0 6 0 5c-2,0 -5,0 -10,1 -4,1 -7,2 -9,4 0,0 0,1 -1,3 -1,2 -2,3 -4,5 0,4 -1,9 -4,17 -3,8 -4,14 -4,18 3,0 9,0 17,1 8,1 13,2 15,4 1,0 3,0 4,1 1,1 1,2 1,2l0 42 -56 0c0,0 -1,0 -2,1 -2,1 -3,2 -3,4 -2,4 -5,10 -9,20 -5,10 -8,16 -10,20l83 0c0,4 -1,8 -2,12 -1,4 -1,8 -1,12 0,3 0,8 -1,14 -1,7 -3,10 -4,10l-109 0c-11,19 -21,35 -32,47l138 0 0 16c-2,6 -3,12 -4,20 -1,8 -1,12 -1,12l-181 0c0,0 -1,1 -3,3 -3,2 -5,3 -7,5 -5,4 -13,10 -24,19 -11,9 -17,13 -19,13 0,5 -1,8 -5,8l226 0 0 3c0,1 -1,3 -3,5 0,0 -1,2 -1,6 -1,4 -2,8 -2,12 -2,1 -3,4 -4,8 -1,3 -1,5 -1,5 0,1 -1,3 -3,5 -2,1 -2,2 -2,2l-300 0c-4,2 -11,6 -23,10 -11,6 -19,9 -22,11 -5,2 -17,5 -35,12 -17,6 -28,10 -31,14l392 0c0,7 -2,13 -5,17 0,0 -1,1 -2,3 0,4 -2,6 -4,8 -1,4 -4,8 -8,14 -3,5 -5,8 -5,8l-814 0 0 45 782 0 0 6c-1,2 -3,4 -5,8 -2,4 -3,7 -5,9l-24 25 -748 0 0 48 700 0c-3,10 -11,17 -24,21 0,2 -2,4 -8,8 -5,3 -8,6 -10,8 -2,0 -5,1 -8,4 -4,2 -6,5 -6,6l-644 0 0 48 554 0c-1,2 -5,4 -9,7 -4,2 -7,4 -9,4 -4,3 -12,7 -24,10 -11,4 -25,9 -44,16 -18,7 -28,11 -28,11l-442 0 0 604 -502 0 0 -1978zm502 950l0 42 254 0c4,0 9,-4 17,-12 8,-8 18,-18 31,-30l-302 0zm0 -96l0 43 336 0c0,0 1,-1 2,-3 1,-2 1,-4 1,-5 2,-4 4,-9 7,-16 2,-7 4,-12 4,-14l0 -5 -350 0zm0 -95l0 42 363 0c2,0 3,-3 4,-11 1,-7 1,-12 1,-15l0 -16 -368 0zm0 -427l0 379 368 0 0 -46 -109 0c0,-5 2,-8 6,-8 5,-5 13,-12 24,-22 10,-10 16,-15 18,-15 4,-3 13,-6 28,-7 15,-1 24,0 28,2l0 -3 0 -3c0,-3 -1,-9 -2,-16 0,-7 -1,-11 -1,-13 -2,0 -3,-1 -4,-4 -1,-2 -1,-4 -1,-4 -2,0 -5,-1 -8,-2 -4,-2 -6,-3 -8,-3l0 -3 0 -2c2,-2 4,-8 7,-17 2,-9 4,-14 4,-16l0 -2 0 -3 -11 -11c-2,-3 -5,-10 -9,-19 -5,-11 -8,-17 -10,-21l43 0c2,0 3,-4 4,-12 1,-8 1,-13 1,-17l0 -19 -90 0 -8 -5c-4,-2 -8,-5 -13,-8 -6,-4 -9,-6 -11,-8 -9,-4 -18,-8 -28,-13 -9,-6 -20,-10 -30,-14l180 0 0 -45 -368 0zm0 -90l0 39 365 0 -2 -4c0,-4 -1,-9 -2,-15 0,-7 -1,-11 -1,-13 -2,-2 -3,-3 -4,-5 -1,-1 -1,-2 -1,-2l-355 0zm0 -98l0 45 339 0 -19 -40c0,-2 0,-3 -1,-4 -1,-1 -1,-1 -1,-1l-318 0zm0 -99l0 46 273 0c-2,-2 -7,-6 -14,-10 -7,-5 -11,-8 -13,-10 -3,-2 -8,-4 -14,-7 -7,-3 -11,-5 -15,-7 -2,0 -4,-1 -7,-3 -2,-2 -4,-3 -6,-3 -11,-4 -18,-6 -21,-6l-183 0zm-502 -95l1294 0 11 11c0,2 2,7 5,14 4,8 6,13 8,17l0 6 -1318 0 0 -48zm0 -95l1223 0 5 3c4,4 9,11 17,22 8,11 14,18 18,22l-1263 0 0 -47zm0 -96l1095 0c0,0 7,4 19,11 12,7 22,13 29,18 2,0 5,2 9,6 5,3 8,6 10,8l-1162 0 0 -43zm0 -90l764 0c4,0 16,1 36,3 20,1 35,4 44,8 3,0 14,1 31,5 18,3 31,6 40,8 4,0 10,1 19,4 9,2 15,4 18,4 4,3 9,5 16,5l-968 0 0 -37zm-1280 5509l498 0 0 35 -498 0 0 -35zm0 -90l498 0 0 43 -498 0 0 -43zm0 -101l498 0 0 48 -498 0 0 -48zm0 -95l498 0 0 42 -498 0 0 -42zm0 -1562l-459 0 0 -47 456 0 0 -45 -456 0 0 -51 456 0 0 -45 -456 0 0 -48 456 0 0 -47 -456 0 0 -135 1403 0 0 135 -440 0 0 47 440 0 0 48 -440 0 0 45 440 0 0 51 -440 0 0 45 440 0 0 47 -443 0 0 1554 -501 0 0 -1554zm-459 -471l1403 0 0 45 -1403 0 0 -45zm0 -99l1403 0 0 48 -1403 0 0 -48zm0 -95l1403 0 0 42 -1403 0 0 -42zm0 -90l1403 0 0 37 -1403 0 0 -37z"/>
   <path class="fil0" d="M2873 5509l716 0c-9,6 -19,11 -28,16 -10,6 -21,10 -33,14 -29,8 -56,17 -83,25 -26,8 -54,13 -84,17 -6,2 -14,3 -24,4 -11,1 -17,1 -19,1l-87 0 -88 0c-2,0 -7,0 -17,-1 -10,-1 -17,-2 -23,-4 -62,-9 -122,-25 -180,-48 -2,0 -8,-2 -19,-6 -10,-5 -18,-9 -23,-12 0,0 -2,-1 -4,-2 -3,-1 -4,-2 -4,-4zm-138 -90l1002 0c-2,0 -3,1 -4,2 -1,0 -1,1 -1,1 -4,3 -8,7 -14,12 -5,4 -8,7 -10,9 -4,4 -9,8 -17,12 -8,4 -12,7 -12,7l-891 0c-2,0 -4,-2 -7,-4 -2,-3 -6,-5 -9,-7 -7,-5 -14,-11 -20,-16 -6,-5 -12,-10 -17,-16zm-96 -95l1191 0c-2,2 -6,6 -11,13 -5,7 -10,12 -13,16l-13 13 -1117 0c0,0 0,-1 -2,-4 -2,-2 -4,-5 -5,-6 -4,-4 -9,-9 -15,-16 -6,-7 -11,-13 -15,-16zm-63 -98l395 0c-4,-2 -12,-5 -24,-10 -12,-5 -20,-9 -24,-10 -2,-2 -7,-5 -16,-8 -9,-3 -14,-5 -16,-5 -2,-1 -6,-4 -12,-6 -6,-3 -10,-5 -12,-6l-318 0c0,0 0,-1 -1,-3 -1,-2 -2,-3 -4,-3 -2,-4 -4,-10 -8,-20 -4,-9 -5,-15 -5,-16 0,0 -1,-1 -2,-3 -1,-2 -1,-4 -1,-6l255 0 -6 -5c-7,-7 -17,-16 -29,-27 -12,-10 -18,-15 -18,-15l-218 0c0,0 -1,-1 -3,-2 -1,-1 -2,-2 -2,-4 -2,-3 -4,-9 -6,-16 -1,-7 -3,-11 -5,-13l0 -11 178 0c-4,-7 -7,-14 -11,-19 -3,-4 -9,-10 -16,-19 -7,-8 -11,-12 -13,-12l-156 0c0,0 -1,-5 -3,-15 -2,-11 -4,-19 -5,-26l-3 -5 135 0 -29 -47 -114 0c0,0 0,-1 -1,-4 -1,-3 -2,-7 -4,-11 0,-2 -1,-6 -2,-13 0,-7 -1,-12 -1,-16 -2,-2 -3,-4 -3,-6l0 -3 96 0c0,-2 -1,-4 -1,-7 -1,-4 -2,-6 -2,-8l-16 -31 -84 0c0,0 -1,-5 -2,-13 -1,-9 -2,-15 -4,-21l0 -13 72 0 -13 -47 -64 0c0,0 -1,-4 -1,-11 -1,-7 -2,-12 -2,-16 -2,-2 -2,-4 -2,-8l0 -13 47 0c0,-1 1,-4 2,-8 1,-3 0,-6 -2,-7 0,-2 0,-5 -1,-10 -1,-4 -1,-7 -1,-9 -2,-2 -3,-4 -4,-8 -1,-3 -2,-5 -2,-5l-42 0 0 -45 32 0 0 -8c0,-4 -1,-9 -2,-16 0,-7 -1,-12 -1,-13 -2,-2 -3,-4 -4,-7 -1,-3 -1,-4 -1,-4l-29 0 0 -47 18 0c0,0 1,-4 2,-12 0,-8 0,-15 -2,-20 0,-2 0,-5 -1,-8 -1,-4 -2,-5 -4,-5 0,-2 -2,-4 -5,-4 -4,-1 -7,-2 -8,-2l0 -42c3,0 7,-2 10,-5l0 -8 0 -11c-3,-11 -5,-19 -5,-24l-5 -5 0 -185c0,0 1,-2 2,-5 2,-4 3,-6 3,-8l0 -19 0 -16 -5 -2 0 -43c1,0 3,-1 5,-2 2,-2 3,-3 5,-3 0,-2 1,-4 2,-8 0,-3 1,-6 1,-8 2,-3 2,-9 1,-17 -1,-8 -1,-12 -1,-12l-13 0 0 -45c12,0 20,-1 24,-5 0,0 0,-3 1,-9 1,-6 2,-11 4,-15 0,-3 -1,-8 -2,-13 0,-5 -1,-8 -1,-8l-26 0 0 -21c0,-4 1,-9 2,-16 2,-7 3,-11 3,-11l37 0c0,0 1,-5 4,-16 3,-10 5,-18 7,-24 0,-1 -1,-3 -2,-4 -1,0 -1,-2 -1,-3l-45 0 0 -6c0,-7 0,-15 1,-26 1,-10 2,-16 4,-16l56 0c0,0 0,-1 1,-4 1,-2 2,-5 4,-6 2,-4 4,-9 6,-16 1,-7 2,-12 2,-14l0 -7 -66 0 0 -11c2,-5 3,-12 4,-21 1,-9 1,-14 1,-14l85 0c2,0 5,-5 9,-15 5,-11 9,-20 12,-27l-2 -5 -96 0c0,-4 1,-8 1,-12 1,-5 2,-8 2,-9 0,-4 0,-9 1,-16 1,-7 2,-11 4,-11l122 0 29 -48 -140 0c0,-2 0,-4 1,-8 1,-3 1,-6 1,-8 0,-3 2,-10 6,-21 0,-2 0,-4 1,-6 1,-3 1,-4 1,-4l162 0c2,0 5,-4 11,-11 5,-7 9,-12 13,-16 2,-2 4,-5 8,-11 3,-5 6,-8 8,-10l-188 0c0,0 0,-1 1,-3 1,-2 1,-3 1,-5 0,0 2,-4 4,-11 3,-7 4,-12 4,-16 2,-3 3,-6 4,-9 1,-3 1,-4 1,-4l223 0 53 -48 -252 0 0 -5c4,-7 8,-16 12,-26 5,-11 7,-16 7,-16l310 0c4,-2 12,-6 25,-12 14,-6 22,-10 25,-12 4,-2 10,-5 19,-8 9,-4 14,-6 16,-8 0,0 1,-1 4,-3 3,-2 4,-3 4,-5l-371 0c0,-5 2,-11 8,-16 3,-4 7,-9 12,-17 4,-8 6,-12 6,-12l1268 0 2 5c4,4 8,9 12,16 5,7 8,12 9,13 0,2 1,4 2,7 1,3 1,4 1,4l-368 0c14,9 29,17 45,24 16,7 31,15 45,24l307 0c0,0 1,1 2,2 0,2 2,4 4,6 1,3 4,8 8,16 3,7 5,11 5,13l2 10 -254 0c2,2 4,5 8,10 3,4 6,7 8,9 3,3 10,9 18,17 9,8 14,12 14,12l228 0c1,0 4,5 6,15 3,9 6,17 10,22l0 11 -186 0 0 8 37 40 167 0c0,0 1,5 3,15 2,11 3,19 5,24 0,2 1,3 1,4 1,1 2,2 2,4l-141 0c2,2 3,4 4,7 1,3 2,4 2,4 3,5 8,13 14,22 6,10 9,15 9,15l120 0 5 16c0,3 0,8 1,13 1,5 2,9 2,11 1,0 2,2 2,8l-100 0 18 47 85 0c3,0 5,4 5,11 0,4 1,9 2,17 0,8 1,14 1,18l-69 0 0 7c0,0 0,2 1,6 1,3 2,6 4,8 2,3 4,9 6,16 1,7 2,10 2,10l64 0 0 48 -43 0c0,0 0,2 -1,6 -1,5 0,8 1,9 0,2 1,5 2,10 1,4 1,8 1,12 2,1 3,4 4,6 1,3 1,4 1,4l38 0 0 48 -27 0 0 11c0,3 0,8 1,13 1,5 2,9 2,10 1,2 3,4 4,7 1,3 1,4 1,4 2,0 5,0 11,1 5,1 8,3 8,4 1,0 3,2 3,4 1,3 2,4 2,4 2,4 2,11 2,24l0 13 -21 0 0 5c2,7 3,16 4,27 1,10 2,16 2,16l13 0 0 45 -8 2c0,4 0,12 1,24 1,13 2,21 2,24 0,5 0,14 1,28 1,13 1,26 1,41 0,14 0,27 -1,41 -1,13 -1,22 -1,28 3,3 5,8 5,15l0 19 0 13 -8 5c0,0 -1,5 -3,15 -2,9 -2,17 -2,22l0 3 0 3c3,3 8,5 13,5l0 42c-2,-1 -5,-1 -9,0 -5,2 -8,4 -10,6 0,0 0,3 -1,9 -1,6 -2,11 -4,14l0 11 0 8c2,2 5,3 9,4 5,1 8,1 10,1l0 45 -27 0c0,0 -1,3 -3,8 -1,5 -2,10 -2,13 0,2 -1,6 -3,12 -2,6 -3,11 -3,15l40 0 0 2 -2 3c0,7 -1,15 -2,25 -1,10 -1,15 -1,15l-43 0c-3,0 -5,6 -5,18 -2,4 -3,8 -4,12 -1,5 -1,7 -1,7l0 10 50 0c0,4 0,10 -1,19 -1,8 -1,15 -1,18 0,2 -1,4 -3,7 -2,2 -3,4 -3,4l-55 0c-4,0 -6,2 -6,8 -2,3 -3,8 -5,14 -2,6 -4,11 -5,15 0,0 0,1 1,4 1,2 1,5 1,6l67 0c0,2 -1,6 -2,11 -1,6 -1,9 -1,11 0,4 0,9 -1,16 -1,8 -3,11 -4,11l-80 0c0,0 0,1 -1,3 -1,1 -2,3 -4,5 -7,11 -12,22 -13,33l0 8 90 0 0 16c0,4 -1,8 -3,13 -2,6 -3,10 -3,11 0,6 -1,8 -5,8l-109 0c0,0 -1,3 -5,8 -3,5 -6,10 -8,13 -2,2 -4,5 -8,12 -3,6 -6,10 -8,14l130 0 0 10c0,2 -1,5 -3,9 -1,4 -2,7 -2,9 -2,3 -3,7 -4,11 -1,5 -1,7 -1,7l-157 0 -24 25c-2,4 -4,8 -8,13 -3,4 -5,9 -5,12l180 0 -16 46 -222 0c0,1 -2,4 -6,6 -3,3 -6,5 -8,7 -1,2 -8,6 -18,13 -11,7 -17,12 -19,16 -1,0 -3,1 -4,3 -1,1 -1,2 -1,2l260 0 -19 51 -331 0c-4,1 -11,4 -21,10 -11,5 -18,8 -22,10 -1,1 -5,3 -12,5 -6,1 -10,3 -11,5 -4,1 -11,4 -20,7 -10,4 -17,6 -20,8l408 0c0,1 0,4 -1,6 -1,3 -2,5 -2,7 -1,2 -4,6 -8,12 -3,6 -6,10 -7,12l-8 8 -1268 0c0,0 -2,-4 -6,-11 -5,-7 -9,-13 -12,-18 -6,-6 -8,-11 -8,-16zm482 -189c2,4 6,9 14,16 7,7 11,12 13,14 2,0 4,1 6,4 3,2 6,4 10,6 1,0 3,1 5,3 2,2 3,3 3,3l252 0c0,0 1,-1 3,-3 3,-2 5,-3 7,-3 2,-2 5,-5 11,-9 5,-4 9,-8 13,-9 2,-2 5,-5 9,-10 5,-4 8,-8 10,-12l-356 0zm-63 -98l0 3c3,8 7,18 12,29 4,11 6,16 6,16l432 0c2,0 4,-1 6,-4 1,-3 3,-6 5,-8 0,0 0,-1 1,-4 1,-3 2,-5 4,-5 0,-4 2,-9 4,-15 3,-6 4,-10 4,-12l-474 0zm-30 -95c0,0 1,0 2,1 1,2 1,3 1,5 0,2 1,6 1,12 1,6 2,11 2,15 2,2 3,4 4,8 1,4 1,7 1,7l509 0c0,0 1,-1 1,-2 1,-1 2,-2 2,-5 2,-4 4,-10 6,-20 3,-10 4,-17 4,-21l-533 0zm-7 -96l0 16c0,6 0,12 2,19 2,7 3,11 3,11l541 0c0,0 1,-1 2,-3 2,-2 3,-4 3,-5l0 -38 -143 0 53 -47 93 0c1,0 3,-4 4,-11 1,-7 1,-12 1,-16 0,-2 0,-5 1,-9 1,-4 2,-8 2,-12l-69 0c1,-3 5,-10 9,-19 4,-10 7,-17 9,-20 2,-2 3,-4 4,-6 1,-1 2,-2 2,-2l42 0c0,0 1,-5 3,-14 1,-8 2,-15 2,-21l0 -10 -34 0c2,-4 3,-11 5,-22 2,-10 4,-17 5,-21 0,0 1,0 2,-1 1,-1 2,-1 4,-1 1,-2 5,-4 9,-4 4,-1 7,-2 9,-2l0 -42c-2,0 -4,-1 -8,-2 -3,-2 -5,-3 -5,-3l0 -3 0 -2c0,-6 0,-13 1,-23 1,-10 2,-14 2,-14l10 -6 0 -42c0,0 -1,-1 -2,-1 -2,-1 -3,-3 -3,-4l0 -8 0 -11c0,-4 1,-8 3,-15 1,-6 2,-11 2,-14l0 -185c0,-3 -1,-10 -2,-18 -2,-9 -3,-15 -3,-19l0 -5 0 -6 5 -2 0 -43 -10 -5 -3 -45 13 0 0 -45c-2,0 -5,-1 -9,-2 -4,-2 -8,-3 -9,-3 -4,0 -6,-2 -6,-5 -1,-4 -3,-10 -5,-20 -2,-10 -3,-17 -5,-20l34 0 0 -27c0,-3 -1,-8 -2,-13 -2,-5 -3,-8 -3,-8l-42 0c0,0 -1,-1 -2,-2 -1,-2 -2,-4 -4,-6 -2,-3 -5,-10 -9,-20 -4,-9 -8,-16 -9,-19l69 0c0,-4 -1,-9 -2,-16 -1,-7 -1,-11 -1,-13 0,-13 -2,-19 -5,-19l-98 0 -43 -47 138 0 0 -46 -546 0c0,0 -1,5 -3,15 -2,10 -2,18 -2,25l0 6 127 0 -43 47 -90 0 0 48 56 0c0,1 0,3 1,3 1,1 2,3 2,4 0,2 -2,6 -4,11 -3,5 -5,10 -7,13 0,0 -1,2 -1,4 -1,3 -3,4 -4,4 0,2 -1,4 -2,6 -1,1 -1,2 -1,2l-45 0 0 48 29 0 0 16c0,2 0,5 -1,9 -1,5 -2,8 -4,9 0,2 -1,4 -2,7 0,3 -1,4 -1,4 -3,4 -10,5 -21,5l0 42 11 6 0 13 0 18c0,4 -2,7 -6,11l-5 5 0 278c2,3 3,10 4,18 1,9 1,15 1,19l0 5 0 6c0,0 0,0 -1,2 -1,2 -2,3 -4,3l0 42c3,0 5,2 5,6 2,1 3,4 4,9 1,4 2,7 2,9l0 13 0 11 -11 5 0 42c7,0 12,2 16,6 0,0 0,0 1,2 1,2 2,4 4,6 0,1 1,5 1,11 1,7 2,11 2,12 2,2 2,5 1,8 -1,4 -1,6 -1,6l-19 0 0 45 40 0c0,0 2,5 7,16 4,10 8,19 12,26l-3 5 -56 0 0 32c0,3 1,7 3,10 2,4 3,6 3,6l95 0 32 32c2,1 5,4 9,8 4,3 8,6 9,7l-145 0zm540 -1137c0,-14 -1,-23 -5,-27 0,-8 -2,-14 -5,-18l-3 -3 -504 0c0,0 -1,6 -4,17 -2,11 -4,19 -6,25l0 6 527 0zm-29 -95l-18 -42c0,-4 -2,-6 -6,-6l-432 0c0,0 -1,3 -2,7 -2,5 -4,10 -6,14 -2,2 -3,6 -5,13 -2,7 -4,11 -5,14l474 0zm-61 -96l0 -6 -24 -27c-3,-2 -7,-5 -12,-9 -4,-4 -6,-6 -6,-6l-276 0c0,0 -2,2 -5,5 -4,3 -6,5 -8,7 -13,4 -20,13 -24,27 -2,0 -3,2 -4,5 -1,3 -1,4 -1,4l360 0zm385 -326l37 42 -1191 0c9,-8 17,-18 24,-27 7,-10 12,-15 13,-15l1117 0zm-56 -50l-1007 -3 18 -19c4,-1 8,-4 13,-9 6,-4 9,-7 11,-9 3,-4 7,-5 11,-5l906 0c0,0 3,2 10,7 6,5 11,9 14,12 2,2 5,6 11,13 5,6 9,11 13,13zm-498 -183l61 0c1,0 9,0 23,1 15,1 25,2 32,4 74,9 146,27 215,56l8 5c3,2 9,5 17,9 8,5 14,8 17,10l-755 0c23,-15 47,-26 73,-35 25,-9 43,-15 51,-18 50,-11 98,-20 144,-27 5,-2 14,-3 27,-4 14,-1 21,-1 23,-1l64 0z"/>
   <path class="fil0" d="M475 8415l0 35 -475 0 0 -14c0,-3 1,-8 3,-13 1,-5 2,-8 2,-8l470 0zm469 0l366 0c0,4 -1,8 -3,13 -2,6 -3,9 -3,11 0,7 -1,11 -5,11l-350 0c0,0 -1,-2 -2,-6 -2,-3 -3,-6 -3,-8l0 -21zm830 0l469 0c2,0 3,1 4,3 1,2 1,3 1,3 0,3 1,8 2,14 1,6 1,11 1,15l-472 0c0,0 -1,-1 -3,-2 -1,-1 -2,-2 -2,-4l0 -29zm-1289 -90l-5 42 -472 0 0 -13c0,-5 1,-9 3,-10 0,-4 0,-8 1,-12 1,-5 1,-7 1,-7l472 0zm440 0l401 0c0,0 -1,2 -2,5 -1,4 -1,7 -1,8 0,4 0,10 -1,18 -1,8 -3,11 -4,11l-382 0c-4,0 -5,-3 -5,-10 0,-2 -1,-6 -3,-13 -2,-7 -3,-13 -3,-16l0 -3zm843 0l467 0c0,0 1,1 3,3 1,1 2,3 2,5l0 34 -472 0 0 -42zm-1278 -95c0,1 0,5 -1,12 -1,6 -1,10 -1,11 0,4 -1,8 -1,12 -1,5 -2,7 -2,7l-466 0 0 -19c0,-3 0,-8 2,-14 2,-6 3,-9 3,-9l466 0zm419 0l435 0c0,0 0,0 -1,1 -1,1 -1,2 -1,4 0,2 -1,6 -2,12 -1,6 -1,10 -1,12 -2,2 -3,4 -4,8 -1,3 -1,5 -1,5l-419 0c0,0 -1,-3 -2,-9 -1,-6 -1,-11 -1,-15 -2,-2 -3,-4 -3,-8l0 -10zm851 0l464 0c4,0 6,2 6,8 0,3 0,9 1,17 1,8 1,13 1,17l-466 0 -6 -42zm-1267 -96l0 43 -466 0c0,-2 0,-5 1,-10 1,-4 1,-7 1,-9 0,-4 1,-8 1,-15 1,-6 3,-9 4,-9l459 0zm398 0l466 0 0 19c-1,3 -3,8 -4,14 0,6 -1,10 -1,10l-451 0c0,0 0,-1 -1,-3 -1,-2 -2,-4 -4,-5 0,-2 0,-6 -1,-12 -1,-6 -2,-10 -4,-12l0 -11zm864 0l461 0c0,0 1,2 2,5 1,4 1,7 1,8 2,2 3,7 3,16l0 14 -462 0c0,0 0,-3 -2,-7 -2,-4 -3,-8 -3,-12l0 -24zm-1683 -432l5 -8c0,-5 -1,-13 -1,-22 -1,-10 -2,-15 -2,-15l-26 0 0 -16c0,-4 0,-9 1,-17 1,-8 2,-12 4,-12 2,-2 6,-3 13,-4 7,-1 12,-1 14,-1 3,0 5,-3 5,-8 2,-6 2,-13 1,-23 -1,-10 -1,-15 -1,-15l-29 0 0 -10c3,-11 5,-22 5,-35 4,0 8,0 15,-1 6,-1 11,-1 14,-1 2,0 3,-1 4,-3 1,-2 1,-3 1,-3l0 -39 -29 0 0 -14c0,-3 1,-8 3,-15 2,-8 3,-13 3,-16 1,0 6,-1 13,-3 7,-2 12,-3 16,-3l2 -5 0 -40 -29 0c0,0 1,-1 2,-2 0,-2 1,-4 1,-6 0,-5 0,-13 1,-24 1,-10 2,-15 2,-15l34 0 0 -48 -29 0 0 -8c2,-5 3,-13 4,-24 1,-11 1,-16 1,-16l35 0 2 -48 -32 0 6 -47 32 0 5 -45 -35 0 6 -48 34 0c0,0 1,-5 1,-16 1,-11 2,-20 2,-27 2,0 2,0 1,-2 -1,-2 -1,-3 -1,-3l-27 0 0 -48 32 0c0,0 1,-5 3,-16 2,-10 2,-18 2,-23l0 -8 -29 0 0 -40c0,-2 1,-3 3,-4 2,-1 3,-1 3,-1 10,-4 20,-6 29,-6 0,-10 2,-21 5,-32 0,-3 0,-6 -1,-9 -1,-2 -2,-4 -2,-4l-26 0 0 -40c0,0 0,0 1,-2 1,-2 2,-3 4,-3 2,0 6,-1 13,-3 8,-1 12,-2 14,-2 3,-11 5,-21 5,-32l0 -13 -29 0 0 -35c3,-3 5,-7 5,-10 4,1 9,2 16,1 7,-1 12,-2 13,-4 0,-2 1,-6 2,-13 1,-7 2,-13 4,-16 0,-4 -1,-7 -2,-11 -1,-3 -1,-5 -1,-5l-29 0c0,0 0,-5 1,-15 1,-9 1,-17 1,-22 0,0 1,-1 2,-4 1,-3 2,-4 4,-4 9,0 18,-2 29,-5 0,0 0,-4 1,-12 1,-8 2,-14 2,-18 1,-3 2,-7 1,-10 -1,-4 -1,-5 -1,-5l-30 0 0 -11c0,-11 1,-18 3,-21 0,-4 0,-7 1,-11 1,-3 2,-5 2,-5l29 0c0,0 1,-4 2,-11 2,-7 3,-12 3,-16l0 -21 -29 0 0 -32c0,-3 1,-7 3,-10 1,-4 2,-6 2,-6l29 0c0,0 1,-3 2,-10 1,-7 2,-13 4,-16 0,-4 -1,-8 -2,-13 0,-6 -1,-8 -1,-8l-29 0 0 -11c0,-9 1,-14 3,-16 0,-3 0,-8 1,-13 1,-5 2,-8 4,-8l26 0c2,0 3,-3 4,-8 1,-5 2,-10 2,-13l0 -27 -29 0 0 -24c1,-3 3,-8 4,-13 0,-5 1,-8 1,-8l29 0 8 -42 628 0c0,0 1,1 2,5 1,4 1,7 1,11 2,1 3,5 4,12 1,6 1,11 1,14l53 0c0,0 1,3 2,8 1,5 2,10 4,13l0 24 -48 0 0 8c0,4 0,9 1,16 1,7 2,12 4,13 0,2 1,4 2,7 0,3 1,4 1,4l48 0c3,0 5,4 5,13 0,2 1,6 3,13 1,8 2,13 2,16l0 6 -53 0c0,3 1,8 3,16 2,7 2,12 2,15 0,4 1,8 3,11 2,4 3,5 3,5l50 0c2,0 3,5 4,15 1,10 1,17 1,22l0 11 -45 0c0,2 0,5 -1,11 -1,5 -1,9 -1,10 1,4 3,9 4,16 1,7 1,11 1,11l53 0c0,0 0,3 1,10 1,7 3,13 4,16l0 22 -47 0 0 15c0,6 0,12 1,20 1,8 2,12 4,12l50 0c4,0 6,6 6,16 0,4 0,9 1,16 1,7 1,12 1,16l-50 0 0 5c0,4 1,9 3,16 1,7 2,12 2,13 0,8 2,11 5,11l48 0c0,0 1,2 2,5 0,4 1,7 1,8 2,2 3,6 4,14 1,7 1,12 1,15l0 6 -45 0c0,3 0,9 -1,16 -1,7 -2,12 -2,16 0,3 1,7 3,10 2,4 3,5 3,5l53 0c0,0 0,4 1,12 1,8 2,15 4,20l0 16 -48 0 0 21c0,4 1,9 2,16 1,7 1,11 1,11l53 0c0,0 1,3 3,11 1,7 2,12 2,15l0 22 -47 0 0 10c0,6 0,13 2,23 2,10 3,14 3,14l50 0c4,0 6,6 6,16 3,11 5,22 5,32l-51 0 -2 5c2,4 3,9 4,16 1,7 1,12 1,14 0,3 1,6 3,9 2,3 2,4 2,4l48 0c0,0 1,1 1,2 1,2 3,3 4,3 0,2 1,7 2,16 1,9 1,15 1,19 0,0 1,0 1,2 1,2 2,4 2,6l-48 0c0,1 0,5 -1,11 -1,7 -1,11 1,12 0,4 0,8 1,14 1,5 2,8 2,8l53 0c0,0 0,4 1,13 1,9 2,15 4,18l0 16 -48 0 0 22c0,3 1,8 2,15 1,8 2,11 4,11l50 0c2,0 3,3 4,8 1,5 1,10 1,13 0,4 1,9 2,15 0,6 1,10 1,12l-48 0c0,2 0,4 -1,6 -1,3 -1,5 -1,7 3,11 5,20 5,27 0,1 1,3 3,5 1,2 2,3 2,3l48 0c0,0 0,0 1,2 1,2 2,4 4,5l3 0c2,-1 3,-3 4,-5 1,-2 1,-2 1,-2l58 0c0,0 1,-4 2,-11 1,-7 1,-12 1,-16l0 -21 -53 0c0,-2 1,-4 1,-7 1,-2 2,-4 2,-4 0,-3 0,-9 1,-16 1,-7 1,-11 1,-13 2,-2 3,-4 4,-5 1,-2 2,-3 2,-3l53 0c0,0 0,-1 1,-4 1,-3 2,-5 4,-7 0,-1 0,-6 1,-13 1,-7 3,-12 4,-16 0,0 0,-1 -1,-2 -1,-2 -1,-4 -1,-6l-53 0c0,-1 0,-5 1,-12 1,-6 1,-11 1,-14 0,-4 1,-8 2,-13 1,-6 2,-8 4,-8l55 0c0,0 1,-3 3,-10 2,-6 3,-11 3,-14 0,-4 -1,-8 -2,-12 -1,-5 -1,-8 -1,-9l-50 0 0 -14c0,-1 0,-5 2,-12 2,-6 3,-10 3,-12 0,-1 1,-4 3,-6 1,-3 2,-4 2,-4l51 0c3,0 5,-5 5,-13 3,-4 5,-12 5,-24l0 -11 -53 0 0 -21c2,-4 3,-9 4,-16 1,-7 1,-11 1,-11l59 0c0,0 0,-2 1,-8 1,-5 1,-9 1,-13 2,-3 3,-8 2,-14 -1,-7 -2,-11 -2,-12l-50 0 0 -8c0,-4 0,-9 1,-15 1,-6 3,-10 4,-12 0,-3 1,-6 2,-9 1,-3 1,-4 1,-4l53 0c0,0 1,-1 3,-3 1,-1 2,-3 2,-5 0,-7 2,-16 6,-27 0,-1 -1,-3 -2,-6 -1,-3 -1,-5 -1,-7l-53 0c0,-2 0,-5 1,-10 1,-6 2,-9 2,-11 0,-4 0,-9 1,-16 1,-7 2,-11 4,-11l56 0c0,0 0,-2 1,-7 1,-6 2,-10 4,-14 0,-7 2,-16 5,-26l-58 0 0 -6c0,-1 1,-5 2,-11 2,-7 3,-11 3,-12 0,-4 1,-8 3,-12 2,-5 2,-7 2,-7l56 0c2,0 3,-4 4,-12 1,-8 1,-14 1,-17l0 -16 -53 0 0 -19c2,-3 3,-9 4,-17 1,-8 2,-12 2,-12l58 0c0,0 0,-2 1,-6 1,-5 2,-9 2,-12 1,-2 3,-6 4,-14 1,-7 1,-12 1,-15l-56 0c0,-11 2,-22 6,-32 0,-4 0,-7 1,-11 1,-3 1,-5 1,-5l59 0c0,0 0,-4 1,-11 1,-7 2,-12 4,-16 0,-1 -1,-5 -1,-10 -1,-6 -2,-9 -2,-11l-50 0 0 -16c0,-12 2,-20 5,-24 0,-5 2,-8 5,-8l51 0c0,0 1,-1 3,-4 1,-2 2,-4 2,-6 0,-2 1,-6 3,-14 2,-7 2,-12 2,-15l0 -8 -53 0 0 -27c0,-3 1,-8 3,-13 2,-5 3,-8 3,-8l55 0c2,0 4,-4 4,-11 1,-7 2,-12 2,-16l0 -21 -53 0 0 -10c1,-4 3,-9 4,-16 1,-7 1,-12 1,-14 0,-1 1,-3 3,-4 1,0 2,-1 2,-1l53 0c0,0 1,-2 2,-5 1,-4 2,-6 4,-8 0,-2 0,-5 1,-9 1,-5 1,-8 1,-10 2,-1 3,-4 4,-6 1,-3 2,-4 2,-4l617 0 6 16c0,1 0,5 1,12 1,6 1,11 1,14l29 0c0,0 1,1 3,4 2,3 3,5 3,7 0,5 0,12 1,21 1,9 1,13 1,13l-31 0 0 13c0,4 0,10 2,18 2,8 3,12 3,14 10,4 20,6 29,6l3 5 0 40 -27 0 0 13c0,3 1,9 2,16 0,7 1,12 1,16 3,0 9,1 16,2 7,2 11,3 13,3 4,0 5,2 5,5l0 40 -29 0 0 8c2,5 3,13 4,24 1,11 1,16 1,16l35 0 0 48 -29 0 0 5c0,7 1,16 2,26 2,11 3,16 3,16l32 0 5 48 -34 0 5 45 34 0 6 48 -35 0 6 47 31 0c0,0 1,6 3,16 2,11 3,19 3,24l0 8 -29 0 0 48 34 0c0,0 0,5 1,16 1,10 3,18 4,24l0 8 -29 0 0 39c0,4 2,6 5,6 2,0 7,1 14,2 7,2 11,3 13,3 4,11 5,21 5,32l0 13 -26 0 0 40 2 5c9,0 19,2 30,5 0,2 0,7 2,15 2,8 3,14 3,17l0 14 -27 0c0,0 0,4 -1,13 -1,9 -1,16 -1,21 0,4 1,7 5,11 7,-2 17,-1 29,2 0,2 1,6 2,14 0,7 1,12 1,15 2,2 3,6 3,11l0 5 -30 0c0,0 0,5 -1,15 -1,10 0,17 1,22l3 8c4,-1 9,-1 16,0 7,2 11,4 13,6 0,0 1,4 3,12 2,8 2,13 2,17l0 16 -26 0c0,0 -1,4 -1,12 -1,8 -2,14 -2,20 0,3 1,7 3,10 2,4 3,6 3,6l29 0c0,0 0,3 1,10 1,7 2,13 4,16l0 21 -29 0c0,0 -1,4 -1,12 -1,8 -1,15 1,20 0,2 0,5 1,9 1,5 2,7 4,7l27 0c1,0 3,4 4,11 1,7 1,12 1,15 0,4 0,8 1,14 1,5 2,8 2,8l-29 0c0,0 -1,3 -2,10 -1,7 -1,13 -1,16 2,4 3,8 4,13 1,6 1,8 1,8l29 0c0,0 1,3 2,8 1,6 2,10 4,14l0 23 -30 0 0 27c0,4 1,8 2,13 1,6 2,8 4,8l29 0c0,0 0,3 1,8 1,5 2,10 2,13 1,2 2,7 2,16l0 11 -29 0c0,0 0,3 -1,8 -1,5 -1,10 1,13 0,4 1,9 1,16 1,7 2,11 2,11l29 0c0,0 1,2 3,6 1,5 2,8 2,10l0 31 -26 0c0,0 -1,3 -2,8 -1,6 -1,10 -1,14 0,3 1,8 3,16 1,7 2,10 2,10l29 0c0,0 1,2 2,5 1,4 1,7 1,11 2,4 3,11 3,21l0 11 -29 0 0 16c0,3 0,9 1,17 1,8 2,12 4,12 2,2 6,3 12,5 6,2 11,2 14,0 2,0 4,2 4,4 1,3 2,4 2,4 0,5 0,13 1,23 1,9 1,14 1,14l-29 0c0,0 0,2 -1,6 -1,3 -1,7 -1,10 1,4 3,9 4,16 0,7 1,12 1,13 12,4 22,5 29,3 0,2 1,4 3,5 1,2 2,4 2,6l0 34 -29 0 0 13c0,16 2,26 7,31 4,4 13,6 25,6 2,0 3,1 4,3 1,2 1,3 1,3 0,3 1,8 2,14 1,7 1,11 1,15l-472 0 -5 -5c0,-11 -2,-22 -6,-32l-18 0 0 -48 16 0 0 -45 -19 0 0 -48 13 0 0 -42c0,0 0,-1 -1,-1 -1,-1 -2,-2 -4,-2 0,-2 -2,-3 -6,-4 -5,-1 -7,-1 -7,-1 -4,-4 -5,-12 -5,-24l0 -11 0 -8c0,-1 3,-3 9,-3 6,-1 9,-2 9,-2l0 -5 0 -8c0,-4 0,-9 -1,-16 -1,-7 -2,-11 -4,-13 -2,0 -4,-1 -7,-3 -2,-2 -5,-3 -6,-3 -4,0 -6,-1 -6,-5l0 -40 16 0 0 -47 -21 0 0 -48 16 0 0 -48 -19 0c-1,0 -3,-4 -4,-13 -1,-9 -1,-16 -1,-21l0 -6 0 -5c2,2 5,2 9,1 5,0 8,-2 10,-4l0 -7 0 -14c0,-3 -1,-8 -3,-13 -2,-5 -3,-9 -3,-11l-13 -2c-3,-4 -5,-7 -5,-11 0,-5 -1,-12 -2,-21 0,-9 -1,-13 -1,-13l21 0 -5 -48 -19 0 0 -48 16 0 0 -47 -21 0c0,0 0,-6 -1,-16 -1,-11 -2,-19 -2,-24 0,-2 0,-4 -1,-6 -1,-1 -1,-2 -1,-2l18 0c0,0 1,-4 2,-12 1,-8 1,-15 1,-20 0,-2 -1,-4 -3,-7 -1,-2 -2,-5 -2,-6 0,0 -2,-1 -7,-2 -4,0 -7,-2 -7,-4 -1,0 -3,-1 -3,-5 -1,-3 -2,-6 -2,-8 -2,-3 -2,-10 -2,-18l0 -14 21 0 0 -5c0,-7 -1,-16 -3,-26 -2,-11 -3,-16 -3,-16l-18 0 0 -45 13 0 0 -48 -18 0 -6 -48 19 0c0,0 0,-5 1,-14 1,-10 1,-18 1,-23l-5 -8c-3,-3 -9,-5 -16,-5 0,0 0,-2 -1,-7 -1,-4 -1,-8 -1,-12 0,-2 -1,-4 -2,-6 -1,-3 -1,-5 -1,-7 0,-2 0,-4 1,-7 1,-2 2,-4 2,-4 1,-1 4,-3 9,-5 4,-2 7,-2 9,0l0 -5 0 -6c-2,-5 -3,-12 -4,-21 -1,-9 -1,-13 -1,-13l-19 0 0 -48 14 0 0 -48 -19 0 0 -47 13 0 0 -40c0,0 0,0 -1,-1 -1,-1 -1,-3 -1,-4 -2,0 -5,-1 -8,-2 -4,-1 -7,-1 -8,-1 0,-3 -1,-9 -2,-16 0,-7 -1,-11 -1,-13 -2,0 -3,-1 -3,-3l0 -5c0,-5 1,-8 3,-8 0,0 3,0 8,-1 5,-1 9,-2 11,-2l0 -8 0 -8c0,-1 -1,-6 -3,-13 -2,-7 -3,-11 -3,-13 -1,-2 -5,-3 -9,-4 -4,-1 -7,-1 -9,-1l-3 0 -3 0c-5,0 -15,0 -31,1 -16,1 -26,2 -30,4 -1,2 -3,5 -4,9 0,5 -1,8 -1,9l0 27 53 0 0 11c-2,3 -3,8 -4,15 -1,8 -1,12 -1,14 0,2 -1,3 -3,4 -2,1 -2,1 -2,1l-53 0c0,0 -1,1 -2,3 -1,1 -1,3 -1,5 -2,2 -3,6 -4,13 -1,7 -1,13 -1,16l0 11 53 0 0 13c0,4 -1,6 -3,8 0,4 0,9 -1,16 -1,7 -2,10 -2,10l-58 0c0,0 0,3 -1,7 -1,5 -3,9 -4,12 0,2 -1,6 -2,13 -1,7 -1,13 -1,16l56 0 0 8c0,4 -1,9 -2,16 0,7 -2,12 -4,13 0,7 -1,11 -5,11l-56 0c0,0 0,3 -1,11 -1,7 -2,12 -4,15 0,2 1,6 1,11 1,5 2,9 2,11l50 0 0 16c0,5 -1,12 -2,19 -2,8 -3,12 -3,12l-56 0c-3,0 -5,4 -5,11 0,2 -1,6 -3,13 -2,7 -2,13 -2,16l0 8 58 0c-2,2 -3,7 -4,15 -1,8 -1,13 -1,14 -2,4 -3,8 -4,12 -1,5 -2,7 -2,7l-58 0c0,0 0,2 -1,8 -1,5 -2,10 -2,13l0 27 53 0c0,0 0,1 -1,4 -1,2 -1,4 -1,6 0,4 -1,9 -2,16 -1,7 -1,12 -1,13l-5 6 -53 0c0,0 -1,1 -2,2 0,2 -2,4 -4,6 0,1 0,5 -1,12 -1,6 -1,10 -1,11 -2,2 -2,5 -2,8 1,4 2,7 2,8l53 0c0,4 -1,8 -2,12 0,5 -1,8 -1,10 0,3 0,8 -1,15 -1,8 -2,11 -4,11l-56 0c0,0 0,2 -1,7 -1,4 -2,7 -4,9 0,11 -2,21 -5,32l58 0 0 8c0,3 -1,8 -3,14 -2,7 -2,11 -2,15 0,2 -1,4 -3,7 -2,2 -3,4 -3,4l-55 0c0,0 -1,3 -3,10 -2,7 -3,13 -3,16l0 21 53 0 0 16c-1,5 -3,12 -4,20 -1,8 -1,12 -1,12l-58 0c0,0 -1,1 -2,4 -1,3 -1,5 -1,7 -3,10 -5,18 -5,23l0 14 55 0c0,1 0,5 -1,12 -1,6 -1,11 -1,14 -2,4 -3,8 -4,13 -1,6 -2,8 -2,8l-58 0c0,0 0,3 -1,8 -1,6 -2,10 -4,14 0,1 0,5 1,12 1,6 1,10 1,11l51 0 0 14c0,3 -1,9 -1,16 -1,7 -3,11 -4,13l-3 5 -53 0c0,0 -1,1 -3,3 -2,2 -2,3 -2,5 0,2 -1,5 -3,11 -2,5 -3,9 -3,13 0,2 1,4 2,8 0,4 1,6 1,8l50 0 0 21c0,4 -1,9 -2,16 -2,7 -3,11 -3,11l-56 0c0,0 -1,2 -2,6 -2,5 -3,8 -3,10 0,3 -1,8 -3,13 -1,5 -2,9 -2,10l0 8 58 0 0 8c-3,4 -5,12 -5,24l-6 16 -55 0c-2,0 -3,4 -4,11 -1,7 -2,12 -2,16l0 21 53 0 0 8c0,3 0,6 -2,8 0,5 -1,12 -1,20 -1,8 -2,12 -2,12l-58 0c0,0 -1,1 -1,4 -1,2 -3,4 -4,6 0,4 -1,8 -2,13 -1,6 -1,9 -1,11l0 13 56 0c0,2 -1,6 -2,12 -1,6 -2,10 -4,12 0,4 0,9 -1,15 -1,6 -1,9 -1,9l-59 0c0,0 0,3 -1,8 -1,5 -2,10 -4,13 0,2 0,6 1,12 1,6 2,10 2,12l50 0 0 13c0,2 0,6 -1,12 -1,6 -3,10 -4,12 0,7 -2,11 -6,11l-50 0c-3,0 -5,2 -5,8 0,2 -1,5 -3,9 -2,4 -3,8 -3,9 0,2 0,4 -2,7 -2,3 -3,4 -3,4l-350 0 -5 -16c0,-4 -2,-11 -5,-21l-56 0c0,0 -1,-3 -3,-8 -2,-5 -2,-10 -2,-13l0 -27 53 0 0 -5c-2,-4 -3,-9 -4,-16 -1,-7 -2,-12 -2,-13 0,-2 -1,-4 -2,-7 -2,-3 -3,-4 -3,-4l-53 0c0,0 0,-1 -1,-3 -1,-1 -2,-3 -2,-5 -1,-2 -3,-6 -4,-13 -1,-7 -1,-13 -1,-16l0 -11 50 0c0,-3 1,-7 2,-12 1,-4 1,-7 1,-9 -2,-3 -3,-9 -4,-16 -1,-7 -1,-10 -1,-10l-59 0c0,0 0,-3 -1,-8 -1,-6 -1,-10 -1,-14 -4,-10 -6,-19 -6,-26l56 0 0 -8c0,-5 -2,-13 -5,-24 0,-4 -1,-7 -1,-11 -1,-3 -2,-5 -2,-5l-58 0c0,0 -1,-4 -1,-12 -1,-8 -3,-14 -4,-20l0 -16 53 0 0 -16c0,-5 -1,-11 -3,-19 -2,-8 -3,-12 -3,-12l-55 0c0,0 -1,-2 -3,-6 -2,-3 -3,-7 -3,-10 0,-4 -1,-9 -2,-16 -2,-7 -3,-13 -3,-16l58 0c-1,-2 -3,-7 -4,-15 -1,-8 -1,-12 -1,-14 0,-4 -1,-8 -3,-12 -1,-5 -2,-7 -2,-7l-56 0c-2,0 -3,-3 -4,-9 -1,-6 -1,-11 -1,-15 0,-3 -1,-7 -2,-12 0,-4 -1,-8 -1,-12l53 0c0,0 1,-2 1,-6 1,-5 2,-8 2,-9 -2,-2 -3,-6 -4,-12 -1,-7 -2,-11 -2,-12l-5 -6 -53 0c0,0 0,-1 -1,-5 -1,-3 -2,-6 -4,-8 0,-2 -1,-6 -1,-13 -1,-7 -2,-12 -2,-16l0 -5 51 0c0,-4 0,-9 1,-15 1,-6 0,-10 -1,-12 0,-3 -1,-8 -2,-13 -1,-5 -1,-8 -1,-8l-58 0c0,0 -1,-4 -2,-11 -1,-7 -2,-12 -4,-16l0 -21 53 0 0 -13c0,-4 -1,-8 -2,-15 -2,-6 -3,-10 -3,-12 0,-5 -2,-7 -5,-7l-51 0c0,0 -1,-2 -2,-4 -2,-3 -3,-5 -3,-7 0,-4 -1,-8 -3,-13 -1,-6 -2,-9 -2,-11l0 -13 50 0c0,-2 1,-6 1,-11 1,-5 2,-9 2,-10 0,-4 -1,-9 -3,-16 -2,-7 -3,-11 -3,-11l-55 0c-2,0 -3,-3 -4,-8 -1,-5 -2,-10 -2,-13 0,-2 0,-6 -1,-12 -1,-6 -1,-11 -1,-15l53 0c0,0 0,-1 1,-2 1,-2 1,-3 -1,-3 0,-3 -1,-9 -1,-16 -1,-7 -2,-11 -2,-13 -2,-2 -3,-5 -4,-8 -1,-4 -1,-5 -1,-5l-53 0 -5 -6c0,-1 -1,-6 -2,-13 -1,-7 -1,-12 -1,-16 0,-2 -1,-4 -1,-6 -1,-3 -2,-4 -2,-4l53 0 0 -24c0,-4 0,-9 -1,-15 -1,-6 -1,-9 -1,-9l-59 0c0,0 0,-3 -1,-8 -1,-5 -2,-10 -4,-13 0,-4 0,-9 -1,-15 -1,-6 -3,-10 -4,-12l58 0 0 -8c0,-5 -2,-13 -5,-24 0,-3 -1,-7 -3,-10 -2,-4 -3,-6 -3,-6l-50 0c-3,0 -5,-2 -5,-8 0,-1 -1,-5 -3,-10 -2,-5 -3,-10 -3,-13l0 -16 51 0c0,-2 0,-5 1,-8 1,-4 1,-6 1,-8 -1,-6 -3,-12 -4,-20 0,-8 -1,-12 -1,-12l-56 0c-3,0 -5,-5 -5,-16 -3,-11 -5,-21 -5,-32l56 0c0,-3 -1,-9 -2,-16 -1,-7 -1,-11 -1,-13 -2,-3 -3,-7 -4,-12 -1,-4 -1,-7 -1,-7l-59 0c0,0 0,-3 -1,-11 -1,-8 -1,-14 -1,-18 -2,-1 -3,-4 -3,-8l0 -10 53 0 0 -16c0,-2 0,-6 -1,-12 -1,-6 -3,-10 -4,-12 0,-2 -1,-4 -2,-5 -1,-2 -1,-3 -1,-3l-53 0 -5 -16c0,-2 -1,-6 -2,-12 -1,-6 -2,-10 -4,-12l0 -5 59 0c0,-4 -1,-8 -3,-15 -2,-6 -3,-10 -3,-12 0,-3 0,-7 -2,-13 -2,-5 -3,-8 -3,-8l-56 0c0,-5 -1,-9 -5,-13l-3 0 -2 0c0,0 -1,2 -1,5 -1,4 -3,6 -4,6 -2,0 -5,0 -10,2 -4,2 -7,3 -9,3l0 45 16 0 0 45 -19 0 0 48 14 0 0 45c-2,0 -5,0 -10,1 -4,1 -7,2 -9,4 -2,0 -3,3 -4,9 -1,7 -1,11 -1,15l0 11 0 8c0,1 2,2 8,2 7,0 10,1 10,3l0 8 0 10c0,4 0,9 -1,15 -1,6 -2,9 -4,9 -2,2 -5,3 -9,4 -5,1 -8,2 -10,2l0 45 16 0 0 47 -21 0 0 48 16 0 0 45c-12,-3 -19,-2 -19,5 -1,0 -3,3 -4,8 0,6 -1,10 -1,14l0 13 0 8c0,0 3,0 8,1 5,1 9,2 11,2l0 8 0 13c0,3 -1,8 -3,13 -2,5 -3,9 -3,11 -1,1 -4,3 -9,4 -4,0 -7,0 -9,-2l0 45 13 0 0 48 -18 0 0 48 15 0 0 48 -21 0c0,0 0,4 -1,11 -1,8 -1,15 -1,20l0 8 0 6c0,1 2,2 8,2 5,0 8,1 10,3l0 8 0 10c0,4 -1,8 -2,14 -2,5 -3,9 -3,10 0,0 -2,1 -7,2 -4,1 -6,2 -6,4 -2,0 -3,0 -4,1 -1,1 -2,1 -2,1l0 43 14 0 0 47 -19 0 0 45 13 0 0 48 -18 0c0,0 -1,5 -2,13 -1,9 -2,15 -4,19l0 8 0 5c2,2 6,3 11,4 5,1 9,2 11,2l0 10 0 13c-2,4 -3,8 -4,12 -1,5 -2,7 -2,7 -3,4 -9,5 -16,5l-2 6 0 39 18 0 -5 48 -19 0 0 48 14 0 0 48 -19 0c0,0 0,4 -1,11 -1,8 -2,14 -4,18l0 10 0 6c2,0 5,0 10,1 6,1 8,2 8,4 2,0 3,3 3,8l0 8c0,3 -1,5 -3,5 0,4 0,8 -1,12 -1,4 -1,8 -1,9 -2,0 -5,1 -8,2 -4,1 -6,1 -8,1 0,2 -1,3 -1,4 -1,1 -2,1 -2,1l0 40 19 0 -6 48 -21 0 0 37 -477 0 0 -16c0,-4 1,-8 3,-13 1,-6 2,-8 2,-8l29 0c0,0 1,-3 2,-8 1,-5 1,-10 1,-13 2,-4 2,-9 1,-16 0,-7 -1,-11 -1,-11l-29 0 0 -8c0,-9 1,-14 3,-16 0,-3 0,-8 1,-13 1,-5 1,-8 1,-8l29 0c0,0 1,-3 3,-9 2,-6 3,-11 3,-15 0,-3 -1,-8 -2,-14 0,-7 -1,-10 -1,-10l-26 0 0 -21c0,-3 0,-9 2,-16 2,-7 3,-10 3,-10l29 0c0,0 0,-3 1,-7 1,-4 2,-8 2,-12 1,-4 2,-9 1,-17 -1,-8 -1,-12 -1,-12l-29 0 0 -8c0,-7 0,-12 2,-13 0,-4 1,-9 1,-16 1,-7 3,-11 4,-11l27 0c4,0 5,-5 5,-16 0,-5 0,-12 -1,-20 -1,-8 -1,-12 -1,-12l-27 0 0 -16c2,-3 3,-9 4,-17 1,-8 1,-12 1,-12 4,-1 9,-3 15,-5 6,-2 11,-2 15,0zm1044 -42l0 5 3 0 0 -5 -3 0zm-16 -96l0 16c2,4 3,9 4,16 1,7 2,11 2,11l23 0c0,0 1,-2 2,-4 1,-3 2,-6 4,-10 0,-1 0,-6 1,-13 1,-7 1,-12 1,-16l-37 0zm-16 -93c0,2 1,6 2,11 1,5 1,10 1,13 0,13 2,19 5,19l56 0c0,0 0,-4 1,-12 1,-8 3,-14 4,-17l0 -14 -69 0zm-16 -95c0,3 1,9 2,16 1,7 1,12 1,16 2,1 3,4 4,6 1,3 1,4 1,4l85 0c2,0 3,-1 4,-5 1,-4 2,-6 2,-8 0,-3 0,-8 2,-13 2,-6 3,-9 3,-11l0 -5 -104 0zm-408 -859l0 -11c-2,-3 -3,-9 -4,-16 -1,-7 -1,-10 -1,-10 0,-4 -2,-6 -5,-6l-61 0c0,0 -1,4 -3,10 -2,6 -3,11 -3,14l0 19 77 0zm1005 -43l-61 0c0,0 -1,1 -3,3 -1,2 -2,4 -2,5 0,2 -1,7 -2,14 0,7 -2,12 -4,16l0 5 72 0 0 -43zm-1071 -95l0 42 48 0 0 -23c-2,-4 -3,-8 -4,-12 -1,-5 -2,-7 -2,-7l-42 0zm1066 0l-43 0c0,0 0,3 -1,9 -1,6 -2,11 -4,15l0 18 48 0 0 -42zm-1063 -95l0 42 29 0 0 -8c0,-12 -2,-20 -6,-24 0,-2 0,-4 -1,-6 -1,-3 -1,-4 -1,-4l-11 0 -10 0zm1047 0l-8 0c0,0 -1,1 -1,5 -1,3 -2,7 -2,10 -2,2 -3,7 -4,14 -1,7 -1,11 -1,13l29 0 0 -24c-2,-2 -3,-5 -4,-9 -1,-5 -1,-8 -1,-9l-8 0zm-1042 -61l0 10 5 0 0 -10 -5 0zm1050 10c0,-3 -1,-5 -3,-5 -2,0 -3,2 -3,5 0,4 2,4 6,0zm-735 -95l-713 0 0 -19c0,-3 1,-8 1,-14 1,-7 3,-10 4,-10l703 0c0,0 0,3 1,10 1,6 2,11 2,14 0,2 0,5 1,9 1,5 1,8 1,10zm1130 0l-711 0c0,-2 1,-5 2,-10 0,-4 1,-7 1,-9 0,-3 0,-8 1,-14 1,-7 2,-10 2,-10l697 0c3,0 5,3 5,8 0,4 1,10 1,18 1,7 2,13 2,17zm-1146 -96l-689 0 0 -8c0,-5 1,-8 3,-10 0,-4 0,-9 1,-15 1,-6 1,-9 1,-9l674 0c3,0 5,2 5,5 0,0 1,4 3,11 2,7 2,12 2,16l0 10zm1135 0l-684 0 0 -5c0,-4 1,-9 3,-16 2,-7 2,-11 2,-13 0,-5 2,-8 6,-8l668 0c0,0 1,2 3,5 1,4 2,6 2,8l0 29zm-1148 -95l-665 0 0 -13c0,-4 1,-10 2,-18 2,-8 3,-12 3,-12l650 0c0,0 0,2 2,4 2,3 3,5 3,7 0,0 0,4 1,11 1,7 2,12 4,16l0 5zm1140 0l-657 0 0 -19c0,-3 1,-8 2,-14 2,-6 3,-10 3,-10l644 0c2,0 3,2 4,6 1,3 2,6 2,8 0,3 0,9 1,16 1,7 1,11 1,13zm-1158 -96l-639 0c0,0 0,-1 1,-5 1,-3 1,-6 1,-8 0,-3 1,-8 2,-14 1,-7 1,-10 1,-10l628 0c0,0 1,2 2,6 1,3 1,6 1,8 2,1 3,6 3,13l0 10zm1148 0l-634 0c0,-1 1,-2 3,-2 0,-4 0,-9 1,-15 1,-6 1,-9 1,-9 2,-2 3,-4 4,-7 1,-2 2,-4 2,-4l617 0c0,0 1,2 2,6 1,3 2,6 4,8l0 23z"/>
   <path class="fil0" d="M2429 8415l1150 0 0 35 -1150 0 0 -35zm0 -90l1150 0 0 42 -1150 0 0 -42zm0 -101l1150 0 0 48 -1150 0 0 -48zm0 -95l1150 0 0 48 -1150 0 0 -48zm0 -1978l1076 0 0 133 -575 0 0 47 575 0 0 48 -575 0 0 48 575 0 0 47 -575 0 0 48 575 0 0 48 -575 0 0 188 498 0 0 48 -498 0 0 48 498 0 0 47 -498 0 0 48 498 0 0 48 -498 0 0 45 498 0 0 119 -498 0 0 24 498 0 0 48 -498 0 0 45 498 0 0 50 -498 0 0 45 498 0 0 48 -498 0 0 48 498 0 0 24 -498 0 0 212 649 0 0 47 -649 0 0 48 649 0 0 48 -649 0 0 48 649 0 0 47 -649 0 0 48 649 0 0 130 -1150 0 0 -1970zm0 -53l1076 0 0 42 -1076 0 0 -42zm0 -101l1076 0 0 48 -1076 0 0 -48zm0 -95l1076 0 0 45 -1076 0 0 -45zm0 -90l1076 0 0 39 -1076 0 0 -39zm1323 2603l1150 0 0 35 -1150 0 0 -35zm0 -90l1150 0 0 42 -1150 0 0 -42zm0 -101l1150 0 0 48 -1150 0 0 -48zm0 -95l1150 0 0 48 -1150 0 0 -48zm0 -1978l1076 0 0 133 -575 0 0 47 575 0 0 48 -575 0 0 48 575 0 0 47 -575 0 0 48 575 0 0 48 -575 0 0 188 498 0 0 48 -498 0 0 48 498 0 0 47 -498 0 0 48 498 0 0 48 -498 0 0 45 498 0 0 119 -498 0 0 24 498 0 0 48 -498 0 0 45 498 0 0 50 -498 0 0 45 498 0 0 48 -498 0 0 48 498 0 0 24 -498 0 0 212 649 0 0 47 -649 0 0 48 649 0 0 48 -649 0 0 48 649 0 0 47 -649 0 0 48 649 0 0 130 -1150 0 0 -1970zm0 -53l1076 0 0 42 -1076 0 0 -42zm0 -101l1076 0 0 48 -1076 0 0 -48zm0 -95l1076 0 0 45 -1076 0 0 -45zm0 -90l1076 0 0 39 -1076 0 0 -39z"/>
  </g>
 </g>
</svg>
