<?xml version="1.0" encoding="UTF-8"?>
<!DOCTYPE svg PUBLIC "-//W3C//DTD SVG 1.1//EN" "http://www.w3.org/Graphics/SVG/1.1/DTD/svg11.dtd">
<!-- Creator: CorelDRAW X7 -->
<svg xmlns="http://www.w3.org/2000/svg" xml:space="preserve" width="19.5847cm" height="21cm" version="1.1" style="shape-rendering:geometricPrecision; text-rendering:geometricPrecision; image-rendering:optimizeQuality; fill-rule:evenodd; clip-rule:evenodd"
viewBox="0 0 10179 10915"
 xmlns:xlink="http://www.w3.org/1999/xlink">
 <defs>
  <style type="text/css">
   <![CDATA[
    .fil0 {fill:black}
    .fil3 {fill:white}
    .fil2 {fill:#151515}
    .fil1 {fill:#D10013}
   ]]>
  </style>
 </defs>
 <g id="Layer_x0020_1">
  <metadata id="CorelCorpID_0Corel-Layer"/>
  <g id="_782325840">
   <path class="fil0" d="M5978 10463c-93,-58 -503,-532 -531,-595 66,-66 177,-97 286,-150 257,-123 484,-294 695,-471 285,-238 165,424 -225,971 -66,93 -159,167 -225,245zm-5978 -6323l2350 0c93,-309 236,-375 265,-559 -139,46 -152,234 -270,328 -114,-183 216,-803 305,-940 463,-715 1048,-1173 1893,-1339 225,-43 293,-41 526,-48 395,-13 791,67 1106,197 352,144 762,419 970,658 41,46 104,113 147,167 275,345 577,853 599,1311 -162,-64 -64,-192 -317,-354l283 579 2322 0 0 3051 -1728 0c35,126 90,280 114,434 105,662 -211,1002 15,1142 170,106 367,-62 514,-46 13,347 -246,657 -440,785 -374,247 -564,154 -1011,121 14,236 117,244 151,389 -378,-25 -499,-84 -719,-305 -113,-112 -75,-54 -126,-219 -65,47 -65,77 -110,205 -138,391 -491,981 -861,1193 -158,-56 -484,-466 -664,-672 -53,-61 -165,-195 -213,-224 -216,88 -700,928 -908,886 -178,-35 -640,-708 -767,-998l-119 -315c-39,-78 -27,-50 -53,-77 -194,371 -362,502 -872,526 83,-179 142,-120 162,-389 -405,61 -701,94 -1019,-129 -232,-163 -410,-457 -440,-804 194,35 620,278 602,-140 -4,-82 -24,-137 -39,-211 -118,-604 -7,-791 97,-1152l-1745 0 0 -3051zm3053 0l4086 0 -91 -346c163,56 112,159 320,262 -131,-332 -572,-718 -862,-888 -775,-454 -2001,-425 -2785,-8 -294,157 -756,564 -876,873 138,-63 47,-84 290,-224 -10,57 -51,219 -82,331zm5156 3051l-145 0 18 40c210,470 188,811 79,1304 277,-182 242,-819 99,-1203 -22,-58 -36,-104 -51,-141zm-546 85c36,63 55,109 74,174 129,462 -228,915 -194,1290 23,260 219,511 459,577 301,84 653,-32 694,-252 -107,53 -143,137 -312,169 -174,33 -300,20 -435,-53 -572,-310 -77,-1035 -71,-1449 0,-10 0,-20 0,-29l0 -10 0 0 -1 -10 0 -3 0 -6 0 -7 -1 -11 0 -2 0 0 -1 -9 0 -4 -1 -6 0 -7 -1 -3 -1 -9 0 0 -1 -10 0 -3 -1 -6 -1 -7 0 -3 -2 -9 0 0 -1 -10 -1 -3 -1 -6 -1 -7 0 -3 -2 -9 0 0 -2 -9 -1 -4 -1 -5 -1 -7 -1 -3 -2 -9 0 0 -3 -9 0 -3 -2 -6 -3 -9 -2 -9 0 -1 -3 -8 -2 -9 -1 -1 -2 -8 -3 -9 0 0 -3 -8 -2 -4 -2 -5 -2 -6 -1 -3 0 0c-4,-11 -9,-23 -14,-34l-4 -8 0 0 -3 -8 -1 0 -7 -16 -4 -8 -1 -1 -4 -7 0 0 -8 -16 -5 -7 0 -1 -4 -7 -2 -3 -3 -4 -4 -6 -1 -2 -5 -7 0 0 -5 -7 -2 -3 -3 -4 -4 -5 -1 -2 -5 -7 -1 0 -5 -7 -2 -3 -3 -3 -4 -5 -2 -2 -5 -7 -1 0 -5 -6 -1 -1 -11 -11 -6 -6c-43,-43 -93,-77 -151,-98l128 183zm-493 -85l-134 0c-69,294 55,716 168,944 25,-67 -46,-382 -59,-505 -18,-168 7,-300 25,-439zm-372 0l-3399 0c105,469 525,881 826,1172 229,223 514,387 877,388 510,2 648,-221 881,-413 279,-230 709,-748 815,-1147zm-3635 0l-141 0c6,37 18,81 24,137 36,389 -88,707 -53,801 130,-216 200,-595 180,-859 -2,-31 -6,-57 -10,-79zm-569 0l-85 0c-121,129 -199,342 -198,547 3,503 541,1099 -125,1472 -315,176 -614,-110 -700,-141 108,338 749,341 980,74 524,-604 -232,-1052 4,-1748 39,-115 83,-164 124,-204zm-460 0l-148 0c-67,101 -93,252 -115,386 -14,87 -43,105 -55,197 -34,246 60,681 230,786 -222,-813 -45,-929 88,-1369zm1485 2007c188,23 432,373 977,580l163 90 -534 595c-158,-72 -708,-862 -606,-1265zm474 -486c238,65 204,228 757,340 384,78 267,52 595,221 83,42 127,56 170,125 -202,190 -593,202 -886,91 -250,-95 -536,-311 -701,-428 17,-200 1,-184 65,-349zm3225 872c-91,-21 -49,5 -107,-72 -27,-34 -52,-85 -74,-142 -133,-340 -44,-908 170,-1041 -76,516 -216,744 11,1255zm-4436 -1247c174,83 218,424 234,625 25,315 -46,504 -229,641 8,-140 250,-478 -5,-1266z"/>
   <path class="fil0" d="M3237 2109c991,-816 2396,-942 3480,-215 142,96 243,183 377,261 -268,-629 -554,-1054 -855,-1317 -1014,-888 -2494,316 -3002,1271z"/>
   <path class="fil0" d="M4395 772c452,-431 1132,-478 1703,-176 -81,-714 -1590,-934 -1703,176z"/>
   <path class="fil1" d="M5090 10285c173,0 314,141 314,315 0,174 -141,315 -314,315 -174,0 -315,-141 -315,-315 0,-174 141,-315 315,-315z"/>
   <polygon class="fil1" points="7079,6903 6158,6903 5792,7675 "/>
   <path class="fil2" d="M5073 7693l17 -2 17 2c87,0 309,14 664,41 -237,-83 -572,-325 -681,-147 -110,-178 -445,64 -682,147 355,-27 577,-41 665,-41zm-551 41c380,71 758,71 1135,0 -380,282 -758,282 -1135,0z"/>
   <path class="fil2" d="M5189 8273c-119,117 -231,112 -337,-13 173,20 286,25 337,13z"/>
   <polygon class="fil1" points="0,4140 10179,4140 10179,7191 0,7191 "/>
   <path class="fil3" d="M815 4974l289 0 -86 541c-7,41 -12,74 -14,97 -3,23 -4,44 -4,62 0,46 13,82 39,107 26,26 63,39 109,39 111,0 190,-148 237,-443l1 -11 62 -392 290 0 -97 612 0 1c-21,132 -47,226 -79,281 -41,71 -97,124 -171,161 -73,37 -160,55 -260,55 -128,0 -231,-31 -309,-92 -77,-62 -116,-144 -116,-246 0,-30 3,-71 9,-122 6,-52 14,-115 26,-191l74 -459zm1592 689c0,-47 -14,-86 -43,-115 -30,-29 -68,-43 -115,-43 -53,0 -96,20 -131,60 -34,41 -52,91 -52,152 0,47 15,84 44,112 29,28 67,42 113,42 54,0 98,-19 133,-58 34,-39 51,-89 51,-150zm-684 718l170 -1072 247 0 -16 103c37,-43 77,-75 121,-96 43,-21 90,-31 140,-31 86,0 156,32 211,96 54,64 81,147 81,249 0,129 -37,236 -110,321 -74,85 -167,127 -279,127 -50,0 -95,-11 -136,-32 -40,-21 -78,-54 -114,-99 0,24 -1,45 -2,65 -1,20 -3,37 -6,52l-48 317 -259 0zm1679 -329l131 -828 -241 0 41 -250 761 0 -41 250 -231 0 -131 828 -289 0zm976 -555c-51,0 -95,22 -130,65 -36,43 -54,95 -54,157 0,46 13,82 39,109 26,27 61,40 104,40 55,0 99,-20 135,-62 35,-41 52,-94 52,-159 0,-46 -13,-83 -39,-109 -26,-27 -62,-41 -107,-41zm-436 219c0,-127 41,-230 124,-311 83,-81 188,-122 317,-122 119,0 214,34 285,101 71,67 107,157 107,270 0,125 -42,227 -125,308 -84,80 -191,121 -323,121 -117,0 -210,-34 -280,-101 -70,-66 -105,-155 -105,-266zm1334 336l330 -1078 320 0 72 418c5,25 9,52 12,80 4,29 8,58 11,88 5,-21 13,-45 22,-69 9,-25 22,-56 38,-94l193 -423 318 0 26 1078 -266 0 -3 -514c0,-29 1,-57 2,-86 1,-28 2,-56 4,-85 -11,37 -29,82 -55,137 -5,10 -9,18 -11,24l-246 524 -174 0 -101 -524c-6,-26 -11,-53 -15,-79 -4,-27 -8,-54 -11,-81 -5,32 -11,62 -17,91 -7,28 -13,55 -19,79l-150 514 -280 0zm2026 -460c-3,-40 -16,-72 -41,-95 -24,-24 -57,-36 -97,-36 -36,0 -69,12 -98,35 -28,23 -50,55 -65,96l301 0zm-319 151l0 17c0,47 13,83 37,108 24,24 59,37 105,37 32,0 63,-7 92,-21 28,-13 59,-35 92,-65l142 143c-42,40 -91,70 -146,90 -56,21 -117,31 -185,31 -122,0 -216,-33 -283,-97 -67,-65 -101,-155 -101,-272 0,-127 40,-231 120,-310 79,-80 183,-119 310,-119 114,0 207,35 277,105 70,70 105,163 105,280 0,10 -2,28 -5,56 -1,8 -1,14 -2,17l-558 0zm1220 -151c-3,-40 -16,-72 -41,-95 -25,-24 -57,-36 -97,-36 -37,0 -69,12 -98,35 -29,23 -50,55 -65,96l301 0zm-319 151l0 17c0,47 12,83 36,108 24,24 60,37 106,37 32,0 63,-7 92,-21 28,-13 59,-35 92,-65l142 143c-42,40 -91,70 -146,90 -56,21 -118,31 -186,31 -121,0 -215,-33 -283,-97 -67,-65 -100,-155 -100,-272 0,-127 40,-231 120,-310 79,-80 183,-119 309,-119 115,0 207,35 278,105 69,70 104,163 104,280 0,10 -1,28 -4,56 -1,8 -2,14 -2,17l-558 0zm1152 187c0,-40 14,-75 44,-104 29,-29 64,-44 106,-44 41,0 76,15 105,43 29,29 43,63 43,105 0,42 -14,78 -43,107 -29,28 -64,43 -105,43 -42,0 -77,-15 -106,-45 -30,-29 -44,-64 -44,-105zm163 -980l274 0 -117 745 -275 0 118 -745z"/>
  </g>
 </g>
</svg>
