<?xml version="1.0" encoding="UTF-8"?>
<!DOCTYPE svg PUBLIC "-//W3C//DTD SVG 1.1//EN" "http://www.w3.org/Graphics/SVG/1.1/DTD/svg11.dtd">
<!-- Creator: CorelDRAW X7 -->
<svg xmlns="http://www.w3.org/2000/svg" xml:space="preserve" width="20.8313cm" height="21cm" version="1.1" style="shape-rendering:geometricPrecision; text-rendering:geometricPrecision; image-rendering:optimizeQuality; fill-rule:evenodd; clip-rule:evenodd"
viewBox="0 0 8287 8354"
 xmlns:xlink="http://www.w3.org/1999/xlink">
 <defs>
  <style type="text/css">
   <![CDATA[
    .fil2 {fill:#FEFEFE}
    .fil3 {fill:#FFFADB}
    .fil1 {fill:#00B0EC}
    .fil0 {fill:#EC172D}
   ]]>
  </style>
 </defs>
 <g id="Layer_x0020_1">
  <metadata id="CorelCorpID_0Corel-Layer"/>
  <g id="_851758808">
   <path class="fil0" d="M145 213l8142 0 0 8141 -8142 0 0 -8141zm277 276l7588 0 0 7588 -7588 0 0 -7588z"/>
   <path class="fil1" d="M0 0l8142 0 0 8142 -8142 0 0 -8142zm277 277l7588 0 0 7588 -7588 0 0 -7588z"/>
   <path class="fil2" d="M8142 213l0 7929 -7997 0 0 -7929 7997 0zm-277 276l145 0 0 7588 -7588 0 0 -212 -145 0 0 -7588 7588 0 0 212z"/>
   <path class="fil1" d="M2736 4042l0 1003 -924 0 0 -797c0,-426 50,-735 154,-925 136,-256 349,-448 642,-579l206 336c-177,74 -306,182 -390,328 -82,146 -129,357 -139,634l451 0zm1484 0l0 1003 -924 0 0 -797c0,-426 51,-735 154,-925 136,-256 349,-448 642,-579l207 336c-177,74 -307,182 -390,328 -82,146 -130,357 -139,634l450 0z"/>
   <path class="fil0" d="M4295 5233l256 -19 0 524c0,27 4,46 13,59 9,12 22,18 40,18 19,0 32,-6 41,-18 8,-13 13,-32 13,-59l0 -505 250 -19 0 536c0,99 -26,174 -77,223 -50,50 -127,75 -229,75 -102,0 -179,-25 -230,-75 -52,-49 -77,-124 -77,-223l0 -517zm989 182l0 176 11 0c30,0 52,-8 67,-23 15,-15 22,-37 22,-66 0,-29 -7,-50 -22,-65 -15,-15 -38,-22 -67,-22l-11 0zm-255 623l0 -816 284 0c99,0 176,25 232,74 56,50 84,118 84,206 0,82 -30,150 -88,203 -59,52 -134,79 -228,79 -8,0 -13,0 -18,-1 -3,0 -7,0 -11,-1l0 232 -255 24zm1102 5l0 -587 -175 0 56 -234 522 0 0 234 -147 0 0 562 -256 25zm853 -233c51,0 92,-16 122,-50 30,-33 45,-78 45,-135 0,-56 -15,-101 -45,-135 -30,-33 -71,-50 -122,-50 -50,0 -90,17 -120,50 -30,33 -45,78 -45,135 0,57 15,103 45,136 30,33 70,49 120,49zm0 -608c59,0 114,10 165,30 51,19 96,48 135,85 41,39 72,84 93,136 21,52 32,110 32,172 0,63 -11,120 -31,172 -21,52 -52,97 -94,136 -39,38 -85,67 -136,86 -52,20 -106,30 -164,30 -58,0 -112,-10 -163,-30 -51,-19 -96,-48 -136,-86 -41,-39 -72,-84 -93,-136 -21,-52 -31,-109 -31,-172 0,-62 10,-119 31,-171 21,-52 52,-97 93,-137 40,-38 85,-66 136,-86 51,-19 105,-29 163,-29zm-2729 2217l111 -802 231 0 107 336 109 -336 228 0 96 802 -254 17 -36 -402 -150 426 -150 -426 -41 402 -251 -17zm963 5l0 -807 448 0 48 215 -240 0 0 75 153 0 0 209 -153 0 0 80 255 0 -50 228 -461 0zm568 0l0 -807 447 0 48 215 -239 0 0 75 152 0 0 209 -152 0 0 80 254 0 -50 228 -460 0z"/>
   <path class="fil1" d="M4477 5329l255 -20 0 525c0,26 5,45 14,58 8,12 22,18 40,18 19,0 32,-6 41,-18 8,-13 12,-32 12,-58l0 -505 250 -20 0 536c0,99 -25,174 -76,224 -51,49 -127,74 -229,74 -103,0 -179,-25 -231,-74 -51,-50 -76,-125 -76,-224l0 -516zm989 181l0 176 10 0c30,0 53,-8 68,-23 15,-15 22,-37 22,-66 0,-28 -7,-50 -23,-65 -15,-14 -37,-22 -67,-22l-10 0zm-256 624l0 -817 285 0c98,0 176,25 232,75 55,49 83,118 83,205 0,83 -29,150 -87,203 -59,53 -135,79 -228,79 -8,0 -14,0 -18,0 -4,0 -7,-1 -11,-1l0 231 -256 25zm1103 4l0 -587 -175 0 55 -234 523 0 0 234 -147 0 0 562 -256 25zm853 -232c51,0 91,-17 121,-50 30,-34 45,-79 45,-136 0,-56 -15,-101 -45,-134 -30,-34 -70,-50 -121,-50 -51,0 -91,16 -121,49 -29,34 -44,79 -44,135 0,58 15,103 44,136 30,33 70,50 121,50zm0 -609c58,0 113,10 164,30 52,20 97,48 136,86 41,38 72,83 93,135 21,53 31,110 31,172 0,63 -10,121 -31,172 -21,52 -52,97 -93,137 -40,37 -85,66 -136,86 -52,19 -106,29 -164,29 -58,0 -112,-10 -163,-29 -51,-20 -96,-49 -136,-86 -41,-40 -72,-85 -93,-137 -21,-51 -31,-109 -31,-172 0,-62 10,-119 31,-171 21,-51 52,-97 93,-136 40,-38 85,-67 136,-86 51,-20 105,-30 163,-30zm-2729 2217l110 -802 232 0 107 337 108 -337 229 0 96 802 -254 17 -36 -402 -150 427 -150 -427 -41 402 -251 -17zm963 6l0 -808 448 0 47 216 -239 0 0 74 152 0 0 209 -152 0 0 81 255 0 -50 228 -461 0zm567 0l0 -808 448 0 48 216 -240 0 0 74 153 0 0 209 -153 0 0 81 255 0 -50 228 -461 0z"/>
   <path class="fil3" d="M4477 5329l74 -6 0 415c0,27 4,46 13,59 9,12 22,18 40,18 19,0 32,-6 41,-18 8,-13 13,-32 13,-59l0 -423 74 -6 0 525c0,26 5,45 14,58 8,12 22,18 40,18 19,0 32,-6 41,-18 8,-13 12,-32 12,-58l0 -505 69 -6 0 427c0,99 -26,174 -77,223 -50,50 -127,75 -229,75 -25,0 -49,-2 -71,-5 -36,-48 -54,-114 -54,-198l0 -516zm552 -15l60 -5 0 536c0,80 -16,144 -49,192l-11 1 0 -724zm255 101l0 176 11 0c30,0 52,-8 67,-23 15,-15 22,-37 22,-66 0,-29 -7,-50 -22,-65 -15,-15 -38,-22 -67,-22l-11 0zm286 -92c39,46 59,106 59,179 0,82 -30,150 -88,203 -59,52 -134,79 -228,79 -8,0 -13,0 -18,-1 -3,0 -7,0 -11,-1l0 232 -74 7 0 -704 285 0c27,0 52,2 75,6zm964 -6l0 139 -147 0 0 562 -74 7 0 -474 -175 0 55 -234 341 0zm450 493c11,0 22,0 32,-2 7,18 17,34 29,48 30,33 70,50 121,50 51,0 91,-17 121,-50 30,-34 45,-79 45,-136 0,-56 -15,-101 -45,-134 -30,-34 -70,-50 -121,-50 -11,0 -21,1 -31,2 -7,-18 -17,-34 -29,-48 -30,-33 -71,-50 -122,-50 -50,0 -90,17 -120,50 -30,33 -45,78 -45,135 0,57 15,103 45,136 30,33 70,49 120,49zm293 -500c2,3 5,5 7,7 41,39 72,84 93,136 21,52 32,110 32,172 0,63 -11,120 -31,172 -21,52 -52,97 -94,136 -39,38 -85,67 -136,86 -52,20 -106,30 -164,30 -38,0 -74,-4 -109,-13 -3,-2 -5,-5 -8,-7 -41,-40 -72,-85 -93,-137 -21,-51 -31,-109 -31,-172 0,-62 10,-119 31,-171 21,-51 52,-97 93,-136 40,-38 85,-67 136,-86 51,-20 105,-30 163,-30 38,0 75,5 111,13zm-708 407c-5,-29 -8,-60 -8,-92 0,-62 10,-119 31,-171 21,-52 52,-97 93,-137l1 0 30 0 0 234 -147 0 0 166zm-1942 995l77 241 76 -236 106 332 108 -337 59 0 84 707 -81 5 -27 -295 -107 304 -39 3 -36 -402 -76 216 -42 -121 -33 327 -149 -422 -41 402 -58 -4 99 -720 80 0zm591 712l0 -712 5 0 85 712 -90 0zm469 -712l27 120 -240 0 0 75 153 0 0 209 -153 0 0 80 255 0 -3 15 -70 0 0 81 52 0 -29 132 -279 0 0 -712 287 0zm99 712l0 -132 125 0 -29 132 -96 0zm0 -213l0 -209 22 0 0 209 -22 0zm0 -283l0 -216 62 0 47 216 -109 0zm469 -216l26 120 -239 0 0 75 152 0 0 209 -152 0 0 80 254 0 -3 15 -70 0 0 81 52 0 -29 132 -279 0 0 -712 288 0zm-789 -1202l0 176 10 0c30,0 53,-8 68,-23 15,-15 22,-37 22,-66 0,-28 -7,-50 -23,-65 -15,-14 -37,-22 -67,-22l-10 0z"/>
   <path class="fil0" d="M2604 3896l0 1003 -924 0 0 -796c0,-426 51,-736 154,-926 136,-255 349,-447 642,-578l207 336c-177,73 -307,182 -390,327 -82,146 -130,358 -140,634l451 0zm1484 0l0 1003 -924 0 0 -796c0,-426 51,-736 154,-926 136,-255 349,-447 643,-578l206 336c-177,73 -306,182 -390,327 -82,146 -129,358 -139,634l450 0z"/>
   <path class="fil3" d="M2604 4042l0 857 -792 0 0 -651c0,-426 50,-735 154,-925 130,-246 333,-433 609,-564l108 176c-177,73 -307,182 -390,327 -82,146 -130,358 -140,634l141 0c-4,47 -7,95 -9,146l319 0zm692 857l0 -651c0,-426 51,-735 154,-925 131,-246 333,-433 609,-564l108 176c-177,73 -306,182 -390,327 -82,146 -129,358 -139,634l141 0c-5,47 -8,95 -9,146l318 0 0 857 -792 0z"/>
  </g>
 </g>
</svg>
