<?xml version="1.0" encoding="UTF-8"?>
<!DOCTYPE svg PUBLIC "-//W3C//DTD SVG 1.1//EN" "http://www.w3.org/Graphics/SVG/1.1/DTD/svg11.dtd">
<!-- Creator: CorelDRAW X7 -->
<svg xmlns="http://www.w3.org/2000/svg" xml:space="preserve" width="21cm" height="19.0006cm" version="1.1" style="shape-rendering:geometricPrecision; text-rendering:geometricPrecision; image-rendering:optimizeQuality; fill-rule:evenodd; clip-rule:evenodd"
viewBox="0 0 5204 4709"
 xmlns:xlink="http://www.w3.org/1999/xlink">
 <defs>
  <style type="text/css">
   <![CDATA[
    .fil0 {fill:#E7E7E6}
    .fil3 {fill:#06002E}
    .fil2 {fill:#093799}
    .fil1 {fill:#CC0007}
   ]]>
  </style>
 </defs>
 <g id="Layer_x0020_1">
  <metadata id="CorelCorpID_0Corel-Layer"/>
  <g id="_794054104">
   <g>
    <path class="fil0" d="M3666 2344c0,0 0,1 1,2 0,-1 1,-2 1,-2 -1,0 -1,0 -2,0zm857 -567c23,3 47,8 69,16 37,13 69,34 94,60 6,5 12,11 18,16 14,10 26,21 37,33 17,15 32,33 44,53 11,14 19,29 26,45 9,11 17,23 24,36 11,18 19,38 25,59 5,11 8,22 11,34 5,15 9,31 11,47 4,25 4,51 1,76 1,3 1,6 1,9 19,8 37,18 55,32 60,46 93,112 93,189 0,11 -1,21 -2,31 0,9 0,17 -1,26 1,16 0,33 -2,50 -2,52 -20,99 -51,138 -13,36 -33,67 -61,93 -22,34 -52,60 -88,78 -11,9 -23,17 -35,24 -7,6 -15,12 -22,18 -3,3 -6,5 -9,7 -8,16 -17,31 -29,45 -18,23 -39,44 -62,62 -8,14 -18,26 -29,38 -13,17 -29,33 -48,48 -9,7 -18,13 -28,19 -19,17 -38,33 -58,48 -21,16 -41,32 -60,50 -12,11 -25,21 -38,30 -15,16 -32,29 -52,41 -15,9 -29,19 -43,30 -9,8 -17,15 -26,22 -3,4 -6,7 -9,11 -32,34 -69,65 -109,91 -5,3 -10,7 -14,12 -28,30 -58,50 -96,63 -26,19 -54,36 -83,50 -19,10 -39,18 -59,23 -31,13 -63,22 -95,28 -31,6 -62,11 -92,13 -20,2 -37,1 -55,-2 -43,-1 -86,-13 -123,-36 -3,-2 -6,-4 -9,-6 -43,-10 -80,-31 -110,-61 -19,-16 -35,-35 -49,-56 -4,-6 -8,-11 -12,-16 -11,8 -22,17 -33,25 -21,16 -40,33 -59,51 -13,11 -25,21 -39,29 -15,16 -31,30 -52,42 -14,9 -29,19 -42,30 -9,7 -18,14 -26,22 -3,3 -6,7 -9,10 -33,35 -69,66 -109,91 -5,3 -10,7 -14,12 -28,31 -59,51 -96,63 -27,19 -55,36 -84,50 -18,10 -38,18 -58,24 -31,13 -63,21 -96,28 -30,6 -61,11 -92,13 -19,1 -36,0 -54,-3 -44,0 -86,-13 -124,-36 -3,-1 -6,-3 -8,-5 -28,-7 -53,-18 -76,-33 -16,42 -36,83 -59,123 -16,28 -30,58 -42,88 -16,42 -41,76 -74,102 -25,24 -55,43 -87,55 -5,7 -9,13 -14,19 -39,50 -92,84 -153,101 -50,13 -99,11 -144,-6 -27,-4 -53,-13 -76,-25 -2,-1 -3,-2 -4,-2 -75,-37 -122,-102 -133,-185 -1,-10 -2,-21 -3,-32 -14,7 -28,14 -42,21 -13,10 -25,17 -39,25 -58,30 -122,42 -186,30 -10,0 -20,-1 -30,-3 -47,-8 -86,-20 -125,-49 -1,-1 -1,-1 -1,-1 -14,-2 -29,-4 -43,-7 -53,-13 -98,-41 -130,-80 -5,7 -10,15 -14,22 -14,20 -30,39 -48,56 -12,20 -27,37 -44,53 -19,30 -44,54 -76,73 -19,24 -41,45 -65,63 -32,34 -73,58 -120,70 -18,6 -37,9 -56,10 -27,12 -54,18 -85,18 -14,0 -27,0 -40,-2 -22,1 -44,-1 -67,-6 -55,-11 -106,-36 -148,-74 -62,-55 -90,-133 -77,-213 -5,-60 10,-118 41,-167 9,-21 21,-41 37,-60 8,-9 13,-21 18,-32 14,-42 34,-82 57,-119 4,-12 10,-25 17,-37 14,-27 29,-53 45,-79 14,-23 29,-45 45,-67 1,0 1,-1 1,-1 15,-33 36,-63 62,-87 12,-15 24,-31 37,-46 5,-5 9,-11 13,-18 15,-28 33,-50 56,-69 8,-10 16,-20 25,-29 30,-44 62,-88 94,-132 33,-45 65,-90 95,-137 35,-53 72,-104 113,-152 26,-30 51,-61 75,-92 6,-12 14,-23 22,-34 8,-10 16,-18 25,-27 16,-27 35,-52 59,-73 14,-22 32,-40 54,-57 60,-45 127,-80 200,-96 2,0 4,-1 6,-1 1,-12 3,-24 6,-36 1,-11 3,-22 6,-32 1,-5 2,-10 4,-15 1,-8 2,-16 4,-25 6,-27 12,-54 20,-81 7,-24 15,-47 24,-69 4,-8 8,-17 12,-25 -10,12 -22,23 -35,34 -12,9 -22,20 -31,32 -23,33 -48,65 -73,95 -16,18 -32,33 -50,45 -8,7 -16,15 -24,22 -5,4 -9,7 -13,10 -23,29 -52,52 -85,68 -8,6 -16,11 -25,16 -50,33 -102,62 -157,87 -69,31 -142,48 -218,52 -44,2 -85,-6 -122,-26 -36,-9 -70,-24 -102,-45 -51,-32 -93,-76 -125,-127 -27,-42 -48,-88 -63,-136 -12,-38 -21,-77 -28,-116 -16,-74 -11,-151 2,-226 9,-52 18,-105 27,-157 1,-8 3,-16 5,-23 -1,-5 -1,-10 -1,-16 0,-48 14,-93 39,-131 6,-22 12,-44 17,-66 10,-50 22,-100 36,-149 15,-67 33,-134 53,-200 15,-49 28,-101 36,-153 3,-20 7,-37 15,-56 5,-12 8,-24 11,-37 4,-22 8,-45 12,-68 1,-9 3,-17 5,-26 16,-61 36,-120 60,-178 14,-35 25,-70 31,-107 8,-41 25,-77 50,-107 8,-16 17,-32 27,-47 22,-32 47,-62 77,-88 38,-34 84,-55 131,-60 34,-13 71,-19 108,-17 21,-4 41,-5 62,-3 29,-3 58,-1 87,7 58,1 110,22 153,61 17,9 33,21 47,35 7,-20 14,-39 21,-58 3,-8 6,-16 6,-25 2,-37 10,-68 27,-99 10,-39 26,-75 47,-109 9,-14 20,-28 31,-40 68,-119 216,-157 336,-93 31,16 57,38 77,64 26,16 49,38 69,65 2,3 5,5 7,8 3,2 6,4 8,6 1,0 1,0 2,1 59,20 111,63 145,121 12,21 21,43 26,66 6,9 11,18 15,28 18,41 25,80 20,125 -4,26 -7,52 -12,79 36,-14 74,-20 112,-16 9,-4 18,-7 28,-9 3,-1 7,-2 10,-3 4,-1 8,-3 12,-5 33,-15 67,-29 102,-43 34,-13 67,-26 101,-39 38,-14 78,-27 118,-33 4,-1 8,-1 12,-1 29,-10 58,-17 88,-19 35,-5 71,-6 101,-3 2,0 5,0 7,0 46,-7 92,-6 136,7 38,0 74,10 110,30 1,1 1,1 3,1 30,7 57,19 81,36 27,13 52,31 74,56 12,13 25,27 37,41 7,7 13,15 19,22 6,-4 11,-8 17,-12 29,-19 60,-32 92,-37 3,-1 7,-2 10,-3 5,-1 9,-2 13,-3 29,-13 60,-20 94,-20 34,-1 67,5 99,16 37,6 71,21 101,44 53,25 92,66 115,116 22,36 34,78 35,122 2,14 2,28 1,41 1,5 1,10 1,16 0,24 -3,46 -11,69 -5,18 -10,35 -15,52 17,-10 35,-18 56,-23 28,-8 56,-10 84,-8 19,-1 38,-1 57,0 8,1 16,1 24,2 28,-2 56,1 83,9 26,-1 53,2 81,8 3,0 7,1 11,2 3,1 7,1 10,2 23,1 46,5 69,13 39,13 72,36 98,64 1,0 2,0 2,1 9,3 18,7 27,11 7,4 13,7 20,12 46,29 87,66 121,109 50,65 74,143 74,225 0,16 -1,31 -3,46 -1,68 -17,134 -49,194 -16,29 -34,58 -54,85 -2,3 -4,6 -5,8z"/>
    <path class="fil0" d="M337 4368c-97,-69 -172,-90 -225,-64 51,78 75,151 74,222 -42,162 130,122 63,-11 4,-92 33,-141 88,-147z"/>
    <path class="fil0" d="M567 4383c-67,-28 -145,-23 -234,14 53,12 69,63 49,152 -98,234 148,184 80,18 -9,-103 26,-164 105,-184z"/>
    <path class="fil0" d="M1852 4104c-96,12 -147,36 -152,72 70,-10 93,30 67,118 -68,146 -65,221 10,224 58,0 72,-56 41,-169 -8,-160 3,-241 34,-245z"/>
    <path class="fil0" d="M2745 3587c-136,10 -247,42 -332,99 134,-10 188,83 164,279 -86,230 -85,347 3,351 64,6 97,-45 98,-152 -40,-310 -18,-502 67,-577z"/>
    <path class="fil0" d="M5021 2509c-126,14 -221,46 -286,95 81,309 -38,531 -17,835 43,233 266,83 126,-438 -24,-319 35,-483 177,-492z"/>
    <path class="fil0" d="M4206 3343c-258,100 -451,210 -577,329 62,55 94,94 94,118 28,55 58,49 89,-16 1,-43 17,-65 48,-67 38,39 43,109 16,208 -43,130 -30,202 40,215 83,-19 100,-84 52,-193 -36,-178 -29,-277 21,-297 52,-15 79,10 83,77 -55,145 -43,221 36,227 89,-18 104,-106 44,-265 -10,-174 9,-286 54,-336z"/>
    <path class="fil0" d="M4584 1452c11,11 40,-35 50,-21 64,93 73,304 9,340 -42,19 -58,-21 -52,-88 9,-156 -3,-206 -7,-231z"/>
    <path class="fil0" d="M305 2522c208,102 289,190 242,263 55,81 1,211 -68,121 35,-94 0,-140 -41,-180 -83,78 92,356 -55,380 -61,-13 -81,-86 -28,-273 11,-146 -6,-249 -50,-311z"/>
    <path class="fil0" d="M142 2811c61,13 105,50 98,83 -6,34 -61,51 -123,39 -61,-12 -105,-50 -98,-83 7,-34 62,-51 123,-39z"/>
    <path class="fil0" d="M227 3133c-46,9 -80,37 -75,63 6,25 47,39 94,29 46,-9 80,-38 75,-63 -5,-26 -47,-39 -94,-29z"/>
    <path class="fil0" d="M45 3046c-28,6 -48,22 -45,38 3,15 28,23 56,17 28,-6 48,-22 45,-38 -3,-15 -28,-23 -56,-17z"/>
    <path class="fil0" d="M2375 221c22,18 19,58 -6,90 -26,32 -64,44 -86,27 -22,-18 -19,-58 6,-90 26,-32 64,-44 86,-27z"/>
    <path class="fil0" d="M2372 379c13,10 11,32 -3,50 -14,18 -36,25 -48,15 -12,-10 -11,-32 4,-50 14,-18 35,-24 47,-15z"/>
    <path class="fil0" d="M4188 751c27,20 24,71 -8,112 -32,41 -80,57 -107,36 -27,-21 -23,-71 9,-112 32,-41 79,-57 106,-36z"/>
    <path class="fil0" d="M4323 804c16,12 13,42 -5,66 -19,24 -47,34 -63,21 -16,-12 -13,-41 5,-66 19,-24 47,-33 63,-21z"/>
    <path class="fil0" d="M5132 2588c23,-10 53,5 66,34 13,29 5,61 -19,72 -23,10 -53,-5 -66,-34 -13,-29 -5,-61 19,-72z"/>
    <path class="fil0" d="M5118 2494c9,-4 21,2 26,13 5,12 2,24 -7,29 -10,4 -21,-2 -27,-14 -5,-11 -1,-24 8,-28z"/>
    <path class="fil0" d="M1963 4489c23,-17 58,-7 78,21 20,29 18,65 -5,81 -23,16 -58,6 -78,-22 -20,-28 -18,-64 5,-80z"/>
    <path class="fil0" d="M1863 4450c13,-9 32,-3 43,12 11,16 10,36 -3,45 -12,9 -31,3 -42,-12 -12,-16 -10,-36 2,-45z"/>
    <path class="fil0" d="M1101 4055c166,81 231,151 194,209 18,28 23,60 13,96 -31,43 -55,50 -71,20 13,-77 3,-131 -29,-163 -21,19 -22,75 -4,167 12,97 -1,143 -40,136 -57,4 -65,-68 -23,-218 9,-116 -4,-198 -40,-247z"/>
   </g>
   <g>
    <g>
     <path class="fil1" d="M573 1733c3,0 7,-2 10,-5 17,-48 30,-96 40,-143 10,-48 22,-95 35,-140 12,-57 28,-119 49,-188 21,-68 36,-131 44,-188 10,-25 18,-52 24,-82 6,-30 10,-56 14,-79 13,-50 30,-100 50,-149 20,-49 35,-99 45,-152 3,-3 7,-5 10,-5 3,-1 6,-4 7,-7 4,-18 11,-36 23,-53 12,-17 24,-32 38,-44 1,6 3,12 5,16 1,5 -1,11 -8,20 8,1 16,-3 21,-11 6,-8 11,-17 14,-26 5,2 10,0 15,-7 5,-6 13,-9 23,-8 3,1 6,3 7,7 2,3 5,6 8,9 13,-4 21,-7 22,-10 2,-3 6,-5 13,-7 3,-4 6,-4 7,0 2,5 6,6 13,2 0,12 3,15 8,11 5,-5 11,-10 20,-16 1,13 8,18 21,15 12,-4 24,-6 34,-7 -2,19 3,28 14,29 10,0 20,1 28,2 -1,12 3,24 13,34 -5,32 -8,63 -10,95 -2,31 -10,57 -25,78 7,6 7,13 2,19 -5,7 -5,14 -2,21 -5,11 -9,25 -13,40 -3,15 -6,30 -8,45 -3,15 -6,29 -9,43 -4,15 -7,26 -10,33 -2,4 -2,7 0,8 1,1 2,4 2,9 -8,16 -16,37 -22,63 -7,26 -15,51 -23,77 -7,20 -14,40 -22,59 -9,19 -16,38 -21,58 0,2 1,4 2,6 1,2 1,2 1,1 -5,16 -11,32 -19,49 -7,16 -10,33 -9,51 -8,21 -15,41 -20,61 -5,19 -13,39 -25,59 -5,30 -13,59 -25,89 2,3 1,13 -1,28 -3,16 -6,33 -9,50 -3,18 -7,35 -10,51 -3,16 -5,26 -5,31 2,11 5,24 9,38 4,14 14,22 31,24 7,0 19,-8 37,-23 17,-16 36,-34 55,-55 19,-21 37,-43 55,-64 17,-21 30,-38 39,-51 5,-6 11,-16 19,-31 7,-15 15,-30 22,-45 8,-15 15,-30 21,-43 7,-14 12,-23 16,-27 8,-12 13,-25 16,-39 2,-14 9,-27 19,-38 0,-2 1,-7 5,-16 3,-10 7,-19 11,-28 4,-10 8,-19 11,-27 4,-9 5,-14 5,-15 12,-20 20,-36 25,-47 5,-12 9,-22 12,-31 2,-9 5,-20 8,-32 4,-13 10,-30 18,-53 10,-17 19,-37 28,-60 8,-22 16,-45 25,-69 8,-24 16,-48 23,-72 8,-24 16,-44 24,-61 -1,-10 -1,-22 3,-36 3,-14 8,-29 14,-45 5,-16 12,-32 18,-47 7,-15 13,-28 18,-39 3,-10 6,-18 7,-25 2,-7 4,-14 6,-21 8,-16 17,-37 27,-63 10,-26 17,-50 20,-71 5,-26 14,-56 28,-90 13,-33 21,-67 22,-101 10,-16 17,-32 19,-47 3,-14 9,-30 19,-46 7,2 12,2 15,1 3,-1 3,4 -3,16 7,-4 12,-10 14,-20 3,-10 4,-19 5,-27 1,-7 3,-14 5,-19 3,-4 8,-5 17,0 -2,14 -4,25 -7,33 -2,8 -3,19 -3,32 8,1 12,-2 11,-10 -1,-9 1,-15 6,-20 10,-1 15,3 14,12 -1,8 -2,17 -4,26 4,1 6,2 8,4 1,2 4,2 7,-1 2,-3 3,-7 4,-11 1,-3 3,-6 6,-9 9,-7 16,-7 22,2 5,8 10,16 13,24 5,5 10,8 13,9 3,1 6,3 7,5 2,5 3,11 3,20 0,8 2,13 7,15 7,-1 11,-3 12,-5 1,-2 4,-4 9,-5 0,8 1,14 3,17 3,2 4,9 4,21 0,7 5,7 15,1 7,13 13,19 18,18 5,-1 9,-4 13,-9 5,-4 9,-8 14,-10 5,-2 11,3 18,14 -2,8 -4,12 -6,15 -3,2 -3,7 -2,15 0,3 2,5 5,6 4,1 5,3 5,6 -3,10 0,15 9,17 9,2 16,6 19,14 -3,29 -9,65 -18,108 -8,44 -18,89 -28,136 -11,47 -22,93 -33,138 -11,45 -20,82 -26,112l-5 2c-14,42 -31,83 -52,123 -21,39 -38,80 -51,120 -17,23 -30,50 -40,81 -10,31 -25,59 -43,84 -15,48 -34,92 -58,133 -23,42 -44,87 -62,135 -2,2 -5,8 -10,17 -5,8 -11,18 -17,28 -6,10 -11,20 -16,30 -5,11 -8,18 -10,22 -19,30 -36,56 -53,77 -17,21 -33,42 -50,62 -17,20 -33,41 -50,62 -17,22 -35,47 -55,75 -12,10 -22,20 -30,31 -9,11 -14,24 -15,39 -29,23 -54,49 -76,79 -21,30 -42,57 -62,81 -9,4 -17,10 -24,18 -8,8 -16,15 -24,22 -8,6 -16,13 -24,21 -7,7 -13,14 -16,18 -4,4 -8,7 -14,8 -6,2 -11,4 -16,7 -4,5 -7,8 -10,11 -4,2 -8,5 -13,8 -43,28 -86,52 -128,71 -42,18 -86,29 -133,31 0,-5 -1,-7 -3,-7 -3,0 -4,-3 -4,-8 -29,3 -53,-3 -74,-17 -21,-13 -39,-32 -54,-55 -15,-24 -27,-50 -36,-80 -10,-29 -17,-59 -22,-89 -8,-37 -7,-83 3,-139 10,-56 19,-110 27,-160 5,-5 8,-14 8,-26 0,-13 3,-24 10,-34 -3,-3 -6,-5 -8,-7 -1,-2 -2,-6 -2,-11zm639 -1187c0,-3 -2,-5 -6,-7 -4,-1 -7,0 -9,4 4,-1 5,0 5,3 0,4 4,4 10,0zm402 1904c3,-7 5,-13 5,-16 0,-10 0,-17 1,-21 1,-3 2,-6 4,-8 1,-2 3,-5 5,-8 1,-3 4,-10 7,-20 0,-4 -1,-5 -4,-5 -2,1 -3,1 -3,-1 6,-30 12,-53 16,-67 4,-15 9,-28 14,-39 5,-11 11,-24 17,-37 7,-14 15,-34 25,-62 2,-4 2,-5 -1,-5 -2,1 -4,0 -4,-4 15,-41 30,-80 44,-118 15,-38 27,-80 37,-124 3,-4 5,-8 6,-12 1,-3 3,-7 6,-11 0,-20 5,-39 14,-57 9,-17 16,-35 19,-52 12,-19 20,-39 26,-63 6,-23 16,-44 29,-63 -2,-3 -2,-5 0,-8 2,-3 3,-7 3,-12 5,-7 10,-14 15,-22 5,-8 7,-18 7,-30 13,-17 23,-35 28,-55 5,-19 14,-38 27,-55 0,-3 1,-5 3,-7 1,-1 1,-3 0,-6 28,-43 52,-88 70,-137 18,-48 39,-96 63,-144 -9,-1 -16,1 -22,5 -5,5 -11,6 -16,2 -23,15 -43,22 -59,21 -16,-1 -32,0 -49,1 0,-9 -4,-13 -12,-15 -9,-1 -14,-5 -15,-13 -5,0 -9,1 -10,4 -2,3 -5,4 -8,3 -2,-3 -2,-6 -1,-8 1,-3 1,-6 1,-9 -10,-9 -17,-21 -20,-35 -3,-14 -5,-31 -5,-49 7,-5 10,-9 10,-13 -3,0 -8,2 -14,8 -6,6 -10,12 -14,20 -3,-8 0,-14 8,-20 8,-5 12,-12 10,-20 12,-7 21,-14 26,-23 6,-10 15,-16 27,-21 3,-5 6,-8 8,-10 3,-2 6,-6 9,-10 35,-21 70,-44 104,-69 35,-25 69,-50 104,-75 17,-6 31,-13 43,-22 12,-9 24,-17 38,-24 -2,-8 1,-14 8,-19 8,-4 10,-10 7,-18 11,-5 17,-14 17,-27 14,-10 24,-17 30,-21l0 -17c5,-5 9,-5 10,-2 2,4 5,7 8,10 13,-7 28,-10 44,-10 16,1 30,-2 44,-9 3,1 5,0 6,-2 1,-1 3,-4 6,-6 2,-1 4,-1 5,0 2,0 4,0 5,0 5,-2 22,-9 49,-21 28,-13 58,-25 92,-38 33,-14 66,-26 98,-38 31,-12 54,-19 67,-21 17,3 32,0 45,-7 14,-7 29,-11 46,-12 23,-3 43,-3 59,-2 15,2 35,1 58,-2 21,-3 36,-2 48,5 12,7 28,9 48,5 10,5 21,11 32,15 12,4 23,8 33,10 5,5 10,10 14,13 4,3 10,5 19,6 13,15 25,28 36,40 11,12 21,26 31,42 7,27 8,53 4,78 -4,25 -10,49 -16,71 -5,6 -8,10 -8,12 -1,4 -2,6 -1,8 1,1 1,4 1,7 -20,24 -38,49 -54,75 -16,26 -34,50 -56,72 0,4 -1,6 -3,7 -1,2 -1,5 0,9 -6,2 -10,4 -10,8 0,3 -1,5 -5,6 -1,2 -2,4 -2,6 0,2 -1,3 -3,6 -18,20 -40,47 -66,83 -26,35 -47,62 -64,82 -10,11 -18,19 -23,25 -5,5 -9,11 -12,16 -4,5 -7,10 -11,17 -5,6 -12,13 -22,23 -53,43 -103,87 -148,132 -45,46 -94,89 -148,130 -10,11 -13,18 -9,21 5,3 10,6 17,7 6,2 12,4 16,7 4,3 1,10 -9,21 -15,11 -29,22 -42,33 -14,11 -27,23 -40,35l-3 0c-2,1 -3,0 -3,-2 -3,5 -7,8 -11,11 -4,3 -7,7 -9,12 -10,0 -19,4 -27,14 -9,10 -19,15 -30,14 0,-3 2,-6 6,-8 4,-1 7,-4 9,-8 -15,2 -29,6 -42,12 -12,6 -25,12 -38,19 0,4 -2,8 -4,14 -3,6 -8,10 -17,12 -3,-1 -4,-3 -3,-7 1,-3 -2,-6 -7,-8 -5,0 -11,3 -18,9 -8,6 -13,7 -17,3 -3,-3 -4,-2 -3,2 0,4 0,5 -2,4 -3,1 -6,2 -10,2 -3,0 -6,-2 -7,-5 -12,10 -24,14 -38,10 -13,-3 -27,0 -40,9 5,-10 6,-16 2,-20 -3,-3 -5,-8 -5,-15 -3,0 -5,0 -7,1 -2,1 -4,2 -8,3 5,-14 10,-28 15,-40 5,-12 12,-25 21,-39 18,-47 46,-89 85,-127 38,-38 74,-75 108,-111 20,-22 39,-42 59,-62 19,-19 37,-39 54,-58 8,-6 17,-12 27,-20 19,-23 38,-52 58,-86 20,-34 40,-68 60,-104 20,-35 40,-69 60,-102 20,-33 39,-60 58,-80 8,-19 18,-34 30,-47 12,-12 23,-26 35,-43 -13,-5 -28,-4 -44,3 -16,7 -33,12 -51,15 -14,4 -26,5 -38,5 -12,0 -22,4 -32,11 -4,3 -5,3 -5,0 0,-2 -2,-2 -5,1 -24,14 -53,26 -87,36 -34,11 -65,26 -92,46 -43,89 -82,177 -116,264 -34,87 -69,177 -104,270 0,3 -1,6 -2,9 0,2 0,5 2,8 0,-2 -3,-1 -8,2 -3,4 -5,10 -5,16 -1,4 0,5 4,2 4,-3 6,-3 6,1 0,8 -3,15 -9,20 -5,5 -11,7 -16,7 -18,45 -36,89 -54,132 -17,43 -35,86 -54,130 0,3 2,5 4,5 3,0 5,2 6,5 -3,4 -7,7 -11,10 -4,3 -8,6 -11,11 -5,36 -17,71 -35,104 -19,34 -32,70 -40,109 -7,12 -13,24 -17,37 -4,13 -9,26 -14,39 -3,6 -7,12 -11,18 -4,6 -7,12 -9,17 -3,8 -4,12 -2,13 2,2 3,3 4,3 0,1 0,2 -2,3 -1,1 -5,5 -12,12 1,-5 2,-7 1,-4 -1,3 -2,6 -4,11 -1,5 -3,8 -3,10 -1,2 -1,0 1,-5 -12,8 -16,16 -13,23 4,7 -1,16 -15,27 4,2 4,3 1,3 -2,0 -4,2 -6,5 -6,22 -12,36 -16,42 -4,7 -8,11 -10,13 -3,3 -5,7 -8,12 -2,6 -5,20 -8,43 -4,1 -5,1 -5,0 0,-1 -1,-1 -3,-1 -7,15 -10,23 -11,25 -1,1 -1,0 0,-2 1,-2 1,-2 0,-1 -1,1 -5,8 -12,22 2,4 1,14 -3,28 -4,15 -10,21 -17,20 -1,-1 -3,1 -5,8 -1,6 -3,13 -6,20 -2,7 -4,14 -6,20 -2,7 -4,9 -5,8 -9,4 -13,11 -13,22 0,11 -4,19 -12,25 -2,9 -3,16 -3,22 0,6 0,13 0,21 -6,2 -9,10 -9,24 1,14 2,22 2,23 -15,6 -22,11 -20,16 1,4 2,11 2,19 -5,0 -7,-3 -7,-8 0,-5 -4,-8 -10,-10 -4,5 -6,10 -7,16 -1,6 -3,9 -6,10 -7,2 -10,1 -10,-3 0,-4 -2,-8 -5,-10 -3,1 -8,1 -13,-1 -5,-1 -8,0 -10,2 -3,-3 -5,-6 -5,-9 0,-3 -1,-7 -5,-11 -6,0 -13,1 -20,2 -6,0 -12,-3 -17,-10 -9,-9 -12,-25 -12,-47 1,-22 -1,-42 -6,-61 0,-5 -1,-9 -5,-13 -3,-5 -5,-9 -5,-14 -1,-16 -1,-32 0,-47 2,-14 1,-27 -2,-38zm1038 -995c0,1 -2,3 -6,5 -4,2 -5,4 -1,7 1,-4 4,-6 7,-7 3,-1 3,-3 0,-5z"/>
     <g>
      <path class="fil2" d="M1544 2633c1,5 1,8 -1,9 -3,2 -5,5 -7,8 27,18 50,36 68,52 7,17 12,35 15,53 3,18 10,34 20,48 -2,21 -3,39 -5,53 -2,15 0,30 5,45 -3,23 -8,46 -15,69 -7,24 -8,45 -5,65 -10,4 -15,12 -14,25 1,12 0,23 -4,32 17,-8 31,-20 41,-36 10,-16 21,-31 32,-44 9,-15 19,-30 33,-44 13,-20 25,-38 36,-55 11,-16 24,-34 39,-55 8,-11 17,-22 26,-33 10,-12 16,-25 19,-39 30,-37 57,-75 79,-114 23,-40 51,-76 84,-108 9,-22 20,-43 34,-62 14,-19 30,-37 47,-55 5,-23 14,-43 28,-59 15,-16 28,-33 42,-50 16,-43 40,-80 70,-112 30,-31 56,-66 78,-103 11,-7 20,-15 25,-25 5,-9 12,-16 22,-21 2,-8 6,-18 12,-29 6,-11 14,-19 26,-26 3,-11 9,-20 16,-28 8,-8 13,-17 17,-26 3,-1 5,-2 6,-5 1,-3 4,-4 9,-4 18,-33 41,-61 67,-83 27,-22 50,-48 68,-76 13,-10 28,-18 43,-24 15,-6 26,-11 35,-17 23,-6 44,-16 63,-29 16,0 33,1 51,1 18,0 33,2 46,5 5,4 10,8 15,12 5,5 12,8 20,9 4,12 9,18 16,17 6,-1 12,2 17,9 12,15 16,35 14,59 -3,24 3,42 16,54 -8,19 -13,38 -15,59 -2,20 -4,39 -7,57 -9,16 -17,33 -25,52 -9,19 -12,37 -11,55 -25,57 -49,115 -74,173 -24,58 -47,117 -68,176 -9,16 -18,32 -27,48 -9,16 -15,32 -19,50 0,0 -2,1 -7,2 -3,24 -11,46 -24,65 -13,19 -21,41 -26,66 -4,3 -6,6 -7,9 0,4 -3,6 -6,7 -3,28 -12,54 -26,80 -14,25 -26,54 -34,84 -13,26 -24,54 -33,85 -8,32 -21,60 -37,85 -5,19 -12,38 -19,56 -8,18 -15,36 -23,54 -7,18 -15,35 -22,53 -8,18 -13,38 -17,59 -13,17 -24,38 -32,62 -9,25 -14,47 -18,66 -3,6 -6,12 -10,17 -3,5 -6,10 -10,14 -1,22 -9,42 -21,60 -13,17 -21,35 -26,53 -2,2 -3,5 -2,9 1,4 2,8 2,11 -5,20 -14,38 -26,56 -11,17 -21,36 -30,57 -15,44 -33,85 -55,122 -22,38 -41,78 -57,121 -9,2 -14,6 -16,12 -1,5 -6,9 -15,11 -5,-3 -6,-7 -3,-10 2,-3 3,-8 3,-15 -1,1 -4,1 -8,1 -5,1 -8,-1 -12,-3 -3,6 -8,12 -13,18 -6,5 -12,10 -17,15 -8,2 -11,1 -10,-5 -5,10 -11,18 -19,23 -7,5 -11,14 -11,26 -18,9 -25,24 -20,43 -7,8 -16,14 -28,17 -5,-4 -6,-11 -5,-21 -5,-6 -13,-7 -25,-4 -5,0 -7,2 -7,6 0,4 -2,7 -5,8 -3,1 -6,-1 -6,-5 -1,-4 -4,-4 -9,-1 -4,-26 -1,-47 6,-62 8,-15 11,-34 9,-55 2,-6 4,-8 6,-7 3,1 5,0 6,-4 0,-5 -1,-7 -5,-5 -3,2 -4,1 -2,-3 3,-38 9,-74 19,-108 9,-34 12,-67 8,-98 -1,-7 0,-18 4,-31 4,-12 6,-26 6,-39 0,-58 10,-112 28,-160 2,-4 2,-8 1,-11 -1,-3 -1,-6 -1,-9 2,-8 3,-17 5,-29 2,-12 1,-20 -2,-22 18,-47 29,-93 33,-137 5,-45 14,-90 29,-136 -25,40 -51,84 -77,130 -27,47 -58,90 -93,129 1,3 1,5 0,8 -2,2 -3,4 -3,8 -13,17 -28,34 -45,52 -17,18 -25,38 -25,59 -13,11 -26,24 -38,39 -11,16 -19,32 -22,48 -9,-3 -15,2 -20,14 -5,12 -10,22 -15,30 -7,10 -18,24 -33,40 -15,17 -28,32 -40,45 -3,14 -6,22 -8,25 -10,14 -20,24 -30,30 -10,6 -18,16 -25,29 -18,12 -37,22 -56,31 -19,8 -37,19 -52,31 -13,7 -24,9 -33,7 -10,-3 -21,-4 -34,-4 -12,-2 -19,-3 -20,-5 -2,-1 -7,-6 -15,-16 -9,-6 -17,-12 -26,-18 -8,-6 -15,-14 -22,-24 -18,8 -32,12 -41,12 -10,0 -19,-1 -29,-3 -4,-21 -9,-39 -15,-53 -7,-14 -15,-31 -23,-50 -5,0 -10,3 -14,9 -4,6 -8,8 -14,6 -1,-6 -2,-15 -3,-27 -1,-11 -2,-23 -3,-35 -1,-13 -2,-24 -5,-35 -2,-11 -7,-19 -14,-24 -1,-33 2,-64 9,-92 8,-28 15,-58 22,-92 -39,42 -77,89 -115,141 -37,52 -76,100 -116,144 -10,20 -22,38 -34,56 -13,17 -27,33 -44,48 -8,15 -17,30 -26,43 -10,13 -22,27 -39,39 -2,6 -4,10 -8,12 -3,3 -6,8 -7,15 -12,-2 -21,3 -28,14 -7,11 -12,22 -15,35 -23,10 -41,24 -53,43 -11,19 -29,34 -52,45 -4,3 -6,7 -7,11 0,4 -5,7 -13,7 -5,3 -7,3 -5,-2 1,-5 1,-8 0,-11 -14,7 -27,13 -42,18 -14,6 -25,10 -34,14 -6,1 -10,-4 -10,-12 -15,9 -29,12 -43,9 -15,-3 -27,-9 -37,-18 5,-19 6,-36 3,-50 -4,-15 2,-28 17,-40 0,-4 1,-6 4,-9 2,-2 3,-6 1,-10 25,-30 45,-65 59,-105 14,-40 34,-75 59,-105 0,-5 1,-8 3,-10 1,-3 0,-5 -3,-7 12,-22 25,-44 39,-67 14,-23 28,-43 41,-60 4,-4 7,-10 12,-17 4,-7 7,-14 8,-21 2,-4 4,-6 7,-7 2,-1 5,-2 8,-5 16,-22 31,-43 47,-61 16,-19 30,-39 41,-60 12,-7 21,-15 28,-26 7,-11 15,-21 25,-28 35,-52 70,-101 105,-149 35,-48 70,-97 103,-148 29,-44 60,-87 94,-127 34,-40 67,-81 99,-123 4,-4 5,-6 4,-7 -1,-1 0,-2 1,-4 9,-7 14,-13 18,-17 3,-5 9,-10 17,-15 4,-18 12,-32 25,-42 14,-10 25,-23 33,-39 39,-28 74,-46 108,-54 33,-7 74,-16 123,-28zm-1026 1444c0,-8 -3,-12 -10,-10 2,3 2,5 1,7 -1,2 -1,5 -1,8 3,1 5,0 5,-1 0,-2 2,-3 5,-4zm552 -589c-4,4 -8,8 -13,13 -5,5 -7,10 -7,15 5,-3 9,-8 13,-14 5,-6 7,-11 7,-14zm1001 406c-2,-4 -1,-7 2,-8 3,-1 5,-3 5,-6 -3,-1 -6,-2 -9,-4 -2,-2 -7,0 -14,5l0 7c4,3 7,4 9,3 3,-1 5,0 7,3zm1587 -1155c-2,-1 -3,-2 -4,-2 0,1 -2,0 -3,-1 6,8 16,6 28,-5 13,-12 24,-19 34,-22 0,3 -1,6 -2,7 -2,1 -3,3 -3,4 4,5 7,5 9,1 3,-4 6,-5 9,-3 2,5 0,9 -4,11 -4,3 -6,3 -6,0 -4,2 -5,5 -5,7 0,3 -2,4 -5,5 1,6 1,13 0,20 6,-1 13,-4 20,-8 -2,8 -3,16 -3,26 -8,7 -14,15 -18,22 -5,6 -11,14 -19,23 -4,3 -5,3 -5,0 0,-2 -2,-3 -5,-2l0 10c-9,1 -13,3 -14,8 -1,4 -3,9 -6,15 5,-1 8,-3 10,-6 1,-3 5,-7 10,-12 0,3 1,5 5,5 3,0 5,2 5,5 -5,1 -9,3 -10,5 -2,2 -5,4 -10,5 0,2 -1,3 -2,4 0,1 -1,4 -1,7 -5,0 -7,2 -7,6 0,4 -1,8 -3,12 -13,3 -24,9 -31,18 -8,9 -17,14 -29,15 -3,8 -9,13 -16,15 -8,2 -13,8 -17,17 -3,2 -5,3 -6,1 -1,-1 -2,-2 -4,-1 -5,10 -11,16 -20,20 -8,4 -15,9 -20,16 2,-1 3,-1 3,-1 -4,11 -9,20 -15,27 -7,7 -13,8 -18,4 -3,8 -8,15 -14,20 -6,6 -10,12 -14,18 4,1 8,-2 14,-9 6,-6 11,-7 14,-1 -8,11 -18,20 -30,28 -12,8 -23,16 -35,22 0,7 1,9 2,6 2,-3 3,-3 3,0 -3,5 -7,7 -10,9 -4,2 -5,7 -5,15 -17,1 -24,10 -23,26 -3,3 -6,2 -7,-3 -24,25 -49,48 -77,69 -27,20 -54,43 -79,66 -18,5 -35,19 -50,41 -25,15 -49,32 -71,50 -23,19 -45,38 -67,57 0,4 1,4 3,2 1,-2 3,-3 5,-4 -19,20 -39,37 -62,52 -22,14 -43,31 -61,51 -22,8 -42,18 -60,31 -19,14 -37,25 -56,33 -3,2 -8,4 -13,5 -6,1 -13,3 -19,6 -14,7 -32,13 -57,18 -24,5 -44,8 -61,9 -3,-1 -7,-2 -11,-4 -5,-1 -9,-3 -14,-5 -2,1 -4,2 -6,5 -3,2 -5,2 -7,-1 -3,-1 -6,-4 -10,-8 -3,-4 -8,-7 -15,-8 -8,-3 -17,-6 -25,-10 -8,-3 -17,-6 -25,-7 0,-3 -1,-5 -2,-5 -2,-1 -3,-3 -3,-6 -5,1 -8,1 -8,-1 -1,-2 -2,-5 -1,-7 1,-2 1,-3 1,-5 -3,-1 -4,0 -3,2 1,2 0,3 -2,2 -13,-15 -25,-32 -35,-50 -10,-18 -21,-33 -35,-44 -3,-24 -11,-41 -25,-51 -2,0 -1,1 1,3 3,2 2,3 -1,4 -17,-20 -25,-51 -24,-92 1,-42 8,-81 22,-118 5,-8 9,-16 12,-26 4,-9 9,-16 18,-22 18,-52 42,-98 70,-138 28,-40 56,-79 83,-116 5,-8 10,-15 16,-22 6,-7 12,-15 19,-25 5,-8 12,-18 22,-29 9,-10 18,-21 27,-32 9,-11 19,-22 29,-33 16,-18 30,-35 41,-52 11,-17 25,-32 41,-45 0,-3 1,-5 2,-5 0,-1 1,-2 1,-6 12,-8 22,-17 31,-27 9,-10 18,-23 27,-38 13,-2 23,-9 28,-21 6,-11 13,-21 22,-28 6,-5 13,-9 19,-13 5,-3 11,-8 16,-14 7,-8 12,-15 17,-20 25,-23 51,-45 76,-66 25,-21 51,-42 80,-63 18,-13 38,-29 58,-46 20,-17 41,-32 65,-45 5,-1 7,-3 7,-7 4,1 7,0 12,-4 4,-4 8,-7 11,-9 13,-9 27,-17 41,-25 14,-8 28,-16 42,-23 13,-3 29,-7 46,-11 18,-4 33,-3 46,2 2,4 2,7 0,7 -1,1 -3,1 -5,1 7,4 15,7 23,9 8,3 14,10 18,21 3,2 8,4 15,6 5,13 11,20 20,19 -4,3 -4,5 -3,5 2,0 3,1 3,3 6,3 11,8 12,13 2,5 4,12 8,19 3,8 7,13 12,17 5,4 9,9 13,17 3,4 5,9 5,15 0,5 2,10 5,12 0,8 -1,15 -3,18 7,2 11,5 12,11 0,6 0,12 -2,18 -1,6 -3,13 -3,20 -1,7 0,13 3,19 0,3 -1,6 -3,10 -3,3 -3,7 -2,11 -13,17 -25,36 -35,56 -10,20 -21,39 -32,55 -4,3 -6,5 -7,7 0,2 -3,4 -6,7 -7,10 -13,19 -19,27 -6,8 -13,17 -21,26 -3,4 -7,8 -11,11 -4,2 -8,8 -12,15 -3,4 -7,9 -12,15 -5,5 -9,10 -13,14 -8,6 -18,12 -29,19 -10,8 -18,16 -23,26 -27,22 -53,45 -78,68 -25,24 -52,46 -80,67 -9,5 -16,9 -23,12 -7,3 -12,8 -17,16 -9,2 -16,7 -23,15 -7,8 -15,14 -25,18 -5,1 -8,5 -10,10 -5,0 -8,0 -8,0 -16,16 -34,29 -51,40 -18,10 -36,21 -54,30 -7,4 -10,4 -10,1 -8,4 -15,8 -19,12 -4,5 -10,7 -19,8 -3,4 -6,7 -10,10 -13,4 -26,9 -37,15 -12,7 -25,10 -38,10 -3,1 -5,2 -5,4 0,2 -2,4 -5,6 -8,-1 -17,0 -25,2 -8,2 -14,0 -18,-8 -3,1 -6,2 -10,4 -3,2 -7,2 -12,0 -14,17 -27,35 -40,53 -14,19 -25,39 -35,62 -2,1 -3,1 -3,0 0,-1 -1,-1 -2,-1 -2,7 -5,13 -9,16 -4,4 -7,12 -7,23 -10,8 -15,19 -17,33 -2,13 -7,26 -15,36 18,-5 38,-13 59,-23 21,-11 40,-19 59,-26 3,-3 5,-5 5,-8 0,-2 1,-5 5,-7 12,-2 21,-5 27,-11 7,-6 15,-11 25,-13 2,-1 5,-5 8,-12 8,-1 18,-5 30,-13 12,-9 22,-16 30,-24 19,-5 37,-14 54,-28 18,-14 36,-25 54,-33 8,-12 20,-20 34,-24 14,-4 24,-12 29,-26 13,-6 26,-13 37,-18 12,-6 24,-15 35,-26 2,-1 3,0 3,2 0,1 2,1 5,-2l0 -5c10,-9 22,-16 35,-22 13,-5 24,-14 33,-28 23,-7 44,-18 62,-35l3 0c2,-1 2,-1 2,0 0,1 1,1 3,1 2,-1 3,-2 4,-4 1,-2 3,-4 6,-6 23,-13 47,-28 70,-46 24,-17 50,-37 78,-59 3,2 7,2 10,-2 3,-3 8,-4 13,-2 13,-12 26,-20 40,-26 13,-5 27,-12 42,-21 10,-6 20,-13 30,-21 10,-7 21,-13 33,-16 13,-4 26,-11 38,-23 11,-11 24,-20 37,-27 7,-2 14,-4 22,-7 7,-3 13,-5 18,-6 0,5 -2,8 -6,9 -4,1 -6,4 -6,9 -10,-1 -19,4 -25,13 -7,9 -15,14 -25,13 -2,4 -4,6 -5,6 -2,1 -3,3 -3,6zm-662 77c5,-10 12,-13 20,-9 8,4 15,1 20,-7 -2,7 -2,11 0,10 2,0 4,-2 6,-5 3,-3 5,-6 8,-10 2,-3 5,-5 6,-5 2,-2 4,-3 6,-3 3,0 5,0 7,0 10,-1 17,-9 22,-22 5,-13 12,-19 20,-20 7,-10 14,-16 22,-18 7,-2 13,-9 19,-20 10,-3 22,-10 37,-20 15,-11 34,-30 58,-56 3,-8 10,-22 20,-43 10,-21 17,-34 22,-39 -3,-2 -7,-2 -13,2 -6,3 -12,7 -18,12 -6,5 -12,9 -17,13 -6,4 -10,6 -12,4 -3,5 -11,13 -22,25 -12,13 -20,19 -23,20 -12,5 -21,14 -29,27 -7,13 -16,19 -26,18 -3,8 -8,15 -13,21 -5,6 -10,9 -17,7 -4,4 -7,9 -10,13 -4,4 -9,7 -15,9 -2,0 -2,2 -2,4 1,2 1,4 -1,4 -5,0 -9,2 -11,7 -3,5 -5,8 -9,9 0,-2 -1,-3 -2,-2 0,0 0,1 0,5 -10,11 -21,21 -32,29 -11,9 -20,21 -29,37l-5 1 0 8c4,-1 6,-2 7,-4 1,-2 3,-3 6,-2z"/>
      <path class="fil2" d="M4824 2426c-1,-1 -3,-1 -3,-1 -1,0 -2,0 -4,-2 7,9 16,7 29,-5 12,-11 24,-19 34,-21 0,3 -1,5 -3,7 -2,1 -2,2 -2,4 3,4 6,4 8,0 3,-4 6,-5 9,-2 2,4 1,8 -4,11 -4,3 -6,2 -6,-1 -3,3 -5,5 -5,8 0,2 -2,4 -5,5 2,6 2,13 0,20 7,-2 13,-5 20,-8 -2,7 -2,16 -2,26 -9,7 -15,14 -19,21 -4,7 -11,15 -19,24 -3,2 -5,2 -5,0 0,-3 -2,-3 -5,-2l0 10c-8,0 -13,3 -14,7 -1,4 -3,10 -6,16 5,-2 8,-4 10,-7 2,-3 5,-7 10,-11 0,3 2,5 5,5 3,-1 5,1 5,4 -5,2 -8,4 -10,6 -2,2 -5,3 -10,5 0,1 0,3 -1,4 -1,1 -2,3 -2,7 -5,-1 -7,1 -7,5 0,4 -1,8 -3,12 -13,4 -23,10 -31,19 -7,8 -17,13 -29,15 -3,8 -9,12 -16,14 -8,2 -13,8 -16,17 -4,3 -6,3 -7,2 0,-2 -2,-2 -3,-2 -5,10 -12,17 -20,21 -9,4 -16,9 -21,15 2,0 3,0 3,0 -3,11 -8,19 -15,26 -7,7 -13,9 -18,5 -3,8 -8,14 -13,20 -6,6 -11,11 -14,17 3,1 8,-2 14,-8 5,-7 10,-7 13,-1 -8,10 -18,19 -30,28 -11,8 -23,15 -35,22 0,6 1,8 3,5 1,-3 2,-3 2,1 -3,4 -7,7 -10,9 -3,1 -5,6 -5,15 -17,1 -24,10 -22,26 -4,3 -6,2 -8,-3 -23,25 -49,47 -76,68 -28,21 -54,43 -79,66 -19,5 -36,19 -51,41 -25,16 -49,32 -71,51 -23,19 -45,37 -67,57 0,3 1,4 3,1 2,-2 3,-3 5,-3 -18,20 -39,37 -62,51 -22,15 -43,32 -61,52 -22,7 -42,18 -60,31 -19,13 -37,24 -55,32 -4,3 -8,5 -14,5 -6,1 -12,3 -19,7 -13,6 -32,12 -56,17 -25,5 -45,8 -62,9 -3,-1 -7,-2 -11,-3 -4,-1 -9,-3 -14,-5 -2,0 -4,2 -6,4 -3,2 -5,2 -6,-1 -4,-1 -7,-3 -10,-7 -4,-4 -9,-7 -16,-9 -8,-2 -16,-6 -25,-9 -8,-4 -16,-6 -25,-7 0,-4 -1,-6 -2,-6 -2,0 -3,-2 -3,-6 -5,2 -7,2 -7,0 -2,-3 -2,-5 -2,-7 1,-2 2,-4 2,-6 -4,0 -5,0 -4,3 1,2 0,3 -1,1 -14,-15 -25,-31 -35,-49 -10,-18 -22,-33 -35,-45 -4,-24 -12,-41 -26,-51 -1,1 -1,2 2,4 2,2 2,3 -2,4 -16,-21 -24,-52 -23,-93 0,-41 8,-80 21,-117 5,-8 9,-17 12,-26 4,-9 10,-17 18,-22 18,-52 42,-98 70,-138 29,-41 56,-79 83,-117 5,-8 10,-15 16,-22 6,-6 12,-14 19,-25 5,-8 13,-17 23,-28 8,-11 17,-22 26,-32 9,-11 19,-22 29,-33 17,-18 30,-36 41,-53 11,-17 25,-32 42,-45 0,-3 0,-5 1,-5 1,0 1,-2 1,-5 12,-8 22,-18 32,-28 9,-10 17,-22 26,-38 13,-2 23,-9 29,-20 6,-12 13,-21 21,-28 7,-6 13,-10 19,-13 6,-3 11,-8 16,-14 7,-9 13,-16 18,-20 25,-24 50,-46 75,-67 25,-21 52,-42 80,-63 19,-13 38,-28 58,-45 20,-17 42,-32 65,-45 5,-2 8,-4 8,-7 3,0 7,-1 11,-5 4,-3 8,-6 11,-9 14,-8 27,-17 42,-25 14,-8 28,-15 41,-22 13,-4 29,-7 46,-11 18,-4 33,-4 47,1 1,5 1,7 0,8 -2,0 -4,0 -5,1 6,3 14,6 22,9 9,3 15,9 18,20 3,3 8,5 15,6 5,14 12,21 20,20 -3,3 -4,4 -3,4 2,1 3,2 3,4 7,3 11,7 13,12 1,6 4,12 7,20 3,7 8,13 13,16 5,4 9,10 12,17 3,4 5,9 5,15 0,6 2,10 5,13 0,8 -1,14 -2,18 6,1 10,5 11,11 1,5 0,11 -1,17 -2,7 -3,13 -4,20 -1,7 0,14 4,19 0,4 -2,7 -4,10 -3,3 -3,7 -1,12 -14,17 -25,35 -35,56 -10,20 -21,38 -33,55 -3,2 -5,5 -6,6 -1,2 -3,5 -7,7 -6,10 -13,19 -18,28 -6,8 -13,17 -22,25 -3,5 -7,8 -11,11 -4,3 -8,8 -11,16 -4,4 -8,9 -13,14 -5,6 -9,11 -12,15 -9,5 -18,12 -29,19 -11,7 -19,15 -24,25 -27,22 -53,45 -78,69 -25,23 -52,45 -80,66 -8,6 -16,10 -23,13 -6,2 -12,8 -17,16 -9,2 -16,7 -23,14 -6,8 -15,14 -25,18 -5,2 -8,5 -10,11 -5,-1 -7,-1 -7,-1 -17,16 -34,30 -52,40 -17,11 -35,21 -54,31 -6,3 -10,3 -10,0 -8,4 -14,8 -19,13 -4,4 -10,7 -18,7 -4,4 -7,8 -10,10 -14,4 -26,9 -38,16 -12,6 -24,9 -38,10 -3,1 -5,2 -5,4 0,1 -1,3 -5,6 -8,-1 -16,-1 -25,2 -8,2 -14,-1 -17,-8 -4,1 -7,2 -10,4 -4,1 -8,1 -13,-1 -13,17 -27,35 -40,54 -13,18 -25,39 -35,62 -2,0 -3,0 -3,-1 0,-1 -1,-1 -2,0 -2,7 -5,12 -9,16 -4,3 -6,11 -6,23 -10,7 -16,18 -18,32 -1,14 -6,26 -15,37 19,-5 38,-13 59,-24 21,-10 41,-19 59,-25 3,-3 5,-6 5,-8 0,-3 2,-5 5,-8 12,-1 21,-5 28,-11 6,-6 15,-10 25,-13 1,0 4,-4 7,-12 9,0 19,-5 30,-13 12,-8 22,-16 30,-23 19,-5 37,-14 54,-28 18,-14 36,-25 54,-34 9,-12 20,-20 34,-24 14,-4 24,-12 29,-25 13,-7 26,-13 38,-19 11,-6 23,-14 35,-26 1,0 2,1 2,2 0,2 2,1 5,-1l0 -5c10,-9 22,-17 35,-22 14,-5 25,-15 33,-29 23,-6 44,-18 63,-34l2 -1c2,0 3,0 3,1 0,1 1,1 2,0 2,0 3,-1 4,-3 1,-2 3,-4 6,-7 24,-13 47,-28 70,-45 24,-17 50,-37 78,-60 4,3 7,2 10,-1 4,-4 8,-4 13,-2 13,-12 27,-21 40,-26 13,-5 28,-13 43,-22 10,-6 20,-13 30,-20 10,-8 21,-13 32,-16 14,-4 26,-12 38,-23 12,-12 24,-21 38,-28 6,-2 13,-4 21,-7 7,-3 14,-5 19,-6 0,5 -2,8 -7,9 -4,1 -6,4 -6,9 -10,0 -18,4 -25,13 -7,10 -15,14 -25,13 -2,4 -3,6 -5,7 -2,0 -3,2 -3,5zm-662 78c5,-10 12,-13 20,-10 9,4 15,2 20,-6 -1,7 -1,10 0,10 2,-1 4,-2 7,-6 2,-3 5,-6 7,-9 3,-3 5,-5 6,-6 2,-2 4,-3 7,-3 2,1 4,0 6,0 10,-1 18,-8 23,-21 5,-13 11,-20 20,-20 6,-11 13,-17 21,-19 8,-2 14,-8 19,-20 10,-3 22,-9 37,-20 15,-11 35,-29 58,-56 3,-7 10,-21 20,-43 10,-21 18,-33 23,-38 -4,-3 -8,-2 -14,1 -6,3 -12,7 -18,12 -5,5 -11,10 -17,14 -6,4 -10,5 -11,4 -4,4 -11,13 -23,25 -12,12 -19,19 -23,20 -11,5 -21,13 -28,26 -8,13 -17,19 -27,19 -3,7 -7,14 -12,20 -5,7 -11,9 -18,8 -3,4 -7,8 -10,12 -3,5 -8,8 -15,9 -2,1 -2,2 -1,5 1,2 0,3 -1,4 -5,-1 -9,2 -12,6 -2,5 -5,8 -9,9 0,-2 0,-2 -2,-2 0,0 0,2 0,5 -10,11 -21,21 -31,30 -11,9 -21,21 -29,37l-5 1 0 7c3,0 5,-2 6,-4 1,-2 3,-2 6,-1z"/>
     </g>
     <path class="fil3" d="M3058 2222c-3,2 -3,3 -1,3 2,0 2,2 1,5 -10,1 -17,-1 -20,-7 -4,-6 -9,-10 -15,-13 -1,-16 -4,-27 -9,-34 0,-3 1,-4 4,-5 -2,-1 -3,-1 -4,-1 -1,1 -2,0 -4,0 -2,-24 -5,-43 -8,-59 -3,-16 -4,-36 -2,-62 0,-1 1,-3 3,-6 -1,-21 1,-40 6,-60 4,-19 8,-38 10,-55 5,-9 9,-19 11,-31 3,-11 4,-22 4,-31l2 -1c3,-20 9,-39 15,-56 7,-17 13,-33 19,-49 0,-3 -1,-4 -2,-3 -2,0 -3,-1 -1,-5 7,-17 13,-33 18,-49 5,-16 10,-31 16,-46 -7,1 -12,1 -15,1 -3,1 -8,2 -16,5 -6,-2 -14,0 -25,5 -11,4 -19,7 -26,9 -13,5 -26,6 -38,3 -12,-3 -24,-5 -38,-6 0,-3 1,-4 1,-5 1,-1 1,-2 1,-5 -2,-1 -5,-2 -7,-2 -3,0 -4,-1 -6,-3 3,-8 2,-13 -3,-14 -5,-1 -9,-4 -11,-10 -3,1 -4,2 -6,4 -1,1 -3,2 -5,1 2,-7 1,-10 -4,-9 -5,1 -9,1 -12,1 -3,-2 -3,-4 -1,-5 2,-2 2,-4 2,-5 -3,-1 -7,0 -10,3 -3,3 -7,6 -13,7 1,-3 3,-5 4,-6 2,-1 4,-3 5,-5 -4,-3 -7,-3 -11,-1 -2,-9 -2,-16 0,-20 6,-2 9,-2 9,-1 3,-4 3,-7 3,-9 -1,-3 -1,-6 -1,-11 6,2 13,2 21,2 8,-1 13,-7 17,-16 6,2 11,1 14,-3 3,-4 7,-6 13,-8 3,-1 4,-1 4,-3 0,-1 0,-3 2,-6 13,-6 25,-11 34,-15 10,-5 21,-11 33,-19 10,-3 18,-6 25,-9 8,-4 15,-9 22,-14 7,-5 15,-9 22,-13 7,-3 16,-6 25,-7 10,-14 20,-22 30,-26 10,-3 22,-8 34,-15 8,-20 16,-42 23,-64 8,-21 16,-42 26,-62 -1,-2 -1,-4 0,-6 1,-2 2,-4 2,-7 9,-16 17,-32 23,-49 6,-17 14,-34 24,-51 2,-4 4,-8 5,-13 1,-4 3,-9 6,-15 2,-4 5,-8 9,-12 3,-4 6,-10 9,-16 3,-7 6,-15 9,-24 2,-8 5,-16 9,-23 0,-1 1,-2 2,-1 1,0 2,-1 2,-2 1,-1 1,-3 1,-4 -1,-1 -1,-3 0,-5 2,-3 3,-6 6,-8 2,-3 4,-6 5,-10 3,-4 4,-8 5,-12 0,-4 2,-8 4,-12 3,-6 6,-13 11,-21 3,-7 5,-13 7,-20 1,-7 4,-11 8,-15 1,-9 3,-16 7,-21 4,-5 6,-12 7,-21 4,-4 8,-10 11,-17 4,-7 7,-14 11,-21 7,-20 16,-41 27,-62 5,-10 9,-20 12,-31 3,-10 8,-20 14,-29 -1,-4 -1,-8 0,-10 1,-3 3,-6 5,-9l0 -11c9,-12 18,-21 29,-28 4,-4 7,-9 10,-12 3,-4 8,-8 14,-12 1,4 1,7 0,8 -1,1 -3,3 -4,5 4,2 7,3 8,3 2,0 6,-1 10,-4 3,-4 6,-8 9,-10 3,-3 5,-6 6,-10 2,-1 5,0 7,2 3,3 3,6 0,9 3,1 4,1 5,-1 0,-2 2,-3 4,-4 3,0 4,1 5,3 0,2 2,3 4,2 6,-1 11,-4 14,-7 3,-3 7,-6 12,-7 -2,-2 -2,-4 -3,-5 -1,-2 0,-4 3,-8 9,0 18,3 26,9 8,6 17,7 26,5 5,7 11,12 19,15 7,3 14,5 21,8 0,15 5,24 15,27 -1,10 -1,17 1,21 2,4 1,9 -3,16 1,2 2,4 3,7 0,2 1,5 1,9 -6,19 -12,40 -19,61 -6,21 -15,39 -27,56 0,10 -2,19 -5,27 -4,8 -8,16 -14,23 -5,8 -10,16 -15,25 -5,8 -8,17 -9,27 -8,16 -16,32 -26,49 1,8 -1,15 -6,22 -6,6 -9,14 -10,24 -1,0 -2,1 -2,1 0,1 -1,2 -4,2 -10,29 -23,55 -39,80 -15,24 -27,51 -37,79 -2,3 -4,6 -6,9 -2,3 -3,7 -5,14 16,-2 30,-5 43,-10 13,-5 24,-9 34,-14 6,-3 12,-5 18,-6 6,-1 12,-3 18,-4 28,-10 60,-21 97,-32 37,-11 75,-21 113,-32 2,1 2,3 1,5 0,3 1,5 3,7 3,-1 4,-2 6,-5 1,-3 3,-3 5,-2 2,9 1,17 -5,22 -5,6 -10,12 -15,18 7,1 12,1 15,2 0,2 0,3 1,3 2,0 2,1 0,3 -2,4 -4,5 -5,4 -1,-1 -3,-1 -6,-1 -3,13 -10,22 -21,27 -11,5 -22,10 -31,17 1,-3 -1,-4 -6,-3 -3,1 -6,4 -7,8 -1,4 -4,6 -9,8 0,3 0,5 -1,6 0,1 0,2 3,2 2,-2 4,-4 6,-7 2,-3 5,-5 8,-6 0,4 -1,6 -2,6 -2,1 -3,2 -3,5 0,2 1,3 4,2 2,-2 4,-3 7,-3 -1,2 -2,5 -3,7 -1,2 -1,4 -3,5 -7,6 -14,11 -21,15 -6,4 -12,10 -17,17 -8,5 -16,9 -23,12 -8,3 -14,7 -20,12 -6,0 -13,3 -19,10 -7,7 -15,13 -23,18 -2,1 -5,1 -6,1 -2,0 -4,0 -7,2 -11,6 -22,13 -35,22 -13,8 -26,14 -39,16 -1,1 -2,1 -1,3 1,1 0,2 -1,3 -28,7 -55,17 -82,32 -26,15 -52,29 -78,42 -6,15 -12,28 -18,38 -6,11 -10,24 -13,37 -4,10 -9,20 -13,30 -4,11 -8,20 -10,29 -5,13 -11,24 -17,36 -7,11 -12,25 -14,42 -13,19 -23,40 -29,62 -6,22 -13,44 -22,66 -1,10 -4,22 -7,36 -4,14 -8,28 -13,40 -5,23 -11,47 -18,71 -7,24 -12,47 -15,68 -2,12 -4,22 -5,32 -1,9 -3,19 -5,29 0,4 -2,7 -6,9 -1,3 -1,4 1,3 2,0 3,1 3,3 -16,25 -28,51 -37,79 -1,1 -3,3 -7,4 -2,3 -3,5 -2,7 2,3 1,6 -1,10 -5,1 -8,0 -9,-3 -2,-3 -4,-6 -6,-8 -4,9 -2,13 4,14 -5,2 -9,3 -11,3 0,2 0,4 2,6 1,1 0,3 -2,5 -4,1 -6,-1 -6,-5 0,-4 0,-8 0,-12 -2,6 -4,9 -5,11 -5,1 -6,-2 -4,-10 -6,1 -9,3 -9,6 -5,-4 -8,-8 -9,-11 -1,-4 -3,-10 -5,-16l-2 -2c-1,1 -2,2 -2,3 -1,-2 -2,-4 -3,-5 0,-1 -1,-3 -2,-5zm-146 -602c-3,1 -5,4 -5,7 4,-1 5,-3 5,-7zm33 28c0,-2 -2,-4 -7,-5 0,2 2,4 7,5zm53 26c0,-3 -2,-4 -4,-4 -2,0 -4,2 -5,4 1,1 3,2 5,2 2,0 4,-1 4,-2zm709 -134c3,-3 6,-8 11,-15 5,-7 10,-13 14,-21 4,-7 8,-13 12,-18 3,-5 6,-8 7,-9 15,-24 30,-47 45,-69 16,-22 31,-45 44,-69 18,-18 32,-40 42,-64 9,-25 19,-44 29,-56 0,-3 -1,-4 -3,-4 -2,0 -3,-1 -5,-2 3,-6 5,-11 6,-15 1,-3 5,-6 11,-7l3 -1c14,-22 31,-37 53,-45 22,-8 42,-19 62,-33 1,0 3,2 5,6 18,-5 37,-7 57,-6 20,2 37,5 50,12l2 -1c3,-1 3,-2 2,-4 -1,-2 -1,-3 2,-4 6,4 17,8 32,10 16,3 26,3 31,2l13 -4c2,0 10,1 23,3 12,3 21,6 26,10 4,-1 5,-2 5,-4 3,8 10,11 22,7 4,-1 6,-2 8,-3 0,4 5,11 15,18 10,8 21,15 34,22 12,7 23,13 33,17 10,5 16,7 16,7 23,14 42,32 59,53 16,21 24,48 24,79 0,5 -1,10 -2,14 -1,5 -2,9 -2,12l0 15c0,31 -7,60 -20,86 -14,26 -30,50 -49,72 -2,9 -7,16 -13,20 -7,4 -11,10 -14,18l-2 -1c-3,1 -11,9 -24,24 -13,15 -26,30 -39,47 -13,16 -25,31 -35,44 -9,14 -13,19 -11,16 -4,8 -12,18 -23,30 -11,11 -23,23 -37,35 -14,12 -29,24 -44,36 -15,12 -30,23 -44,31 -27,21 -54,43 -81,68 -27,25 -51,40 -70,45 -5,2 -8,2 -11,1 -1,3 -3,5 -4,7 -2,2 -4,4 -5,7 -2,-1 -4,-1 -5,-2 0,0 -2,0 -4,0 -23,15 -48,26 -76,34 -17,4 -33,7 -47,7 -15,0 -27,-3 -35,-9l-7 2c-12,3 -23,3 -32,-2 -9,-4 -17,-9 -25,-16 -7,-6 -14,-13 -22,-20 -8,-7 -17,-12 -27,-16 -6,-11 -10,-21 -13,-30 -3,-8 -10,-17 -19,-28l0 -7c0,-6 -1,-13 -2,-19 -1,-6 -2,-12 -2,-18 3,-6 4,-10 6,-14 1,-3 1,-8 1,-14l0 -31 0 -18c0,-6 0,-12 0,-19 -1,-6 -1,-12 -1,-18 0,-11 1,-20 3,-27l0 -7c0,-21 6,-44 17,-69 12,-26 23,-49 32,-69 0,-2 0,-3 -1,-3 0,0 -1,-1 -1,-2l0 -4zm240 152c15,-10 28,-20 41,-28 13,-9 24,-21 35,-34 3,0 4,0 4,0 6,-1 10,-5 14,-11 3,-7 7,-11 13,-12l4 -1c2,-6 10,-15 24,-29 14,-13 29,-27 46,-43 16,-15 32,-30 47,-45 15,-15 26,-27 32,-36 1,-1 5,-5 11,-12 7,-6 14,-14 21,-24 8,-9 14,-19 20,-30 6,-12 9,-23 9,-35 0,-11 -3,-20 -10,-27 -6,-7 -14,-12 -23,-17 -9,-5 -19,-9 -28,-13 -10,-5 -17,-10 -22,-15 -23,30 -46,61 -68,92 -23,32 -50,70 -81,116 -23,34 -44,68 -64,101 -20,33 -37,65 -50,95l5 -1c6,-2 10,-1 11,2 1,3 4,6 9,7z"/>
    </g>
    <path class="fil3" d="M4239 1617c-237,92 -414,193 -530,303 57,49 86,85 86,108 27,50 54,45 82,-16 1,-39 15,-59 44,-61 35,36 40,100 15,192 -40,119 -27,185 36,197 77,-18 93,-77 48,-178 -32,-163 -26,-253 20,-272 47,-14 73,9 76,70 -51,134 -40,203 33,209 82,-16 95,-97 40,-243 -8,-160 8,-263 50,-309z"/>
    <path class="fil3" d="M3161 2096c-133,65 -185,121 -155,168 -35,52 0,135 44,77 -22,-60 0,-89 26,-115 53,50 -59,228 35,244 39,-9 52,-56 18,-175 -7,-93 4,-160 32,-199z"/>
    <path class="fil1" d="M1458 1782c-68,14 -118,56 -110,94 7,38 69,57 138,43 69,-14 118,-56 111,-93 -8,-38 -70,-58 -139,-44z"/>
    <path class="fil1" d="M1362 2144c53,10 90,42 84,71 -5,29 -52,43 -105,33 -52,-11 -90,-42 -84,-71 6,-29 53,-44 105,-33z"/>
    <path class="fil1" d="M1567 2046c32,7 54,26 51,43 -4,17 -32,26 -63,19 -31,-6 -54,-25 -50,-42 3,-17 31,-26 62,-20z"/>
    <path class="fil2" d="M3589 3103c-69,14 -119,55 -111,93 8,38 69,57 138,44 69,-14 119,-56 111,-94 -8,-38 -70,-57 -138,-43z"/>
    <path class="fil2" d="M3455 3298c-3,33 -28,59 -58,58 -29,-1 -51,-28 -48,-61 2,-33 27,-59 57,-58 29,1 51,28 49,61z"/>
    <path class="fil2" d="M3572 3381c31,6 54,25 50,42 -3,17 -31,26 -63,20 -31,-6 -53,-25 -50,-42 4,-18 32,-26 63,-20z"/>
   </g>
  </g>
 </g>
</svg>
