<?xml version="1.0" encoding="UTF-8"?>
<!DOCTYPE svg PUBLIC "-//W3C//DTD SVG 1.1//EN" "http://www.w3.org/Graphics/SVG/1.1/DTD/svg11.dtd">
<!-- Creator: CorelDRAW X7 -->
<svg xmlns="http://www.w3.org/2000/svg" xml:space="preserve" width="15.9433cm" height="21cm" version="1.1" style="shape-rendering:geometricPrecision; text-rendering:geometricPrecision; image-rendering:optimizeQuality; fill-rule:evenodd; clip-rule:evenodd"
viewBox="0 0 1309 1724"
 xmlns:xlink="http://www.w3.org/1999/xlink">
 <defs>
  <style type="text/css">
   <![CDATA[
    .fil10 {fill:none}
    .fil0 {fill:black}
    .fil1 {fill:black}
    .fil5 {fill:#E3B80C}
    .fil2 {fill:#E3B80C}
    .fil4 {fill:#E80000}
    .fil3 {fill:#FFB67F}
    .fil9 {fill:#FFB67F}
    .fil7 {fill:white}
    .fil8 {fill:white}
    .fil6 {fill:black;fill-rule:nonzero}
   ]]>
  </style>
 </defs>
 <g id="Layer_x0020_1">
  <metadata id="CorelCorpID_0Corel-Layer"/>
  <g id="_816455760">
   <path class="fil0" d="M1109 1102c2,4 4,7 5,11 5,10 8,21 9,32 1,10 1,20 -1,30 3,-1 6,-2 9,-3l16 -5c14,-4 29,-8 43,-13l14 -4 1 0 9 -3c15,-5 31,-10 47,-15l48 -15 0 218 -272 126 -19 8 -6 2 -6 2 -7 3 -4 2 -50 20 0 0 -1 0 -3 1 -2 1 -3 1 -4 2 0 0 -21 8 -7 3 -6 2 -6 3 -4 1 -48 19 0 -1 -3 2 -3 1 -3 1 -3 1 -3 1 -3 1 -3 2 -3 1 -3 1 -3 1 -3 1 -3 1 -3 1 -3 1 -3 1 -3 2 -3 1 -3 1 -3 1 -4 1 -1 0 -2 1 -41 15 0 0 -1 0 -3 1 -3 1 -3 1 -3 1 -3 1 -4 1 -3 1 -3 1 -3 1 -3 1 -3 1 -3 1 -3 1 -3 1 -3 1 -3 1 -3 1 -3 1 -3 1 -46 15 0 -1 -3 1 -3 1 -3 1 -3 1 -3 0 -3 1 -3 1 -3 1 -3 1 -3 1 -3 1 -3 0 -3 1 -3 1 -3 1 -3 1 -3 1 -3 1 -3 0 -3 1 -46 13 0 -1 -2 0 -11 3 0 0 -1 1 -33 8 0 -1 -3 1 -11 3 -44 10 0 -1 -2 1 -2 0 -9 2 0 0 -1 0 -31 7 0 0 -3 0 -2 1 -2 0 -3 1 -2 0 -3 1 0 0 -12 2 -3 0 -3 1 -3 1 -3 0 -3 1 -3 0 -3 1 -3 0 -3 1 -3 0 -3 1 -3 0 -3 1 -3 1 -3 0 -3 1 -3 0 -3 1 -3 0 -3 1 -3 0 -3 1 -3 0 -3 1 -3 0 -3 1 -3 0 -3 1 -3 0 -3 1 -1 0 0 0 -9 1 -37 7 0 -1 -1 0 -3 1 -2 0 -3 0 -1 1 -14 1 -22 4 0 -1 -1 1 -6 0 -12 2 -42 5 0 0 0 0 -1 0 0 0 -26 2 -19 2 0 0 -5 1 -8 0 -44 4 1 -44 0 -11 0 -10 0 -21 1 -27 0 -10 0 -11 0 -10 0 -11 1 -5 0 -5 0 -5 0 -6 0 -10 0 -5 0 -5 0 -6 0 -10 0 -6 1 -5 0 -5 0 -5 0 -6 0 -5 0 -5 0 -5 0 -11 1 -31 0 -11 0 -5 0 -5 0 -6 0 -5 0 -5 0 -5 0 -6 1 -5 0 -5 0 -5 0 -6 0 -5 0 -5 0 -9 2 -33 0 -152 1 -106 53 27c15,8 32,15 48,21l1 0 3 2c7,2 14,4 20,6l4 1 3 1 26 8 24 7 0 0 6 2 1 -1 16 6 3 1 0 0 7 3c-5,-6 -10,-12 -15,-19 -7,-9 -14,-17 -22,-26 -2,-3 -5,-6 -7,-9 -1,0 -1,-1 -2,-1 -16,-13 -20,-32 -18,-51 1,-14 4,-27 7,-39 3,-10 6,-19 10,-28 2,-4 1,-10 0,-15 0,-3 -1,-7 -1,-11 -2,-15 1,-29 12,-41 9,-8 22,-13 34,-17 9,-4 18,-8 27,-11 -9,-14 -15,-28 -20,-42 -13,-42 -8,-82 11,-117 -22,-10 -42,-25 -55,-47l-21 -34c-6,2 -12,5 -17,7l-67 24 26 -66c8,-22 21,-46 35,-65 12,-15 26,-30 43,-39 6,-3 13,-7 19,-10 -5,-2 -7,-11 -11,-12l-23 -7 -17 -20 0 0 -3 -9 1 -15 20 -31c6,-11 14,-22 21,-33 16,-22 32,-44 50,-65 22,-27 56,-62 89,-74 20,-8 41,-13 62,-18 4,-1 13,-3 22,-6 -13,-8 -26,-16 -40,-23 -6,-3 -12,-6 -18,-9 -16,-7 -33,-14 -49,-20 -31,-10 -51,-19 -85,-28 40,-42 37,-42 93,-61 37,-13 75,-24 114,-33 37,-8 79,-14 117,-11 50,4 97,35 133,68 27,24 52,53 73,82 13,18 31,45 37,67 4,8 20,20 27,24 15,10 30,21 41,34 11,13 20,28 24,44 2,14 -1,41 -5,61 6,6 10,13 11,22 2,9 -2,26 -4,35 -1,1 -1,2 -1,3 -1,7 -3,15 -5,23 3,8 4,16 3,25 4,5 7,11 9,17 8,21 6,43 -3,63l-16 40c1,4 2,8 2,12 0,12 -8,23 -16,32 1,2 -3,16 -2,18l33 -6 -19 41c-9,7 -17,24 -30,31 2,13 9,36 15,46 14,25 12,63 2,92 2,2 3,3 5,4 1,1 2,2 4,3 24,8 52,24 63,48 1,1 1,2 2,2 3,4 6,8 9,11 10,11 20,21 30,31 9,9 19,18 29,27 3,3 7,6 11,9 2,1 3,3 5,4 11,6 21,14 30,22 6,4 10,8 16,11 1,2 3,3 5,5 9,-1 16,0 25,4 10,6 16,16 19,27 1,7 1,13 1,19zm-928 -485l28 -1c12,-1 28,-5 40,-9 20,-7 39,-17 56,-31 -7,-7 -13,-15 -18,-23 -5,3 -11,6 -16,9 -15,8 -31,17 -44,27 -14,9 -30,19 -46,28z"/>
   <g>
    <polygon class="fil1" points="1216,1195 974,1337 974,1337 974,1337 974,1336 974,1336 974,1336 974,1335 974,1335 974,1335 974,1334 974,1334 974,1334 974,1333 974,1333 974,1333 974,1332 974,1332 974,1332 974,1331 974,1331 974,1331 974,1330 974,1330 974,1330 974,1330 974,1329 974,1329 974,1329 974,1328 974,1328 974,1328 974,1327 974,1327 1217,1182 1217,1183 1217,1183 1217,1183 1217,1184 1217,1184 1217,1185 1217,1185 1217,1185 1217,1186 1217,1186 1217,1187 1217,1187 1217,1188 1217,1188 1217,1188 1216,1189 1216,1189 1216,1190 1216,1190 1216,1190 1216,1191 1216,1191 1216,1192 1216,1192 1216,1192 1216,1193 1216,1193 1216,1194 1216,1194 1216,1195 1216,1195 "/>
    <polygon class="fil1" points="1217,1182 974,1327 974,1322 1217,1176 "/>
    <polygon class="fil1" points="1280,1317 1025,1434 1021,1436 1275,1319 "/>
    <polygon class="fil1" points="1275,1319 1021,1436 1020,1437 1019,1437 1018,1438 1016,1438 1015,1439 1014,1439 1013,1439 1012,1440 1010,1440 1009,1441 1008,1441 1007,1442 1006,1442 1005,1443 1003,1443 1002,1444 1001,1444 1000,1445 999,1445 997,1446 996,1446 995,1447 994,1447 993,1448 991,1448 990,1449 989,1449 988,1450 987,1450 985,1451 984,1451 983,1451 1227,1338 1229,1337 1230,1337 1232,1336 1233,1336 1235,1335 1236,1334 1238,1334 1239,1333 1241,1333 1242,1332 1244,1331 1245,1331 1247,1330 1248,1330 1250,1329 1251,1328 1253,1328 1254,1327 1256,1327 1257,1326 1259,1325 1260,1325 1262,1324 1263,1324 1265,1323 1266,1322 1268,1322 1269,1321 1271,1321 1272,1320 1274,1319 "/>
    <polygon class="fil1" points="1227,1338 983,1451 974,1455 1216,1342 "/>
    <polygon class="fil1" points="1216,1342 974,1455 974,1446 1216,1330 "/>
    <polygon class="fil1" points="1216,1330 974,1446 974,1445 974,1444 974,1443 974,1443 974,1442 974,1441 974,1441 974,1440 974,1439 974,1438 974,1438 974,1437 974,1436 974,1436 974,1435 974,1434 974,1433 974,1433 974,1432 974,1431 974,1431 974,1430 974,1429 974,1428 974,1428 974,1427 974,1426 974,1426 974,1425 974,1424 974,1423 974,1423 1216,1302 1216,1303 1216,1304 1216,1305 1216,1306 1216,1306 1216,1307 1216,1308 1216,1309 1216,1310 1216,1311 1216,1312 1216,1313 1216,1314 1216,1314 1216,1315 1216,1316 1216,1317 1216,1318 1216,1319 1216,1320 1216,1321 1216,1322 1216,1322 1216,1323 1216,1324 1216,1325 1216,1326 1216,1327 1216,1328 1216,1329 1216,1330 "/>
    <polygon class="fil1" points="1216,1302 974,1423 974,1422 974,1421 974,1421 974,1420 974,1420 974,1419 974,1418 974,1418 974,1417 974,1416 974,1416 974,1415 974,1414 974,1414 974,1413 974,1413 974,1412 974,1411 974,1411 974,1410 974,1409 974,1409 974,1408 974,1408 974,1407 974,1406 974,1406 974,1405 974,1404 974,1404 974,1403 974,1402 1216,1277 1216,1277 1216,1278 1216,1279 1216,1280 1216,1281 1216,1281 1216,1282 1216,1283 1216,1284 1216,1285 1216,1285 1216,1286 1216,1287 1216,1288 1216,1289 1216,1289 1216,1290 1216,1291 1216,1292 1216,1292 1216,1293 1216,1294 1216,1295 1216,1296 1216,1296 1216,1297 1216,1298 1216,1299 1216,1300 1216,1300 1216,1301 "/>
    <polygon class="fil1" points="1216,1277 974,1402 974,1402 974,1402 974,1402 973,1402 973,1401 973,1401 973,1401 973,1401 972,1401 972,1400 972,1400 972,1400 972,1400 972,1400 971,1399 971,1399 971,1399 971,1399 971,1398 970,1398 970,1398 970,1398 970,1398 970,1397 969,1397 969,1397 969,1397 969,1397 969,1396 968,1396 968,1396 968,1396 1209,1268 1209,1269 1209,1269 1209,1269 1210,1269 1210,1270 1210,1270 1210,1270 1211,1270 1211,1271 1211,1271 1211,1271 1212,1271 1212,1272 1212,1272 1212,1272 1212,1272 1213,1273 1213,1273 1213,1273 1213,1273 1214,1274 1214,1274 1214,1274 1214,1275 1215,1275 1215,1275 1215,1275 1215,1276 1216,1276 1216,1276 1216,1276 "/>
    <polygon class="fil1" points="1209,1345 968,1458 964,1459 1203,1347 "/>
    <polygon class="fil1" points="1203,1347 964,1459 963,1460 962,1460 960,1461 959,1461 958,1462 957,1462 956,1462 954,1463 953,1463 952,1464 951,1464 950,1465 948,1465 947,1466 946,1466 945,1467 944,1467 942,1468 941,1468 940,1469 939,1469 938,1470 937,1470 935,1471 934,1471 933,1471 932,1472 931,1472 929,1473 928,1473 927,1474 926,1474 1156,1367 1157,1366 1159,1365 1160,1365 1162,1364 1163,1364 1165,1363 1166,1362 1168,1362 1169,1361 1171,1361 1172,1360 1174,1359 1175,1359 1177,1358 1178,1358 1180,1357 1181,1356 1183,1356 1184,1355 1186,1355 1187,1354 1189,1353 1190,1353 1192,1352 1193,1352 1195,1351 1196,1350 1197,1350 1199,1349 1200,1349 1202,1348 "/>
    <polygon class="fil1" points="1156,1367 926,1474 920,1476 1149,1369 "/>
    <polygon class="fil1" points="1149,1369 920,1477 916,1478 1144,1371 "/>
    <polygon class="fil1" points="1144,1371 916,1478 915,1479 914,1479 913,1480 911,1480 910,1480 909,1481 908,1481 907,1482 905,1482 904,1483 903,1483 902,1484 901,1484 899,1485 898,1485 897,1486 896,1486 895,1487 894,1487 892,1488 891,1488 890,1488 889,1489 888,1489 886,1490 885,1490 884,1491 883,1491 882,1492 880,1492 879,1493 878,1493 1096,1390 1097,1389 1099,1389 1100,1388 1102,1388 1103,1387 1105,1387 1106,1386 1108,1385 1109,1385 1111,1384 1112,1384 1114,1383 1115,1382 1117,1382 1118,1381 1120,1381 1121,1380 1123,1379 1124,1379 1126,1378 1127,1378 1129,1377 1130,1377 1132,1376 1133,1375 1135,1375 1136,1374 1138,1374 1139,1373 1141,1372 1142,1372 "/>
    <polygon class="fil1" points="1096,1390 878,1493 869,1497 1085,1394 "/>
    <polygon class="fil1" points="1085,1394 869,1497 869,1497 1085,1394 "/>
    <polygon class="fil1" points="1085,1394 869,1497 868,1497 1084,1395 "/>
    <polygon class="fil1" points="1084,1395 868,1497 865,1498 862,1499 859,1500 856,1501 853,1503 850,1504 847,1505 844,1506 841,1507 838,1508 835,1509 833,1511 830,1512 827,1513 824,1514 821,1515 818,1516 815,1517 812,1518 809,1520 806,1521 803,1522 800,1523 797,1524 794,1525 791,1526 788,1527 785,1528 782,1530 779,1531 776,1532 773,1533 964,1440 968,1438 972,1437 976,1436 979,1434 983,1433 987,1431 991,1430 994,1429 998,1427 1002,1426 1006,1424 1009,1423 1013,1422 1017,1420 1020,1419 1024,1417 1028,1416 1032,1415 1035,1413 1039,1412 1043,1410 1047,1409 1050,1408 1054,1406 1058,1405 1062,1403 1065,1402 1069,1400 1073,1399 1076,1398 1080,1396 "/>
    <polygon class="fil1" points="964,1440 773,1533 767,1535 958,1442 "/>
    <polygon class="fil1" points="958,1442 767,1535 766,1535 956,1443 "/>
    <polygon class="fil1" points="956,1443 766,1535 764,1536 953,1444 "/>
    <polygon class="fil1" points="953,1444 764,1536 764,1536 953,1444 "/>
    <polygon class="fil1" points="953,1444 764,1536 763,1536 952,1444 "/>
    <polygon class="fil1" points="952,1444 763,1536 760,1537 757,1538 754,1539 751,1540 748,1542 745,1543 742,1544 739,1545 736,1546 733,1547 730,1548 727,1549 724,1550 721,1551 718,1552 715,1553 712,1554 709,1555 706,1556 703,1557 700,1558 697,1559 694,1560 691,1561 688,1562 685,1563 682,1564 679,1565 676,1566 673,1567 670,1568 667,1569 833,1484 836,1483 840,1482 844,1481 848,1480 851,1478 855,1477 859,1476 863,1475 866,1473 870,1472 874,1471 878,1470 881,1468 885,1467 889,1466 893,1465 896,1463 900,1462 904,1461 908,1459 911,1458 915,1457 919,1456 923,1454 926,1453 930,1452 934,1450 937,1449 941,1448 945,1447 949,1445 "/>
    <polygon class="fil1" points="833,1484 667,1569 659,1571 822,1488 "/>
    <polygon class="fil1" points="822,1488 659,1571 659,1571 822,1488 "/>
    <polygon class="fil1" points="822,1488 659,1571 658,1572 821,1488 "/>
    <polygon class="fil1" points="821,1488 658,1572 655,1573 652,1573 649,1574 646,1575 643,1576 640,1577 637,1578 634,1579 631,1580 628,1581 625,1582 622,1582 619,1583 616,1584 613,1585 610,1586 607,1587 604,1588 601,1588 598,1589 595,1590 592,1591 589,1592 586,1593 583,1594 580,1594 577,1595 574,1596 571,1597 568,1598 565,1599 562,1599 701,1523 705,1522 708,1521 712,1520 716,1519 720,1518 723,1517 727,1516 731,1514 735,1513 738,1512 742,1511 746,1510 750,1509 753,1508 757,1507 761,1506 765,1505 768,1504 772,1503 776,1502 780,1500 783,1499 787,1498 791,1497 795,1496 798,1495 802,1494 806,1493 809,1492 813,1490 817,1489 "/>
    <polygon class="fil1" points="701,1523 562,1599 554,1602 691,1526 "/>
    <polygon class="fil1" points="691,1526 554,1602 554,1602 691,1526 "/>
    <polygon class="fil1" points="691,1526 554,1602 552,1602 689,1526 "/>
    <polygon class="fil1" points="689,1526 552,1602 551,1602 550,1603 549,1603 548,1603 546,1603 545,1604 544,1604 543,1604 542,1605 540,1605 539,1605 538,1606 537,1606 536,1606 534,1607 533,1607 532,1607 531,1608 530,1608 528,1608 527,1608 526,1609 525,1609 524,1609 522,1610 521,1610 520,1610 519,1611 518,1611 516,1611 515,1611 514,1612 641,1538 643,1538 644,1538 646,1537 647,1537 649,1536 650,1536 652,1536 653,1535 655,1535 656,1534 658,1534 659,1534 661,1533 662,1533 664,1533 665,1532 667,1532 668,1531 670,1531 671,1531 673,1530 674,1530 676,1529 677,1529 679,1529 680,1528 682,1528 683,1528 685,1527 686,1527 688,1526 "/>
    <polygon class="fil1" points="641,1538 514,1612 506,1614 631,1541 "/>
    <polygon class="fil1" points="631,1541 506,1614 506,1605 631,1530 "/>
    <polygon class="fil1" points="955,1291 765,1414 765,1413 765,1412 765,1411 765,1410 765,1409 765,1408 765,1408 765,1407 765,1406 765,1405 765,1404 765,1403 765,1402 765,1401 765,1400 765,1399 765,1398 765,1398 765,1397 765,1396 765,1395 765,1394 765,1393 765,1392 765,1391 765,1390 765,1389 765,1388 765,1387 765,1387 765,1386 765,1385 955,1254 955,1256 955,1257 955,1258 955,1259 955,1260 955,1261 955,1262 955,1264 955,1265 955,1266 955,1267 955,1268 955,1269 955,1270 955,1272 955,1273 955,1274 955,1275 955,1276 955,1277 955,1278 955,1280 955,1281 955,1282 955,1283 955,1284 955,1285 955,1286 955,1288 955,1289 955,1290 "/>
    <polygon class="fil1" points="824,1272 660,1399 660,1399 824,1272 "/>
    <polygon class="fil1" points="764,1366 612,1474 612,1472 612,1470 612,1468 612,1466 612,1464 612,1462 612,1460 612,1458 612,1456 612,1454 612,1452 612,1450 613,1448 613,1446 613,1444 613,1442 613,1440 613,1438 613,1436 613,1434 613,1432 613,1430 613,1428 613,1426 613,1424 613,1422 613,1420 613,1418 613,1416 613,1414 613,1412 613,1410 765,1286 765,1289 765,1291 765,1294 765,1296 765,1299 765,1301 765,1304 765,1306 764,1309 764,1311 764,1314 764,1316 764,1319 764,1321 764,1324 764,1326 764,1329 764,1331 764,1334 764,1336 764,1339 764,1341 764,1344 764,1346 764,1349 764,1351 764,1354 764,1356 764,1359 764,1361 764,1364 "/>
    <polygon class="fil1" points="623,1543 500,1615 495,1616 617,1544 "/>
    <polygon class="fil1" points="895,1320 717,1437 717,1437 717,1437 717,1437 716,1437 716,1437 716,1437 716,1437 716,1437 715,1437 715,1438 715,1438 715,1438 715,1438 715,1438 714,1438 714,1438 714,1438 714,1438 714,1438 713,1438 713,1438 713,1438 713,1438 713,1438 712,1438 712,1438 712,1438 712,1438 712,1438 711,1438 711,1438 711,1438 887,1322 888,1322 888,1322 888,1321 888,1321 889,1321 889,1321 889,1321 889,1321 890,1321 890,1321 890,1321 890,1321 890,1321 891,1321 891,1321 891,1321 891,1321 892,1321 892,1321 892,1321 892,1321 893,1320 893,1320 893,1320 893,1320 894,1320 894,1320 894,1320 894,1320 895,1320 895,1320 "/>
    <polygon class="fil1" points="1086,1255 870,1385 870,1384 870,1383 870,1382 870,1382 870,1381 870,1380 870,1379 870,1378 870,1377 870,1376 870,1376 870,1375 870,1374 870,1373 870,1372 870,1371 870,1371 870,1370 870,1369 870,1368 870,1367 870,1366 870,1365 870,1365 870,1364 870,1363 870,1362 870,1361 870,1360 870,1360 870,1359 870,1358 1086,1221 1086,1222 1086,1223 1086,1224 1086,1225 1086,1226 1086,1227 1086,1228 1086,1229 1086,1230 1086,1231 1086,1233 1086,1234 1086,1235 1086,1236 1086,1237 1086,1238 1086,1239 1086,1240 1086,1241 1086,1242 1086,1243 1086,1244 1086,1245 1086,1246 1086,1247 1086,1248 1086,1249 1086,1250 1086,1252 1086,1253 1086,1254 "/>
    <polygon class="fil1" points="1086,1221 870,1358 870,1353 1086,1215 "/>
    <polygon class="fil1" points="895,1360 717,1469 717,1468 717,1467 717,1466 717,1465 717,1464 717,1463 717,1462 717,1461 717,1460 717,1459 717,1458 717,1457 717,1456 717,1455 717,1454 717,1453 717,1452 717,1451 717,1450 717,1449 717,1448 717,1447 717,1446 717,1445 717,1444 717,1443 717,1442 717,1441 717,1440 717,1439 717,1438 717,1437 895,1320 895,1321 895,1322 895,1324 895,1325 895,1326 895,1327 895,1329 895,1330 895,1331 895,1332 895,1334 895,1335 895,1336 895,1337 895,1339 895,1340 895,1341 895,1342 895,1344 895,1345 895,1346 895,1347 895,1349 895,1350 895,1351 895,1352 895,1354 895,1355 895,1356 895,1357 895,1359 "/>
    <polygon class="fil1" points="763,1440 612,1534 612,1532 612,1530 612,1528 612,1526 612,1524 612,1522 612,1521 612,1519 612,1517 612,1515 612,1513 612,1511 612,1509 612,1508 612,1506 612,1504 612,1502 612,1500 612,1498 612,1496 612,1495 612,1493 612,1491 612,1489 612,1487 612,1485 612,1484 612,1482 612,1480 612,1478 612,1476 612,1474 764,1366 764,1369 764,1371 764,1373 764,1376 764,1378 764,1380 764,1383 764,1385 763,1387 763,1390 763,1392 763,1394 763,1397 763,1399 763,1401 763,1403 763,1406 763,1408 763,1410 763,1413 763,1415 763,1417 763,1420 763,1422 763,1424 763,1427 763,1429 763,1431 763,1434 763,1436 763,1438 "/>
    <polygon class="fil1" points="631,1530 506,1605 506,1604 506,1603 506,1602 506,1601 506,1600 506,1599 506,1597 506,1596 506,1595 506,1594 506,1593 506,1592 506,1591 506,1589 506,1588 506,1587 506,1586 506,1585 506,1584 506,1583 506,1581 506,1580 506,1579 506,1578 506,1577 506,1576 506,1574 506,1573 506,1572 506,1571 506,1570 506,1569 632,1484 632,1486 632,1487 632,1489 632,1490 632,1492 632,1493 631,1495 631,1496 631,1497 631,1499 631,1500 631,1502 631,1503 631,1505 631,1506 631,1507 631,1509 631,1510 631,1512 631,1513 631,1515 631,1516 631,1518 631,1519 631,1520 631,1522 631,1523 631,1525 631,1526 631,1528 631,1529 "/>
    <polygon class="fil1" points="500,1571 401,1638 401,1630 500,1561 "/>
    <polygon class="fil1" points="500,1561 401,1630 401,1629 401,1628 401,1628 401,1627 401,1626 401,1625 401,1624 401,1623 401,1623 401,1622 401,1621 401,1620 401,1619 401,1619 401,1618 401,1617 401,1616 401,1615 401,1615 401,1614 401,1613 401,1612 401,1611 400,1610 400,1610 400,1609 400,1608 400,1607 400,1606 400,1606 400,1605 400,1604 499,1529 499,1530 499,1531 499,1532 499,1533 499,1534 499,1535 499,1536 499,1537 499,1538 499,1539 499,1540 499,1541 499,1542 499,1543 499,1544 499,1545 499,1546 499,1547 499,1548 500,1549 500,1550 500,1551 500,1552 500,1553 500,1554 500,1555 500,1556 500,1557 500,1558 500,1559 500,1560 "/>
    <polygon class="fil1" points="499,1529 400,1604 400,1604 400,1604 400,1604 399,1604 399,1604 399,1604 399,1604 398,1604 398,1604 398,1604 398,1604 397,1604 397,1604 397,1605 397,1605 396,1605 494,1529 494,1529 495,1529 495,1529 495,1529 496,1529 496,1529 496,1529 496,1529 497,1529 497,1529 497,1529 498,1529 498,1529 498,1529 499,1529 "/>
    <polygon class="fil1" points="492,1572 395,1639 390,1640 486,1574 "/>
    <polygon class="fil1" points="486,1574 390,1640 389,1640 387,1641 386,1641 385,1641 384,1641 383,1641 381,1642 380,1642 379,1642 378,1642 377,1643 375,1643 374,1643 373,1643 372,1644 371,1644 369,1644 368,1644 367,1645 366,1645 365,1645 363,1645 362,1646 361,1646 360,1646 359,1646 357,1647 356,1647 355,1647 354,1647 353,1647 351,1648 438,1583 439,1583 441,1583 442,1582 444,1582 445,1582 447,1581 448,1581 450,1581 451,1581 453,1580 454,1580 456,1580 457,1579 459,1579 460,1579 462,1578 463,1578 465,1578 466,1578 468,1577 469,1577 471,1577 472,1576 474,1576 475,1576 477,1575 478,1575 480,1575 481,1575 483,1574 484,1574 "/>
    <polygon class="fil1" points="438,1583 351,1648 347,1649 432,1584 "/>
    <polygon class="fil1" points="432,1584 347,1649 342,1650 426,1585 "/>
    <polygon class="fil1" points="426,1585 342,1650 339,1650 336,1651 333,1651 330,1652 327,1652 324,1653 321,1653 318,1654 315,1654 312,1655 309,1656 306,1656 303,1657 300,1657 297,1658 294,1658 291,1659 288,1659 285,1660 282,1660 279,1661 276,1661 273,1662 270,1662 267,1663 264,1663 261,1664 258,1664 255,1665 252,1665 249,1666 246,1666 307,1606 310,1606 314,1605 318,1605 321,1604 325,1603 329,1603 333,1602 336,1601 340,1601 344,1600 348,1600 351,1599 355,1598 359,1598 363,1597 366,1596 370,1596 374,1595 377,1594 381,1594 385,1593 389,1592 392,1592 396,1591 400,1590 404,1590 407,1589 411,1588 415,1588 418,1587 422,1586 "/>
    <polygon class="fil1" points="307,1606 246,1666 242,1667 301,1607 "/>
    <polygon class="fil1" points="301,1607 242,1667 242,1667 301,1607 "/>
    <polygon class="fil1" points="301,1607 242,1667 239,1668 297,1608 "/>
    <polygon class="fil1" points="297,1608 239,1668 239,1668 297,1608 "/>
    <polygon class="fil1" points="297,1608 239,1668 237,1668 295,1608 "/>
    <polygon class="fil1" points="295,1608 237,1668 236,1668 234,1668 233,1668 232,1669 231,1669 230,1669 228,1669 227,1669 226,1669 225,1670 224,1670 223,1670 221,1670 220,1670 219,1671 218,1671 217,1671 215,1671 214,1671 213,1671 212,1672 211,1672 209,1672 208,1672 207,1672 206,1673 205,1673 203,1673 202,1673 201,1673 200,1673 199,1674 247,1616 248,1615 250,1615 251,1615 253,1615 254,1614 256,1614 257,1614 259,1614 260,1614 262,1613 263,1613 265,1613 266,1613 268,1612 269,1612 271,1612 272,1612 274,1612 275,1611 277,1611 278,1611 280,1611 281,1610 283,1610 284,1610 286,1610 287,1610 289,1609 290,1609 292,1609 293,1609 "/>
    <polygon class="fil1" points="247,1616 199,1674 192,1675 238,1617 "/>
    <polygon class="fil1" points="238,1617 192,1675 191,1667 238,1608 "/>
    <polygon class="fil1" points="238,1608 191,1667 191,1666 191,1665 191,1664 191,1663 191,1662 191,1661 191,1659 191,1658 191,1657 191,1656 191,1655 191,1654 191,1653 191,1652 191,1650 191,1649 191,1648 191,1647 191,1646 191,1645 191,1644 191,1643 191,1641 191,1640 191,1639 191,1638 191,1637 191,1636 191,1635 191,1633 191,1632 191,1631 237,1563 237,1564 237,1565 237,1567 237,1568 237,1570 237,1571 237,1572 237,1574 237,1575 237,1577 237,1578 237,1580 237,1581 237,1582 237,1584 237,1585 237,1587 237,1588 237,1589 237,1591 237,1592 237,1594 237,1595 237,1596 237,1598 238,1599 238,1601 238,1602 238,1604 238,1605 238,1606 "/>
    <polygon class="fil1" points="237,1563 191,1631 190,1631 190,1631 190,1631 190,1631 189,1631 189,1631 189,1631 189,1631 188,1631 188,1631 188,1631 188,1631 187,1631 187,1632 187,1632 187,1632 232,1563 232,1563 233,1563 233,1563 233,1563 233,1563 234,1563 234,1563 234,1563 235,1563 235,1563 235,1563 236,1563 236,1563 236,1563 236,1563 "/>
    <polygon class="fil1" points="230,1618 185,1676 180,1676 223,1619 "/>
    <polygon class="fil1" points="223,1619 180,1676 178,1676 177,1677 176,1677 175,1677 174,1677 172,1677 171,1677 170,1678 169,1678 168,1678 166,1678 165,1678 164,1678 163,1678 162,1679 160,1679 159,1679 158,1679 157,1679 156,1679 155,1680 153,1680 152,1680 151,1680 150,1680 149,1680 147,1680 146,1681 145,1681 144,1681 143,1681 141,1681 175,1625 177,1625 178,1625 180,1625 181,1624 183,1624 184,1624 186,1624 187,1624 189,1623 190,1623 192,1623 193,1623 195,1623 196,1622 198,1622 199,1622 201,1622 202,1622 204,1621 205,1621 207,1621 208,1621 210,1621 211,1620 213,1620 214,1620 216,1620 217,1620 219,1620 220,1619 221,1619 "/>
    <polygon class="fil1" points="175,1625 141,1681 134,1682 166,1626 "/>
    <polygon class="fil1" points="166,1626 134,1682 134,1682 166,1626 "/>
    <polygon class="fil1" points="166,1626 134,1682 132,1682 163,1627 "/>
    <polygon class="fil1" points="163,1627 132,1682 131,1682 129,1683 128,1683 127,1683 126,1683 125,1683 123,1683 122,1683 121,1684 120,1684 119,1684 117,1684 116,1684 115,1684 114,1684 113,1685 112,1685 110,1685 109,1685 108,1685 107,1685 106,1685 104,1685 103,1686 102,1686 101,1686 100,1686 98,1686 97,1686 96,1686 95,1686 94,1687 116,1632 117,1632 119,1632 120,1631 122,1631 123,1631 125,1631 126,1631 128,1631 129,1630 130,1630 132,1630 133,1630 135,1630 136,1630 138,1629 139,1629 141,1629 142,1629 144,1629 145,1629 147,1628 148,1628 150,1628 151,1628 153,1628 154,1628 156,1627 157,1627 159,1627 160,1627 162,1627 "/>
    <polygon class="fil1" points="116,1632 94,1687 86,1687 107,1633 "/>
    <polygon class="fil1" points="107,1633 86,1687 87,1680 107,1624 "/>
    <polygon class="fil1" points="107,1624 87,1680 87,1678 87,1676 87,1674 87,1673 87,1671 87,1669 87,1667 87,1665 87,1663 87,1661 87,1659 87,1657 87,1655 87,1654 87,1652 87,1650 87,1648 87,1646 87,1644 87,1642 87,1640 87,1638 87,1636 87,1635 87,1633 87,1631 87,1629 87,1627 87,1625 87,1623 87,1621 88,1619 108,1548 108,1550 108,1552 108,1555 108,1557 108,1560 108,1562 108,1564 108,1567 108,1569 107,1571 107,1574 107,1576 107,1579 107,1581 107,1583 107,1586 107,1588 107,1591 107,1593 107,1595 107,1598 107,1600 107,1602 107,1605 107,1607 107,1610 107,1612 107,1614 107,1617 107,1619 107,1621 "/>
    <polygon class="fil1" points="108,1548 88,1619 88,1618 88,1617 88,1615 88,1614 88,1613 88,1611 88,1610 88,1609 88,1607 88,1606 88,1605 88,1604 88,1602 88,1601 88,1600 88,1598 88,1597 88,1596 88,1594 88,1593 88,1592 88,1590 88,1589 88,1588 88,1586 88,1585 88,1584 88,1583 88,1581 88,1580 88,1579 88,1577 109,1495 109,1497 109,1498 109,1500 109,1502 109,1503 109,1505 109,1507 109,1508 109,1510 109,1512 109,1513 109,1515 109,1517 109,1518 109,1520 109,1521 109,1523 108,1525 108,1526 108,1528 108,1530 108,1531 108,1533 108,1535 108,1536 108,1538 108,1540 108,1541 108,1543 108,1544 108,1546 "/>
    <polygon class="fil1" points="109,1495 88,1577 88,1578 88,1578 88,1578 88,1578 87,1579 87,1579 87,1579 87,1579 87,1580 86,1580 86,1580 86,1580 86,1581 86,1581 85,1581 85,1581 85,1581 85,1582 85,1582 84,1582 84,1582 84,1583 84,1583 84,1583 83,1583 83,1584 83,1584 83,1584 83,1584 82,1585 82,1585 82,1585 101,1505 101,1505 102,1504 102,1504 102,1504 102,1504 103,1503 103,1503 103,1503 103,1502 104,1502 104,1502 104,1501 104,1501 105,1501 105,1500 105,1500 105,1500 106,1500 106,1499 106,1499 106,1499 107,1498 107,1498 107,1498 107,1497 108,1497 108,1497 108,1496 108,1496 108,1496 109,1496 "/>
    <polygon class="fil1" points="99,1634 80,1688 75,1689 92,1634 "/>
    <polygon class="fil1" points="92,1634 75,1689 73,1689 72,1689 71,1689 70,1689 69,1689 67,1689 66,1689 65,1689 64,1690 63,1690 61,1690 60,1690 59,1690 58,1690 57,1690 55,1690 54,1690 53,1691 52,1691 51,1691 50,1691 48,1691 47,1691 46,1691 45,1691 44,1691 42,1691 41,1692 40,1692 39,1692 38,1692 36,1692 44,1639 46,1638 47,1638 49,1638 50,1638 52,1638 53,1638 54,1638 56,1638 57,1637 59,1637 60,1637 62,1637 63,1637 65,1637 66,1637 68,1636 69,1636 71,1636 72,1636 74,1636 75,1636 77,1636 78,1636 80,1635 81,1635 83,1635 84,1635 86,1635 87,1635 89,1635 90,1634 "/>
    <polygon class="fil1" points="44,1639 36,1692 29,1693 35,1639 "/>
    <polygon class="fil1" points="35,1639 29,1693 29,1685 35,1630 "/>
    <polygon class="fil1" points="35,1630 29,1685 30,1680 30,1675 30,1670 30,1664 30,1659 30,1654 30,1649 30,1643 30,1638 30,1633 30,1628 30,1622 31,1617 31,1612 31,1607 31,1601 31,1596 31,1591 31,1586 31,1580 31,1575 31,1570 31,1565 31,1559 32,1554 32,1549 32,1544 32,1538 32,1533 32,1528 32,1523 32,1517 39,1420 39,1427 38,1433 38,1440 38,1447 38,1453 38,1460 38,1466 38,1473 38,1479 38,1486 38,1493 37,1499 37,1506 37,1512 37,1519 37,1525 37,1532 37,1539 37,1545 37,1552 37,1558 36,1565 36,1571 36,1578 36,1584 36,1591 36,1598 36,1604 36,1611 36,1617 35,1624 "/>
    <polygon class="fil1" points="39,1420 32,1517 32,1512 32,1507 32,1502 32,1496 32,1491 33,1486 33,1481 33,1475 33,1470 33,1465 33,1460 33,1454 33,1449 33,1444 33,1439 33,1433 34,1428 34,1423 34,1418 34,1412 34,1407 34,1402 34,1397 34,1391 34,1386 34,1381 34,1376 34,1370 35,1365 35,1360 35,1355 35,1349 42,1210 42,1217 42,1223 42,1230 42,1236 42,1243 41,1250 41,1256 41,1263 41,1269 41,1276 41,1282 41,1289 41,1296 41,1302 40,1309 40,1315 40,1322 40,1328 40,1335 40,1342 40,1348 40,1355 40,1361 39,1368 39,1374 39,1381 39,1388 39,1394 39,1401 39,1407 39,1414 "/>
    <polygon class="fil1" points="42,1210 35,1349 35,1341 42,1200 "/>
    <polygon class="fil1" points="110,1378 90,1483 90,1482 90,1480 90,1478 90,1476 90,1474 90,1473 90,1471 90,1469 90,1467 90,1465 90,1463 90,1462 90,1460 90,1458 90,1456 90,1454 90,1452 90,1451 90,1449 90,1447 90,1445 90,1443 90,1441 90,1440 90,1438 90,1436 91,1434 91,1432 91,1431 91,1429 91,1427 91,1425 112,1305 112,1307 112,1309 112,1312 112,1314 112,1316 112,1319 112,1321 112,1323 111,1325 111,1328 111,1330 111,1332 111,1335 111,1337 111,1339 111,1341 111,1344 111,1346 111,1348 111,1351 111,1353 111,1355 111,1357 111,1360 111,1362 111,1364 111,1367 111,1369 111,1371 111,1373 111,1376 "/>
    <polygon class="fil1" points="112,1305 91,1425 91,1423 91,1421 91,1419 91,1417 91,1416 91,1414 91,1412 91,1410 91,1408 91,1406 91,1404 91,1402 91,1400 91,1398 91,1397 91,1395 91,1393 91,1391 91,1389 91,1387 91,1385 91,1383 91,1381 91,1380 91,1378 91,1376 91,1374 91,1372 91,1370 91,1368 91,1366 91,1364 113,1229 113,1231 113,1234 113,1236 113,1238 113,1241 113,1243 113,1246 113,1248 113,1250 113,1253 113,1255 113,1257 112,1260 112,1262 112,1265 112,1267 112,1269 112,1272 112,1274 112,1276 112,1279 112,1281 112,1284 112,1286 112,1288 112,1291 112,1293 112,1295 112,1298 112,1300 112,1303 "/>
    <polygon class="fil1" points="113,1229 91,1364 91,1356 113,1219 "/>
    <polygon class="fil1" points="172,1483 139,1567 139,1566 139,1565 139,1563 139,1562 139,1561 139,1559 140,1558 140,1557 140,1555 140,1554 140,1553 140,1551 140,1550 140,1549 140,1547 140,1546 140,1545 140,1544 140,1542 140,1541 140,1540 140,1538 140,1537 141,1536 141,1534 141,1533 141,1532 141,1530 141,1529 141,1528 141,1526 141,1525 175,1430 175,1431 175,1433 175,1435 175,1436 174,1438 174,1440 174,1441 174,1443 174,1445 174,1446 174,1448 174,1450 174,1451 174,1453 174,1455 174,1456 174,1458 173,1460 173,1461 173,1463 173,1465 173,1466 173,1468 173,1469 173,1471 173,1473 173,1474 173,1476 173,1478 173,1479 173,1481 "/>
    <polygon class="fil1" points="175,1430 141,1525 141,1520 141,1516 142,1511 142,1506 142,1502 142,1497 143,1493 143,1488 143,1483 143,1479 143,1474 144,1469 144,1465 144,1460 144,1456 145,1451 145,1446 145,1442 145,1437 146,1432 146,1428 146,1423 146,1419 146,1414 147,1409 147,1405 147,1400 147,1395 148,1391 148,1386 148,1382 148,1377 184,1245 184,1251 183,1256 183,1262 183,1268 182,1274 182,1280 182,1285 182,1291 181,1297 181,1303 181,1308 180,1314 180,1320 180,1326 180,1332 179,1337 179,1343 179,1349 178,1355 178,1360 178,1366 178,1372 177,1378 177,1384 177,1389 176,1395 176,1401 176,1407 176,1412 175,1418 175,1424 "/>
    <polygon class="fil1" points="184,1245 148,1377 149,1370 184,1235 "/>
    <polygon class="fil1" points="434,1468 348,1555 349,1554 349,1553 349,1552 349,1551 349,1550 349,1549 349,1548 349,1547 349,1546 349,1545 349,1544 349,1543 349,1542 349,1541 349,1540 349,1539 349,1538 349,1537 349,1536 349,1535 350,1534 350,1533 350,1532 350,1531 350,1530 350,1529 350,1528 350,1527 350,1526 350,1525 350,1525 350,1524 436,1428 436,1429 436,1430 436,1432 436,1433 436,1434 436,1435 436,1437 436,1438 436,1439 436,1440 435,1442 435,1443 435,1444 435,1445 435,1447 435,1448 435,1449 435,1450 435,1451 435,1453 435,1454 435,1455 435,1456 435,1458 435,1459 435,1460 434,1461 434,1463 434,1464 434,1465 434,1466 "/>
    <polygon class="fil1" points="436,1428 350,1524 350,1520 350,1516 351,1513 351,1509 351,1505 351,1502 351,1498 352,1494 352,1491 352,1487 352,1484 352,1480 353,1476 353,1473 353,1469 353,1465 353,1462 354,1458 354,1454 354,1451 354,1447 354,1444 355,1440 355,1436 355,1433 355,1429 355,1425 356,1422 356,1418 356,1414 356,1411 356,1407 444,1283 444,1287 444,1292 443,1296 443,1301 443,1305 443,1310 442,1314 442,1319 442,1323 442,1328 441,1333 441,1337 441,1342 441,1346 440,1351 440,1355 440,1360 440,1364 439,1369 439,1373 439,1378 439,1383 438,1387 438,1392 438,1396 438,1401 437,1405 437,1410 437,1414 437,1419 436,1423 "/>
    <polygon class="fil1" points="444,1283 356,1407 357,1401 445,1274 "/>
    <polygon class="fil1" points="371,1384 298,1489 299,1478 372,1371 "/>
    <polygon class="fil1" points="372,1371 299,1478 299,1478 299,1477 299,1477 299,1477 299,1476 299,1476 299,1475 299,1475 299,1475 299,1474 299,1474 299,1473 299,1473 299,1473 299,1472 299,1472 299,1471 299,1471 299,1471 299,1470 299,1470 299,1469 299,1469 299,1469 299,1468 299,1468 299,1467 299,1467 299,1466 299,1466 299,1466 299,1465 372,1355 372,1356 372,1356 372,1357 372,1357 372,1358 372,1358 372,1359 372,1359 372,1360 372,1360 372,1361 372,1361 372,1362 372,1362 372,1363 372,1363 372,1364 372,1364 372,1365 372,1365 372,1366 372,1366 372,1367 372,1367 372,1368 372,1368 372,1369 372,1369 372,1370 372,1370 372,1371 "/>
    <polygon class="fil1" points="301,1369 242,1476 242,1473 242,1471 242,1468 242,1466 242,1463 242,1461 242,1458 242,1456 242,1453 242,1450 242,1448 242,1445 242,1443 242,1440 242,1438 242,1435 242,1433 242,1430 242,1427 242,1425 242,1422 242,1420 243,1417 243,1415 243,1412 243,1410 243,1407 243,1404 243,1402 243,1399 243,1397 243,1394 302,1266 302,1270 302,1273 302,1276 302,1279 302,1282 302,1286 302,1289 302,1292 302,1295 302,1298 302,1302 302,1305 302,1308 301,1311 301,1314 301,1317 301,1321 301,1324 301,1327 301,1330 301,1333 301,1337 301,1340 301,1343 301,1346 301,1349 301,1353 301,1356 301,1359 301,1362 301,1365 "/>
    <polygon class="fil1" points="302,1266 243,1394 243,1387 302,1257 "/>
    <polygon class="fil1" points="436,1355 350,1465 346,1467 431,1357 "/>
    <polygon class="fil1" points="431,1357 346,1467 345,1467 344,1468 342,1468 341,1469 340,1469 339,1470 338,1470 336,1471 335,1471 334,1472 333,1473 332,1473 330,1474 329,1474 328,1475 327,1475 326,1476 324,1476 323,1477 322,1477 321,1478 320,1479 318,1479 317,1480 316,1480 315,1481 314,1481 312,1482 311,1482 310,1483 309,1484 308,1484 383,1379 385,1378 386,1377 388,1377 389,1376 391,1375 392,1375 394,1374 395,1373 397,1373 398,1372 400,1371 401,1370 403,1370 404,1369 406,1368 407,1368 409,1367 410,1366 412,1366 413,1365 414,1364 416,1364 417,1363 419,1362 420,1362 422,1361 423,1360 425,1359 426,1359 428,1358 429,1357 "/>
    <polygon class="fil1" points="383,1379 308,1484 298,1489 371,1384 "/>
    <polygon class="fil1" points="299,1479 240,1565 240,1558 299,1471 "/>
    <polygon class="fil1" points="372,1355 299,1465 299,1465 298,1465 298,1465 298,1465 298,1465 298,1465 298,1465 297,1465 297,1465 297,1465 297,1465 297,1465 296,1465 296,1465 296,1465 296,1465 296,1465 295,1465 295,1465 295,1465 295,1465 295,1465 294,1465 294,1465 294,1465 294,1465 294,1465 293,1465 293,1465 293,1465 293,1465 293,1465 364,1355 365,1355 365,1355 365,1355 365,1355 366,1355 366,1355 366,1355 366,1355 367,1355 367,1355 367,1355 367,1355 368,1355 368,1355 368,1355 368,1355 369,1355 369,1355 369,1355 369,1355 369,1355 370,1355 370,1355 370,1355 370,1355 371,1355 371,1355 371,1355 371,1355 372,1355 372,1355 "/>
    <polygon class="fil1" points="299,1471 240,1558 241,1555 241,1553 241,1550 241,1547 241,1545 241,1542 241,1540 241,1537 241,1535 241,1532 241,1530 241,1527 241,1524 241,1522 241,1519 241,1517 241,1514 241,1512 241,1509 241,1507 241,1504 241,1501 241,1499 241,1496 241,1494 241,1491 241,1489 241,1486 241,1484 241,1481 242,1478 242,1476 301,1369 300,1372 300,1375 300,1378 300,1381 300,1384 300,1388 300,1391 300,1394 300,1397 300,1400 300,1404 300,1407 300,1410 300,1413 300,1416 300,1420 300,1423 300,1426 300,1429 300,1432 300,1436 300,1439 299,1442 299,1445 299,1448 299,1452 299,1455 299,1458 299,1461 299,1464 299,1468 "/>
    <polygon class="fil1" points="370,1508 297,1587 297,1586 297,1586 297,1585 297,1584 297,1583 297,1582 297,1582 297,1581 297,1580 297,1579 297,1578 297,1578 297,1577 297,1576 297,1575 297,1574 297,1574 297,1573 297,1572 297,1571 297,1570 297,1570 297,1569 297,1568 297,1567 298,1566 298,1566 298,1565 298,1564 298,1563 298,1562 298,1562 370,1476 370,1477 370,1478 370,1479 370,1480 370,1481 370,1482 370,1483 370,1484 370,1485 370,1486 370,1487 370,1488 370,1489 370,1490 370,1491 370,1492 370,1493 370,1494 370,1495 370,1496 370,1497 370,1498 370,1499 370,1500 370,1501 370,1502 370,1503 370,1504 370,1505 370,1506 370,1507 "/>
    <polygon class="fil1" points="370,1476 298,1562 296,1562 294,1562 293,1562 291,1562 290,1562 288,1562 287,1562 285,1562 283,1562 282,1562 280,1563 279,1563 277,1563 276,1563 274,1563 272,1563 271,1563 269,1563 268,1563 266,1563 265,1563 263,1563 261,1564 260,1564 258,1564 257,1564 255,1564 254,1564 252,1564 250,1564 249,1564 247,1564 308,1479 310,1479 311,1479 313,1479 315,1478 317,1478 319,1478 321,1478 323,1478 325,1478 327,1478 329,1478 331,1478 333,1478 335,1477 337,1477 339,1477 341,1477 343,1477 345,1477 347,1477 349,1477 351,1477 353,1477 355,1476 357,1476 359,1476 361,1476 363,1476 365,1476 367,1476 369,1476 "/>
    <polygon class="fil1" points="308,1479 247,1564 240,1565 299,1479 "/>
    <polygon class="fil1" points="561,1461 450,1550 450,1549 450,1548 450,1547 450,1546 450,1545 450,1544 450,1543 450,1542 450,1540 450,1539 450,1538 450,1537 450,1536 450,1535 450,1534 450,1533 450,1532 450,1531 450,1530 450,1529 450,1528 450,1527 450,1526 450,1525 450,1524 450,1523 450,1521 450,1520 450,1519 450,1518 450,1517 450,1516 561,1419 561,1420 561,1421 561,1423 561,1424 561,1425 561,1427 561,1428 561,1429 561,1431 561,1432 561,1433 561,1435 561,1436 561,1437 561,1439 561,1440 561,1441 561,1443 561,1444 561,1445 561,1447 561,1448 561,1449 561,1450 561,1452 561,1453 561,1454 561,1456 561,1457 561,1458 561,1460 "/>
    <polygon class="fil1" points="634,1308 508,1428 508,1427 508,1427 508,1426 508,1426 508,1425 508,1425 508,1425 508,1424 508,1424 508,1423 508,1423 508,1423 508,1422 508,1422 508,1421 508,1421 508,1421 508,1420 508,1420 508,1419 508,1419 508,1418 508,1418 508,1418 508,1417 508,1417 508,1416 508,1416 508,1416 508,1415 508,1415 508,1414 634,1292 634,1292 634,1293 634,1293 634,1294 634,1294 634,1295 634,1295 634,1296 634,1296 634,1297 634,1297 634,1298 634,1298 634,1299 634,1299 634,1300 634,1300 634,1301 634,1301 634,1302 634,1302 634,1303 634,1303 634,1304 634,1304 634,1305 634,1305 634,1306 634,1306 634,1307 634,1307 "/>
    <polygon class="fil1" points="563,1290 451,1413 451,1407 563,1282 "/>
    <polygon class="fil1" points="634,1292 508,1414 508,1408 634,1283 "/>
    <polygon class="fil1" points="561,1419 450,1516 450,1513 450,1510 450,1507 450,1503 450,1500 450,1497 450,1494 450,1490 450,1487 450,1484 450,1481 451,1478 451,1474 451,1471 451,1468 451,1465 451,1461 451,1458 451,1455 451,1452 451,1449 451,1445 451,1442 451,1439 451,1436 451,1432 451,1429 451,1426 451,1423 451,1420 451,1416 451,1413 563,1290 563,1294 563,1298 563,1302 563,1306 563,1310 562,1314 562,1318 562,1322 562,1326 562,1330 562,1334 562,1338 562,1342 562,1346 562,1350 562,1354 562,1358 562,1362 562,1367 562,1371 562,1375 562,1379 562,1383 561,1387 561,1391 561,1395 561,1399 561,1403 561,1407 561,1411 561,1415 "/>
    <polygon class="fil1" points="617,1544 495,1616 494,1617 493,1617 491,1617 490,1618 489,1618 488,1618 487,1618 485,1619 484,1619 483,1619 482,1620 481,1620 479,1620 478,1620 477,1621 476,1621 475,1621 473,1622 472,1622 471,1622 470,1622 469,1623 467,1623 466,1623 465,1624 464,1624 463,1624 461,1624 460,1625 459,1625 458,1625 457,1625 569,1555 571,1555 572,1555 574,1554 575,1554 577,1554 578,1553 580,1553 581,1553 583,1552 584,1552 586,1552 587,1551 589,1551 590,1551 592,1550 593,1550 595,1550 596,1549 598,1549 599,1548 601,1548 602,1548 604,1547 605,1547 607,1547 608,1546 610,1546 611,1546 613,1545 614,1545 616,1545 "/>
    <polygon class="fil1" points="632,1484 506,1569 506,1568 507,1567 507,1565 507,1564 507,1563 507,1562 507,1561 507,1560 507,1559 507,1558 507,1557 507,1555 507,1554 507,1553 507,1552 507,1551 507,1550 507,1549 507,1548 507,1547 507,1546 507,1544 507,1543 507,1542 507,1541 507,1540 507,1539 507,1538 507,1537 507,1536 507,1534 507,1533 632,1440 632,1442 632,1443 632,1444 632,1446 632,1447 632,1449 632,1450 632,1451 632,1453 632,1454 632,1456 632,1457 632,1458 632,1460 632,1461 632,1462 632,1464 632,1465 632,1467 632,1468 632,1469 632,1471 632,1472 632,1473 632,1475 632,1476 632,1478 632,1479 632,1480 632,1482 632,1483 "/>
    <polygon class="fil1" points="765,1286 613,1410 613,1404 765,1279 "/>
    <polygon class="fil1" points="632,1440 507,1533 507,1533 507,1533 506,1532 506,1532 506,1531 506,1531 506,1530 506,1530 505,1530 505,1529 505,1529 505,1528 505,1528 504,1528 504,1527 504,1527 504,1526 504,1526 503,1525 503,1525 503,1525 503,1524 503,1524 503,1523 502,1523 502,1522 502,1522 502,1522 502,1521 501,1521 501,1520 501,1520 625,1424 625,1424 625,1425 626,1425 626,1426 626,1426 626,1427 626,1427 627,1428 627,1428 627,1429 627,1429 628,1430 628,1430 628,1431 628,1431 629,1432 629,1432 629,1433 629,1434 630,1434 630,1435 630,1435 630,1436 630,1436 631,1437 631,1437 631,1438 631,1438 632,1439 632,1439 632,1440 "/>
    <polygon class="fil1" points="559,1558 449,1627 447,1628 557,1558 "/>
    <polygon class="fil1" points="955,1254 765,1385 765,1380 955,1248 "/>
    <polygon class="fil1" points="557,1558 447,1628 446,1628 445,1628 443,1628 442,1629 441,1629 440,1629 439,1630 438,1630 436,1630 435,1630 434,1631 433,1631 432,1631 430,1631 429,1632 428,1632 427,1632 426,1632 424,1633 423,1633 422,1633 421,1633 420,1634 418,1634 417,1634 416,1634 415,1635 414,1635 412,1635 411,1635 410,1636 409,1636 510,1569 511,1568 513,1568 514,1568 516,1567 517,1567 519,1567 520,1566 522,1566 523,1566 525,1565 526,1565 528,1565 529,1564 531,1564 532,1564 534,1563 535,1563 537,1563 538,1562 539,1562 541,1562 542,1561 544,1561 545,1561 547,1560 548,1560 550,1560 551,1559 553,1559 554,1559 556,1558 "/>
    <polygon class="fil1" points="510,1569 409,1636 401,1638 500,1571 "/>
    <polygon class="fil1" points="1026,1361 822,1470 822,1469 822,1468 822,1467 822,1466 822,1465 822,1464 822,1463 822,1462 822,1461 822,1460 822,1459 822,1458 822,1457 822,1456 822,1455 822,1454 822,1453 822,1452 822,1451 822,1450 822,1449 822,1448 822,1447 822,1446 822,1445 822,1444 822,1443 822,1442 822,1441 822,1440 822,1439 822,1438 1026,1321 1026,1323 1026,1324 1026,1325 1026,1326 1026,1327 1026,1329 1026,1330 1026,1331 1026,1332 1026,1334 1026,1335 1026,1336 1026,1337 1026,1339 1026,1340 1026,1341 1026,1342 1026,1344 1026,1345 1026,1346 1026,1347 1026,1349 1026,1350 1026,1351 1026,1352 1026,1353 1026,1355 1026,1356 1026,1357 1026,1358 1026,1360 "/>
    <polygon class="fil1" points="569,1555 457,1625 449,1627 559,1558 "/>
    <polygon class="fil1" points="559,1558 449,1627 449,1627 559,1558 "/>
    <polygon class="fil1" points="1026,1321 822,1438 822,1437 822,1436 822,1436 822,1435 822,1434 822,1433 822,1432 822,1431 822,1430 822,1429 822,1429 822,1428 822,1427 822,1426 822,1425 822,1424 822,1423 822,1423 822,1422 822,1421 822,1420 822,1419 822,1418 822,1417 822,1417 822,1416 822,1415 822,1414 822,1413 822,1412 822,1411 822,1410 1026,1287 1026,1288 1026,1289 1026,1290 1026,1291 1026,1292 1026,1293 1026,1294 1026,1295 1026,1296 1026,1297 1026,1299 1026,1300 1026,1301 1026,1302 1026,1303 1026,1304 1026,1305 1026,1306 1026,1307 1026,1308 1026,1309 1026,1310 1026,1312 1026,1313 1026,1314 1026,1315 1026,1316 1026,1317 1026,1318 1026,1319 1026,1320 "/>
    <polygon class="fil1" points="1026,1287 822,1410 822,1410 822,1411 821,1411 821,1411 821,1411 821,1411 821,1411 820,1411 820,1411 820,1411 820,1411 820,1411 820,1411 819,1411 819,1411 819,1411 819,1411 819,1411 818,1411 818,1412 818,1412 818,1412 818,1412 817,1412 817,1412 817,1412 817,1412 817,1412 816,1412 816,1412 816,1412 816,1412 1018,1289 1019,1289 1019,1289 1019,1289 1019,1289 1020,1288 1020,1288 1020,1288 1020,1288 1021,1288 1021,1288 1021,1288 1021,1288 1022,1288 1022,1288 1022,1288 1022,1288 1022,1288 1023,1288 1023,1288 1023,1287 1023,1287 1024,1287 1024,1287 1024,1287 1024,1287 1025,1287 1025,1287 1025,1287 1025,1287 1026,1287 1026,1287 "/>
    <polygon class="fil1" points="894,1404 717,1504 717,1503 717,1502 717,1501 717,1500 717,1499 717,1498 717,1497 717,1496 717,1495 717,1493 717,1492 717,1491 717,1490 717,1489 717,1488 717,1487 717,1486 717,1485 717,1483 717,1482 717,1481 717,1480 717,1479 717,1478 717,1477 717,1476 717,1475 717,1473 717,1472 717,1471 717,1470 717,1469 895,1360 895,1361 895,1363 895,1364 895,1365 895,1367 895,1368 895,1370 895,1371 895,1372 895,1374 895,1375 895,1377 895,1378 895,1379 895,1381 895,1382 895,1383 895,1385 894,1386 894,1388 894,1389 894,1390 894,1392 894,1393 894,1395 894,1396 894,1397 894,1399 894,1400 894,1401 894,1403 "/>
   </g>
   <path class="fil1" d="M1149 1197l2 -1c16,-5 32,-9 47,-14l6 -2 3 4c3,4 6,8 9,11 0,-4 1,-8 1,-13l0 -6 5 -2c16,-4 32,-9 48,-14l10 -3 0 10c0,24 0,48 0,72 0,24 0,48 0,72l0 6 -5 2c-16,6 -32,13 -48,19l-11 4 0 -12c0,-9 0,-18 0,-28 0,-8 0,-17 0,-25 -2,-3 -5,-6 -7,-9 0,9 0,17 0,26 0,15 0,31 0,46l0 5 -6 2c-15,7 -31,13 -47,20l-7 2 0 0 -5 2c-16,7 -32,13 -48,19l-11 4 0 0 -1 1c-40,15 -80,30 -120,45l-6 2 0 0 -2 1 -3 1 0 0 -1 0c-39,14 -79,27 -119,40l-11 4 0 0 -1 0c-40,12 -80,24 -120,35l-10 3 0 0 -2 0c-16,4 -32,8 -48,12l-10 3 0 -11c0,-15 0,-30 1,-46 0,-14 0,-29 0,-44 -2,-5 -5,-11 -7,-16 0,12 0,25 -1,37 0,25 0,50 -1,75l0 7 -6 1c-16,4 -32,8 -48,11l-10 3 0 0 -2 0c-16,4 -31,7 -47,11l-10 2 0 -10c0,-11 -1,-22 -1,-32 -2,0 -3,0 -5,0 -1,13 -1,25 -2,37l0 6 -6 2c-16,3 -32,6 -48,9l-6 1 0 0 -6 1c-40,8 -80,15 -119,21l-6 1 0 0 0 0 -4 1 0 0 -2 0c-16,3 -32,5 -48,8l-9 1 0 -9c-1,-15 -1,-30 -1,-45 -2,0 -3,0 -5,0 -1,16 -2,32 -2,48l0 7 -7 1c-16,2 -32,4 -48,6l-9 1 0 0 -3 1c-16,1 -32,3 -47,5l-9 1 0 -9c0,-26 0,-51 1,-76 0,-18 1,-35 1,-53 -3,3 -5,7 -8,10 0,20 -1,40 -1,60 -1,20 -1,41 -1,61l0 8 -7 0c-16,2 -32,3 -48,5l-9 0 0 -9c1,-70 3,-140 4,-210 1,-70 2,-140 3,-210l0 -10 10 3c16,4 32,8 47,12l6 2 0 6c0,31 0,62 -1,93 0,24 -1,47 -1,71 2,-3 5,-6 7,-9 1,-24 1,-49 2,-73 0,-25 1,-51 1,-76l0 -10 10 2c15,4 31,8 47,11l6 2 0 6c-1,63 -2,126 -3,189 0,18 0,36 -1,54 1,-18 2,-36 3,-53 3,-62 6,-123 9,-185l0 -10 9 2c32,7 63,12 95,18l6 1 0 7c2,56 3,113 4,169 0,28 1,57 2,85l2 -2c16,-10 32,-19 49,-29l12 -7 0 14c0,5 -1,10 -1,15 3,0 6,0 8,0 0,-11 0,-22 0,-32 -20,1 -41,2 -62,3l-9 0 0 -8c1,-34 1,-68 2,-102 0,-35 1,-69 1,-103l0 -9 9 1c39,6 79,11 118,15l8 1 -1 7c0,23 0,46 0,69l0 5 -5 2c-16,7 -32,14 -48,22l-12 5 1 -13c0,-5 0,-10 0,-16 -2,0 -5,0 -8,0 0,11 0,21 0,32 21,0 42,0 63,0l8 0 0 8c0,24 -1,48 -1,73 1,-14 1,-27 2,-40 3,-48 6,-97 8,-145l1 -9 8 1c31,2 63,5 94,6l8 1 0 7c2,44 3,88 4,131 1,14 1,27 2,41 0,-14 0,-28 0,-42 1,-43 1,-86 2,-129l0 -8 8 0c16,1 32,1 47,1l6 0 2 5c2,7 5,13 8,20 0,-6 0,-11 0,-16l0 -9 8 1c16,0 32,-1 47,-1l9 0 0 0 3 0c16,-1 32,-2 47,-3l9 -1 0 9c0,28 -1,55 -1,82 0,24 0,48 -1,72 3,0 6,-1 8,-2 0,-24 0,-49 1,-74 0,-26 0,-53 1,-80l0 -7 7 -1c16,-2 31,-3 47,-5l5 -1 0 0 7 -1c28,-4 55,-9 83,-14l4 -1 3 3c11,11 22,21 34,32 0,-12 0,-24 0,-37l0 -6 6 -1c28,-7 56,-14 83,-21l4 -1 3 3c12,9 23,18 35,27 0,-12 0,-23 0,-34l0 -6 6 -2c15,-4 31,-9 47,-13l10 -3 0 0zm-262 210c2,-1 5,-2 7,-3 0,-15 1,-29 1,-44 0,-13 0,-27 0,-40 -3,1 -5,1 -8,2 0,15 0,29 0,44 0,14 0,27 0,41zm131 -43c2,-1 5,-2 8,-3 0,-13 0,-27 0,-40 0,-11 0,-23 0,-34 -2,0 -5,1 -8,2 0,13 0,27 0,40 0,11 0,23 0,35z"/>
   <path class="fil2" d="M93 1502c0,21 -1,42 -1,62 -1,21 -1,42 -1,62 -16,2 -32,3 -48,5 1,-70 3,-141 4,-211 1,-70 2,-140 3,-210 16,5 31,9 47,13 0,31 0,62 -1,93 -1,31 -1,62 -2,93 8,-9 16,-19 24,-28 1,-25 1,-51 2,-76 0,-25 1,-51 1,-76 16,4 31,8 47,11 -1,63 -2,126 -3,189 -1,63 -2,126 -3,190 -16,1 -31,3 -47,5 0,-25 0,-51 1,-76 1,-25 1,-51 1,-76 -8,10 -16,20 -24,30zm131 54c-1,18 -1,37 -2,55 -16,2 -32,4 -48,6 3,-62 6,-125 9,-187 3,-62 6,-123 9,-185 31,7 63,12 94,18 2,57 3,113 4,170 1,56 2,112 3,167 -16,3 -31,5 -47,8 -1,-18 -1,-36 -1,-54 -7,0 -14,1 -21,2zm20 -83c-1,-23 -1,-45 -2,-68 0,-23 -1,-45 -1,-68 -2,0 -4,-1 -7,-1 -1,23 -2,46 -3,68 -1,23 -2,46 -3,69 5,0 10,0 16,0zm136 -125c-8,-1 -16,-1 -23,-2 -1,17 -1,33 -1,49 23,0 47,0 71,0 -1,31 -1,61 -1,91 0,31 -1,61 -2,92 -39,7 -79,14 -119,21 0,-26 1,-52 2,-77 15,-10 32,-20 48,-29 -1,8 -1,16 -1,24 8,-1 16,-1 24,-2 0,-16 0,-32 1,-48 -24,1 -48,3 -72,4 1,-34 1,-68 2,-102 0,-34 1,-68 1,-103 39,6 79,11 118,15 0,23 0,46 0,68 -16,8 -32,15 -48,22 0,-7 0,-15 0,-23zm106 174c-1,15 -1,29 -2,44 -16,3 -32,6 -48,9 3,-49 6,-98 8,-147 3,-48 6,-97 8,-145 32,2 63,5 95,6 2,44 3,88 4,132 2,43 3,86 5,129 -16,4 -32,7 -48,11 -1,-14 -1,-28 -1,-42 -7,1 -14,2 -21,3zm19 -66c0,-17 -1,-35 -1,-53 -1,-17 -1,-35 -2,-52 -2,-1 -4,-1 -7,-1 -1,18 -2,36 -3,54 -1,18 -1,36 -2,54 5,-1 10,-1 15,-2zm112 -70c0,25 0,50 -1,75 0,25 0,50 -1,75 -16,4 -32,8 -47,12 0,-43 1,-86 1,-129 1,-43 1,-86 2,-129 16,1 31,1 47,1 8,19 16,38 24,56 0,-19 0,-37 0,-55 16,0 32,0 47,-1 0,38 0,76 -1,114 0,38 -1,75 -1,113 -16,4 -32,9 -48,13 0,-16 0,-31 1,-46 0,-16 0,-31 0,-46 -7,-18 -15,-35 -23,-53zm82 129c0,-37 1,-75 1,-112 0,-37 1,-75 1,-112 16,-1 32,-2 48,-3 0,28 -1,55 -1,82 0,28 0,55 -1,83 8,-2 16,-4 24,-6 0,-27 0,-54 1,-80 0,-27 1,-54 1,-81 15,-2 31,-3 47,-5 0,33 0,66 -1,100 0,33 0,66 -1,99 -40,13 -79,24 -119,35zm179 -98c8,-2 16,-4 24,-7 1,-17 1,-33 1,-50 0,-17 0,-33 0,-50 -8,2 -16,3 -24,5 0,17 0,34 0,51 0,17 0,34 -1,51zm-48 60c0,-33 1,-66 1,-99 0,-33 1,-66 1,-99 28,-4 56,-9 83,-14 12,11 24,23 36,34 0,22 -1,45 -1,68 0,23 0,46 0,69 -40,14 -80,28 -120,41zm180 -102c8,-3 16,-6 24,-8 0,-15 0,-31 0,-46 0,-15 0,-30 0,-45 -8,2 -16,5 -24,7 0,15 0,30 0,46 0,15 0,31 0,46zm-48 57c0,-29 0,-59 0,-89 0,-29 1,-59 1,-88 28,-7 55,-14 83,-21 12,10 24,19 36,28 0,21 0,42 -1,63 0,20 0,41 0,62 -40,16 -80,31 -119,45zm179 -225c0,26 0,53 0,79 0,26 0,52 0,78 -16,6 -32,12 -48,19 0,-27 0,-54 0,-81 0,-27 1,-54 1,-81 16,-4 32,-9 47,-14zm60 40c0,16 0,31 0,47 0,15 -1,31 -1,46 -16,6 -31,13 -47,19 0,-26 0,-52 0,-78 0,-25 0,-51 0,-77 16,-5 32,-10 48,-15 8,10 16,19 23,27 0,-11 1,-22 1,-34 15,-5 31,-10 47,-15 0,24 0,48 0,72 0,24 0,48 0,72 -16,7 -32,13 -48,19 0,-9 0,-18 0,-28 0,-9 0,-19 0,-29 -8,-8 -16,-17 -23,-26z"/>
   <g>
    <polygon class="fil1" points="389,1295 318,1314 312,1314 381,1295 "/>
    <polygon class="fil1" points="381,1295 312,1314 311,1314 311,1314 310,1314 310,1314 309,1314 309,1314 308,1314 308,1314 307,1314 307,1314 306,1314 306,1314 305,1314 305,1314 304,1314 304,1314 303,1314 303,1314 302,1314 302,1314 301,1314 301,1314 300,1314 299,1314 299,1314 298,1314 298,1314 297,1314 297,1314 296,1314 296,1314 295,1314 361,1295 361,1295 362,1295 363,1295 363,1295 364,1295 365,1295 365,1295 366,1295 366,1295 367,1295 368,1295 368,1295 369,1295 370,1295 370,1295 371,1295 372,1295 372,1295 373,1295 374,1295 374,1295 375,1295 376,1295 376,1295 377,1295 377,1295 378,1295 379,1295 379,1295 380,1295 381,1295 "/>
    <polygon class="fil1" points="361,1295 295,1314 287,1314 350,1295 "/>
    <polygon class="fil1" points="350,1295 287,1314 287,1314 286,1314 286,1314 285,1314 285,1314 284,1314 284,1314 284,1314 283,1314 283,1314 282,1314 282,1314 281,1314 281,1314 281,1314 280,1314 280,1314 279,1314 279,1314 278,1314 278,1314 278,1314 277,1314 277,1314 276,1314 276,1314 275,1314 275,1314 275,1314 274,1314 274,1314 273,1314 333,1295 334,1295 334,1295 335,1295 335,1295 336,1295 336,1295 337,1295 337,1295 338,1295 338,1295 339,1295 340,1295 340,1295 341,1295 341,1295 342,1295 342,1295 343,1295 343,1295 344,1295 344,1295 345,1295 345,1295 346,1295 347,1295 347,1295 348,1295 348,1295 349,1295 349,1295 350,1295 "/>
    <polygon class="fil1" points="333,1295 273,1314 266,1314 324,1295 "/>
    <polygon class="fil1" points="324,1295 266,1314 266,1314 265,1314 265,1314 264,1314 264,1314 263,1314 263,1314 262,1314 262,1314 261,1314 261,1314 260,1314 260,1314 259,1314 259,1314 258,1314 258,1314 257,1314 257,1314 256,1314 256,1314 255,1314 255,1314 254,1314 253,1314 253,1314 252,1314 252,1314 251,1314 251,1314 250,1314 250,1314 304,1295 304,1295 305,1295 306,1295 306,1295 307,1295 308,1295 308,1295 309,1295 310,1295 310,1295 311,1295 312,1295 312,1295 313,1295 313,1295 314,1295 315,1295 315,1295 316,1295 317,1295 317,1295 318,1295 319,1295 319,1295 320,1295 321,1295 321,1295 322,1295 323,1295 323,1295 324,1295 "/>
    <polygon class="fil1" points="304,1295 250,1314 242,1314 293,1295 "/>
    <polygon class="fil1" points="293,1295 242,1314 241,1314 241,1314 240,1314 240,1314 239,1314 238,1314 238,1314 237,1314 237,1314 236,1314 236,1314 235,1314 235,1314 234,1314 234,1314 233,1314 233,1314 232,1314 232,1314 231,1314 231,1314 230,1314 230,1314 229,1314 229,1314 228,1314 228,1314 227,1314 227,1314 226,1314 226,1314 225,1314 273,1295 273,1295 274,1295 275,1295 275,1295 276,1295 277,1295 277,1295 278,1295 279,1295 279,1295 280,1295 281,1295 281,1295 282,1295 282,1295 283,1295 284,1295 284,1295 285,1295 286,1295 286,1295 287,1295 288,1295 288,1295 289,1295 290,1295 290,1295 291,1295 291,1295 292,1295 293,1295 "/>
    <polygon class="fil1" points="273,1295 225,1314 218,1314 264,1295 "/>
    <polygon class="fil1" points="264,1295 218,1314 219,1308 265,1287 "/>
    <polygon class="fil1" points="265,1287 219,1308 219,1306 219,1305 219,1304 219,1303 219,1302 219,1301 219,1299 219,1298 219,1297 219,1296 219,1295 219,1294 219,1292 220,1291 220,1290 220,1289 220,1288 220,1287 220,1285 220,1284 220,1283 220,1282 220,1281 220,1280 220,1278 220,1277 220,1276 220,1275 220,1274 221,1273 221,1271 221,1270 267,1240 267,1241 267,1243 267,1244 267,1246 267,1247 267,1249 267,1250 267,1252 267,1253 266,1254 266,1256 266,1257 266,1259 266,1260 266,1262 266,1263 266,1265 266,1266 266,1268 266,1269 266,1271 266,1272 265,1273 265,1275 265,1276 265,1278 265,1279 265,1281 265,1282 265,1284 265,1285 "/>
    <polygon class="fil1" points="267,1240 221,1270 221,1270 221,1269 221,1269 221,1268 221,1268 221,1267 221,1267 221,1266 221,1266 221,1266 221,1265 221,1265 221,1264 221,1264 221,1263 221,1263 221,1262 221,1262 221,1261 221,1261 221,1260 221,1260 221,1260 221,1259 221,1259 221,1258 221,1258 221,1257 221,1257 221,1256 221,1256 221,1255 268,1221 268,1222 268,1223 268,1223 268,1224 268,1224 268,1225 268,1225 268,1226 268,1227 268,1227 268,1228 268,1228 268,1229 268,1229 268,1230 268,1231 268,1231 268,1232 268,1232 268,1233 268,1234 268,1234 268,1235 268,1235 268,1236 267,1236 267,1237 267,1238 267,1238 267,1239 267,1239 "/>
    <polygon class="fil1" points="268,1221 221,1255 219,1255 265,1220 "/>
    <polygon class="fil1" points="265,1220 219,1255 219,1255 219,1255 219,1254 218,1254 218,1254 218,1254 218,1254 218,1254 218,1254 218,1254 218,1254 217,1254 217,1254 217,1254 217,1254 217,1254 217,1254 217,1254 217,1254 216,1254 216,1254 216,1254 216,1254 216,1254 216,1254 216,1254 216,1254 215,1253 215,1253 215,1253 215,1253 215,1253 260,1219 260,1219 260,1219 261,1219 261,1219 261,1219 261,1219 261,1219 261,1219 262,1219 262,1219 262,1219 262,1219 262,1219 262,1220 262,1220 263,1220 263,1220 263,1220 263,1220 263,1220 263,1220 264,1220 264,1220 264,1220 264,1220 264,1220 264,1220 265,1220 265,1220 265,1220 265,1220 "/>
    <polygon class="fil1" points="260,1295 215,1314 208,1314 252,1295 "/>
    <polygon class="fil1" points="252,1295 208,1314 208,1314 207,1314 207,1314 206,1314 206,1314 205,1314 205,1314 204,1314 204,1314 203,1314 203,1314 202,1314 202,1314 201,1314 201,1314 200,1314 200,1314 199,1314 199,1314 198,1314 198,1314 197,1314 197,1314 196,1314 196,1314 195,1314 195,1314 194,1314 193,1314 193,1314 192,1314 192,1314 231,1295 232,1295 233,1295 233,1295 234,1295 235,1295 235,1295 236,1295 237,1295 237,1295 238,1295 238,1295 239,1295 240,1295 240,1295 241,1295 242,1295 242,1295 243,1295 244,1295 244,1295 245,1295 246,1295 246,1295 247,1295 248,1295 248,1295 249,1295 249,1295 250,1295 251,1295 251,1295 "/>
    <polygon class="fil1" points="231,1295 192,1314 186,1314 223,1295 "/>
    <polygon class="fil1" points="223,1295 186,1314 186,1308 223,1287 "/>
    <polygon class="fil1" points="223,1287 186,1308 186,1307 186,1306 186,1305 186,1304 186,1303 186,1301 186,1300 186,1299 186,1298 186,1297 186,1296 186,1295 186,1294 186,1293 186,1292 186,1291 186,1290 186,1289 186,1288 186,1286 186,1285 186,1284 186,1283 186,1282 186,1281 186,1280 186,1279 186,1278 186,1277 186,1276 186,1275 186,1274 223,1244 223,1246 223,1247 223,1248 223,1250 223,1251 223,1252 223,1254 223,1255 223,1256 223,1258 223,1259 223,1260 223,1262 223,1263 223,1264 223,1266 223,1267 223,1268 223,1270 223,1271 223,1272 223,1274 223,1275 223,1276 223,1278 223,1279 223,1280 223,1282 223,1283 223,1284 223,1286 "/>
    <polygon class="fil1" points="223,1244 186,1274 186,1273 186,1272 186,1271 186,1270 186,1269 186,1268 186,1267 186,1266 186,1265 186,1264 186,1264 186,1263 186,1262 186,1261 186,1260 186,1259 186,1258 186,1257 186,1256 186,1255 186,1254 186,1253 186,1252 186,1252 186,1251 186,1250 186,1249 186,1248 186,1247 186,1246 186,1245 186,1244 223,1207 223,1209 223,1210 223,1211 223,1212 223,1213 223,1214 223,1215 223,1217 223,1218 223,1219 223,1220 223,1221 223,1222 223,1224 223,1225 223,1226 223,1227 223,1228 223,1229 223,1230 223,1232 223,1233 223,1234 223,1235 223,1236 223,1237 223,1238 223,1240 223,1241 223,1242 223,1243 "/>
    <polygon class="fil1" points="223,1207 186,1244 185,1244 185,1244 185,1244 185,1244 184,1244 184,1244 184,1244 184,1244 183,1244 183,1243 183,1243 183,1243 182,1243 182,1243 182,1243 182,1243 181,1243 181,1243 181,1243 181,1243 180,1243 180,1243 180,1243 180,1242 179,1242 179,1242 179,1242 179,1242 178,1242 178,1242 178,1242 178,1242 214,1204 214,1205 214,1205 214,1205 215,1205 215,1205 215,1205 216,1205 216,1205 216,1205 217,1205 217,1205 217,1206 218,1206 218,1206 218,1206 218,1206 219,1206 219,1206 219,1206 220,1206 220,1206 220,1206 221,1207 221,1207 221,1207 222,1207 222,1207 222,1207 222,1207 223,1207 223,1207 "/>
    <polygon class="fil1" points="214,1204 178,1242 173,1240 208,1203 "/>
    <polygon class="fil1" points="208,1203 173,1240 173,1236 208,1197 "/>
    <polygon class="fil1" points="208,1197 173,1236 173,1235 173,1234 173,1234 173,1233 173,1232 173,1232 173,1231 173,1230 173,1230 173,1229 173,1228 173,1228 173,1227 173,1226 173,1226 173,1225 173,1224 173,1224 173,1223 173,1222 173,1221 173,1221 173,1220 173,1219 173,1219 173,1218 173,1217 173,1217 173,1216 173,1215 173,1215 173,1214 208,1170 208,1171 208,1171 208,1172 208,1173 208,1174 208,1175 208,1176 208,1176 208,1177 208,1178 208,1179 208,1180 208,1181 208,1182 208,1182 208,1183 208,1184 208,1185 208,1186 208,1187 208,1187 208,1188 208,1189 208,1190 208,1191 208,1192 208,1193 208,1193 208,1194 208,1195 208,1196 "/>
    <polygon class="fil1" points="208,1170 173,1214 173,1205 208,1158 "/>
    <polygon class="fil1" points="151,1140 128,1191 128,1191 151,1140 "/>
    <polygon class="fil1" points="219,1295 182,1314 175,1314 211,1295 "/>
    <polygon class="fil1" points="211,1295 175,1314 174,1314 173,1314 172,1314 171,1314 169,1314 168,1314 167,1314 166,1314 164,1314 163,1314 162,1314 161,1314 160,1314 158,1314 157,1314 156,1314 155,1314 153,1314 152,1314 151,1314 150,1314 149,1314 147,1314 146,1314 145,1314 144,1314 142,1314 141,1314 140,1314 139,1314 138,1314 136,1314 162,1295 163,1295 165,1295 166,1295 168,1295 169,1295 171,1295 173,1295 174,1295 176,1295 177,1295 179,1295 180,1295 182,1295 183,1295 185,1295 186,1295 188,1295 189,1295 191,1295 192,1295 194,1295 195,1295 197,1295 198,1295 200,1295 202,1295 203,1295 205,1295 206,1295 208,1295 209,1295 "/>
    <polygon class="fil1" points="162,1295 136,1314 130,1314 154,1295 "/>
    <polygon class="fil1" points="154,1295 130,1314 129,1314 127,1314 126,1314 125,1314 124,1314 123,1314 121,1314 120,1314 119,1314 118,1314 116,1314 115,1314 114,1314 113,1314 112,1314 110,1314 109,1314 108,1314 107,1314 105,1314 104,1314 103,1314 102,1314 101,1314 99,1314 98,1314 97,1314 96,1314 94,1314 93,1314 92,1314 91,1314 105,1295 106,1295 108,1295 110,1295 111,1295 113,1295 114,1295 116,1295 117,1295 119,1295 120,1295 122,1295 123,1295 125,1295 126,1295 128,1295 129,1295 131,1295 132,1295 134,1295 135,1295 137,1295 139,1295 140,1295 142,1295 143,1295 145,1295 146,1295 148,1295 149,1295 151,1295 152,1295 "/>
    <polygon class="fil1" points="105,1295 91,1314 84,1314 97,1295 "/>
    <polygon class="fil1" points="97,1295 84,1314 83,1314 82,1314 80,1314 79,1314 78,1314 77,1314 75,1314 74,1314 73,1314 71,1314 70,1314 69,1314 68,1314 66,1314 65,1314 64,1314 62,1314 61,1314 60,1314 59,1314 57,1314 56,1314 55,1314 53,1314 52,1314 51,1314 49,1314 48,1314 47,1314 46,1314 44,1314 43,1314 45,1295 47,1295 48,1295 50,1295 52,1295 53,1295 55,1295 57,1295 58,1295 60,1295 61,1295 63,1295 65,1295 66,1295 68,1295 69,1295 71,1295 73,1295 74,1295 76,1295 78,1295 79,1295 81,1295 82,1295 84,1295 86,1295 87,1295 89,1295 90,1295 92,1295 94,1295 95,1295 "/>
    <polygon class="fil1" points="45,1295 43,1314 37,1314 37,1295 "/>
    <polygon class="fil1" points="37,1295 37,1314 37,1308 37,1287 "/>
    <polygon class="fil1" points="44,1226 42,1259 37,1258 37,1225 "/>
    <polygon class="fil1" points="37,1246 37,1275 37,1271 37,1241 "/>
    <polygon class="fil1" points="60,1229 55,1262 54,1262 54,1262 53,1262 53,1261 53,1261 52,1261 52,1261 51,1261 51,1261 51,1261 50,1261 50,1261 49,1261 49,1261 49,1261 48,1261 48,1261 47,1260 47,1260 47,1260 46,1260 46,1260 45,1260 45,1260 45,1260 44,1260 44,1260 43,1260 43,1260 43,1259 42,1259 42,1259 44,1226 44,1226 45,1227 45,1227 46,1227 46,1227 47,1227 47,1227 48,1227 48,1227 49,1227 49,1227 50,1228 50,1228 51,1228 51,1228 52,1228 52,1228 53,1228 53,1228 54,1228 54,1228 55,1228 55,1229 56,1229 56,1229 57,1229 57,1229 58,1229 58,1229 59,1229 59,1229 "/>
    <polygon class="fil1" points="37,1287 37,1308 37,1307 37,1306 37,1305 37,1304 37,1303 37,1302 37,1301 37,1300 37,1299 37,1298 37,1297 37,1296 37,1295 37,1293 37,1292 37,1291 37,1290 37,1289 37,1288 37,1287 37,1286 37,1285 37,1284 37,1283 37,1282 37,1281 37,1280 37,1279 37,1278 37,1277 37,1276 37,1275 37,1246 37,1247 37,1248 37,1250 37,1251 37,1252 37,1254 37,1255 37,1256 37,1257 37,1259 37,1260 37,1261 37,1263 37,1264 37,1265 37,1266 37,1268 37,1269 37,1270 37,1272 37,1273 37,1274 37,1275 37,1277 37,1278 37,1279 37,1281 37,1282 37,1283 37,1284 37,1286 "/>
    <polygon class="fil1" points="37,1225 37,1258 37,1253 37,1218 "/>
    <polygon class="fil1" points="37,1218 37,1253 37,1252 37,1250 37,1249 37,1248 37,1246 37,1245 37,1243 37,1242 37,1241 37,1239 37,1238 37,1237 37,1235 37,1234 37,1232 37,1231 37,1230 37,1228 37,1227 37,1226 37,1224 37,1223 37,1221 37,1220 37,1219 37,1217 37,1216 37,1215 37,1213 37,1212 37,1211 37,1209 37,1164 37,1165 37,1167 37,1169 37,1170 37,1172 37,1174 37,1176 37,1177 37,1179 37,1181 37,1182 37,1184 37,1186 37,1188 37,1189 37,1191 37,1193 37,1194 37,1196 37,1198 37,1200 37,1201 37,1203 37,1205 37,1206 37,1208 37,1210 37,1212 37,1213 37,1215 37,1217 "/>
    <polygon class="fil1" points="37,1164 37,1209 37,1208 37,1206 37,1205 37,1204 37,1202 37,1201 37,1200 37,1198 37,1197 37,1195 37,1194 37,1193 37,1191 37,1190 37,1189 37,1187 37,1186 37,1184 37,1183 37,1182 37,1180 37,1179 37,1178 37,1176 37,1175 37,1173 37,1172 37,1171 37,1169 37,1168 37,1167 37,1165 37,1109 37,1110 37,1112 37,1114 37,1116 37,1117 37,1119 37,1121 37,1122 37,1124 37,1126 37,1128 37,1129 37,1131 37,1133 37,1134 37,1136 37,1138 37,1140 37,1141 37,1143 37,1145 37,1146 37,1148 37,1150 37,1152 37,1153 37,1155 37,1157 37,1158 37,1160 37,1162 "/>
    <polygon class="fil1" points="37,1109 37,1165 37,1155 37,1096 "/>
    <polygon class="fil1" points="94,1177 82,1220 82,1220 82,1220 81,1220 81,1220 81,1220 81,1220 80,1220 80,1220 80,1220 79,1220 79,1220 79,1221 79,1221 78,1221 78,1221 78,1221 78,1221 77,1221 77,1221 77,1221 77,1221 76,1221 76,1221 76,1222 76,1222 75,1222 75,1222 75,1222 75,1222 74,1222 74,1222 74,1222 84,1180 84,1180 84,1180 85,1180 85,1179 85,1179 86,1179 86,1179 86,1179 87,1179 87,1179 87,1179 88,1179 88,1179 88,1178 89,1178 89,1178 89,1178 90,1178 90,1178 90,1178 90,1178 91,1178 91,1178 91,1177 92,1177 92,1177 92,1177 93,1177 93,1177 93,1177 94,1177 "/>
    <polygon class="fil1" points="94,1182 82,1224 82,1224 82,1224 82,1224 82,1224 82,1223 82,1223 82,1223 82,1223 82,1223 82,1223 82,1223 82,1222 82,1222 82,1222 82,1222 82,1222 82,1222 82,1222 82,1221 82,1221 82,1221 82,1221 82,1221 82,1221 82,1221 82,1220 82,1220 82,1220 82,1220 82,1220 82,1220 82,1220 94,1177 94,1177 94,1177 94,1177 94,1177 94,1178 94,1178 94,1178 94,1178 94,1178 94,1178 94,1179 94,1179 94,1179 94,1179 94,1179 94,1180 94,1180 94,1180 94,1180 94,1180 94,1180 94,1181 94,1181 94,1181 94,1181 94,1181 94,1182 94,1182 94,1182 94,1182 94,1182 "/>
   </g>
   <path class="fil1" d="M326 1204l6 1c6,2 13,3 20,4l3 1 0 0 6 1c7,0 14,1 21,1l7 0 0 8c0,11 0,22 0,33 0,12 0,23 0,34l0 8 -8 0c-7,0 -13,0 -20,0l-11 0c-5,0 -11,0 -17,0l-9 0c-6,0 -13,0 -20,0l-11 0c-6,0 -13,0 -20,0l-9 0 1 -8c1,-16 1,-32 2,-47 1,-6 1,-12 1,-19l-3 -1c-2,0 -3,-1 -5,-1 0,9 0,19 0,28 0,14 0,27 0,40l0 8 -8 0c-7,0 -14,0 -21,0l-8 0 0 -8c0,-14 0,-29 0,-43 0,-12 0,-24 0,-37 -3,-1 -6,-2 -9,-3l-6 -1 0 -6c0,-9 0,-18 0,-27l0 -12 11 4c17,7 34,14 52,21l5 2 0 0 5 2c13,6 27,11 41,15l4 2zm-175 -64l0 0 8 3 3 1 0 0c7,2 13,4 20,6l6 1 0 6c0,17 0,34 0,50 0,8 0,16 0,24 7,-3 14,-5 20,-7l11 -3 0 11c0,9 0,18 0,28 0,9 0,18 0,27l0 8 -8 0c-17,0 -33,0 -49,0l-8 0c-16,0 -33,0 -49,0l-8 0c-17,0 -35,0 -52,0l-8 0 0 -8c0,-14 0,-27 0,-41l0 -5 4 -2c7,-3 13,-7 19,-10 -6,-1 -11,-2 -16,-3l-7 -1 0 -7c0,-18 0,-36 0,-54 0,-19 0,-37 0,-55l0 -13 12 6c16,8 33,15 51,22l1 1 4 1c7,2 13,4 20,7l4 1 6 2c6,1 11,3 16,4zm-57 37c-3,1 -7,2 -10,3 3,1 7,2 10,2 0,-1 0,-3 0,-5z"/>
   <path class="fil2" d="M76 1161c-3,-1 -7,-2 -10,-3 0,8 0,17 0,26 10,2 21,5 31,7 0,16 0,32 0,48 0,16 0,32 0,48 -17,0 -35,0 -52,0 0,-14 0,-27 0,-41 7,-4 14,-7 21,-11 0,5 0,9 0,13 3,1 7,1 10,1 0,-8 0,-16 0,-25 -10,-2 -20,-3 -31,-6 0,-18 0,-36 0,-54 0,-19 0,-37 0,-55 17,8 35,16 52,23 0,12 0,23 0,35 -7,3 -14,5 -21,7 0,-4 0,-9 0,-13zm26 126c0,-26 0,-51 0,-77 0,-25 0,-51 0,-77 7,3 14,5 21,7 0,19 0,38 0,57 0,19 0,37 0,56 3,0 7,1 10,1 0,-18 0,-37 0,-55 0,-19 0,-37 0,-55 7,2 14,4 21,6 0,23 0,45 0,68 0,23 0,46 0,69 -17,0 -35,0 -52,0zm57 0c0,-23 0,-45 0,-68 0,-22 0,-45 0,-68 7,2 14,4 21,6 0,17 0,34 0,50 0,17 0,34 0,50 3,0 7,1 10,1 0,-7 0,-13 0,-20 7,-2 14,-4 21,-6 0,9 0,18 0,28 0,9 0,18 0,27 -18,0 -35,0 -52,0zm93 -79c0,13 0,26 0,39 0,14 0,27 0,40 -7,0 -14,0 -21,0 0,-14 0,-29 0,-43 0,-14 0,-28 0,-43 -5,-1 -10,-3 -15,-4 0,-9 0,-18 0,-27 17,6 34,13 52,20 0,8 0,15 0,23 -6,-2 -11,-4 -16,-5zm42 66c0,4 0,9 -1,13 -6,0 -13,0 -20,0 1,-16 1,-31 2,-47 1,-15 2,-30 3,-45 14,5 27,10 41,15 1,13 2,26 3,39 1,13 2,25 2,38 -6,0 -13,0 -20,0 0,-4 -1,-8 -1,-13 -3,0 -6,0 -9,0zm8 -19c0,-5 -1,-11 -1,-16 0,-6 -1,-11 -1,-16 -1,-1 -2,-1 -3,-1 0,5 -1,10 -1,16 0,5 0,11 -1,16 2,0 5,1 7,1zm48 -11c0,7 0,14 0,22 0,7 0,14 0,21 -7,0 -13,0 -20,0 0,-12 0,-25 0,-37 0,-13 0,-25 0,-37 7,1 13,3 20,4 4,6 7,12 11,17 0,-5 0,-10 0,-15 7,0 13,1 20,1 0,11 0,22 0,33 0,12 0,23 0,34 -7,0 -13,0 -20,0 0,-4 0,-9 0,-13 0,-5 0,-9 0,-13 -4,-6 -7,-11 -11,-17z"/>
   <path class="fil3" d="M840 482c0,2 10,27 11,32 0,1 3,17 -1,28 -8,23 -25,47 -25,47l14 31c0,0 -25,32 -26,32 -2,1 3,19 3,19l-10 31 6 118 -123 152c0,0 -310,-169 -308,-233 2,-64 146,-354 146,-354l313 97z"/>
   <path class="fil1" d="M714 900l-5 -37 8 -1c13,0 26,0 39,-1 9,0 18,0 26,0 3,0 7,0 10,1 4,0 7,1 9,4 1,1 2,2 3,3 2,2 4,4 6,5 5,5 11,10 17,15 5,5 10,9 16,13 2,2 7,5 10,6 17,6 41,18 48,35 1,2 4,5 5,7 3,4 7,9 11,13 10,11 20,21 31,31 9,10 19,20 30,29 4,3 8,7 12,10 3,2 6,4 9,6 9,5 18,13 27,19 5,4 26,22 32,23 5,0 11,-3 16,0 3,2 5,5 6,8 0,4 0,10 0,14 0,2 0,7 1,9 3,3 5,9 7,12 3,8 5,16 6,24 3,27 -8,49 -28,65 -17,13 -35,24 -54,33 -20,10 -40,18 -61,24 -17,4 -36,8 -53,8 -26,-1 -53,-2 -79,0 -8,0 -16,-1 -23,-2 -10,-1 -21,-4 -32,-7 -9,3 -18,6 -27,9 -21,6 -43,13 -65,18 -15,4 -30,8 -46,11 -12,2 -25,4 -37,4 -18,0 -35,1 -52,1 -18,0 -35,1 -52,2 -7,1 -14,1 -21,2 -4,0 -8,1 -12,2 -11,2 -28,-11 -36,-17 -15,-12 -30,-26 -44,-40 -12,-13 -49,-51 -54,-73 -11,-9 -22,-19 -32,-29 -8,-8 -17,-16 -24,-25 -10,-12 -21,-25 -31,-38 -7,-9 -14,-18 -22,-27 -2,-3 -5,-6 -8,-9 -2,-2 -4,-4 -5,-5 -8,-6 -8,-18 -8,-26 1,-11 4,-23 7,-33 2,-8 5,-17 9,-25 4,-10 3,-19 2,-30 -1,-8 -4,-20 3,-27 4,-4 18,-9 23,-12 13,-5 26,-10 39,-15 10,-5 43,-20 47,-32 4,-11 20,-18 30,-22 16,-5 33,-9 50,-13 17,-3 35,-6 53,-8 9,-2 17,-3 25,-3l2 -1 2 1c28,13 56,25 84,36 18,7 35,14 53,21 6,2 13,4 20,6 2,1 7,3 9,3 17,0 45,2 56,14 1,1 11,11 12,11z"/>
   <path class="fil4" d="M477 816c0,0 149,67 169,67 21,0 48,1 56,10 8,9 15,21 15,21l0 -44c0,0 76,-2 78,0 1,3 43,42 55,46 12,4 37,15 44,30 7,16 81,88 101,100 20,11 53,43 63,43 9,0 13,-3 14,2 1,5 -1,22 2,26 4,4 33,52 -13,90 -47,37 -123,64 -163,63 -40,-1 -60,-1 -80,0 -20,1 -54,-9 -54,-9 0,0 -129,42 -175,42 -47,0 -120,2 -139,7 -19,4 -125,-101 -125,-126 0,0 -40,-36 -57,-55 -16,-20 -57,-73 -68,-81 -10,-7 0,-48 11,-74 11,-25 -4,-47 3,-54 8,-8 103,-35 112,-62 9,-27 151,-42 151,-42z"/>
   <path class="fil5" d="M477 816c0,0 149,67 169,67 21,0 48,1 56,10 8,9 15,21 15,21l0 -44c0,0 13,0 28,0 7,32 14,60 15,79 1,19 32,105 32,105l-25 8c0,0 -14,-26 -30,-41 -15,-15 -22,-38 -30,-72 -7,-35 -26,-49 -52,-49 -25,0 -225,-63 -225,-63 0,-5 1,-11 5,-15 24,-4 42,-6 42,-6z"/>
   <path class="fil6" d="M478 813c1,1 148,66 168,66 11,0 23,1 33,2 11,2 21,5 25,10 4,4 7,8 10,12l0 -33 0 -3 3 0c0,0 13,0 28,-1l3 0 0 3c4,16 8,33 10,47 3,15 5,27 5,33 2,25 29,95 29,95l4 12 -33 11 -5 -17c0,0 -8,-12 -23,-27 -8,-7 -14,-17 -19,-30 -5,-12 -8,-26 -12,-43 -3,-16 -9,-28 -17,-35 -9,-8 -19,-12 -32,-12 -26,0 -225,-62 -226,-63l-2 0 0 -2c0,-4 0,-7 1,-10 1,-3 2,-6 4,-8l3 -1c23,-4 42,-6 42,-6l1 0zm168 73c-20,0 -158,-61 -170,-66 -3,0 -19,2 -39,5 -1,2 -2,3 -3,5 0,2 -1,3 -1,5 22,6 199,61 222,61 14,0 27,4 36,14 9,8 16,21 20,38 3,17 7,31 11,43 5,11 10,21 18,28 12,12 26,37 28,41l22 -7c-6,-16 -32,-81 -33,-104 -1,-6 -2,-17 -5,-31 -3,-14 -6,-29 -9,-45 -10,0 -18,0 -22,1l-2 46 -6 -10c0,0 -6,-6 -14,-15 -3,-3 -11,-6 -21,-7 -10,-2 -22,-2 -32,-2z"/>
   <path class="fil7" d="M602 524c0,0 -4,38 16,50 21,13 94,7 94,7 0,0 -6,-36 -37,-39 -32,-4 -73,-18 -73,-18z"/>
   <path class="fil0" d="M828 538c0,0 8,32 -25,49 0,0 -15,-9 -16,-17 -2,-8 -4,-10 6,-12 9,-2 35,-20 35,-20z"/>
   <path class="fil1" d="M635 580c5,1 11,1 17,2 14,-2 24,-13 24,-27 0,-5 -1,-10 -4,-14 -13,-1 -28,-5 -41,-8 -8,5 -13,13 -13,22 0,11 7,20 17,25z"/>
   <path class="fil7" d="M825 543c0,0 4,30 -24,46 0,0 -19,-13 -20,-20 -2,-8 2,-9 12,-11 9,-2 32,-15 32,-15z"/>
   <path class="fil0" d="M813 580c-3,3 -7,6 -12,9 0,0 -19,-13 -20,-20 -2,-8 2,-9 12,-11 3,-1 8,-3 13,-5 6,4 9,10 9,17 0,3 -1,7 -2,10z"/>
   <path class="fil8" d="M638 538c4,0 7,3 7,7 0,4 -3,7 -7,7 -5,0 -8,-3 -8,-7 0,-4 3,-7 8,-7z"/>
   <path class="fil7" d="M790 562c3,0 5,2 5,5 0,2 -2,4 -5,4 -3,0 -5,-2 -5,-4 0,-3 2,-5 5,-5z"/>
   <path class="fil0" d="M598 517c0,0 46,14 58,17 12,3 57,3 56,47 0,0 -8,-33 -31,-37 -24,-5 -65,-10 -78,-19 0,0 -2,23 8,40 9,16 34,16 72,18l-8 2c0,0 -46,4 -61,-5 -16,-8 -27,-38 -16,-63z"/>
   <path class="fil0" d="M774 545c0,0 9,5 21,-4 13,-9 55,-41 55,-41 0,0 27,17 10,58 0,0 -11,-21 -18,-21 -6,0 -34,19 -44,20 -10,1 -19,9 -21,14 0,0 -10,-5 -3,-26z"/>
   <path class="fil0" d="M769 530c0,0 3,20 -17,35l-5 -7c0,0 14,-2 22,-28z"/>
   <path class="fil0" d="M774 555c0,0 -3,18 4,24 7,7 15,9 15,17 1,8 7,48 10,53 3,4 12,25 7,35 -6,10 -26,2 -42,-7 -17,-8 -29,-2 -36,-1 -7,2 -14,0 -14,-7 0,-8 7,-24 19,-17 11,6 13,8 19,7 0,0 -10,-5 -14,-10 -4,-6 -18,-4 -26,3 -8,7 -8,32 11,31 18,-1 36,-5 53,4 17,10 31,6 35,-1 4,-8 -3,-33 -7,-44 -4,-10 -7,-53 -7,-53 0,0 -19,-15 -21,-27 -2,-13 -6,-7 -6,-7z"/>
   <path class="fil0" d="M717 678c0,0 -104,-32 -134,-52 0,0 -37,32 -67,36 0,0 25,37 56,30 31,-7 41,-27 73,-10 32,17 50,19 67,17 17,-2 46,4 55,10 0,0 8,-15 21,-13 13,1 24,-1 26,7 1,8 4,11 12,8 7,-2 36,-24 36,-24 0,0 -20,8 -26,2 -5,-7 0,-35 -24,-33l0 8c0,0 6,22 -5,25 -11,3 -24,-3 -24,-3 0,0 -21,-9 -29,-8 -7,0 -33,1 -37,0z"/>
   <path class="fil0" d="M553 471c0,0 11,73 -69,131 0,0 5,85 39,127 0,0 -31,-4 -39,-7 0,0 14,55 84,82 -9,-71 -1,-78 -1,-78 3,39 21,38 36,73 0,0 44,8 50,15 0,0 36,-31 48,-32 0,0 -18,-27 -30,-29 0,0 63,-24 98,-1 0,0 2,7 0,13 -2,6 2,20 14,22 12,3 13,15 13,15 0,0 12,-34 -1,-65l17 -2c0,0 5,43 15,62 11,19 9,59 -6,84 0,0 -1,-24 -8,-29 0,0 4,36 -70,82 0,0 -6,-42 -35,-53 -29,-11 -84,-24 -84,-24l-15 -15 10 27c0,0 -106,-55 -130,-94 0,0 -9,98 70,156 0,0 -37,-7 -43,-13 0,0 21,71 -37,114 0,0 -13,-91 -65,-104 -52,-13 -132,-107 -132,-107 0,0 -2,37 12,55 0,0 -94,-94 -5,-187 0,0 -55,-5 -79,-45 0,0 82,-2 137,-71 0,0 -40,-26 -40,-51 0,0 72,2 123,-56l123 5z"/>
   <path class="fil0" d="M779 706c0,0 -1,13 -4,14 -2,2 -23,19 -23,19 0,0 29,-10 30,-16 1,-6 -3,-17 -3,-17z"/>
   <path class="fil0" d="M840 488l6 36c0,0 2,23 -2,27 -4,4 -23,38 -22,40 1,2 14,27 11,31 -3,4 -25,25 -25,25l4 11c0,0 31,-32 31,-37 0,-4 -15,-30 -14,-32 0,-1 28,-51 28,-54 0,-3 -9,-49 -9,-49l-8 2z"/>
   <path class="fil0" d="M802 695l4 48 6 -8c0,0 -2,-42 -3,-43 0,-1 -7,3 -7,3z"/>
   <path class="fil4" d="M848 486c0,0 -46,14 -94,7 -48,-6 -189,-22 -263,-25 -73,-2 -76,9 -96,21 -20,11 -43,12 -70,10 0,0 -82,38 -117,64 -35,25 -72,38 -72,38 0,0 26,-68 62,-86 37,-19 77,-46 77,-46 0,0 -75,-31 -93,-31 0,0 141,-40 157,-35 16,5 43,18 43,18 0,0 6,-16 12,-19 7,-3 35,-12 30,-25 -5,-12 -30,-35 -68,-15 -39,20 -46,21 -46,21l-113 16c0,0 86,-138 144,-159 57,-21 123,-24 121,-50 -1,-25 -135,-93 -187,-96 0,0 168,-69 268,-61 100,8 205,156 216,195 0,0 5,19 40,41 35,23 47,44 50,58 3,13 -8,67 -8,67 0,0 14,9 14,13 1,4 -8,48 -11,54 -2,6 6,16 4,25z"/>
   <path class="fil2" d="M848 486c0,0 -46,14 -94,7 -48,-6 -189,-22 -263,-25 -40,-1 -59,2 -72,6l0 -1c0,0 -17,-10 -17,-20 -1,-10 9,-27 19,-33 10,-6 59,-32 106,-35 47,-3 246,16 246,16 0,0 55,3 64,-2 3,-1 5,-2 7,-3 3,2 6,5 9,7 -10,9 -24,16 -47,16 -54,1 -219,-44 -296,-17 -78,26 -88,30 -95,47 0,0 39,8 62,2 23,-6 258,11 278,19 16,6 62,5 90,0 2,5 4,10 3,16z"/>
   <path class="fil6" d="M849 489c-1,0 -46,14 -95,8 -29,-4 -92,-11 -153,-17 -40,-4 -80,-7 -110,-8 -61,-3 -72,5 -86,14 -2,2 -5,4 -9,6 -10,6 -21,9 -33,10 -12,2 -24,1 -38,1 -8,3 -82,38 -115,62 -36,26 -73,40 -73,40l-7 2 3 -7c0,0 27,-69 64,-88 28,-14 59,-34 71,-42 -18,-7 -71,-29 -86,-29l-1 -7c0,0 142,-40 159,-35 12,4 32,14 40,17 2,-5 7,-15 13,-17 1,-1 1,-1 3,-1 8,-4 28,-12 25,-20 0,0 0,-1 -1,-2 -2,-5 -9,-11 -18,-15 -9,-4 -22,-5 -37,0 -2,1 -5,3 -8,4 -39,20 -46,21 -46,21l0 0 -114 16 -7 1 4 -6c0,0 87,-139 146,-160 19,-7 40,-13 58,-17 35,-9 62,-15 61,-29 -1,-12 -33,-34 -72,-53 -40,-21 -87,-39 -113,-41l-1 -6c1,0 170,-69 271,-62 40,4 81,29 116,61 54,49 95,113 102,137l0 0c0,1 6,18 39,40 16,9 27,19 35,28 10,12 15,23 16,31 3,13 -5,56 -7,66 4,3 13,10 14,14 0,3 -2,14 -5,26 -2,13 -6,27 -7,30 -1,2 0,5 2,8 1,5 3,11 2,17l-1 2 -1 0zm-95 1c42,5 82,-4 91,-7 0,-3 -1,-7 -3,-10 -1,-5 -3,-10 -1,-14 1,-3 4,-16 7,-28 2,-12 4,-22 4,-24 0,-2 -13,-10 -13,-10l-2 -2 1 -2c0,0 10,-53 8,-66 -2,-7 -6,-17 -15,-27 -8,-9 -19,-18 -34,-28 -36,-23 -41,-43 -41,-43l0 0c-7,-23 -47,-86 -100,-134 -35,-31 -74,-56 -113,-59 -83,-6 -215,41 -255,56 27,6 67,22 102,40 41,20 75,44 76,58 1,20 -29,27 -66,36 -18,5 -39,10 -58,17 -50,18 -121,125 -139,151l107 -14 0 0c0,0 6,-1 44,-21 3,-1 6,-3 9,-4 17,-6 31,-5 42,0 10,4 18,12 21,18 1,1 1,2 1,3 6,14 -19,24 -29,28 -1,0 -2,1 -2,1 -6,2 -11,17 -11,17l-1 4 -4 -2c0,0 -27,-13 -42,-18 -12,-4 -106,21 -141,31 28,8 79,29 79,29l6 3 -5 3c0,0 -41,27 -77,46 -28,14 -50,60 -58,77 12,-5 39,-17 64,-35 35,-26 117,-64 117,-64l2 0c13,1 26,1 37,0 11,-2 21,-5 31,-10 3,-2 6,-4 9,-6 14,-9 26,-17 89,-15 30,1 70,5 111,8 61,6 123,13 152,17z"/>
   <path class="fil6" d="M844 394c0,0 19,19 -105,7 -15,-1 -29,-3 -43,-4 -101,-11 -195,-20 -257,17 -65,40 -17,57 -17,57l-6 4c0,0 -57,-20 20,-67 63,-38 159,-28 261,-18 14,2 28,3 42,5 109,10 98,0 98,0l7 -1z"/>
   <path class="fil6" d="M380 491c0,0 -15,-48 -3,-70l7 5c-12,19 2,64 2,64l-6 1z"/>
   <path class="fil6" d="M490 391c0,-1 -4,-37 41,-76 7,-7 -2,2 2,-2 46,-39 157,-146 83,-251l9 4c78,110 -41,212 -87,252 -3,2 6,-6 -3,2 -42,37 -39,70 -39,70l-6 1z"/>
   <path class="fil6" d="M582 116c0,0 -46,-24 -39,-11 5,7 17,18 30,30 26,22 57,49 58,76l-6 0c-2,-24 -32,-50 -56,-71 -14,-13 -26,-23 -32,-32 -20,-34 26,-8 27,-8l18 16z"/>
   <path class="fil6" d="M456 175c0,0 60,42 52,64 -4,10 -13,18 -29,22 -15,4 -36,5 -68,3 -29,-2 -58,3 -83,12 -28,9 -57,27 -68,40l2 -7c12,-15 35,-30 64,-40 26,-8 56,-13 86,-12 30,2 51,1 66,-2 13,-4 20,-10 24,-19 6,-17 -41,-47 -41,-47l-5 -14z"/>
   <path class="fil6" d="M246 368c0,-1 189,-107 219,-88 29,17 62,42 62,42l-4 5c0,0 -33,-25 -61,-42 -27,-16 -232,97 -233,98l17 -15z"/>
   <path class="fil6" d="M443 341c0,0 -17,-20 -73,19l-4 -6c60,-42 104,-13 104,-13l-27 0z"/>
   <path class="fil6" d="M270 464c1,0 57,-41 110,-24l-2 7c-50,-17 -96,21 -96,22l-12 -5z"/>
   <path class="fil6" d="M843 923c0,0 29,32 38,36 5,3 10,13 14,18 4,5 6,11 6,20 -1,8 0,19 2,29 2,12 1,9 4,16l-1 18c-4,-7 -7,-20 -9,-32 -3,-12 -4,-23 -3,-31 1,-7 -1,-12 -4,-16 -3,-4 -6,-10 -11,-12 -11,-5 -22,-21 -22,-21l-14 -25z"/>
   <path class="fil9" d="M843 1057c0,-2 15,-12 30,-9 14,3 34,6 45,5 11,-2 24,-4 34,4 9,7 25,19 25,19 0,0 -43,25 -50,55l-84 -74z"/>
   <path class="fil6" d="M840 1057c0,0 0,0 0,-1l0 0c0,-1 4,-5 9,-7 4,-2 11,-5 17,-5 2,0 5,0 7,1 7,1 16,2 24,3 8,1 15,2 21,1l1 0 0 0c11,-1 25,-3 35,5 9,8 25,19 25,19l4 3 -4 3c0,0 -42,25 -49,52l-1 6 -4 -4 -84 -73 -1 -1 0 -2zm12 -2c-2,1 -3,1 -4,2l79 72c9,-22 36,-44 47,-51 -6,-4 -18,-13 -24,-19 -8,-6 -20,-5 -31,-3l0 0 -1 0c-5,1 -13,0 -22,-1 -8,-1 -17,-2 -24,-4 -2,0 -4,0 -6,0 -5,0 -10,2 -14,4z"/>
   <path class="fil0" d="M779 1062c0,0 40,-18 68,-7 0,0 76,39 82,69 0,0 7,22 -16,37 0,0 -7,-63 -134,-99z"/>
   <path class="fil10" d="M779 1062c0,0 -82,15 -157,57"/>
   <path class="fil6" d="M797 1063c0,0 -104,20 -178,62 1,-5 12,-15 19,-18 33,-18 118,-42 145,-47l14 3z"/>
   <path class="fil10" d="M913 1161c0,0 -34,54 -149,100"/>
   <path class="fil6" d="M922 1153c0,0 -37,67 -153,113l-9 -4c114,-45 152,-105 152,-105l10 -4z"/>
   <path class="fil10" d="M1037 1101c0,0 -25,-37 -58,-22 -34,16 -50,47 -50,47"/>
   <path class="fil6" d="M1025 1092c0,0 -14,-24 -45,-10 -33,15 -51,60 -51,60l-3 -15c0,0 17,-35 51,-51 36,-17 66,20 66,20l-18 -4z"/>
   <path class="fil10" d="M855 942c0,0 14,22 24,27 10,4 20,12 18,28 -1,16 6,48 12,61"/>
   <path class="fil9" d="M607 1031c0,0 -21,-24 -36,-21 -16,3 -89,52 -88,60 0,8 16,24 34,19 0,0 -15,10 -9,20 7,11 43,20 63,7 0,0 8,20 33,17 24,-4 65,-31 82,-35 16,-4 21,-14 12,-21 -9,-7 -28,-15 -49,-10 0,0 -4,-20 -20,-25 -16,-6 -21,-6 -21,-6 0,0 1,-4 -1,-5z"/>
   <path class="fil6" d="M605 1033c0,0 -20,-22 -34,-20 -7,2 -30,15 -50,29 -19,13 -35,25 -35,28 0,0 0,0 0,1 1,3 4,7 9,10 5,4 11,6 17,5 2,0 3,0 4,0l3 6c0,0 -13,8 -8,15 0,0 0,1 0,1 3,4 13,8 24,10 11,2 23,1 32,-4l0 0c1,0 1,-1 2,-1l3 -2 2 3c0,0 7,19 29,15 14,-2 34,-12 51,-20 13,-7 24,-12 31,-14 6,-2 10,-4 13,-7 0,-1 1,-1 1,-2 0,-1 0,-2 0,-2 0,-2 -1,-3 -3,-4 -5,-4 -13,-8 -22,-10 -8,-2 -16,-2 -24,0l-4 1 0 -3c0,0 -4,-18 -18,-23 -15,-5 -20,-5 -20,-5l-4 -1 1 -3c0,0 0,-3 0,-3l0 0zm-35 -26c18,-4 39,21 40,22 1,1 1,3 1,4 4,1 10,2 19,6 14,4 19,18 21,24 9,-1 17,-1 24,0 11,3 20,7 25,11 3,2 5,5 5,8 1,2 1,4 0,5 0,2 -1,4 -2,5 -3,4 -9,8 -16,10 -7,1 -18,7 -30,13 -17,9 -38,19 -53,21 -20,3 -31,-9 -35,-16 -10,6 -23,7 -35,5 -13,-3 -24,-8 -28,-13 0,-1 0,-1 -1,-1 -4,-7 -1,-13 3,-18 -7,0 -12,-3 -17,-6 -6,-4 -10,-10 -11,-14 -1,-1 -1,-2 -1,-2 0,-6 18,-20 38,-34 21,-15 45,-29 53,-30z"/>
   <path class="fil0" d="M615 1038c0,0 -88,45 -96,54 -8,8 -3,-6 -3,-6l89 -53 10 5z"/>
   <path class="fil0" d="M646 1062c0,0 -69,41 -74,49l0 8c0,0 66,-46 74,-48 9,-2 0,-9 0,-9z"/>
   <path class="fil0" d="M752 542c0,0 -16,4 -34,-7 -18,-12 -88,-106 -117,-98 -30,8 -86,46 -86,46 0,0 37,-8 51,-12 14,-4 37,4 48,17 11,12 68,56 97,66 29,10 41,-12 41,-12z"/>
  </g>
 </g>
</svg>
