<?xml version="1.0" encoding="UTF-8"?>
<!DOCTYPE svg PUBLIC "-//W3C//DTD SVG 1.1//EN" "http://www.w3.org/Graphics/SVG/1.1/DTD/svg11.dtd">
<!-- Creator: CorelDRAW X7 -->
<svg xmlns="http://www.w3.org/2000/svg" xml:space="preserve" width="21cm" height="19.988cm" version="1.1" style="shape-rendering:geometricPrecision; text-rendering:geometricPrecision; image-rendering:optimizeQuality; fill-rule:evenodd; clip-rule:evenodd"
viewBox="0 0 1573 1497"
 xmlns:xlink="http://www.w3.org/1999/xlink">
 <defs>
  <style type="text/css">
   <![CDATA[
    .fil3 {fill:black}
    .fil0 {fill:black}
    .fil6 {fill:#22455E}
    .fil12 {fill:#22455E}
    .fil8 {fill:#5C3717}
    .fil7 {fill:#5C3717}
    .fil9 {fill:#6596BA}
    .fil2 {fill:#ABD4FF}
    .fil11 {fill:#B3B3B3}
    .fil5 {fill:#B3B3B3}
    .fil10 {fill:#B8773F}
    .fil4 {fill:#FEFEFE}
    .fil1 {fill:white}
   ]]>
  </style>
 </defs>
 <g id="Layer_x0020_1">
  <metadata id="CorelCorpID_0Corel-Layer"/>
  <g id="_851728976">
   <path class="fil0" d="M893 0c354,0 648,282 648,639 0,206 -99,396 -265,516l-4 3c-5,3 -10,5 -15,5l-476 12c-1,0 -2,0 -4,0l-1 -1c-97,-12 -193,-27 -289,-43l-4 -1c-5,-1 -9,-2 -13,-6l-3 -2c-141,-122 -223,-296 -223,-483 0,-357 294,-639 649,-639z"/>
   <path class="fil1" d="M893 27c339,0 622,270 622,612 0,197 -96,380 -255,495l-4 2 -475 12 -1 0c-97,-13 -193,-27 -288,-43l-4 -1 -4 -3c-135,-116 -213,-283 -213,-462 0,-342 282,-612 622,-612z"/>
   <path class="fil1" d="M893 42c335,0 607,267 607,597 0,198 -98,374 -249,483l-470 11c-104,-13 -202,-29 -287,-43 -128,-110 -209,-271 -209,-451 0,-330 272,-597 608,-597z"/>
   <path class="fil2" d="M893 42c117,0 226,32 318,88l-251 -13 288 38c28,19 54,41 78,65l-293 -3 331 45c22,27 41,55 58,85l-175 3 187 18c12,24 23,49 32,74l-675 43 695 28c5,20 8,41 10,62l-446 45 450 3c0,6 0,11 0,16 0,12 0,23 -1,35l-296 41 292 -2c-1,14 -4,29 -7,44l-356 41 341 17c-17,57 -44,110 -77,158l-489 87 419 -2c-45,45 -98,84 -156,113 -239,-14 -488,-49 -676,-81 -20,-17 -39,-35 -56,-55l281 -55 -344 -28c-16,-26 -31,-54 -43,-83l454 -38 -469 -1c-6,-17 -11,-34 -15,-52 215,-35 461,-76 445,-77 -15,0 -240,2 -458,3 -1,-13 -3,-27 -3,-41l469 -51 -469 1c1,-14 2,-29 4,-44l319 -34 -307 -33c4,-20 11,-41 18,-61l135 -7 -130 -8c9,-23 20,-46 32,-68l394 -65 -360 9c24,-34 51,-65 81,-94l260 -47 -210 5c103,-78 231,-124 371,-124z"/>
   <g>
    <path class="fil3" d="M1366 1124c-1,0 -1,0 -1,0 0,-1 -1,-1 -1,-2 -2,-2 -3,-4 -5,-6 -5,-6 -11,-11 -17,-16 4,-13 7,-28 7,-41 -1,-10 -4,-19 -11,-27 -5,-6 -13,-10 -19,-15 -8,-6 -13,-12 -17,-21 -3,-6 -5,-13 -9,-19 -5,-7 -11,-11 -19,-14 -20,-8 -30,-2 -47,8 -3,2 -6,3 -9,5 0,0 -1,1 -2,1 -1,0 -3,-1 -4,-1 -5,-2 -10,-3 -14,-3 -19,-3 -42,-4 -58,7 -25,55 -51,122 -65,159l41 20 1 0c5,2 11,4 16,5 62,-1 150,-4 186,-10 15,-2 31,-14 47,-30z"/>
    <path class="fil4" d="M1331 1103c23,18 24,25 27,28 -13,12 -27,21 -39,23 -30,5 -97,8 -155,9 -16,-6 -27,-6 -44,-13l-42 -20c13,-32 32,-81 52,-126 0,0 1,1 1,2 6,-7 10,-33 65,-24 27,5 15,9 36,-3 13,-8 22,-14 38,-7 17,6 17,14 24,28 21,45 63,20 37,103z"/>
    <path class="fil5" d="M1331 1103c23,18 24,25 27,28 -13,12 -27,21 -39,23 -6,-4 -12,-10 -17,-19 0,0 17,12 27,7 0,0 -14,-4 -18,-15 -5,-11 1,-84 -40,-72 -41,11 -42,71 -18,86 0,0 -95,-29 14,-114 0,0 -14,-24 -53,10 -22,19 -62,6 -96,-5 4,-10 8,-19 12,-28 0,0 1,1 1,2 6,-7 10,-33 65,-24 27,5 15,9 36,-3 13,-8 22,-14 38,-7 17,6 17,14 24,28 21,45 63,20 37,103zm-40 54c-2,-3 -3,-7 -3,-10 0,0 3,4 8,10 -2,0 -3,0 -5,0z"/>
   </g>
   <g>
    <path class="fil3" d="M370 1063c-3,-20 -5,-42 4,-61 9,-20 27,-32 47,-39 9,-3 18,-4 27,-4 6,0 12,2 19,3 5,2 10,3 16,2 2,0 6,0 8,-1 0,0 1,-1 1,-1 1,-3 3,-5 5,-7 5,-6 11,-11 17,-16 -4,-13 -7,-27 -7,-40 0,-11 3,-20 10,-27 6,-7 13,-11 20,-16 3,-2 5,-4 7,-7 23,72 49,156 65,207 -10,4 -20,8 -30,12 -15,6 -30,12 -46,18 -5,2 -11,5 -17,7 -2,1 -6,3 -8,4 -12,9 -23,16 -36,23 -56,7 -120,16 -179,24 8,-6 17,-11 25,-16 1,-4 1,-8 2,-12 0,-10 3,-18 9,-27 6,-10 14,-16 24,-20 6,-2 12,-4 17,-6z"/>
    <path class="fil4" d="M525 943c-38,28 -18,29 -41,31 -21,1 -30,-12 -60,-2 -49,17 -52,53 -43,97 -19,9 -30,5 -44,25 -11,16 -6,25 -10,40 -4,2 -8,4 -11,7 38,-5 77,-11 114,-15l31 -11c16,-8 27,-15 42,-25 9,-7 63,-27 103,-43 -15,-49 -38,-123 -58,-187 -21,19 -44,16 -23,83z"/>
    <path class="fil5" d="M525 943c-38,28 -18,29 -41,31 -21,1 -30,-12 -60,-2 -49,17 -52,53 -43,97 -19,9 -30,5 -44,25 -11,16 -6,25 -10,40 -4,2 -8,4 -11,7 16,-3 33,-5 50,-7 11,-12 23,-22 37,-26 53,-15 155,-73 165,-121 0,0 -73,91 -161,93 0,0 89,-14 88,-68 0,0 -24,46 -71,42 -46,-4 -19,-45 -19,-45 0,0 -8,50 21,25 29,-25 23,-43 54,-39 30,4 55,13 74,-20 0,0 -18,11 -27,7 0,0 13,-5 18,-16 4,-8 1,-48 16,-65 -5,-14 -9,-28 -13,-41 -21,19 -44,16 -23,83z"/>
   </g>
   <path class="fil3" d="M191 712c3,-4 5,-9 7,-14 6,-14 11,-31 22,-41 16,-13 39,-7 57,1 6,-22 18,-45 43,-48 8,-1 15,0 23,2 8,1 20,5 28,4 2,-2 4,-5 5,-7 0,0 0,-1 -1,-1 0,-1 -1,-3 -1,-4 -2,-4 -2,-9 -1,-14 1,-8 3,-15 9,-20 3,-2 6,-3 9,-5 2,-1 3,-2 5,-3 -5,-20 -4,-42 13,-57 10,-10 25,-15 39,-15 16,0 32,5 44,14 16,10 26,26 32,43 7,22 6,46 1,68 3,3 6,5 9,8 2,2 5,4 7,7 2,4 3,8 3,12 0,6 0,11 0,16 3,2 5,3 8,4 2,1 5,3 6,6 1,3 1,4 2,6 4,6 11,13 16,17 21,18 18,38 11,62l-1 4 -48 7 -66 -1c-10,1 -21,0 -31,-1 -12,-2 -25,-4 -37,-3 -6,0 -10,0 -16,2 -5,1 -10,2 -15,2l-1 0 -90 -3 0 0c-2,0 -4,0 -6,0 -9,0 -18,3 -27,4 -12,3 -23,4 -35,3 -22,-2 -44,-7 -67,-7 -12,0 -23,1 -35,2 -8,1 -16,3 -24,4 -10,0 -19,0 -28,-2 -15,-2 -29,-7 -43,-12l-17 -3c15,-14 42,-11 58,-15 22,-5 41,-14 70,-20 5,-1 11,-2 16,-4 2,0 6,-1 8,-1 8,0 12,0 19,4 2,0 4,1 6,1 4,0 9,-1 14,-2z"/>
   <path class="fil4" d="M13 746c70,26 72,7 134,7 24,0 45,6 68,7 27,3 47,-9 68,-7l89 3c16,0 13,-4 32,-4 20,-1 47,5 68,4l65 1 43 -6c7,-23 9,-39 -8,-55 -35,-30 -6,-22 -35,-33 0,-38 2,-24 -20,-45 35,-149 -145,-152 -113,-54 -13,12 -22,7 -24,27 -3,21 11,9 -5,31 -29,7 -72,-36 -94,45 -72,-34 -65,21 -86,52 -31,6 -22,-4 -43,-3 -10,0 -43,16 -71,22 -30,6 -60,5 -68,8z"/>
   <path class="fil5" d="M13 746c13,5 24,8 33,10 44,-5 105,-14 120,-19 23,-7 72,3 75,9 0,0 -8,-17 -24,-19 0,0 9,-51 35,-43 26,8 24,42 9,50 0,0 66,-28 -11,-58 0,0 21,-12 45,11 25,23 27,43 66,39 0,0 -22,-1 -29,-25 0,0 16,16 45,10 29,-6 22,-30 22,-30 0,0 -1,26 -36,16 -35,-9 -45,-35 -43,-34 1,1 14,21 39,16 25,-5 55,-35 97,-3 21,17 79,33 129,45 -1,-9 -5,-17 -13,-25 -35,-30 -6,-22 -35,-33 0,-3 0,-7 0,-9 -23,-13 -43,-22 -53,-22 -33,2 -97,-28 -90,-46 5,-16 66,-55 119,-46 -30,-68 -134,-52 -109,24 -13,12 -22,7 -24,27 -3,21 11,9 -5,31 -29,7 -72,-36 -94,45 -72,-34 -65,21 -86,52 -31,6 -22,-4 -43,-3 -10,0 -43,16 -71,22 -30,6 -60,5 -68,8z"/>
   <path class="fil3" d="M1222 616c5,-35 23,-72 55,-89 29,-15 61,-9 89,5 6,4 12,8 18,12 8,5 15,10 23,15 10,6 24,13 35,14 8,1 14,0 22,-2 6,-1 13,-3 20,-1 8,3 12,11 14,18 2,6 3,12 5,18 1,7 2,14 2,21 21,2 41,6 57,21l11 10 -117 14 -1 0c-11,0 -22,0 -33,-2 -3,0 -7,-1 -10,-1 -4,-1 -8,0 -12,0 -16,1 -33,3 -49,5l-1 0 -101 -5 -1 0c-8,-2 -18,-3 -27,-4 -10,-1 -20,-1 -31,-2 -16,-1 -32,-2 -48,-3l-12 -2 8 -10c5,-6 10,-11 18,-14 5,-2 11,-3 17,-4 3,0 7,-1 10,-2 4,-2 7,-3 10,-5 2,-2 4,-4 7,-5 6,-4 14,-3 22,-2z"/>
   <path class="fil4" d="M1228 624c-31,-6 -21,2 -42,10 -14,5 -29,1 -43,19 33,3 77,4 107,9l100 5c98,-10 32,-3 105,-2l102 -12c-15,-14 -35,-18 -58,-20 -9,-83 -21,-50 -57,-53 -27,-3 -65,-34 -79,-42 -74,-38 -127,13 -135,86z"/>
   <path class="fil5" d="M1489 661l68 -8c-15,-14 -35,-18 -58,-20 -9,-83 -21,-50 -57,-53 -27,-3 -65,-34 -79,-42 -32,-16 -61,-16 -83,-4 -4,20 -4,34 8,23 28,-25 45,-1 70,-3 26,-1 19,22 19,22 1,-18 -30,-12 -30,-12 12,2 1,22 14,32 14,11 72,-6 72,-6 -20,17 -58,15 -58,15 25,23 76,-7 93,-3 16,4 0,28 0,28 -39,-18 -75,12 -75,12 29,-7 63,3 96,19z"/>
   <path class="fil3" d="M515 162c4,-15 10,-30 21,-40 12,-11 27,-13 43,-12 7,0 13,2 19,5 4,2 8,5 12,7 3,3 6,5 10,7 1,0 4,1 5,1 1,0 1,0 2,-1 1,-1 3,-2 5,-3 5,-2 10,-4 16,-5 1,-10 3,-21 7,-29 3,-7 8,-13 15,-16 6,-2 12,-3 18,-4 6,-2 11,-5 17,-9 3,-3 7,-8 11,-10 6,-4 11,-4 17,-4 16,0 21,7 30,19 1,2 2,4 4,6 0,0 1,1 1,1 1,0 2,0 3,0 4,1 7,2 11,2 13,4 29,10 36,22 2,3 3,6 4,9 8,-3 17,-6 25,-4 11,3 18,12 22,21 1,3 4,9 7,12 2,1 4,1 6,2 5,3 6,7 7,12 1,7 1,14 1,21 20,14 39,20 64,23 10,2 20,2 30,3 27,3 29,2 49,19l-251 9 0 0c-7,0 -13,-1 -19,-2 -6,-1 -12,-2 -19,-2 -6,0 -12,0 -18,1 -5,1 -11,2 -16,3 -8,1 -16,1 -24,1 -10,0 -21,-1 -31,-1 -13,0 -25,-1 -37,-1 -4,0 -9,0 -13,0 -2,0 -5,0 -7,0 -12,3 -24,5 -37,5l0 0 -174 -17 21 -8c9,-5 18,-9 28,-11 9,-1 17,-2 26,-4 2,-2 3,-4 4,-7 4,-7 7,-11 14,-16 7,-4 14,-6 23,-6 4,0 8,1 12,1z"/>
   <path class="fil4" d="M654 126c-33,8 -20,15 -36,9 -15,-5 -17,-16 -40,-18 -37,-3 -50,20 -57,52 -15,1 -22,-5 -37,4 -12,8 -11,15 -18,24 -22,4 -34,2 -55,14l150 12c13,0 23,-2 36,-5 11,-2 90,4 112,1 14,-2 20,-4 35,-4 16,0 23,3 38,4l234 -8c-50,-12 -83,-1 -133,-35 1,-51 -6,-16 -21,-48 -10,-24 -26,-20 -45,-9 -2,-6 3,-25 -37,-35 -19,-5 -12,2 -23,-12 -7,-9 -11,-16 -24,-16 -13,-1 -15,4 -24,12 -27,24 -48,-6 -55,58z"/>
   <path class="fil5" d="M654 126c-33,8 -20,15 -36,9 -15,-5 -17,-16 -40,-18 -37,-3 -50,20 -57,52 -15,1 -22,-5 -37,4 -12,8 -11,15 -18,24 -22,4 -34,2 -55,14l67 5c14,-9 31,-16 47,-14 39,6 125,-4 146,-34 0,0 -76,41 -136,16 0,0 64,17 79,-20 0,0 -30,24 -60,8 -30,-17 1,-36 1,-36 0,0 -20,31 6,23 27,-8 28,-22 48,-11 19,12 34,25 55,8 0,0 -15,3 -20,-3 0,0 11,1 17,-5 7,-6 24,-57 48,-37 24,20 7,60 -13,63 0,0 72,8 24,-80 0,0 16,-13 32,22 16,34 101,17 108,35 6,18 -16,34 -16,34 0,0 30,-12 31,-20 0,0 -12,51 -23,51l0 0c-9,1 25,-34 87,-3l77 -2c-50,-12 -83,-1 -133,-35 1,-51 -6,-16 -21,-48 -10,-24 -26,-20 -45,-9 -2,-6 3,-25 -37,-35 -19,-5 -12,2 -23,-12 -7,-9 -11,-16 -24,-16 -13,-1 -15,4 -24,12 -27,24 -48,-6 -55,58z"/>
   <path class="fil3" d="M750 18c42,57 83,115 124,173 26,37 52,74 77,112 9,13 18,27 27,41 3,5 5,10 8,15 2,3 3,7 4,10l2 6 -5 2c-6,3 -11,5 -16,7 -13,6 -26,11 -39,16 -39,14 -80,26 -122,32 -27,4 -55,6 -83,3l-6 -1 17 -432 12 16z"/>
   <path class="fil6" d="M744 22c0,0 231,315 240,349 0,0 -146,70 -256,57l16 -406z"/>
   <path class="fil0" d="M744 22c0,0 231,315 240,349 0,0 -4,2 -11,5 -41,-20 -73,-49 -80,-90 -21,-137 -125,-179 -125,-179 94,83 39,152 39,152 16,-56 -26,-84 -26,-84 18,19 -4,49 -15,154 -3,35 17,67 46,96 -28,4 -57,6 -84,3l16 -406z"/>
   <path class="fil3" d="M1076 174c10,15 21,30 31,45 23,32 45,64 67,97 18,27 37,55 54,84 6,11 13,22 19,34 4,8 8,16 11,25l2 6 -6 2c-12,5 -25,10 -37,14 -26,9 -53,18 -81,25 -14,3 -29,7 -43,9 -14,3 -27,5 -40,5l-8 0 19 -362 12 16z"/>
   <path class="fil6" d="M1070 178c0,0 165,229 181,283 0,0 -128,50 -199,52l18 -335z"/>
   <path class="fil0" d="M1070 178c0,0 149,207 178,274 -40,-34 -77,-65 -97,-82 -59,-52 -65,-129 -65,-129 0,0 -20,111 95,181 0,0 -70,-14 -97,-65 0,0 -41,95 6,152 -14,2 -26,4 -38,4l18 -335z"/>
   <path class="fil3" d="M1307 477c3,17 5,34 8,51 5,37 8,74 10,110 1,42 2,119 -25,153l-2 3 -295 -10 31 -255 5 0c17,-3 33,-5 50,-8 36,-6 71,-13 107,-21 18,-4 36,-8 54,-13 16,-4 32,-9 48,-15l7 -3 2 8z"/>
   <path class="fil6" d="M1040 535c0,0 175,-24 260,-56 0,0 45,245 -5,308l-284 -9 29 -243z"/>
   <path class="fil0" d="M1040 535c0,0 175,-24 260,-56 0,0 1,4 2,12 -4,34 -14,86 -14,86 -9,-31 -43,-44 -75,-31 -33,14 -54,-5 -54,-5 5,26 20,40 43,30 23,-10 50,-5 50,-5 -16,2 -24,17 -24,17 35,-5 42,15 42,15 -25,-19 -25,2 -57,10 -31,9 -85,-33 -85,-33 27,69 102,85 102,85 -88,2 -107,-71 -134,-67 -19,2 -29,113 -35,186l-27 -1 -17 -48 23 -195z"/>
   <g>
    <path class="fil3" d="M684 450c-7,0 -13,0 -19,0 -5,0 -11,-1 -16,-2 -5,-1 -11,-3 -13,-8 -3,-6 -4,-14 -1,-21l2 -5 6 2c10,3 25,6 37,6l-1 -43 6 -1c6,0 12,0 17,0 4,0 9,0 12,0 6,1 12,3 12,9 0,3 -1,6 -1,8 0,5 -1,9 -1,13 0,4 -1,8 -1,13 8,0 16,0 24,0 7,1 13,1 19,1 3,0 8,0 11,0l3 -1 3 2c3,3 4,8 3,12 -3,7 -14,9 -21,10 -15,2 -31,4 -46,5l-29 430 -43 1 1 -8c8,-72 15,-144 22,-216 5,-46 9,-91 12,-137 1,-16 2,-33 2,-49 0,-6 0,-12 0,-17 0,-1 0,-3 0,-4z"/>
    <path class="fil7" d="M654 874c0,0 45,-391 36,-431 0,0 -44,2 -48,-6 -4,-8 -1,-15 -1,-15 0,0 28,9 46,6l-1 -43c0,0 33,-2 33,2 0,5 -4,40 -4,40 0,0 54,2 63,1 0,0 8,8 -14,11 -21,2 -51,4 -51,4l-29 430 -30 1z"/>
   </g>
   <path class="fil3" d="M1338 931l-1 30 0 27 -314 51 -2 -1c-23,-13 -47,-28 -69,-42 -15,-10 -31,-21 -45,-33 -8,-7 -23,-20 -18,-32 2,-5 6,-7 11,-8 9,-2 18,-4 26,-8 4,-1 8,-4 10,-7 4,-5 7,-12 9,-17 4,-8 7,-16 10,-23 4,-11 8,-22 14,-32 10,-19 26,-45 49,-49 7,-1 17,0 24,0 13,1 26,3 39,4 34,4 69,9 103,14 55,8 110,17 165,26l7 2 -1 7c-1,13 -2,27 -3,41 0,9 -1,19 -2,28 0,4 -1,14 -3,17 -2,3 -5,4 -9,5z"/>
   <path class="fil7" d="M1329 981l0 -21 2 -36c0,0 8,0 9,-2 2,-3 7,-83 7,-83 0,0 -292,-50 -327,-44 -36,6 -58,78 -67,99 -10,21 -11,28 -51,36 -40,9 123,101 123,101l304 -50z"/>
   <path class="fil0" d="M1331 924c0,0 8,0 9,-2 2,-3 7,-83 7,-83l-4 -1c-11,4 -24,10 -36,13 -24,7 -29,2 -29,2 0,0 9,16 27,10 17,-5 22,10 22,10 -14,-14 -23,2 -38,3 -15,2 -20,-9 -20,-9 0,0 17,34 43,35 25,0 17,15 17,15l-236 -24c0,0 0,-15 1,-21 0,-5 -10,-19 -10,-19l-4 42 -122 -15c-2,6 -4,11 -5,14 -10,21 -11,28 -51,36 -14,3 -4,16 16,32 36,4 77,8 80,6 4,-2 9,-71 9,-71 25,21 79,20 79,20 0,0 -4,62 -5,56 -1,-6 -13,4 72,3 85,-2 81,-63 81,-63l97 11z"/>
   <g>
    <path class="fil3" d="M1019 556c-6,0 -12,0 -19,-1 -5,0 -11,0 -16,-1 -5,-1 -11,-3 -13,-8 -3,-7 -4,-15 -1,-21l3 -6 6 2c10,3 25,7 36,6l-1 -43 7 0c5,-1 11,-1 17,-1 4,0 8,0 12,1 5,0 11,3 11,9 0,3 0,5 -1,8 0,4 0,8 -1,12 0,5 0,9 -1,13 8,0 17,1 25,1 6,0 12,0 18,0 4,0 8,0 11,0l4 0 2 2c3,3 4,7 3,11 -3,8 -13,10 -20,11 -16,2 -31,3 -47,4l-28 431 -44 0 1 -8c8,-72 16,-144 23,-216 4,-45 8,-91 11,-136 1,-17 2,-33 2,-50 0,-6 0,-11 0,-17 0,-1 0,-2 0,-3z"/>
    <path class="fil7" d="M990 979c0,0 44,-391 35,-431 0,0 -44,3 -48,-5 -3,-8 0,-15 0,-15 0,0 27,9 46,6l-2 -43c0,0 33,-3 33,2 0,5 -3,40 -3,40 0,0 53,2 62,1 0,0 8,7 -13,10 -22,3 -52,5 -52,5l-29 430 -29 0z"/>
   </g>
   <path class="fil3" d="M385 703l-149 -139c-3,-2 -4,-6 -4,-9 0,-6 4,-10 8,-13l1 -1 0 0c7,-3 15,-2 20,2l0 1 1 0c19,20 42,38 64,54 27,21 55,40 83,59 44,29 89,58 135,85 16,10 32,19 48,29 5,3 10,6 15,9 3,1 5,3 8,5 8,5 12,13 11,23 0,1 0,2 0,3 150,81 317,132 487,149 52,5 105,7 157,5 14,0 29,-1 43,-3 6,0 11,-1 16,-2l12 -1 -2 11c-1,10 -2,20 -3,29 -1,7 -3,25 -7,31 -4,7 -16,9 -24,11 -5,1 -10,1 -16,2 -11,16 -24,32 -38,47 -4,4 -9,9 -14,12l-1 1 -2 1c-42,10 -87,14 -131,17 -50,3 -101,2 -152,1 -87,-3 -175,-11 -263,-20 -40,-5 -80,-10 -120,-16l-3 0 -2 -2c-9,-8 -18,-19 -25,-29 -9,-14 -18,-28 -26,-42 -18,-35 -35,-71 -50,-107 -20,-46 -38,-93 -55,-140 -8,-21 -15,-42 -22,-63z"/>
   <path class="fil8" d="M242 557l150 141c0,0 107,319 177,379 0,0 452,69 663,18 0,0 16,-10 53,-61 0,0 33,-2 36,-8 4,-7 10,-57 10,-57 0,0 -342,51 -716,-154 0,0 9,-14 -5,-23 -14,-9 -265,-152 -355,-242 0,0 -5,-4 -9,-1 -8,6 -4,8 -4,8z"/>
   <path class="fil0" d="M392 698c0,0 2,5 5,13 54,32 218,104 218,104 0,0 2,-3 2,-7 -62,-25 -225,-110 -225,-110z"/>
   <path class="fil3" d="M588 1080c87,12 459,60 644,15 0,0 16,-10 53,-61 0,0 33,-2 36,-8 4,-7 10,-57 10,-57 0,0 -79,12 -203,1 -28,5 -52,10 -64,13 -44,11 -106,-22 -106,-22 69,54 128,40 197,39 69,0 81,15 81,15 -392,27 -789,-238 -789,-238l19 41c242,155 579,209 579,209 -56,15 -118,-4 -118,-4 71,37 160,38 160,38 -56,9 -129,-5 -256,-60 -126,-55 -180,-29 -180,-29 83,-5 184,57 256,88 72,31 239,23 239,23 -301,32 -620,-126 -620,-126 19,57 41,96 62,123z"/>
   <polygon class="fil0" points="1230,829 1245,831 1244,868 1227,867 "/>
   <polygon class="fil0" points="1186,824 1201,826 1200,863 1183,861 "/>
   <polygon class="fil0" points="1143,817 1157,819 1156,856 1139,855 "/>
   <polygon class="fil0" points="1094,810 1108,812 1107,849 1090,847 "/>
   <polygon class="fil0" points="1044,805 1059,807 1058,844 1041,842 "/>
   <path class="fil3" d="M705 456l283 -45 1 5c3,9 5,17 7,25 5,21 10,42 15,63 14,63 26,127 32,191 3,38 5,76 4,114 -2,33 -6,68 -16,100l-2 6 -6 -2c-16,-3 -31,-6 -47,-9 -33,-7 -67,-13 -101,-18 -24,-4 -48,-8 -73,-10 -10,-1 -20,-1 -31,-1 -8,-1 -16,-1 -24,0l-2 0 -66 -29 15 -314 11 -76z"/>
   <path class="fil6" d="M711 462l272 -44c0,0 94,331 41,489 0,0 -208,-46 -278,-39l-60 -26 15 -309 10 -71z"/>
   <path class="fil0" d="M711 462l272 -44c0,0 3,11 8,30 -116,12 -222,28 -248,47 0,0 59,-25 108,2 48,27 25,43 76,44 0,0 -14,27 -65,7 -13,-5 -27,-8 -42,-8 -44,-2 -88,23 -75,102 0,0 23,-136 141,-48 0,0 -52,-15 -60,10 -7,26 34,99 -46,120 0,0 129,6 177,-105 0,0 8,116 -204,190 0,0 165,68 216,27 51,-41 26,-131 26,-131 0,0 50,97 4,196 -57,-12 -198,-39 -253,-33l-60 -26 15 -309 10 -71z"/>
   <path class="fil3" d="M683 456c3,10 6,21 9,32 6,28 12,55 16,83 6,39 9,78 10,116 1,44 -2,88 -11,132l-2 10 -8 -6c-7,-4 -13,-8 -19,-12 -15,-9 -29,-17 -43,-25 -11,-6 -22,-12 -34,-17 -7,-2 -17,-7 -25,-7l-2 0 -1 -1c-5,-3 -9,-6 -14,-9 -10,-5 -21,-11 -31,-14 -2,-1 -4,-1 -6,-2 -13,-3 -25,-10 -34,-19 -5,-4 -9,-10 -12,-15l-3 -4 3 -4c36,-42 72,-85 107,-128 17,-21 34,-42 51,-63 12,-16 25,-32 36,-49l8 -12 5 14z"/>
   <path class="fil6" d="M676 458c0,0 58,184 25,359 0,0 -92,-60 -124,-62 0,0 -26,-18 -53,-25 -27,-7 -43,-31 -43,-31 0,0 152,-177 195,-241z"/>
   <path class="fil0" d="M676 458c0,0 5,14 11,39 -48,53 -103,119 -107,143 -7,42 100,40 105,79 0,0 -64,-51 -86,-8 -14,27 53,60 106,81 -1,9 -3,17 -4,25 0,0 -92,-60 -124,-62 0,0 -26,-18 -53,-25 -27,-7 -43,-31 -43,-31 0,0 152,-177 195,-241z"/>
   <path class="fil3" d="M644 443c1,-1 4,-2 6,-2 7,1 6,7 5,11 0,3 -1,6 -1,9 -2,11 -4,22 -6,32 -7,35 -14,70 -22,104 -7,24 -13,49 -22,72 -3,11 -7,21 -12,31 -3,8 -7,16 -13,23l-4 6 -6 -5c-4,-3 -9,-7 -14,-10 -13,-9 -26,-18 -40,-26 -37,-22 -80,-41 -123,-51 -6,-1 -12,-2 -18,-3l-19 -3 16 -10c22,-13 43,-26 65,-40 46,-29 92,-58 138,-89 23,-16 47,-32 70,-49z"/>
   <path class="fil6" d="M649 448c1,-7 -33,212 -75,271 0,0 -97,-76 -199,-92 0,0 160,-97 274,-179z"/>
   <path class="fil0" d="M649 448c1,-5 -19,118 -46,204 -15,-56 -10,-118 -10,-118 -51,12 -105,59 -151,111 -22,-8 -44,-15 -67,-18 0,0 160,-97 274,-179z"/>
   <path class="fil3" d="M632 441c-3,7 -6,13 -10,19 -8,16 -17,31 -27,47 -27,45 -59,89 -94,129 -5,5 -10,11 -16,16l-5 6 -5 -7c-3,-3 -6,-7 -9,-10 -9,-9 -20,-17 -30,-24 -41,-26 -90,-35 -136,-45l-22 -5 21 -9c20,-8 42,-14 63,-21 46,-15 92,-32 137,-49 22,-9 44,-18 66,-28 19,-9 39,-18 58,-28l19 -10 -10 19z"/>
   <path class="fil6" d="M626 438c0,0 -61,122 -146,209 0,0 -48,-67 -179,-82 0,0 217,-69 325,-127z"/>
   <path class="fil0" d="M626 438c0,0 -61,122 -146,209 0,0 -5,-7 -17,-18 69,-60 93,-125 93,-125 -52,74 -100,54 -100,54 37,-5 62,-46 62,-46 -50,11 -102,38 -148,68 -20,-7 -43,-12 -69,-15 0,0 217,-69 325,-127z"/>
   <g>
    <path class="fil9" d="M834 194c0,0 39,26 38,115 -1,89 48,64 48,64 0,0 -26,32 -78,29 -53,-4 40,-91 -8,-208z"/>
    <path class="fil9" d="M1091 400c0,0 61,50 123,44 0,0 -24,54 -104,30 0,0 46,-1 60,-13 0,0 -48,10 -54,-2 -7,-13 18,-11 -25,-59z"/>
    <path class="fil9" d="M895 489c7,0 77,1 97,96 21,95 29,111 29,111 0,0 -38,-45 -44,-85 -6,-39 -24,-79 -82,-122z"/>
    <path class="fil9" d="M848 799c0,0 125,-76 117,-128 0,0 35,57 0,77 -34,20 -50,33 -47,54 0,0 12,-39 61,-40 0,0 -13,15 -16,44 -2,29 -70,38 -115,-7z"/>
    <path class="fil9" d="M1297 603c0,0 -13,136 -67,124 -54,-12 -94,-103 -133,-70 0,0 31,-3 35,36 3,38 10,78 65,73 56,-4 75,-3 81,6 0,0 3,-27 -62,-18 0,0 36,-15 60,-20 23,-4 47,-11 21,-131z"/>
    <path class="fil9" d="M679 531c2,0 27,143 15,184 0,0 -2,-44 -24,-52 -23,-8 -48,-17 9,-132z"/>
    <path class="fil9" d="M578 572c0,0 23,101 -3,98 -26,-4 -40,-24 -56,-15 0,0 8,-21 31,-11 22,9 -15,-33 28,-72z"/>
    <path class="fil9" d="M401 578c4,1 85,1 114,-24 0,0 -35,93 -114,24z"/>
   </g>
   <g>
    <path class="fil10" d="M471 842c0,0 35,92 46,97 10,5 98,-14 149,11 0,0 -36,-40 -195,-108z"/>
    <path class="fil10" d="M610 825c3,4 48,68 116,79 69,12 154,69 210,65 0,0 -57,-10 -82,-34 0,0 25,12 46,10 21,-2 39,18 35,14 -3,-3 -12,-29 -103,-40 -91,-12 -159,-55 -222,-94z"/>
    <path class="fil10" d="M443 747c0,0 59,45 93,57 35,12 43,32 43,32 0,0 29,-23 -136,-89z"/>
    <path class="fil10" d="M357 642c0,0 21,41 39,44 18,3 81,44 81,44 0,0 -8,-24 -120,-88z"/>
    <path class="fil10" d="M1104 865c1,0 23,-6 20,-26 -3,-19 2,-23 2,-23l9 14c0,0 -11,36 19,39 31,4 101,28 106,-8 0,0 11,35 -31,34 -41,-1 -63,-10 -73,-4 0,0 8,-11 35,-5 0,0 -12,-10 -39,-5 -27,6 -45,7 -48,-16z"/>
    <path class="fil10" d="M1252 953c0,0 -11,-17 10,-16 21,2 51,-2 54,-6 0,0 2,34 -64,22z"/>
   </g>
   <path class="fil3" d="M484 1057c8,-41 25,-92 74,-94 8,0 15,1 23,2 14,3 27,10 40,16 5,3 9,6 14,8 2,1 5,3 7,4 7,1 15,2 23,4 5,1 9,2 12,6 3,5 3,10 3,15 0,6 2,13 4,19 8,3 15,5 22,7 6,2 11,5 15,9 4,5 6,11 8,17 2,8 4,15 6,23l77 12c4,-3 7,-6 11,-9 4,-4 7,-7 11,-10 11,-9 22,-12 36,-14 10,-2 21,-2 31,1 7,1 13,4 19,7 6,3 10,4 16,5 6,-16 11,-35 22,-48 12,-16 29,-22 49,-24 20,-2 39,1 56,12 8,5 15,12 21,18 6,7 12,13 19,20 10,-1 21,-1 31,-3 9,-1 17,-3 26,-4 11,-3 26,-6 37,-2 8,3 13,8 17,15 6,8 10,19 14,28 11,5 23,10 35,15 6,2 12,4 18,4 7,0 15,-1 21,-2 15,-1 29,0 43,3 9,2 20,5 30,4 3,0 6,0 9,-1 27,-10 50,-13 77,-4 13,5 25,12 38,17 17,7 34,11 52,12l6 0 1 13 -6 1c-58,8 -117,12 -176,15 -49,2 -97,3 -146,6 -21,1 -43,0 -65,-3 -19,-2 -38,-4 -58,-6 -8,-1 -16,-2 -24,-2 -7,-1 -13,-1 -19,0 -17,1 -33,5 -49,8 -16,4 -31,8 -46,10 -19,4 -38,5 -58,5 -29,0 -58,-6 -86,-11 -24,-5 -51,-11 -75,-10 -59,2 -117,-3 -175,-2 -56,1 -113,1 -170,0 -59,-1 -118,-4 -176,-10l-39 -4 38 -9c13,-4 27,-6 41,-9 18,-3 37,-6 55,-9 21,-4 43,-8 64,-12 8,-2 16,-4 24,-6 3,-1 7,-2 11,-4 1,-9 0,-18 0,-27 0,-9 1,-19 6,-25 6,-6 15,-7 23,-6 11,2 22,5 32,9z"/>
   <path class="fil4" d="M490 1066c-77,-29 -55,0 -61,45 -24,14 -157,31 -200,41 110,12 235,12 346,10 58,-1 119,4 174,2 47,-2 104,21 163,21 66,1 99,-18 151,-23 35,-3 112,14 167,11 105,-6 217,-6 321,-21 -80,-5 -87,-54 -164,-26 -24,9 -46,-9 -84,-5 -29,3 -26,5 -81,-18 -26,-71 -35,-35 -122,-33 -29,-29 -43,-55 -92,-50 -51,5 -54,38 -68,73 -26,-2 -30,-19 -69,-14 -32,4 -35,17 -57,33l-85 -13c-13,-47 -4,-42 -50,-56 -15,-42 10,-36 -38,-44 -14,-2 -127,-97 -151,67z"/>
   <path class="fil11" d="M490 1066c-77,-29 -55,0 -61,45 -24,14 -157,31 -200,41 25,3 50,5 75,6 88,-26 195,-52 238,-41 0,0 -54,-26 -87,-12 0,0 9,-36 41,-25 32,12 97,49 158,9 0,0 -90,20 -135,-23 0,0 19,12 41,3 22,-10 -9,-86 42,-65 51,20 80,70 73,92 0,0 24,-14 22,-25 0,0 21,32 16,46 -6,15 104,38 146,16 41,-22 102,-2 106,23 0,0 -11,-62 -101,-43 0,0 68,-24 126,13 0,0 -8,-24 -21,-30 -13,-5 -4,-31 36,-46 40,-14 99,45 35,85 0,0 43,-15 53,-43 10,-29 105,3 99,27 0,0 17,-16 -32,-39 0,0 45,-13 51,37 6,50 112,38 112,38 0,0 -40,-1 -65,-22 0,0 88,23 131,13 38,-9 54,-12 117,12 15,-2 30,-4 45,-6 -80,-5 -87,-54 -164,-26 -24,9 -46,-9 -84,-5 -29,3 -26,5 -81,-18 -26,-71 -35,-35 -122,-33 -29,-29 -43,-55 -92,-50 -51,5 -54,38 -68,73 -26,-2 -30,-19 -69,-14 -32,4 -35,17 -57,33l-85 -13c-13,-47 -4,-42 -50,-56 -15,-42 10,-36 -38,-44 -14,-2 -127,-97 -151,67z"/>
   <path class="fil3" d="M665 326c4,-12 9,-24 18,-33 10,-9 23,-12 36,-12 12,0 23,4 32,12 10,9 17,20 24,30 33,-6 52,-1 76,25l6 7 -9 4c-20,9 -45,13 -67,15 -28,2 -56,2 -83,0 -45,-2 -90,-7 -134,-12l-10 -1 4 -8c16,-36 73,-38 107,-27z"/>
   <path class="fil4" d="M669 335c-31,-13 -90,-13 -105,20 72,9 218,26 281,-2 -22,-26 -39,-29 -73,-22 -14,-19 -23,-43 -53,-43 -34,-1 -40,21 -50,47z"/>
   <path class="fil5" d="M669 335c-31,-13 -90,-13 -105,20 9,1 18,2 28,3 16,-11 45,-21 87,-7 80,24 75,-18 75,-18 0,0 -20,20 -41,10 -21,-10 -26,-23 -20,-31 0,0 9,19 24,14 15,-6 14,-19 37,0 23,18 26,28 41,22 14,-6 18,-9 18,-9 0,0 18,4 17,19 6,-1 11,-3 15,-5 -22,-26 -39,-29 -73,-22 -14,-19 -23,-43 -53,-43 -34,-1 -40,21 -50,47z"/>
   <path class="fil0" d="M1173 1231c9,-1 17,-2 26,-4 4,0 8,0 11,1 3,-2 7,-3 10,-4 14,-1 27,-3 40,-5 9,-1 17,1 23,7 1,0 2,1 2,2 5,-5 11,-8 17,-12 7,-3 14,-6 22,-8 6,-2 13,-3 19,-4 11,-2 22,-2 33,-1 8,1 15,2 22,4 4,-5 11,-9 18,-10 13,-2 27,-3 40,-5 9,-1 16,1 23,7 6,5 10,13 10,21 0,20 0,40 0,59 0,20 0,40 0,59 0,14 -9,25 -23,28 -13,3 -26,6 -40,10 -7,1 -15,0 -22,-4 -1,1 -2,1 -3,2 -8,6 -17,11 -26,15 -9,3 -17,6 -26,8 -11,3 -22,4 -33,4 -9,0 -18,-1 -27,-3 -4,7 -10,11 -18,13 -14,3 -27,6 -40,9 -4,1 -8,1 -11,1 -3,2 -7,3 -11,4 -12,3 -25,6 -37,9 -9,2 -17,0 -23,-5 -4,7 -11,12 -19,14 -13,3 -26,6 -39,9 -4,1 -7,1 -11,0 -3,2 -6,4 -10,5 -13,3 -27,6 -40,9 -9,2 -17,0 -24,-6 -8,-5 -11,-13 -11,-22 0,-7 0,-14 0,-20 -2,1 -3,2 -5,3 -9,6 -19,10 -29,12 -1,0 -1,0 -1,0 0,1 0,1 0,1 0,9 0,17 0,25 0,14 -9,25 -23,28 -13,3 -26,6 -39,9 -9,2 -17,0 -24,-6 -7,-5 -11,-13 -11,-22 0,-28 0,-56 0,-84 0,-29 0,-57 0,-85 0,-2 0,-3 0,-5 -7,1 -14,2 -21,3 -12,2 -23,-4 -29,-14 0,1 0,2 -1,2 -3,11 -12,18 -23,20 -13,2 -27,4 -40,6 -10,1 -20,-3 -26,-10 -7,-8 -9,-18 -6,-28 1,-2 1,-3 2,-5 -6,2 -12,4 -18,5 0,6 0,13 0,19 0,15 -10,27 -24,29 -14,2 -27,4 -40,6 -9,1 -17,-1 -23,-7 -7,-6 -10,-13 -10,-22 0,-6 0,-13 0,-20 0,0 0,0 -1,1 -9,5 -19,8 -29,9 0,8 0,15 0,23 0,14 -10,26 -24,28 -14,2 -27,4 -40,6 -1,0 -3,0 -4,0 -1,0 -2,1 -3,1 -13,2 -27,4 -40,6 -12,1 -24,-4 -29,-15 -1,1 -1,1 -1,2 -3,11 -12,19 -23,20 -14,2 -27,4 -41,6 -15,2 -31,5 -46,7 -7,1 -13,0 -18,-3 -4,4 -10,7 -16,8 -13,2 -27,3 -40,5 -8,2 -16,-1 -23,-6 -6,-6 -10,-13 -10,-22 0,-30 0,-60 0,-90 0,-30 0,-59 0,-89 0,-15 12,-28 27,-29 13,-1 26,-2 39,-3 7,-1 13,1 18,4 4,-4 10,-6 16,-7 17,-1 33,-2 49,-4 10,0 19,4 25,12 4,-9 13,-15 23,-15 11,-1 22,-2 33,-3 14,-1 26,7 30,20 0,1 1,2 1,3 1,-15 12,-26 26,-28 22,-1 43,-3 64,-5 11,0 22,1 32,5 3,1 6,2 9,4 5,-8 13,-13 23,-14 21,-1 42,-3 63,-5 11,0 21,1 31,4 10,4 19,9 27,15 3,4 7,7 10,11 2,-6 4,-12 6,-18 3,-11 13,-18 25,-19 11,-1 22,-2 33,-3 13,-1 25,7 29,19 3,7 5,13 8,20 0,-5 0,-10 0,-15 0,-15 11,-28 26,-29 13,-1 26,-2 39,-3 8,-1 16,2 22,8 6,5 9,12 9,21 0,16 0,33 0,50 0,6 0,12 0,18 13,-2 26,-4 39,-5 1,-1 3,-1 5,-1 2,-5 4,-11 6,-17 8,-22 17,-44 25,-66 5,-11 14,-17 25,-18 11,-1 22,-2 33,-3 13,-1 24,6 29,18 8,19 17,39 25,59 8,19 17,38 25,57 3,6 3,12 2,18zm-803 -15c-2,3 -4,6 -6,9 -6,10 -12,21 -19,31 3,4 6,8 9,13 3,-10 6,-19 9,-29 2,-8 4,-16 7,-24z"/>
   <path class="fil1" d="M1009 1227c7,-18 13,-36 20,-53 8,-22 17,-44 25,-66 1,-3 4,-5 7,-5 11,-1 22,-2 33,-3 3,0 6,2 8,5 8,19 16,39 25,59 8,19 16,38 25,57 1,3 1,5 0,7 -2,2 -4,4 -6,4 -13,2 -27,4 -40,6 -4,0 -7,-1 -9,-4 -1,-4 -3,-7 -4,-11 -10,1 -20,3 -29,4 -2,5 -4,9 -5,14 -1,2 -4,4 -6,5 -14,2 -27,3 -41,5 -2,1 -3,0 -5,-1 -1,2 -3,3 -4,3 -37,5 -74,10 -110,16 -3,0 -5,-1 -6,-2 -1,0 -1,-1 -1,-1 -1,0 -1,0 -1,1 -1,2 -3,3 -5,3 -14,2 -27,4 -41,6 -3,1 -7,-1 -8,-5 -2,-4 -3,-8 -5,-12 -9,1 -19,3 -28,4 -2,5 -4,10 -6,16 -1,3 -3,4 -6,5 -13,2 -27,4 -40,6 -3,0 -6,-1 -7,-3 -2,-2 -3,-5 -2,-7 9,-26 17,-51 25,-77 9,-24 17,-49 26,-74 1,-3 3,-5 6,-5 11,-1 23,-2 34,-3 3,0 6,2 7,5 9,23 17,45 26,68 7,20 15,41 23,61 0,-21 0,-42 0,-63 0,-23 0,-45 0,-68 0,-4 3,-8 7,-8 13,-1 26,-2 39,-3 2,0 4,1 5,2 2,2 3,3 3,6 0,16 0,33 0,50 0,14 0,28 0,42 21,-3 42,-6 63,-8 2,-1 4,0 6,1 1,2 2,4 2,6 0,5 0,10 0,15zm-384 -51c0,-10 0,-21 0,-32 0,-4 3,-7 7,-8 21,-1 43,-3 64,-5 8,0 15,1 23,3 7,3 13,6 19,11 6,5 10,11 13,18 4,8 6,15 6,24 0,8 -2,16 -5,24 -4,7 -8,13 -13,19 -6,6 -12,11 -19,15 -7,3 -15,6 -23,7 -5,1 -11,1 -17,2 0,5 0,11 0,16 0,7 0,15 0,22 0,4 -3,8 -6,8 -14,2 -27,4 -40,6 -2,0 -5,-1 -6,-2 -2,-2 -3,-3 -3,-6 0,-25 0,-50 0,-75 0,1 0,1 0,2 -4,7 -8,14 -13,20 -6,6 -12,11 -19,15 -7,4 -15,7 -23,8 -5,0 -11,1 -17,2 0,5 0,11 0,17 0,8 0,16 0,24 0,4 -3,7 -7,7 -13,2 -26,4 -39,6 -1,0 -3,0 -4,0 -1,0 -2,1 -3,1 -13,2 -27,4 -40,6 -4,0 -8,-2 -9,-5 -1,-5 -3,-11 -5,-16 -9,2 -18,3 -28,4 -2,6 -3,13 -5,19 -1,3 -3,5 -6,5 -14,2 -27,4 -41,6 -15,2 -31,5 -46,7 -3,0 -6,-1 -8,-3 -5,-8 -11,-17 -17,-25 -1,-1 -2,-3 -3,-4 0,1 0,1 0,2 0,9 0,18 0,27 0,4 -2,7 -6,8 -13,2 -27,4 -40,6 -2,0 -4,-1 -6,-2 -2,-2 -3,-4 -3,-6 0,-30 0,-60 0,-90 0,-30 0,-59 0,-89 0,-4 3,-8 7,-8 14,-1 27,-2 40,-3 2,0 4,0 6,2 2,1 2,3 2,6 0,8 0,17 0,26 1,-2 2,-3 3,-5 6,-9 11,-19 17,-28 1,-2 4,-4 6,-4 16,-1 32,-2 48,-4 3,0 6,2 7,4 2,3 2,6 0,8 -9,15 -18,30 -27,45 -9,14 -17,28 -26,43 9,12 17,24 25,36 6,8 12,16 18,24 6,-24 13,-47 20,-71 8,-29 16,-58 25,-87 1,-3 4,-5 7,-5 11,-1 22,-2 33,-3 4,0 7,2 8,5 8,27 17,54 25,81 6,17 11,35 17,52 0,-18 0,-36 0,-54 0,-27 0,-54 0,-81 0,-4 3,-7 7,-7 21,-2 42,-4 64,-6 8,0 15,1 23,4 7,2 13,6 19,11 6,6 10,12 14,19 0,1 0,1 0,1zm-71 21c0,5 0,10 0,15 4,0 9,-1 13,-1 2,-1 3,-2 4,-3 2,-2 2,-4 2,-6 0,-2 0,-4 -2,-5 0,-1 -1,-2 -2,-2 -5,1 -10,1 -15,2zm127 -12c0,4 0,9 0,13 4,0 9,-1 13,-1 2,0 3,-1 4,-3 2,-1 2,-3 2,-5 0,-2 0,-3 -1,-4 -1,-1 -2,-2 -3,-2 -5,1 -10,1 -15,2z"/>
   <path class="fil9" d="M319 1343c-6,-8 -12,-16 -17,-24 -6,-8 -12,-17 -17,-25 0,9 0,18 0,27 0,9 0,18 0,27 -14,2 -27,4 -40,6 0,-30 0,-60 0,-90 0,-30 0,-59 0,-89 13,-1 26,-2 40,-3 0,9 0,18 0,27 0,9 0,18 0,27 5,-10 11,-19 17,-29 5,-9 11,-19 17,-28 16,-1 32,-3 48,-4 -9,15 -19,30 -28,45 -9,16 -18,31 -28,47 10,13 19,27 28,40 9,13 19,26 28,39 -16,3 -32,5 -48,7zm140 -20c-3,-7 -5,-14 -7,-21 -14,2 -27,3 -40,5 -2,8 -4,16 -6,24 -14,2 -27,4 -41,6 8,-30 17,-60 25,-89 8,-29 17,-58 25,-87 11,-1 23,-1 34,-2 8,27 16,53 25,80 8,26 17,52 25,78 -13,2 -27,4 -40,6zm-27 -92c-3,11 -6,22 -9,33 6,0 12,-1 18,-2 -3,-10 -6,-21 -9,-31zm137 29c-8,1 -16,2 -24,3 0,8 0,16 0,24 0,8 0,16 0,24 -13,2 -26,4 -39,5 0,-27 0,-54 0,-81 0,-27 0,-54 0,-81 21,-2 42,-3 63,-5 7,0 14,0 20,3 6,2 12,5 17,10 5,4 9,10 12,16 2,7 4,14 4,21 0,8 -2,16 -4,23 -3,6 -7,13 -12,18 -5,5 -10,10 -17,13 -6,4 -13,6 -20,7zm-1 -72c-7,0 -15,1 -22,2 0,10 0,20 0,31 7,-1 15,-2 22,-3 4,0 7,-2 9,-5 3,-3 4,-7 4,-11 0,-4 -1,-7 -4,-10 -2,-3 -5,-5 -9,-4zm129 56c-9,1 -17,2 -25,3 0,8 0,15 0,23 0,7 0,15 0,22 -13,2 -26,4 -39,6 0,-25 0,-51 0,-77 0,-25 0,-51 0,-77 21,-2 42,-3 63,-5 7,0 14,0 20,2 6,3 12,6 17,10 5,4 9,10 12,16 3,6 4,12 4,20 0,7 -1,14 -4,20 -3,7 -7,13 -12,18 -5,5 -10,9 -17,13 -6,3 -13,5 -19,6zm-2 -68c-7,0 -15,1 -22,2 0,9 0,19 0,29 7,-1 15,-2 22,-2 4,-1 7,-3 9,-6 3,-3 4,-6 4,-10 0,-3 -1,-7 -4,-10 -2,-2 -5,-4 -9,-3zm143 93c-2,-6 -5,-12 -7,-18 -13,1 -26,3 -39,5 -2,7 -5,13 -7,20 -13,2 -27,4 -40,6 8,-25 16,-51 25,-76 8,-25 16,-50 25,-75 11,-1 22,-1 33,-2 9,23 17,45 25,68 9,22 17,44 26,66 -14,2 -27,4 -41,6zm-26 -79c-3,10 -6,19 -9,29 6,-1 12,-1 17,-2 -3,-9 -5,-18 -8,-27zm80 71c0,-23 0,-46 0,-69 0,-23 0,-45 0,-68 12,-1 25,-2 38,-3 0,16 0,33 0,50 0,17 0,34 0,50 24,-3 48,-6 71,-9 0,6 0,11 0,17 0,5 0,11 0,16 -36,5 -73,11 -109,16zm212 -31c-2,-5 -4,-10 -6,-15 -14,1 -27,3 -40,5 -2,6 -4,12 -7,18 -13,2 -27,4 -40,6 8,-23 17,-45 25,-68 8,-22 17,-44 25,-66 11,-1 22,-1 34,-2 8,20 16,39 25,59 8,19 16,39 25,58 -14,2 -27,3 -41,5zm-26 -68c-3,8 -6,17 -9,25 6,0 12,-1 18,-2 -3,-7 -6,-15 -9,-23z"/>
   <path class="fil12" d="M319 1343c-6,-8 -12,-16 -17,-24 -6,-8 -12,-17 -17,-25 0,9 0,18 0,27l0 4c-13,-11 -26,-24 -40,-39l0 -22 0 -5c17,2 42,5 74,8 6,10 13,20 20,30 9,13 19,26 28,39 -16,3 -32,5 -48,7zm-4 -167c1,-3 2,-5 4,-7 16,-1 32,-3 48,-4 -3,5 -7,11 -10,16 -14,-2 -28,-3 -42,-5zm627 78c21,-6 41,-12 59,-18l0 -7c0,-6 0,-11 0,-17 -23,3 -47,6 -71,9 0,-16 0,-33 0,-50l0 -13c-13,2 -26,4 -38,6l0 28 0 20c3,0 5,-1 5,-1 -2,1 -3,2 -5,2l0 23c46,-9 80,-18 80,-18 -26,8 -53,16 -80,22l0 21c16,-2 33,-5 50,-7zm74 -23c21,-8 41,-15 58,-23 0,0 14,-13 37,-61 -5,-13 -11,-26 -16,-39 -12,1 -23,1 -34,2 -2,7 -5,13 -7,19 1,0 1,0 1,0 -1,1 -1,1 -1,1 -6,15 -12,31 -18,46 -7,18 -13,36 -20,55zm-181 -84c-15,4 -32,6 -48,7 -1,3 -2,6 -3,9 20,2 38,1 57,-1 -2,-5 -4,-10 -6,-15zm-103 4c-9,-2 -14,-3 -14,-3 6,3 12,5 18,6 -1,-1 -2,-2 -3,-3 0,0 0,0 -1,0zm160 1c12,-3 25,-6 38,-10l0 -21c-13,1 -26,2 -38,3l0 28zm-49 18c-21,2 -42,4 -63,5 -2,6 -4,13 -6,19 15,-1 27,-1 37,-2l1 -2 0 2c17,-1 26,-2 26,-2 -7,4 -15,7 -23,9 1,6 3,12 5,18 -5,1 -11,1 -17,2 2,-6 3,-12 5,-18 -13,5 -27,7 -40,10 -1,3 -2,7 -4,11 38,2 72,-2 97,-5 -2,-7 -5,-14 -8,-20 -3,-9 -6,-18 -10,-27zm-95 7c-15,1 -30,1 -45,1 1,1 1,1 1,1 3,3 4,7 4,10 0,3 0,5 -1,7 15,0 29,-1 41,-1 1,-3 1,-6 1,-8 0,-4 0,-7 -1,-10zm-75 2c-13,0 -27,0 -40,0l0 17c14,0 27,0 40,0l0 -17zm-55 -1c-39,-1 -76,-2 -112,-5l0 20c13,0 27,1 40,2l0 -5c7,-1 15,-2 22,-2 4,-1 7,1 9,4 1,1 2,2 3,4 14,0 28,0 42,0 -1,-6 -2,-12 -4,-18l0 0zm-166 -10c-13,-1 -25,-2 -38,-4 -2,7 -4,15 -6,22 17,2 34,3 50,4 -2,-7 -4,-15 -6,-22zm289 46c-24,2 -40,2 -40,2 11,2 24,4 36,5 1,-2 3,-5 4,-7zm122 8c-28,6 -61,10 -102,10 -3,8 -5,17 -8,25 38,-2 80,-9 117,-16 -2,-7 -5,-13 -7,-19zm-137 10c-28,-1 -59,-4 -93,-7l0 23c13,3 27,5 39,6l0 -7c8,-1 16,-2 25,-3 6,-1 13,-3 19,-6 4,-2 7,-4 10,-6zm-109 -9c-11,-1 -22,-2 -33,-4 -4,0 -9,-1 -13,-1 -1,0 -2,0 -3,0 -7,1 -15,2 -22,3l0 -6c-14,-1 -28,-2 -40,-2l0 17c32,3 65,8 97,13 1,-1 2,-2 3,-3 4,-5 8,-11 11,-17zm-151 -9c-31,2 -54,6 -69,11l-2 6c24,-3 49,-4 75,-3 -1,-5 -3,-9 -4,-14zm406 31c-14,2 -27,5 -40,8 2,5 4,10 6,16 14,-2 27,-4 41,-6 -3,-6 -5,-12 -7,-18zm-81 14c-14,3 -27,4 -41,6 -2,6 -4,11 -5,17 13,-2 27,-4 40,-6 2,-5 4,-11 6,-17zm-119 14c-13,1 -26,2 -39,2l0 23c13,-2 26,-4 39,-6l0 -19zm-127 5c-13,0 -26,0 -39,0l0 38c13,-1 26,-3 39,-5 0,-8 0,-16 0,-24l0 -9zm-59 -1c-37,0 -72,-2 -103,-4 -6,21 -12,42 -18,64 14,-2 27,-4 41,-6 2,-8 4,-16 6,-24 13,-2 26,-3 40,-5 2,7 4,14 7,21 13,-2 27,-4 40,-6 -4,-13 -9,-26 -13,-40zm592 -115c-3,8 -6,17 -9,25 6,0 12,-1 18,-2 -3,-7 -6,-15 -9,-23z"/>
   <path class="fil1" d="M939 1416c0,6 0,12 0,18 0,9 0,17 0,25 0,4 -3,7 -6,8 -13,3 -27,6 -40,8 -2,1 -4,1 -6,-1 -2,-2 -3,-4 -3,-6 0,-28 0,-56 0,-84 0,-29 0,-57 0,-85 0,-4 3,-7 6,-8 22,-3 43,-5 64,-8 8,-1 15,-1 23,2 7,2 13,6 19,11 6,5 10,11 14,18 3,8 5,16 5,25 0,9 -2,17 -5,26 -3,8 -7,15 -13,21 -5,7 -11,12 -18,17 -7,4 -15,8 -23,9 -6,1 -11,3 -17,4zm132 -141c0,26 0,51 0,77 0,26 0,51 0,77 0,3 -2,7 -6,7 -13,3 -26,6 -40,9 -2,1 -4,0 -6,-1 -2,-2 -3,-4 -3,-6 0,-26 0,-52 0,-79 0,-26 0,-52 0,-78 0,-4 3,-7 6,-8 14,-2 27,-4 40,-5 3,-1 5,0 7,1 1,2 2,4 2,6zm60 94c0,3 0,7 0,10 0,12 0,24 0,36 0,4 -3,7 -6,8 -13,3 -26,6 -39,8 -2,1 -4,0 -6,-1 -2,-2 -3,-4 -3,-6 0,-25 0,-51 0,-76 0,-25 0,-50 0,-76 0,-4 3,-7 7,-7 12,-2 25,-4 37,-6 3,0 6,1 8,4 7,11 14,22 21,33 2,3 5,7 7,10 0,-3 0,-6 0,-10 0,-11 0,-23 0,-35 0,-4 3,-7 6,-7 13,-2 26,-4 39,-6 2,0 4,1 6,2 2,2 3,4 3,6 0,23 0,47 0,70 0,24 0,47 0,71 0,4 -3,7 -6,7 -13,3 -25,6 -38,9 -3,1 -6,0 -8,-3 -7,-10 -14,-20 -21,-31 -2,-3 -5,-7 -7,-10zm86 23c0,-23 0,-46 0,-69 0,-24 0,-47 0,-70 0,-4 2,-7 6,-8 14,-2 27,-3 40,-5 3,-1 5,0 6,2 2,1 3,3 3,5 0,23 0,46 0,68 0,23 0,45 0,68 0,4 -2,7 -6,7 -13,3 -27,7 -40,10 -2,0 -5,0 -6,-2 -2,-1 -3,-3 -3,-6zm73 -15c-1,0 -1,0 -1,0 -1,0 -2,-1 -2,-1 -2,0 -4,-1 -5,-3 -2,-2 -3,-4 -3,-6 0,-3 2,-6 3,-8 2,-4 4,-8 6,-11 2,-3 4,-7 5,-10 2,-3 3,-6 5,-8 1,-3 5,-5 8,-4 1,0 2,1 3,1 1,0 2,0 3,1 5,1 11,2 16,2 6,1 12,0 18,-1 0,0 1,0 2,-1 1,0 2,0 3,0 1,-1 3,-1 4,-2 0,0 0,0 0,0 0,0 -1,0 -1,0 -2,0 -4,0 -6,0 -2,0 -5,0 -7,0 -4,0 -7,0 -10,-1 -4,0 -7,0 -10,0 -3,0 -7,-1 -10,-2 -3,0 -6,-1 -9,-2 -7,-3 -12,-7 -16,-13 -4,-7 -6,-16 -6,-24 0,-7 2,-14 5,-21 3,-6 7,-12 12,-17 4,-4 9,-8 15,-11 5,-3 11,-5 17,-7 6,-1 11,-3 17,-3 10,-2 19,-2 28,-1 10,1 20,3 29,7 2,1 3,3 4,5 1,2 0,4 -1,6 -3,5 -6,10 -9,15 -3,6 -6,11 -9,16 -1,3 -5,4 -8,3 -7,-1 -13,-3 -19,-4 -6,-1 -12,0 -18,0 -1,1 -3,1 -4,1 0,0 -1,0 -1,0 1,1 2,1 2,1 3,0 7,0 10,0 4,0 8,1 12,1 4,0 8,1 12,1 4,1 8,2 13,3 4,1 7,3 11,6 4,2 7,6 9,10 2,3 3,6 4,10 0,3 0,6 0,9 0,9 -2,18 -6,26 -4,7 -10,13 -16,17 -7,5 -14,9 -22,13 -7,2 -15,5 -23,7 -9,2 -19,3 -28,3 -9,0 -18,-1 -26,-3zm122 -30c0,-20 0,-40 0,-60 0,-21 0,-41 0,-61 0,-4 3,-7 7,-8 13,-2 27,-3 40,-5 2,-1 4,0 6,1 2,2 3,4 3,6 0,20 0,40 0,59 0,20 0,40 0,59 0,4 -3,7 -6,8 -14,3 -27,6 -40,9 -3,1 -5,0 -7,-2 -2,-1 -3,-3 -3,-6zm-473 -7c0,6 0,11 0,16 5,0 9,-1 13,-2 2,0 3,-2 4,-3 2,-2 3,-4 3,-7 0,-2 -1,-4 -2,-5 -1,-1 -1,-1 -2,-1 -5,0 -11,1 -16,2z"/>
   <path class="fil12" d="M955 1405c-8,1 -16,3 -24,5 0,8 0,16 0,24 0,9 0,17 0,25 -13,3 -26,6 -39,9 0,-28 0,-56 0,-84 0,-29 0,-57 0,-85 21,-3 42,-6 63,-9 7,-1 13,0 19,2 7,2 12,5 17,9 5,5 9,10 12,17 3,6 4,13 4,21 0,8 -1,16 -4,23 -3,7 -7,14 -12,20 -5,5 -10,10 -16,15 -7,4 -13,6 -20,8zm-1 -75c-8,1 -15,2 -22,4 0,10 0,21 0,31 7,-1 14,-2 22,-3 3,-1 6,-3 9,-7 2,-3 3,-7 3,-11 0,-4 -1,-7 -3,-10 -3,-3 -6,-4 -9,-4zm69 108c0,-26 0,-52 0,-79 0,-26 0,-52 0,-78 14,-2 27,-4 40,-6 0,26 0,51 0,77 0,26 0,51 0,77 -13,3 -26,6 -40,9zm142 -32c-7,-11 -14,-21 -21,-31 -7,-10 -14,-21 -21,-32 0,12 0,24 0,36 0,12 0,24 0,36 -13,3 -25,6 -38,9 0,-25 0,-51 0,-76 0,-25 0,-50 0,-76 12,-1 25,-3 37,-5 7,11 14,22 21,33 7,11 15,21 22,32 0,-12 0,-24 0,-36 0,-11 0,-23 0,-35 12,-2 25,-3 38,-5 0,23 0,47 0,70 0,24 0,47 0,71 -12,3 -25,6 -38,9zm59 -14c0,-23 0,-46 0,-69 0,-24 0,-47 0,-70 14,-2 27,-4 40,-6 0,23 0,46 0,68 0,23 0,45 0,68 -13,3 -26,6 -40,9zm119 -23c-9,2 -18,3 -27,3 -9,0 -17,-1 -25,-3 0,0 -1,0 -1,0 0,0 -1,0 -1,0 -1,0 -1,-1 -2,-1 0,-1 0,-1 0,-1 0,0 1,-2 2,-5 2,-3 4,-7 6,-11 2,-3 3,-6 5,-10 2,-3 3,-5 4,-7 2,0 3,0 4,0 0,1 1,1 2,1 6,2 12,3 18,3 6,0 12,0 19,-2 1,0 2,0 3,0 1,0 2,-1 3,-1 2,0 4,-1 5,-2 2,-1 3,-2 5,-3 1,-2 1,-4 1,-6 0,-2 0,-3 -2,-3 -1,-1 -3,-2 -4,-2 -1,0 -2,0 -3,0 -2,-1 -5,-1 -7,-1 -2,0 -5,0 -7,0 -4,0 -7,0 -10,0 -3,0 -6,0 -9,-1 -4,0 -7,-1 -9,-1 -3,-1 -6,-2 -8,-3 -5,-2 -9,-5 -12,-9 -4,-5 -5,-11 -5,-20 0,-6 1,-12 4,-18 3,-5 6,-10 10,-14 4,-4 9,-8 14,-10 5,-3 10,-5 15,-7 6,-1 11,-2 16,-3 9,-1 18,-1 27,0 9,0 17,3 26,6 -4,6 -7,11 -9,16 -3,4 -6,10 -9,15 -7,-2 -14,-4 -20,-4 -6,-1 -13,-1 -20,0 -1,0 -3,0 -5,1 -1,0 -3,1 -4,1 -2,1 -3,2 -4,3 -1,2 -2,3 -2,5 0,1 1,2 1,3 1,1 2,2 4,2 2,1 5,1 8,1 3,1 6,1 10,1 3,0 7,0 11,1 4,0 8,0 12,1 4,0 8,1 11,2 4,1 7,3 10,5 3,2 5,4 6,7 2,3 3,5 3,8 1,3 1,5 1,8 0,8 -2,16 -6,22 -3,6 -8,11 -14,15 -6,5 -12,9 -20,11 -7,3 -14,6 -21,7zm77 -22c0,-20 0,-40 0,-60 0,-21 0,-41 0,-61 13,-2 27,-4 40,-6 0,20 0,40 0,59 0,20 0,40 0,59 -13,3 -27,6 -40,9z"/>
   <path class="fil9" d="M955 1405c-8,1 -16,3 -24,5 0,8 0,16 0,24l0 3c-12,-11 -26,-25 -39,-42l0 -11 0 -28c10,2 24,4 40,6l0 3c3,0 7,-1 11,-2 17,2 36,4 56,6 -2,4 -5,9 -8,13 -5,5 -10,10 -16,15 -7,4 -13,6 -20,8zm50 -83c0,2 1,4 1,6 -7,1 -15,3 -22,5 0,0 6,-5 21,-11zm387 -87c-2,2 -4,3 -6,3 -23,13 -57,13 -81,11 -1,1 -2,2 -3,3 0,0 -1,0 -1,1 32,9 61,9 88,4 0,-1 1,-2 2,-3 2,-5 5,-10 9,-16 -3,-1 -5,-2 -8,-3zm28 14c13,-3 26,-8 40,-12l0 -17c-13,2 -27,4 -40,6l0 23zm40 4c-13,3 -27,5 -40,7l0 27 0 22c6,-1 9,-2 9,-2 -3,2 -6,3 -9,4l0 22c15,-3 29,-7 40,-10l0 -44 0 -26zm-76 13c-4,0 -7,0 -10,1 2,0 5,1 8,2l2 -3zm-56 5c-13,1 -26,2 -39,3 -1,3 -1,7 -1,10 0,3 0,5 0,7 56,-1 91,-5 91,-5 -26,15 -57,21 -80,24 1,1 4,3 6,3 2,1 5,2 8,3 2,0 5,1 9,1 3,1 6,1 9,1 3,0 6,0 10,0 2,0 5,0 7,0 1,0 3,0 4,0 20,-1 38,-3 52,-6 0,-2 -1,-4 -1,-6 0,-3 -1,-5 -3,-8 -1,-3 -3,-5 -6,-7 -3,-2 -6,-4 -10,-5 -3,-1 -7,-2 -11,-2 -4,-1 -8,-1 -12,-1 -4,-1 -8,-1 -11,-1 -4,0 -7,0 -10,-1 -3,0 -6,0 -8,-1 -2,0 -3,-1 -4,-2 0,-1 -1,-2 -1,-3 0,-1 1,-3 1,-4zm-64 4c-13,0 -26,0 -40,0l0 17c14,0 28,0 40,0l0 -17zm-61 0c-13,-1 -26,-1 -38,-2l0 19c13,0 26,0 38,0l0 -17zm-78 -4c-7,-1 -13,-1 -20,-2l-20 3 0 16c18,1 35,2 53,3 -5,-7 -9,-13 -13,-20zm-102 12c14,1 27,2 40,3l0 -11c-13,2 -26,4 -40,6l0 2zm241 29c0,0 -1,0 -1,0 1,0 1,0 1,0l0 0zm140 5c-12,3 -25,6 -40,8 0,2 0,3 -1,5 -2,1 -3,2 -5,3 -1,1 -3,2 -5,2 -1,0 -2,1 -3,1 -1,0 -2,0 -3,0 -7,2 -13,2 -19,2 -6,0 -12,-1 -18,-3 -1,0 -2,0 -2,-1 -1,0 -2,0 -4,0 -1,2 -2,4 -4,7 -2,4 -3,7 -5,10 -1,1 -1,2 -2,3 32,-1 70,-8 103,-15 1,-1 2,-2 2,-3 4,-6 5,-12 6,-19zm-140 10c-12,-1 -26,-2 -40,-4l0 25c11,2 21,3 30,5 3,0 7,1 10,1l0 -27zm-61 -7c-12,-1 -24,-3 -37,-5 -1,0 -1,0 -1,0l0 17c-4,-6 -9,-13 -13,-19 -26,-3 -48,-4 -67,-4l0 16c39,3 81,12 118,19l0 -18 0 -6zm-140 -10c-16,1 -29,4 -40,7l0 8c13,-1 27,-2 40,-1l0 -14zm397 15c-13,4 -27,8 -40,12l0 10c13,-3 27,-6 40,-9l0 -13zm-68 19c-35,9 -69,15 -103,19 -1,3 -2,4 -2,4 0,0 0,0 0,1 1,0 1,1 2,1 0,0 1,0 1,0 0,0 1,0 1,0 8,2 16,3 25,3 9,0 18,-1 27,-3 7,-1 14,-4 21,-7 8,-2 14,-6 20,-11 3,-2 5,-4 8,-7zm-128 22c-13,2 -26,3 -40,4l0 22c14,-3 27,-6 40,-9l0 -17zm-61 5c-20,2 -40,2 -60,3l1 1c7,10 14,20 21,31 13,-3 26,-6 38,-9l0 -26zm-80 3c-13,0 -26,0 -38,-1l0 51c13,-3 25,-6 38,-9 0,-12 0,-24 0,-36l0 -5zm-60 -1c-13,-1 -27,-1 -40,-2l0 67c14,-3 27,-6 40,-9l0 -56z"/>
  </g>
 </g>
</svg>
