<?xml version="1.0" encoding="UTF-8"?>
<!DOCTYPE svg PUBLIC "-//W3C//DTD SVG 1.1//EN" "http://www.w3.org/Graphics/SVG/1.1/DTD/svg11.dtd">
<!-- Creator: CorelDRAW X7 -->
<svg xmlns="http://www.w3.org/2000/svg" xml:space="preserve" width="20.9997cm" height="21cm" version="1.1" style="shape-rendering:geometricPrecision; text-rendering:geometricPrecision; image-rendering:optimizeQuality; fill-rule:evenodd; clip-rule:evenodd"
viewBox="0 0 5204 5204"
 xmlns:xlink="http://www.w3.org/1999/xlink">
 <defs>
  <style type="text/css">
   <![CDATA[
    .str0 {stroke:black;stroke-width:4.37132}
    .fil2 {fill:none}
    .fil0 {fill:black}
    .fil1 {fill:black;fill-rule:nonzero}
   ]]>
  </style>
 </defs>
 <g id="Layer_x0020_1">
  <metadata id="CorelCorpID_0Corel-Layer"/>
  <g id="_911525736">
   <path class="fil0" d="M4450 1174l-1 1 -6 -2c-18,-6 -36,-12 -54,-19 -21,-8 -41,-19 -57,-35 -31,-31 -62,-62 -92,-94 -20,-20 -39,-40 -58,-60l-1 0 0 -1c-8,-11 -18,-23 -27,-34 -12,-13 -24,-26 -37,-39l-56 -56 -52 -63c-8,-8 -17,-13 -27,-17 -3,-1 -14,-5 -16,-4 0,1 0,3 0,4l2 10 -11 -2c-12,-2 -26,-7 -35,-16l-1 0 0 -1c-2,-4 -5,-8 -7,-11l0 -1 0 0c-4,-6 -10,-18 -3,-24 3,-4 8,-5 13,-5 8,0 16,-2 24,-4 -2,-4 -4,-8 -7,-11 -5,-8 -10,-20 -1,-28 14,-14 39,-4 54,3l1 0 0 1c23,15 47,30 70,45 9,4 29,9 39,12 13,4 26,9 38,14 8,3 16,7 24,11 18,8 36,16 54,25 26,12 53,24 80,36 0,0 1,0 1,1l-92 -92c-21,-22 -42,-49 -60,-73 -10,-13 -60,-73 -42,-91 15,-15 55,12 67,20 47,30 93,68 136,103 40,33 80,66 119,98 15,12 33,26 46,39 5,5 9,11 13,16l136 121 0 0c14,14 30,32 39,51 5,12 13,23 22,32 4,3 9,7 13,10 17,13 35,27 52,42l6 5 -18 18 -4 -1c-7,-3 -14,-5 -19,-9 -6,-4 -12,-8 -16,-13 -6,-5 -11,-11 -15,-17 -5,-5 -9,-11 -14,-16 -22,-22 -77,-35 -106,-41 -37,-8 -74,-19 -108,-35 -19,-10 -39,-18 -59,-26 -16,-7 -32,-14 -48,-21 -19,-8 -38,-17 -56,-26 -3,-2 -8,-5 -13,-7 5,4 10,8 15,12 33,27 65,54 94,83l0 1 164 183c3,4 7,7 12,10 6,3 17,6 24,8l2 0 10 11 0 3c-1,3 -1,7 -1,10l-1 2 -1 2c-10,9 -22,6 -32,0 -11,-7 -22,-16 -32,-25 -6,-7 -14,-14 -20,-22 -3,-2 -5,-5 -7,-8 -7,-6 -20,-16 -29,-19 -5,-2 -10,0 -14,4 -4,5 -8,11 -11,16l14 4c8,1 17,4 24,9 4,3 9,7 14,9l1 1 23 23 -19 20 -60 -60zm399 -233l0 2 -11 13 -5 -1c-11,-3 -22,-7 -32,-13 -9,-6 -17,-12 -25,-20 -6,-6 -11,-13 -17,-20 -4,-6 -9,-12 -13,-17 -2,-2 -6,-5 -8,-6l0 0 -1 -1c-8,-4 -18,-5 -28,-5 -15,0 -30,0 -45,0 -5,0 -13,0 -18,-1l0 0c-36,-7 -70,-19 -102,-37 -30,-18 -57,-40 -82,-65 -25,-25 -46,-55 -64,-86 -26,-44 -48,-94 -67,-141 -19,-49 -38,-102 -45,-154 -3,-27 -7,-69 14,-90 25,-24 63,-30 95,-29 52,1 99,18 141,48 8,6 16,13 23,20 8,8 15,16 21,25 5,6 9,12 13,18 5,5 11,7 18,7 10,1 19,5 27,12 6,6 10,13 12,21 2,7 4,16 -1,22 -9,9 -20,11 -31,7 -12,-4 -22,-12 -31,-21 -11,-11 -20,-23 -29,-36 -2,-3 -4,-6 -6,-9 -6,-5 -14,1 -19,5 -17,16 -42,13 -63,6 -17,-5 -35,-11 -52,-18 -11,-5 -23,-10 -34,-15 1,3 2,6 3,8 7,18 14,36 22,54 23,54 48,108 77,160 30,53 67,110 110,153 15,15 32,25 52,30 13,3 29,4 39,-7 7,-7 13,-19 17,-28 2,-5 7,-16 4,-22 -16,-1 -31,-4 -47,-9 -16,-4 -30,-12 -42,-24 -16,-15 -9,-46 -4,-64 11,-39 34,-72 63,-100 16,-17 36,-30 57,-39 30,-13 63,-17 87,8l70 70 -8 13 -1 0c-14,14 -32,-1 -42,-11 -12,-11 -21,-24 -30,-38 -1,0 -3,0 -4,0 0,0 0,0 0,1 -4,10 -9,20 -13,30 -4,9 -10,22 -13,33 21,8 40,20 56,36 6,6 12,16 17,23 7,11 13,21 19,32 7,6 16,9 24,12 12,4 42,13 51,23 11,11 11,24 0,35 -11,11 -23,10 -36,4 -2,-1 -3,-2 -5,-3 14,15 29,29 45,42 15,13 30,26 45,39l5 4 -4 6c-1,2 -3,5 -4,7l0 2 -2 1c-7,7 -20,4 -28,0 -11,-4 -21,-11 -30,-19 -6,-7 -12,-15 -16,-22 -6,-10 -17,-29 -25,-37 -8,-8 -18,-13 -29,-15 -8,-1 -18,-1 -24,5l-33 57 0 0c-3,5 -7,10 -11,14 -6,6 -14,12 -22,16 -6,4 -12,7 -18,10 2,5 6,13 7,16 3,6 7,12 10,18 5,1 11,2 15,3 13,2 25,10 35,19l13 -12 4 1c5,2 10,4 15,6 8,4 16,11 22,18 2,1 6,6 8,7 2,1 4,2 6,3l4 2 0 4c0,5 0,10 1,14l1 10 -34 -5 -14 -15zm-2260 2230l2 2 -12 20 -7 -7c-5,-5 -11,-10 -17,-15 -5,-4 -10,-8 -15,-12l-9 -9 11 -3 -14 -9c-33,-23 -66,-44 -101,-65 -43,-25 -82,-56 -117,-91l-251 -280c-18,17 -39,32 -62,40 -29,10 -59,10 -86,-4l-1 -1 -13 -12 3 -5c7,-16 16,-31 25,-46 10,-15 21,-28 33,-41 17,-17 34,-34 51,-52 11,-11 21,-22 32,-33 21,-22 60,-59 89,-68 40,-13 77,10 104,37 7,7 14,16 20,23 12,15 24,29 35,43 11,14 41,50 47,67l4 9 -10 1c-4,1 -12,2 -17,1 -7,-1 -13,-5 -17,-10 -3,-3 -8,-10 -10,-14 -7,-11 -13,-22 -19,-34 -4,-5 -12,-21 -16,-25 -3,-3 -6,-5 -9,-6 0,0 0,0 0,0 6,6 13,13 17,20l3 5 -15 14 -16 -16c-4,-3 -17,-17 -22,-17 -4,0 -14,10 -17,12l-52 52 56 56 173 149 54 55 1 0c4,5 8,10 13,15 3,4 6,7 9,10 7,8 15,15 22,22 5,4 9,8 14,12l1 0 1 1c9,13 19,27 27,40 19,29 37,60 52,91 1,3 4,6 5,7 5,5 12,10 17,14 7,6 15,12 21,18 8,8 19,18 26,28 6,9 5,18 -3,26 -7,7 -17,2 -24,-2 -6,-4 -11,-8 -16,-13zm-44 -25c5,-2 10,-2 15,-1l3 0 16 16c-8,-8 -15,-18 -19,-28 -4,-9 -8,-19 -11,-28 -7,-6 -16,-14 -25,-16 -5,-1 -10,-2 -15,-2 3,5 6,10 9,14 4,4 8,7 12,11 4,5 8,11 10,17l5 17zm1513 -1506c1,2 2,4 3,5 3,5 5,10 8,14l7 15 -16 -4c-3,-1 -6,-1 -9,-2l0 0c-8,-2 -18,-12 -23,-17l-10 -10c-6,-7 -6,-17 -5,-25l1 -4c-2,-1 -5,-1 -7,-1 -13,-3 -27,-9 -39,-15 -32,-16 -63,-35 -92,-56 -5,-3 -29,-20 -37,-21 -3,3 -7,10 -10,13 -8,13 -17,26 -26,39 -8,12 -16,24 -24,36 -2,3 -6,10 -8,14 1,4 8,15 10,18 24,41 47,84 67,128l4 9 -9 1c-4,1 -14,3 -17,6 -5,5 2,16 4,20 15,19 29,38 44,57l1 0 0 2c2,6 1,12 -2,18 -1,5 5,17 6,20l3 5 -13 14 -59 -60 -1 0c-25,-34 -49,-69 -73,-103 -50,-73 -99,-147 -145,-223 -22,-36 -44,-73 -64,-111 -12,-21 -23,-42 -35,-63 -8,-15 -17,-29 -25,-43 -14,-25 -28,-50 -42,-74 -6,-10 -13,-21 -18,-31 -5,-10 -13,-27 -4,-36 5,-5 11,-5 18,-3 2,1 5,2 8,2 0,0 2,-1 2,-2 2,-2 5,-5 8,-7 5,-5 12,-6 19,-5 13,0 65,30 77,36 45,25 91,54 131,88l0 0c14,14 32,27 48,38 23,16 47,33 71,49l0 0 1 0c16,14 34,21 53,8 22,-16 44,-13 63,6 2,2 4,6 6,9 5,7 10,15 16,21l6 6 -16 15 -5 -4c-4,-2 -11,-8 -16,-10 -3,-1 -6,-1 -8,2 -3,2 -5,5 -5,8 1,4 8,11 10,14 4,4 12,9 17,13 14,10 29,20 43,30 15,11 31,22 45,33 9,6 18,13 25,20 13,14 23,29 27,48 2,6 5,12 9,17l52 34 19 19 -2 18 -8 -2c-13,-3 -32,-16 -43,-24 -5,-4 -11,-8 -16,-12zm-304 -182c-6,-6 -15,-12 -22,-18 -22,-18 -45,-36 -67,-54 -22,-17 -44,-35 -67,-52 -4,-4 -10,-9 -17,-14 0,2 0,3 0,4 23,34 45,67 68,100 17,26 34,52 51,78 3,4 9,12 13,19l41 -63zm-3008 3419l0 1 -6 -2c-18,-6 -37,-12 -54,-18 -21,-8 -42,-19 -58,-35 -31,-31 -62,-63 -92,-94 -19,-20 -38,-40 -58,-60l0 0 -1 -1c-8,-12 -17,-23 -27,-34 -12,-14 -24,-27 -37,-40l-56 -56 -51 -62c-8,-8 -18,-14 -28,-18 -2,-1 -14,-5 -15,-3 -1,1 0,2 0,3l2 11 -11 -2c-13,-2 -26,-7 -35,-16l-1 -1 -1 -1c-2,-3 -4,-7 -7,-11l0 0 0 0c-3,-7 -9,-18 -3,-25 3,-3 9,-4 13,-4 8,-1 17,-3 25,-5 -2,-4 -5,-7 -7,-10 -6,-9 -10,-20 -2,-28 14,-15 40,-4 55,3l0 0 1 0c23,16 46,31 70,45 9,5 28,10 38,13 13,3 26,8 38,14 8,3 17,7 25,11 18,8 35,16 53,24 27,12 53,25 80,37 0,0 1,0 2,0l-93 -92c-21,-21 -41,-48 -60,-72 -10,-13 -59,-74 -42,-91 15,-15 55,11 68,19 47,30 93,68 135,104 40,32 80,65 120,98 15,12 32,26 45,39 5,5 10,10 13,16l136 121 0 0c14,14 31,32 39,50 5,12 13,24 22,33 5,3 9,6 13,9 18,14 35,28 52,42l6 6 -18 18 -4 -2c-7,-2 -13,-5 -19,-9 -6,-3 -11,-8 -16,-13 -5,-5 -10,-11 -15,-17 -4,-5 -9,-11 -14,-15 -22,-23 -76,-35 -106,-41 -37,-8 -73,-19 -108,-36 -19,-9 -39,-18 -58,-26 -16,-7 -33,-13 -49,-20 -19,-9 -37,-18 -56,-27 -3,-2 -7,-4 -12,-6 5,4 10,8 15,12 32,26 64,54 93,83l1 0 163 184c4,3 8,7 12,9 7,4 17,6 24,8l2 1 11 10 -1 4c0,3 -1,6 -1,9l0 3 -2 2c-9,9 -21,6 -31,0 -12,-7 -23,-16 -32,-26 -7,-7 -15,-14 -21,-21 -2,-3 -5,-5 -6,-8 -8,-7 -20,-17 -29,-19 -6,-2 -10,0 -14,4 -5,5 -9,10 -12,16l15 3c8,2 17,5 23,10 5,3 9,6 14,9l1 0 23 24 -19 19 -60 -60zm-20 -791c4,-1 12,-2 16,0 7,1 12,4 17,9 8,7 8,17 0,25 -10,10 -22,3 -30,-5 -3,-3 -8,-15 -10,-18l-2 -6c-5,0 -9,0 -13,-1 -1,0 -6,0 -9,1 -3,8 -12,19 -16,24 -14,17 -30,34 -45,49 -3,3 -6,6 -8,7 0,1 1,4 2,4 5,7 11,13 16,19 11,9 22,19 32,29 19,17 37,35 55,53 0,-1 0,-1 1,-1 2,-1 6,-5 7,-6 15,-15 31,-39 43,-57 11,-15 22,-31 32,-46l0 -1 1 0c15,-15 33,-23 54,-25 23,-2 42,6 59,22 13,13 24,28 32,44l0 1 0 0c5,10 9,20 13,29 3,4 6,8 10,12 3,4 8,7 12,11 4,3 8,6 12,9l1 0 0 1c7,7 12,18 3,26 -11,11 -24,4 -33,-5 -7,-7 -14,-17 -20,-25 -2,-4 -5,-8 -9,-11 -2,-2 -9,-9 -13,-10 -2,2 -5,5 -4,8 0,4 3,7 5,10 3,3 7,6 11,9 2,2 7,4 9,6l3 4 -1 4c-1,3 -2,5 -4,7 -2,2 -3,5 -5,7l-4 6 -6 -4c-6,-4 -12,-10 -17,-15 -4,-3 -7,-7 -11,-10 -2,-3 -5,-6 -8,-8 -1,-2 -4,-5 -6,-3 -5,6 -14,24 -18,31 -11,20 -22,40 -33,60 -1,3 -5,10 -8,16l84 84 78 -78c14,-14 34,-22 53,-28 28,-8 58,-8 80,14 14,14 24,32 31,49 3,7 13,30 17,35 10,9 29,21 41,28 5,3 18,12 24,13l2 1 22 22 -8 13 -1 0c-9,10 -21,6 -30,-1 -2,-2 -10,-7 -12,-8 -2,0 -8,3 -10,4 -7,3 -15,4 -22,0 -5,-3 -10,-6 -15,-10 -4,-3 -9,-7 -13,-12 -3,-3 -6,-6 -10,-10 -4,-3 -8,-7 -11,-11 -3,-3 -10,-9 -15,-8 -6,2 -13,8 -17,13 -8,7 -17,22 -23,31 -6,11 -13,21 -20,32 -2,4 -5,9 -8,13 -1,2 -4,4 -6,6 -1,2 -3,4 -5,6l-13 13c-4,4 -10,11 -12,17 -1,4 6,11 9,14 4,5 16,10 21,12 12,5 23,12 32,21 6,6 13,13 16,21 2,3 4,7 5,10l2 5 -13 12 -4 -1c-12,-3 -22,-11 -31,-19 -7,-8 -14,-17 -20,-26 -3,-5 -7,-11 -10,-15 -8,-8 -51,-6 -61,-6 -25,2 -62,1 -81,-18 -4,-4 -8,-20 -9,-26 -1,-2 -2,-8 -3,-11l-83 -76 -103 -103 -155 -184c-6,-3 -13,-6 -20,-8 -10,-2 -19,-8 -26,-15 -18,-18 -14,-42 -3,-63 14,-26 34,-49 55,-70 15,-16 33,-30 50,-44 19,-16 40,-32 61,-45 7,-5 15,-9 22,-14l1 0 0 0c13,-6 27,-8 38,3 14,15 26,32 31,52 5,21 24,42 38,57l5 4 -9 12 0 1c-8,7 -17,6 -24,-1 -6,-6 -11,-12 -17,-18 -3,-4 -7,-8 -11,-12 1,5 3,13 4,15 2,7 3,16 -1,22zm517 -517c4,0 12,-1 16,0 6,2 12,4 16,9 8,8 9,18 1,26 -10,10 -23,2 -31,-6 -2,-3 -7,-15 -9,-18l-3 -6c-4,1 -9,0 -12,0 -2,0 -7,-1 -9,0 -3,8 -12,19 -17,25 -13,17 -29,33 -45,49 -3,2 -5,5 -8,7 1,1 2,3 3,4 4,6 10,13 16,18 11,10 21,19 32,29 18,17 36,35 54,53 1,0 1,0 1,0 2,-1 6,-5 8,-7 15,-15 31,-39 43,-56 11,-16 21,-31 31,-47l1 0 0 -1c15,-15 34,-22 55,-24 22,-3 42,5 58,21 13,13 24,28 33,45l0 0 0 0c4,10 8,20 13,30 3,4 6,8 9,11 4,4 8,8 12,11 4,3 9,6 13,9l0 1 1 0c7,7 12,18 3,27 -11,11 -24,3 -33,-6 -7,-7 -14,-17 -20,-25 -3,-3 -6,-7 -9,-10 -2,-2 -10,-10 -14,-11 -2,2 -4,6 -4,9 1,4 3,7 6,10 3,3 7,6 11,8 2,2 7,5 9,7l3 3 -1 4c-1,3 -3,5 -5,8 -1,2 -3,4 -4,6l-4 6 -6 -4c-6,-3 -13,-9 -18,-14 -3,-4 -7,-7 -10,-11 -3,-2 -6,-5 -8,-8 -2,-2 -5,-5 -6,-3 -6,6 -15,24 -19,32 -11,20 -21,40 -32,60 -2,2 -5,10 -9,15l85 85 78 -78c13,-14 34,-23 52,-28 29,-8 59,-8 81,14 13,13 23,32 30,49 3,6 13,29 18,34 10,10 29,21 40,29 5,3 19,12 24,13l2 0 22 22 -8 13 -1 1c-9,9 -20,5 -29,-2 -3,-1 -10,-7 -12,-7 -3,0 -8,2 -10,3 -8,3 -16,4 -23,0 -5,-2 -10,-5 -14,-9 -5,-4 -9,-8 -13,-12 -4,-3 -7,-7 -10,-10 -4,-4 -8,-8 -12,-12 -3,-3 -10,-9 -14,-8 -7,3 -13,8 -18,13 -7,8 -17,23 -22,32 -7,10 -13,21 -20,31 -3,4 -5,9 -8,13 -2,3 -4,5 -6,7 -2,2 -4,3 -5,5l-13 13c-4,4 -11,11 -12,17 -1,4 6,12 8,15 5,4 16,9 22,12 12,5 23,11 32,20 6,6 12,13 16,21 1,3 3,7 4,11l2 4 -12 13 -4 -1c-12,-4 -23,-11 -31,-20 -8,-7 -14,-16 -20,-25 -3,-5 -7,-11 -10,-16 -9,-8 -51,-6 -62,-5 -25,1 -62,1 -81,-18 -4,-4 -7,-20 -9,-26 0,-3 -1,-8 -3,-11l-82 -76 -104 -104 -154 -184c-6,-3 -13,-6 -20,-7 -10,-2 -19,-9 -26,-16 -18,-18 -14,-41 -3,-62 14,-26 33,-50 54,-71 16,-15 34,-30 51,-44 19,-16 39,-31 61,-45 7,-4 14,-9 22,-14l0 0 1 0c12,-6 27,-7 37,3 15,15 26,32 31,53 6,20 24,41 39,56l4 4 -8 13 -1 0c-7,8 -16,7 -23,-1 -6,-5 -12,-11 -17,-17 -4,-4 -7,-9 -11,-13 1,6 3,13 3,16 2,6 4,15 0,21zm760 125c8,1 17,4 24,9 6,4 23,16 29,18l2 0 16 16 -6 17 -6 -1c-5,-1 -11,-1 -16,-3 -13,-5 -25,-11 -35,-21l-1 -1 0 0c-5,-8 -10,-15 -16,-22l-7 -10c-8,-3 -16,-10 -20,-13 -3,-2 -6,-5 -10,-8 1,2 1,3 2,3 7,12 16,22 26,32 3,3 7,7 10,10l33 33 -24 -5c-11,-2 -39,-27 -47,-34 -6,-5 -30,-27 -38,-30 -8,1 -16,2 -24,3 -15,2 -30,3 -44,2 -32,-1 -73,-11 -103,-19 -26,-7 -51,-13 -77,-19 25,24 51,48 76,72 25,24 51,47 75,72 9,9 16,18 24,27 11,12 20,26 29,40l6 11 -13 0c-13,1 -24,-4 -33,-13 -5,-5 -9,-10 -13,-16 -3,-3 -6,-7 -8,-10 -6,-5 -12,-8 -19,-8 -2,0 -8,3 -10,4 -7,5 -15,7 -24,8 -10,0 -21,-2 -30,-5 -9,-3 -18,-5 -26,-7 1,1 2,2 3,3l10 10 -14 3c-4,1 -7,1 -11,2 -8,0 -16,-6 -21,-11 -36,-36 -72,-72 -108,-108 -36,-36 -72,-72 -108,-108 -6,-4 -12,-8 -19,-10 -6,-1 -13,-4 -18,-9l-3 -2 1 -3c0,-12 -13,-34 -19,-43 -3,-4 -5,-7 -8,-11l-9 16 -6 -2c-3,-2 -7,-3 -10,-5 -3,-2 -7,-4 -9,-6 -20,-20 -65,-64 -75,-90l0 -1 -1 -1c-1,-17 -2,-34 -4,-50l0 -1c0,-5 -1,-12 -4,-16 -3,-4 -6,-8 -9,-12l-2 -2 -1 -2c0,-7 2,-13 7,-18 3,-3 9,-6 14,-9 3,-2 8,-5 10,-8 6,-8 12,-25 17,-34 3,-7 14,-31 19,-36 33,-33 82,-37 126,-31 52,6 95,33 132,69 27,27 55,61 69,97 15,36 9,94 3,134 55,5 109,13 163,26 39,9 89,25 118,54l71 71 -6 12zm-501 -205c2,-12 5,-25 7,-37 7,-44 -1,-85 -33,-117 -7,-7 -17,-15 -27,-13 -10,1 -22,11 -29,18 -8,9 -17,19 -21,30 -5,15 -4,27 8,38 19,20 41,39 63,56 6,5 21,17 32,25zm1344 -1082c2,8 9,20 13,27 8,12 17,23 27,34 4,4 10,8 15,11l2 0 25 25 -14 23 -7 -5c-6,-4 -11,-9 -16,-14 -5,-4 -9,-8 -13,-12 -5,-5 -10,-10 -15,-15 -4,-4 -9,-8 -13,-13 -5,-4 -10,-10 -16,-13l213 233 -4 5c-11,16 -28,4 -38,-6 -5,-5 -9,-9 -14,-14 -5,-5 -10,-10 -16,-16 -3,-3 -7,-6 -10,-10 0,1 0,2 1,3l6 14 -14 -3c-7,-1 -13,-4 -19,-8 -4,-3 -9,-5 -13,-8 -24,-6 -48,-11 -72,-17l-1 0 -1 -1c-37,-18 -72,-49 -101,-78 -33,-33 -65,-70 -95,-106 -20,-23 -40,-47 -60,-71l-6 9 -6 -4c-15,-10 -31,-22 -46,-33 -10,-9 -22,-17 -33,-25l0 -1 -1 0c-16,-16 -25,-36 -29,-58 -1,-10 -1,-21 -1,-30 -3,-11 -16,-28 -23,-36 -9,-12 -24,-34 -10,-48 8,-8 18,-14 30,-12l1 0 1 1c4,1 9,3 14,5 2,-10 4,-19 5,-29l0 0c4,-13 10,-31 19,-41 34,-34 86,-28 128,-16 48,13 89,42 124,77 48,48 78,105 85,174l0 0 0 0c-1,34 -1,68 -2,102zm-270 -60c-11,-13 -22,-26 -33,-39 -2,-1 -4,-2 -5,-3 4,7 9,14 15,20 5,4 9,9 14,14 3,3 6,5 9,8zm2 -135l138 128c6,-31 -5,-68 -16,-96 -14,-36 -33,-72 -61,-100l-11 -11c-4,-4 -16,-16 -22,-17 -5,0 -17,11 -20,14 -9,9 -18,21 -22,35 -4,18 2,33 14,47zm228 497c1,11 2,23 2,34 1,11 2,25 4,35 1,6 4,12 7,17 3,6 7,11 12,16 5,5 10,10 15,15 4,4 7,8 10,12 4,6 6,13 6,20l-1 18 -12 -13c-18,-17 -48,-43 -72,-20 -28,27 -74,28 -111,25 -35,-4 -76,-23 -106,-40 -42,-22 -80,-50 -114,-84 -36,-36 -68,-80 -95,-123 -34,-55 -66,-121 -73,-186 -2,-18 -4,-37 -4,-55 0,-22 2,-59 18,-75 8,-9 43,7 51,11 22,8 43,15 66,20 16,4 35,12 51,19 19,8 39,17 57,27 35,20 71,42 103,66 29,22 56,48 82,73 41,42 77,93 109,142 12,19 28,44 44,60l0 0 0 0c5,6 11,12 16,18 5,6 10,11 16,17l16 16c5,5 15,10 20,13 10,7 20,14 29,23 5,4 11,11 12,18 2,8 -2,15 -8,20 -9,9 -23,5 -33,-1 -11,-5 -22,-12 -31,-21l-1 -1 0 -1c-6,-12 -13,-24 -21,-35 -17,-27 -36,-53 -59,-75l-5 -5zm-435 -310c10,55 44,114 74,159 30,45 64,90 103,129 23,23 63,61 94,72 20,7 38,5 53,-10 21,-21 0,-60 -12,-79 -18,-31 -40,-58 -65,-83 -46,-46 -95,-90 -147,-128 -20,-15 -70,-51 -100,-60zm13 972c3,-1 6,-1 10,-2l1 0 2 0c8,1 17,10 22,16 5,4 9,10 9,16 0,3 0,6 0,9l-1 8 -8 -1c-9,-1 -21,-4 -28,-11l-1 -1 0 -1c-1,0 -1,-1 -1,-2l-1 0 -1 -2c-2,-5 -5,-13 -8,-17l-7 -10 12 -2zm-52 -99c-1,7 11,23 13,26 14,18 28,36 42,54l8 10 -13 2c-15,3 -29,-7 -39,-17 -6,-6 -12,-13 -18,-20 -4,-5 -9,-11 -14,-16 -5,4 -9,9 -13,13 -6,6 -13,12 -19,19 -28,28 -63,39 -103,33 -9,-1 -53,-7 -60,1l-6 5 -5 -5c-9,-9 -21,-15 -32,-20 -13,-5 -26,-12 -36,-22 -8,-8 -14,-19 -19,-29 -3,-10 -8,-24 0,-32 13,-13 62,-10 79,-10 18,1 36,2 54,4 1,-8 2,-16 3,-23 0,-23 -1,-45 -5,-67 -2,-10 -11,-27 -15,-36 -9,-21 -19,-41 -28,-61l-11 -11c-2,13 -5,26 -7,38 -1,9 -5,44 -1,53 2,2 4,4 6,6 2,3 4,5 6,7 6,5 12,11 18,17 9,9 18,17 27,26l4 3 -1 4c-1,3 -1,5 -1,8l-1 2 -1 2c-6,6 -14,7 -21,5 -10,-2 -18,-9 -24,-15 -9,-8 -20,-29 -25,-40 -3,-4 -6,-11 -9,-16 -6,-1 -27,3 -32,4 -28,6 -55,4 -80,-8 -16,-7 -36,-18 -51,-27 -14,-8 -40,-22 -52,-33l0 -1 -1 0c-8,-12 -17,-24 -25,-36 -16,-26 -30,-54 -39,-83l-1 -1c-8,-33 -7,-72 -5,-106 2,-25 8,-60 27,-79 21,-21 66,-19 93,-16 41,5 79,21 113,43 6,5 16,9 23,12 4,2 18,7 21,10l1 2 1 2c1,7 3,14 5,21 5,13 11,27 21,37 8,4 16,8 24,11 8,4 15,9 21,15l1 1 1 1c4,7 8,14 13,20l4 5 -16 16c50,11 93,38 130,75 14,14 28,30 39,47 8,13 16,26 24,38 12,17 25,39 30,59l0 0 0 1c1,13 1,26 2,39 1,3 5,7 7,9 11,9 22,19 33,28 11,9 21,19 31,29 6,7 12,14 15,23 3,8 1,17 -5,23 -6,6 -14,5 -21,1 -6,-2 -11,-6 -16,-10l0 -1 -1 -1c-3,-5 -6,-11 -9,-16 -7,-11 -14,-22 -23,-31 -3,0 -6,-1 -9,-2 -10,-4 -19,-11 -27,-19zm-207 -293l0 0c-7,-4 -13,-9 -19,-14 -6,-5 -11,-10 -16,-15 -5,-5 -10,-10 -14,-15 -6,-6 -11,-13 -16,-19 -5,-4 -10,-9 -16,-10 -6,-2 -16,0 -22,1 -24,6 -48,1 -71,-8 -20,-9 -41,-18 -61,-26 4,20 17,58 22,70 14,37 30,75 50,110l9 9c5,-13 10,-26 16,-38 4,-8 10,-19 16,-26 24,-23 66,-24 96,-22 9,0 18,1 26,3zm-369 898c4,4 7,10 10,15 2,5 4,10 8,13 4,4 9,8 14,11l5 3 -5 13 -1 1c-7,7 -15,5 -22,1 -7,-5 -12,-10 -18,-15 -4,-4 -7,-9 -10,-14 -8,-13 -17,-24 -27,-34l-14 -14 20 1c7,1 14,2 20,5 8,3 14,8 20,14zm-292 456c5,5 9,10 13,15 6,7 9,16 12,24l2 10 -10 0c-7,0 -16,0 -22,-6 -3,-3 -6,-6 -9,-9 -5,-5 -10,-12 -14,-19 -3,-5 -6,-10 -9,-15l-4 -5 14 -13 4 2c9,3 17,10 23,16zm-350 -456l191 303c14,6 28,14 41,22 7,4 15,10 21,15 7,8 15,19 22,27 14,19 29,40 44,58l4 4 -6 11 -1 1c-5,5 -13,0 -18,-3 -8,-5 -16,-11 -24,-17 -9,-7 -24,-17 -35,-7 1,4 9,14 11,17 7,9 20,27 9,38 -6,5 -12,7 -19,3 -6,-3 -13,-9 -18,-14l-11 -11c-6,-6 -12,-12 -19,-18 -6,-4 -12,-7 -19,-10 -13,-4 -26,-8 -39,-12l-1 0 0 -1c-17,-8 -34,-17 -51,-25 -30,-15 -62,-31 -91,-50 -25,-17 -50,-33 -74,-50 -50,-31 -99,-65 -148,-98 -37,-26 -74,-51 -110,-78 -19,-14 -41,-31 -58,-47 -7,-7 -13,-16 -16,-25 -3,-10 -1,-19 6,-26 12,-12 47,-3 62,1 55,14 112,43 161,72l171 100c-2,-5 -5,-9 -7,-13 -15,-29 -31,-57 -47,-86 -11,-20 -22,-42 -34,-61 -11,-17 -21,-34 -31,-51 -14,-23 -27,-47 -39,-72 -5,-10 -10,-21 -14,-32 -3,-11 -9,-29 1,-38l2 -2 2 0c11,-3 23,-4 35,-2 33,5 61,25 84,48l1 1 109 135 -22 22 -5 -7c-4,-5 -11,-12 -16,-17 -1,-2 -2,-3 -4,-5zm87 39c11,11 20,25 20,41l1 3 -13 13 -32 -22 -1 -2c-2,-4 -5,-9 -8,-13l-1 0 0 0c-4,-8 -9,-16 -12,-24l-2 -5 12 -13 5 2c6,3 11,5 16,8 5,4 10,7 15,12zm3232 -2592c-2,0 -4,0 -7,0 -9,-1 -18,-9 -25,-15 -6,-7 -12,-16 -16,-23 -5,-8 -12,-21 -5,-29 6,-5 14,-5 21,-2 7,3 13,7 18,12 9,10 21,23 27,35 1,3 2,5 2,8 4,1 7,3 10,5 9,4 18,9 28,12l4 2 0 4c1,9 1,18 -6,25 -10,10 -22,6 -32,-3 -6,-6 -11,-15 -15,-23 -2,-2 -3,-5 -4,-8zm-80 -136c9,9 18,19 23,30 5,12 5,23 -4,32 -20,19 -53,15 -78,10 -49,-12 -91,-41 -126,-76 -12,-12 -23,-23 -34,-35 -12,-14 -24,-27 -36,-41l-149 -166c-35,-34 -69,-72 -98,-112 -10,-14 -42,-56 -25,-73 15,-15 63,10 78,17 36,18 70,41 99,70 42,42 84,84 127,125 39,38 78,76 117,114 35,35 71,70 106,105zm-65 421l-16 16 -4 -2c-4,-2 -15,-6 -18,-10l-1 0 -1 -1c-2,-4 -4,-8 -6,-11l-7 -9 11 -3c8,-2 17,-1 25,3l1 0 16 17zm-415 -668c0,0 0,0 0,0 6,6 13,13 17,20l3 5 -15 14 -16 -16c-4,-3 -17,-17 -22,-17 -4,0 -14,10 -17,12l-52 52 56 56 173 149 54 55 1 0c4,5 8,10 13,15 3,4 6,7 9,10 7,8 15,15 22,22 5,4 9,8 14,12l1 0 1 1c9,13 19,27 28,40 19,29 36,60 51,91 1,2 4,6 5,7 5,5 12,10 17,14 7,5 15,12 21,18 9,8 19,18 26,28 6,9 5,18 -3,26 -7,7 -17,2 -24,-2 -8,-5 -15,-11 -21,-17 -9,-10 -19,-21 -24,-34 -4,-9 -8,-19 -11,-28 -7,-6 -16,-14 -25,-16 -5,-1 -10,-2 -15,-2 3,5 6,10 9,14 4,4 8,7 12,11 4,5 8,11 10,17l7 21 -19 -12c-33,-23 -66,-44 -101,-65 -43,-25 -81,-56 -117,-91l-251 -280c-18,17 -39,32 -62,40 -29,10 -59,10 -86,-4l-1 -1 -13 -12 3 -5c7,-16 16,-31 25,-46 10,-15 21,-28 33,-41 17,-17 34,-34 51,-52 11,-11 21,-22 32,-33 22,-22 60,-59 89,-68 40,-13 77,10 104,37 19,19 38,45 55,66 11,14 41,50 47,67l4 9 -10 1c-4,1 -12,2 -17,1 -7,-1 -13,-5 -17,-10 -3,-3 -8,-10 -10,-14 -6,-11 -13,-22 -19,-34 -3,-5 -12,-21 -16,-25 -3,-3 -6,-5 -9,-6zm19 884l-43 -38 10 -12 43 38 -10 12zm232 -122c2,2 4,5 5,8 1,3 3,5 4,8l3 5 -11 11 -4 -1c-13,-3 -25,-9 -34,-18 -4,-4 -7,-8 -9,-13 -2,-4 -4,-9 -5,-13l-3 -9 9 -1c8,-1 16,3 23,7 8,4 15,9 22,16zm-471 375c-3,-4 -7,-10 -10,-15 -3,-5 -7,-11 -9,-17l-7 -13 15 3c8,1 16,5 23,10 9,6 17,11 26,16l1 1 13 13 -8 14 -1 1c-6,6 -16,2 -22,-1 -8,-3 -15,-7 -21,-12zm198 -175c8,8 14,20 4,29l-1 2 -3 0c-2,1 -4,1 -7,1 -7,-1 -13,-5 -17,-10 -5,-5 -9,-11 -13,-16 -4,-6 -8,-12 -11,-18l-6 -13 14 3c9,1 17,4 24,9 6,4 11,8 16,13zm-85 -42c-4,-2 -8,-2 -12,1 -3,4 -4,6 -2,11 4,7 12,21 14,29l8 28 -21 -21c-20,-20 -45,-24 -73,-16 -24,8 -49,9 -74,4 -35,-6 -69,-14 -102,-25 -6,-1 -27,-8 -43,-13l13 14c22,14 45,35 65,52 19,16 40,33 58,51 4,3 9,6 13,10 4,5 9,10 12,16 3,5 5,11 6,17l3 14 -13 -6c-6,-2 -12,-5 -18,-5 -4,0 -8,2 -10,5 -36,35 -89,6 -122,-17 -21,-14 -41,-32 -59,-49 -29,-25 -57,-52 -84,-80l-130 -126c-19,-19 -38,-39 -56,-59 -20,-23 -40,-46 -60,-69 -10,-13 -31,-38 -36,-55 -4,-11 -3,-22 6,-31 11,-11 31,-4 43,1 28,11 54,32 76,54 21,20 42,41 63,61 9,9 19,18 28,27 -8,-23 -16,-45 -24,-68 -11,-30 -19,-62 -27,-93 -4,-11 -8,-24 -10,-35 -3,-16 -7,-42 6,-55 15,-15 37,-9 53,-1 24,11 44,27 62,45l74 74 4 16 -11 12 -5 -2c-12,-5 -24,-12 -33,-22 -5,-5 -10,-10 -15,-14 1,2 3,5 4,7 12,22 26,47 35,70 8,22 16,44 23,67 1,5 8,28 11,31 3,2 14,5 18,7 15,5 30,9 45,13 43,12 84,24 127,36 43,11 87,22 130,34 22,6 44,16 61,32l1 1 0 2c2,4 5,9 7,13l3 5 -13 13 -5 -3c-5,-3 -10,-5 -14,-8zm-272 -176c-5,-2 -10,-5 -14,-8l-1 -1 0 -1c-2,-5 -4,-9 -7,-13l-6 -14 35 7 17 22 -11 11 -5 -1c-2,0 -5,-1 -8,-2zm-55 -92c1,1 2,2 3,3l0 1 1 0c4,6 10,13 15,18 4,5 8,9 12,13l4 4 -16 26 -6 -9c-3,-3 -6,-6 -9,-9 -5,-6 -10,-11 -16,-16 -5,-6 -12,-12 -16,-18 -4,-5 -6,-12 -8,-17l-5 -16 15 6c4,2 8,4 12,5 5,2 10,5 14,9zm58 701l-1 -1 0 -1c-2,-5 -6,-13 -9,-18l-6 -9 11 -3c4,0 7,-1 10,-2l2 0 1 0c8,2 17,11 23,16 4,5 8,10 8,17 0,3 0,6 0,8l0 8 -8 -1c-10,-1 -22,-3 -28,-10l-1 -1 -1 -1c0,-1 0,-2 -1,-2zm-78 -92c-4,5 -8,9 -13,14 -6,6 -12,12 -18,18 -29,28 -63,40 -103,34 -10,-1 -53,-7 -61,0l-5 6 -6 -6c-9,-8 -20,-15 -32,-19 -13,-5 -26,-13 -36,-23 -8,-8 -14,-18 -18,-29 -4,-9 -8,-23 0,-31 13,-13 62,-11 78,-10 18,1 37,2 54,4 1,-8 2,-16 3,-24 1,-22 0,-45 -5,-66 -2,-10 -11,-28 -15,-37 -9,-20 -18,-40 -27,-60l-11 -12c-3,13 -5,26 -7,39 -1,9 -6,44 -2,53 2,2 4,4 6,6 2,2 5,4 7,6 5,6 11,12 17,17 9,9 19,18 28,27l3 2 -1 5c0,2 -1,5 -1,7l0 3 -2 2c-6,6 -13,7 -21,5 -9,-2 -17,-9 -24,-15 -8,-9 -19,-30 -25,-40 -2,-5 -6,-12 -9,-16 -6,-2 -27,3 -32,4 -27,6 -54,3 -79,-9 -16,-6 -36,-18 -51,-26 -15,-8 -41,-22 -52,-34l-1 0 0 0c-9,-12 -17,-24 -25,-36 -16,-27 -30,-55 -40,-84l0 0c-9,-33 -8,-73 -5,-107 2,-25 7,-60 26,-78 21,-22 66,-19 94,-16 40,4 78,20 112,43 7,4 16,8 23,11 5,2 18,7 21,11l2 1 0 2c2,8 4,15 6,21 4,13 11,27 21,37 8,4 16,8 24,12 8,4 15,8 21,15l1 0 0 1c4,7 8,14 13,21l4 5 -16 16c50,11 93,38 130,75 15,14 28,30 39,47 8,12 17,25 24,38 12,17 26,38 31,58l0 1 0 1c0,13 1,25 1,38 1,3 5,7 7,10 11,9 22,18 33,28 11,9 21,19 31,29 7,6 12,14 15,22 3,9 2,17 -5,24 -6,6 -14,4 -21,1 -5,-3 -11,-6 -15,-11l-1 -1 0 0c-3,-6 -6,-12 -10,-17 -6,-10 -14,-21 -23,-30 -3,-1 -6,-2 -8,-3 -10,-4 -19,-11 -27,-18 -2,6 10,23 12,26 14,18 28,36 42,54l8 10 -12 2c-16,2 -29,-7 -40,-17 -6,-7 -12,-14 -17,-20 -5,-6 -10,-11 -15,-17zm-185 -332l0 0c-7,-4 -14,-8 -20,-13 -5,-5 -11,-10 -16,-15 -5,-5 -9,-10 -14,-15 -5,-7 -11,-13 -16,-20 -4,-4 -10,-8 -15,-10 -7,-2 -16,0 -22,2 -24,6 -49,1 -71,-9 -21,-8 -41,-17 -61,-26 3,21 17,58 21,70 14,38 30,76 50,110l9 9c5,-12 11,-25 16,-37 5,-9 10,-20 17,-26 23,-24 65,-25 96,-23 9,1 17,2 26,3zm-354 1026c-2,-4 -4,-10 -6,-15l-2 -5 13 -13 5 3c9,5 19,10 27,16 3,3 7,5 10,9l0 0 15 19 -18 18 -5 -2c-11,-4 -22,-10 -31,-19 -3,-3 -6,-7 -8,-11zm-223 344l-16 16 -5 -2c-4,-2 -14,-6 -17,-9l-1 -1 -1 -1c-2,-4 -4,-8 -7,-11l-6 -9 11 -3c8,-2 17,-1 25,3l1 0 16 17z"/>
   <path class="fil1" d="M3056 4604l66 66c9,9 21,14 33,14 12,0 24,-5 33,-14l30 -30 -132 -132 -30 30c-18,18 -18,48 0,66z"/>
   <path class="fil1" d="M4607 3566l-117 117c-29,28 -67,44 -108,44 -40,0 -79,-16 -107,-44l-17 -17 -67 67 47 46c44,45 44,116 0,160l-361 361c-21,21 -50,33 -80,33 -30,0 -58,-12 -80,-33l-46 -46 -67 67 16 16c29,29 45,67 45,107 0,41 -16,79 -45,108l-128 128 147 147c307,307 806,307 1114,0 308,-308 308,-807 0,-1115l-146 -146z"/>
   <path class="fil1" d="M2135 4301l2166 -2166 39 40c41,41 108,41 149,0l75 -75 15 15c21,21 54,21 75,0l74 -74c21,-21 21,-54 0,-75l-15 -15 65 -65c41,-41 41,-108 0,-149l-40 -40 211 -211c164,-164 255,-383 255,-615 0,-233 -91,-452 -255,-616 -164,-165 -383,-255 -616,-255 -233,0 -451,90 -616,255l-210 210 -40 -39c-41,-41 -108,-41 -149,0l-65 65 -15 -15c-21,-21 -54,-21 -75,0l-74 74c-21,21 -21,54 0,75l15 15 -75 75c-41,41 -41,107 0,149l40 39 -562 563 -488 -488 -117 117c-29,28 -67,44 -108,44 -40,0 -79,-16 -107,-44l-25 -25 -54 54c-6,6 -11,13 -16,20l307 306c43,44 43,115 0,158l-353 353c-21,21 -49,33 -79,33 -30,0 -58,-12 -79,-33l-307 -307c-7,5 -13,11 -19,17l-54 53 24 25c29,29 45,67 45,107 0,41 -16,79 -45,108l-128 128 488 488 -489 489 -39 -40c-42,-41 -108,-41 -150,0l-74 75 -15 -15c-21,-21 -54,-21 -75,0l-74 74c-21,21 -21,54 0,75l15 15 -65 65c-41,41 -41,108 0,149l39 40 -210 211c-340,339 -340,892 0,1231 164,164 383,255 616,255 232,0 451,-91 615,-255l211 -210 40 39c41,41 108,41 149,0l65 -65 15 15c21,21 54,21 75,0l74 -74c21,-21 21,-54 0,-75l-15 -15 75 -75c41,-41 41,-107 0,-149l-40 -39zm-742 555l0 0c-144,144 -333,216 -522,216 -190,0 -379,-72 -523,-216 -288,-288 -288,-757 0,-1045l3463 -3463c144,-144 333,-216 522,-216 190,0 379,72 523,216 288,288 288,757 0,1045l-3463 3463z"/>
   <path class="fil1" d="M3166 4098c29,-29 67,-45 108,-45 40,0 79,16 107,45l25 24 54 -53c4,-5 8,-10 12,-15l-314 -313c-21,-21 -33,-50 -33,-80 0,-30 12,-59 33,-80l361 -360c21,-22 50,-34 80,-34 30,0 58,12 80,34l313 313c5,-4 10,-8 15,-12l53 -54 -24 -24c-29,-29 -45,-67 -45,-108 0,-41 16,-79 45,-107l117 -117 -312 -312c-129,70 -349,210 -605,467 -261,260 -424,505 -508,649l310 310 128 -128z"/>
   <path class="fil1" d="M450 1638l128 -128c29,-29 67,-45 108,-45 41,0 79,16 107,45l17 16 72 -72 -41 -40c-43,-43 -43,-114 0,-158l353 -352c21,-21 49,-33 79,-33 30,0 58,12 79,33l40 40 72 -72 -16 -16c-29,-29 -45,-67 -45,-108 0,-41 16,-79 45,-107l117 -117 -147 -147c-308,-308 -807,-308 -1114,0 -308,308 -308,807 0,1115l146 146zm53 -792l-62 -62c-1,-1 -2,-4 -1,-6l30 -114 16 -58c0,-2 2,-4 4,-5 3,0 5,0 7,2l42 42 205 205c2,2 5,3 9,2l38 -10c1,0 3,-1 4,-2 0,0 0,-1 0,-1 1,-1 2,-2 2,-3l10 -39c1,-3 0,-6 -2,-8l-205 -205 -42 -42c-1,-2 -2,-4 -1,-7 0,-2 2,-4 5,-4l57 -16 114 -31c2,0 5,0 7,2l61 62c2,2 3,4 2,7 -1,2 -2,4 -5,5l-53 14c-3,1 -5,0 -7,-2l-17 -17c-2,-2 -4,-2 -7,-2l-33 9c-3,1 -4,3 -5,5 -1,3 0,5 2,7l149 150 47 46c2,3 3,6 2,9l-28 107c-1,2 -1,3 -2,4l-1 0c-1,1 -2,2 -4,2l-107 29c-3,1 -6,0 -8,-2l-47 -47 -150 -149c-2,-2 -4,-3 -7,-2 -2,0 -4,2 -4,5l-9 33c-1,3 0,5 1,7l17 17c2,2 3,4 2,7l-14 53c-1,2 -3,4 -5,5 -3,1 -5,0 -7,-2z"/>
   <path class="fil1" d="M1608 1324c31,31 48,71 48,114 0,44 -17,84 -48,115l-117 118c-31,30 -71,47 -115,47 -43,0 -84,-17 -114,-47 -27,-27 -63,-42 -100,-42 -12,0 -24,2 -35,5l294 294c13,13 30,19 46,19 17,0 33,-6 46,-19l353 -353c25,-25 25,-66 0,-92l-294 -294c-3,12 -5,23 -5,35 0,38 15,73 41,100zm-105 563l0 0c-8,8 -18,12 -28,12 -10,0 -20,-4 -28,-12 -16,-15 -16,-41 0,-56 8,-8 18,-12 28,-12 10,0 20,4 28,12 15,15 15,41 0,56zm271 -383l0 0c8,-8 18,-12 28,-12 10,0 20,4 28,12 16,15 16,41 0,56 -8,8 -18,12 -28,12 -10,0 -20,-4 -28,-12 -16,-15 -16,-41 0,-56z"/>
   <path class="fil1" d="M1359 977l-40 -40c-13,-13 -29,-19 -46,-19 -17,0 -33,6 -46,19l-353 352c-25,26 -25,67 0,92l41 40 82 -82 280 -280 82 -82zm-387 379l0 0c-8,7 -18,11 -29,11 -10,0 -20,-4 -28,-11 -15,-16 -15,-41 0,-57 8,-7 18,-11 28,-11 11,0 21,4 29,11 15,16 15,41 0,57zm270 -327l0 0c-15,-16 -15,-41 0,-57 8,-7 18,-11 28,-11 11,0 21,4 29,11 15,16 15,41 0,57 -8,7 -18,11 -29,11 -10,0 -20,-4 -28,-11z"/>
   <path class="fil1" d="M2012 654c18,-18 18,-48 0,-66l-66 -66c-9,-9 -21,-13 -33,-13 -12,0 -24,4 -33,13l-30 30 132 132 30 -30z"/>
   <path class="fil1" d="M460 2008l66 66c9,9 21,14 33,14 12,0 24,-5 33,-14l30 -30 -132 -132 -30 30c-18,18 -18,48 0,66z"/>
   <path class="fil1" d="M1497 905l-187 187 -280 280 -187 187 132 132 54 -53c36,-37 84,-55 133,-55 48,0 96,18 133,55 22,22 52,33 81,33 30,0 59,-11 82,-33l117 -118c45,-45 45,-118 0,-163 -73,-74 -73,-193 0,-266l54 -54 -132 -132z"/>
   <path class="fil1" d="M1481 823l239 239c20,20 47,30 74,30 27,0 54,-10 75,-30l137 -138c42,-41 42,-108 0,-149l-238 -239c-21,-21 -48,-31 -75,-31 -27,0 -54,10 -75,31l-137 138c-41,41 -41,107 0,149z"/>
   <path class="fil1" d="M787 2100c27,0 54,-11 75,-31l137 -138c42,-41 42,-108 0,-149l-239 -239c-20,-21 -47,-31 -74,-31 -27,0 -54,10 -75,31l-137 138c-41,41 -41,108 0,149l239 239c20,20 47,31 74,31z"/>
   <path class="fil1" d="M3704 4221l46 46c13,13 30,19 47,19 17,0 34,-6 47,-19l361 -361c26,-26 26,-68 0,-94l-47 -46 -86 87 -281 281 -87 87zm407 -388l0 0c8,-8 18,-12 28,-12 11,0 21,4 29,12 16,16 16,42 0,58 -8,8 -18,12 -29,12 -10,0 -20,-4 -28,-12 -16,-16 -16,-42 0,-58zm-277 335l0 0c16,15 16,41 0,57 -8,8 -19,12 -29,12 -10,0 -21,-4 -29,-12 -16,-16 -16,-42 0,-57 8,-8 19,-12 29,-12 10,0 21,4 29,12z"/>
   <path class="fil1" d="M3460 3869c-63,-64 -63,-166 0,-229l117 -118c31,-31 72,-48 115,-48 43,0 84,17 114,48 27,27 63,41 100,41 15,0 29,-2 42,-7l-302 -302c-13,-13 -30,-20 -47,-20 -17,0 -34,7 -47,20l-361 360c-26,26 -26,68 0,94l303 303c15,-49 4,-104 -34,-142zm107 -579l0 0c8,-8 19,-12 29,-12 11,0 21,4 29,12 16,16 16,42 0,58 -8,8 -18,12 -29,12 -10,0 -21,-4 -29,-12 -15,-16 -15,-42 0,-58zm-276 392l0 0c-8,8 -19,12 -29,12 -10,0 -21,-4 -29,-12 -16,-16 -16,-42 0,-58 8,-7 19,-11 29,-11 10,0 21,4 29,11 16,16 16,42 0,58z"/>
   <path class="fil1" d="M4608 3184l-66 -66c-9,-9 -21,-13 -33,-13 -12,0 -24,4 -33,13l-30 30 132 132 30 -30c18,-18 18,-47 0,-66z"/>
   <path class="fil1" d="M4093 3501l-53 54c-37,37 -85,55 -134,55 -48,0 -96,-18 -133,-55 -22,-23 -52,-34 -81,-34 -30,0 -59,11 -82,34l-117 118c-45,45 -45,118 0,163 73,73 73,192 0,266l-54 54 132 132 187 -187 281 -281 186 -187 -132 -132z"/>
   <path class="fil1" d="M4382 3680c27,0 54,-10 75,-30l137 -138c42,-41 42,-108 0,-149l-238 -239c-21,-21 -48,-31 -75,-31 -27,0 -54,10 -75,31l-137 138c-41,41 -41,107 0,149l239 239c20,20 47,30 74,30z"/>
   <path class="fil1" d="M3587 4370l-239 -239c-20,-21 -47,-31 -74,-31 -27,0 -54,10 -75,31l-137 138c-42,41 -42,108 0,149l239 239c20,20 47,31 74,31 27,0 54,-11 75,-31l137 -138c41,-41 41,-108 0,-149z"/>
   <polygon class="fil2 str0" points="3859,1775 3881,1775 3881,1794 3859,1794 "/>
  </g>
 </g>
</svg>
