<?xml version="1.0" encoding="UTF-8"?>
<!DOCTYPE svg PUBLIC "-//W3C//DTD SVG 1.1//EN" "http://www.w3.org/Graphics/SVG/1.1/DTD/svg11.dtd">
<!-- Creator: CorelDRAW X7 -->
<svg xmlns="http://www.w3.org/2000/svg" xml:space="preserve" width="21cm" height="16.7567cm" version="1.1" style="shape-rendering:geometricPrecision; text-rendering:geometricPrecision; image-rendering:optimizeQuality; fill-rule:evenodd; clip-rule:evenodd"
viewBox="0 0 2332 1861"
 xmlns:xlink="http://www.w3.org/1999/xlink">
 <defs>
  <style type="text/css">
   <![CDATA[
    .fil0 {fill:#04101A}
    .fil5 {fill:#DE0000}
    .fil2 {fill:#DE0000}
    .fil4 {fill:#E6E6E6}
    .fil6 {fill:#FCB321}
    .fil1 {fill:#FCB321}
    .fil3 {fill:#04101A;fill-rule:nonzero}
   ]]>
  </style>
 </defs>
 <g id="Layer_x0020_1">
  <metadata id="CorelCorpID_0Corel-Layer"/>
  <g id="_794030872">
   <path class="fil0" d="M842 865c12,-2 23,-3 35,-3 13,0 25,2 35,8l107 -16 -8 106 -8 1 -4 51 0 0 -4 64 -27 2c-25,2 -52,8 -77,15l-30 8 -14 12 -12 -30 -79 22 2 -22c-14,3 -29,6 -43,10l-45 12 2 -12 -47 11 2 -14 -56 14 3 -17 -65 11 1 -8 -63 11 1 -8 -70 -5 -28 25 -11 -30 -79 22 2 -22c-15,3 -29,6 -43,10l-46 12 3 -16 -78 14 4 -22c-19,3 -38,7 -56,12l-46 12 38 -231 135 -20 -1 16 53 -12 -1 10 67 -12 -2 7 58 -9 -1 11c11,-2 23,-3 34,-3 17,0 32,4 43,13l58 -27 -1 22 26 4 24 -4 3 -9 82 -12 -2 19 74 -12 -3 8 36 -6 -2 9 56 -9 -2 6 71 -10 -1 11z"/>
   <path class="fil1" d="M97 937c-2,4 -3,9 -4,13l-2 12 36 -7 -2 31c-17,3 -31,5 -40,8 -1,3 -1,6 -2,9l-2 8 42 -6 -3 42c-21,2 -49,7 -82,16l27 -162 75 -11 -3 42c-15,1 -28,3 -40,5zm147 -41c-18,49 -34,102 -48,158l-61 11c4,-22 7,-48 8,-78 0,-27 0,-53 1,-79l45 -10 -19 144 0 0 33 -139 41 -7zm26 41c-1,4 -2,9 -3,13l-3 12 36 -7 -2 31c-17,3 -30,5 -40,8 -1,3 -1,6 -1,9l-2 8 42 -6 -3 42c-22,2 -49,7 -83,16l27 -162 75 -11 -2 42c-15,1 -29,3 -41,5zm52 -34c24,-7 43,-11 58,-11 21,0 31,8 31,22 -1,20 -13,40 -39,61 2,6 11,24 26,54 -7,7 -19,18 -35,32l-24 -63 0 0 0 0c-4,20 -7,38 -9,55l-35 10c0,-3 2,-13 5,-30l22 -130zm29 36c-2,5 -3,10 -4,15l-3 15c5,-2 10,-6 16,-10 5,-5 9,-10 11,-15 1,-1 1,-2 1,-4 0,-3 -2,-4 -6,-4 -4,0 -9,1 -15,3zm123 -39l36 6c-32,57 -58,109 -77,155l-35 -2 24 -50 -19 -91 44 -21c0,7 0,16 -1,26 0,11 1,21 2,32l26 -55zm166 -5c-21,54 -36,106 -46,157l-50 9 8 -83 -21 77 -48 9c7,-57 11,-109 11,-156l43 -8 -9 99 29 -110 23 -4 -15 140 31 -124 44 -6zm-3 8l42 -7c-8,29 -14,55 -19,79l19 -4 11 -68 42 -7c-16,62 -26,114 -30,157l-39 10 11 -61c-5,0 -11,2 -20,4 -3,18 -5,34 -6,47l-39 10 28 -160zm129 34c-1,4 -2,9 -3,13l-2 12 36 -7 -2 31c-17,3 -31,5 -41,8 0,3 -1,6 -1,9l-2 8 42 -6 -3 42c-22,2 -49,7 -82,16l27 -162 75 -11 -3 42c-15,1 -28,3 -41,5zm53 -34c23,-7 43,-11 58,-11 20,0 30,8 30,22 0,20 -13,40 -38,61 2,6 10,24 26,54 -8,7 -20,18 -36,32l-24 -63 0 0 0 0c-4,20 -7,38 -8,55l-36 10c0,-3 2,-13 5,-30l23 -130zm28 36c-1,5 -2,10 -4,15l-3 15c6,-2 11,-6 16,-10 6,-5 10,-10 12,-15 0,-1 1,-2 1,-4 0,-3 -2,-4 -7,-4 -3,0 -8,1 -15,3zm95 -2c-1,4 -3,9 -3,13l-3 12 36 -7 -2 31c-17,3 -30,5 -40,8 -1,3 -1,6 -2,9l-1 8 42 -6 -3 42c-22,2 -49,7 -83,16l27 -162 75 -11 -3 42c-14,1 -28,3 -40,5z"/>
   <path class="fil0" d="M883 434l244 -28 -1 15 182 -26 -12 168 -21 2 -8 129 -1 0 -11 155 -26 2c-66,6 -135,21 -199,38l-46 12 7 -41 -157 41 7 -39 -169 39 3 -23 -174 26 1 -3 -24 13 -13 -74 -2 19 -156 43 13 -76c-20,20 -43,37 -67,51 -25,15 -52,24 -81,24 -25,0 -50,-8 -72,-21l-23 -13 10 -25c13,-30 27,-61 41,-91 -7,-2 -13,-5 -19,-9 -26,-17 -35,-44 -31,-74 7,-59 49,-117 87,-160 37,-41 91,-95 149,-98 16,-1 31,1 45,10 12,7 20,16 26,28l2 -11 165 -31 -7 26c4,-4 9,-8 13,-13l18 -17 77 51 5 -19 232 -39 -7 39zm-20 170c-4,56 -6,113 -6,169l30 -174 -24 5zm-504 -6c-5,2 -10,4 -15,6 5,1 9,3 13,6l2 -12zm267 -48l-51 46 17 62c12,-36 23,-72 34,-108zm392 143c-3,19 -6,38 -9,58l9 -58z"/>
   <path class="fil1" d="M366 563c-12,4 -27,9 -43,16l-42 16c0,-18 -5,-26 -14,-26 -14,0 -28,8 -42,23 -10,12 -14,23 -12,34 1,7 8,10 21,10 7,0 16,-1 28,-3 16,-3 30,-5 43,-5 31,0 49,11 54,32 2,7 3,14 3,22 0,24 -9,49 -27,77 -23,36 -56,67 -98,92 -22,13 -43,19 -65,19 -19,0 -38,-5 -57,-16 10,-23 25,-56 45,-99 12,8 25,12 38,12 6,0 12,-1 19,-3 11,-3 22,-7 33,-13 15,-8 22,-16 22,-25 0,-9 -8,-14 -23,-14 -10,0 -25,2 -45,6 -20,5 -36,7 -46,7 -14,0 -24,-3 -32,-8 -15,-10 -20,-25 -18,-45 5,-42 32,-90 80,-144 50,-56 93,-85 128,-88 35,-2 52,24 52,78 0,13 -1,28 -2,45zm47 -100l97 -18c-9,33 -15,59 -19,78 32,-28 62,-55 89,-82l70 46 -110 98 62 228 -101 54 -39 -211c-12,60 -21,120 -28,178l-89 25 68 -396zm136 403c55,-140 99,-275 133,-405l170 -28c-19,113 -28,247 -26,401l-119 28 9 -71 -38 8 -11 49 -118 18zm176 -150l26 -211 -1 0 -53 216 28 -5zm370 -276l-3 104c-26,2 -51,4 -75,6 -24,103 -41,198 -50,285l-94 24 51 -298c-10,2 -20,4 -30,5l-30 6 -6 -104 237 -28zm72 107c-3,11 -6,21 -8,32l-6 31 90 -20 -6 78c-42,7 -75,14 -99,19 -2,8 -3,15 -4,23l-4 21 104 -15 -8 105c-53,4 -122,17 -204,38l67 -401 186 -28 -7 105c-37,3 -70,7 -101,12z"/>
   <path class="fil0" d="M1272 27l653 11 -584 31 57 257 649 -50 227 38 -255 30 33 208 280 51 -333 41 -177 157 406 45 -411 21 -57 302 23 65 476 -7 -489 46 -226 -155 14 261 228 28 -228 29 19 129 362 8 -231 54 -201 129 511 46 -450 -3 -167 -20 -140 -279 230 -65c0,0 -4,-141 -3,-150 0,-8 -89,-213 -89,-213l-208 -36 364 -186 -283 -823z"/>
   <polygon class="fil0" points="1444,1247 1438,1383 1510,1380 1532,1233 "/>
   <path class="fil2" d="M1909 722c0,0 160,96 168,120 9,24 -219,408 -288,422 -69,14 -199,-91 -199,-91l319 -451z"/>
   <path class="fil0" d="M2061 885c-52,106 -215,367 -272,379 -59,12 -163,-63 -192,-85l18 -40 0 0c0,0 95,32 145,30 49,-1 78,-15 90,-72 13,-58 30,-140 30,-140 0,0 88,-85 128,-74 0,0 6,-41 -13,-40 -18,2 -140,81 -130,79 11,-1 -56,21 -56,21 0,0 127,-133 197,-124 24,3 42,31 55,66z"/>
   <path class="fil3" d="M1913 715c1,0 163,97 172,124l0 0c0,0 0,1 0,1 4,16 -50,118 -114,218 -63,99 -137,199 -175,213 -2,0 -4,1 -5,1 -73,15 -206,-92 -206,-92l-6 -5 4 -7 319 -451 4 -6 7 4zm156 129c-8,-19 -128,-93 -158,-111l-309 439c26,20 129,95 185,83 1,0 2,0 3,0 34,-12 105,-109 167,-206 61,-96 113,-191 112,-205z"/>
   <path class="fil4" d="M1267 254c0,0 -79,-83 -73,-137 0,0 1,-10 20,3 20,12 29,15 29,15 0,0 -19,-68 -4,-104 15,-36 45,-15 55,4 0,0 20,-4 33,6 0,0 19,-2 28,14 8,16 34,207 34,207 0,0 -116,28 -122,-8z"/>
   <path class="fil3" d="M1257 260c-13,-14 -80,-90 -74,-144l0 0c0,-1 3,-28 38,-6 2,1 4,3 6,4 -5,-24 -8,-62 2,-87 3,-9 8,-15 13,-19 7,-7 15,-9 23,-8 7,1 14,4 21,9 5,4 10,9 14,14 8,0 20,0 31,7 8,0 24,3 33,19 10,18 36,211 36,211l2 10 -10 3c-1,0 -121,29 -135,-13zm-52 -141c-5,49 68,132 68,133l5 0c3,20 72,7 99,1 -6,-39 -25,-181 -32,-192 -5,-10 -17,-8 -17,-8l-5 0 -3 -3c-9,-7 -24,-4 -24,-4l-8 2 -4 -8c-3,-5 -7,-10 -12,-13 -3,-3 -6,-4 -9,-4 -2,-1 -5,0 -7,2 -2,2 -4,5 -6,10 -14,33 4,97 4,97l3 28 -18 -14c0,0 -10,-3 -31,-17 -3,-2 -3,-8 -3,-10z"/>
   <path class="fil4" d="M1468 1380c0,0 23,-78 16,-126 0,0 -74,8 -128,-21 -46,-26 -94,-77 -114,-143 -3,-11 6,-30 3,-41l-107 49 -188 -110c0,0 175,-108 271,-141 96,-32 156,-96 156,-96 0,0 -122,-410 -135,-492 0,0 157,-17 178,4 21,21 325,438 395,505 71,68 63,67 63,67 0,0 52,256 -10,283 -62,27 -189,7 -189,7 0,0 -15,148 -31,187 -16,39 -60,178 -60,178l-120 -110z"/>
   <path class="fil0" d="M1242 840c8,-4 15,-7 22,-10 62,24 278,263 360,328l-14 10c-27,19 -155,-175 -368,-328zm76 -41c14,-9 25,-18 34,-25 32,87 107,164 179,195l-19 21c0,0 -150,-135 -194,-191z"/>
   <path class="fil0" d="M1764 710c22,27 40,47 51,58 71,68 63,67 63,67 0,0 4,20 8,49 -110,8 -261,9 -331,-34 -118,-72 -121,-353 -121,-353 -2,-1 173,112 330,213z"/>
   <path class="fil0" d="M1027 943c59,-34 140,-77 194,-96 96,-32 156,-96 156,-96 0,0 -122,-410 -135,-492 0,0 157,-17 178,4 3,2 9,10 18,22l-125 9 119 561 -35 -53c0,0 -36,1 -52,20 -16,19 -51,3 -51,3l-20 8 23 100 -15 9 -17 -80 -118 67 77 42 -27 6 -86 -48 -40 48 -44 -34z"/>
   <path class="fil0" d="M1478 1255c-18,1 -77,2 -122,-22 -46,-26 -94,-77 -114,-143 -3,-11 6,-30 3,-41l-107 49 -188 -110c0,0 39,-24 90,-53 79,35 126,99 126,99l171 -107 29 72 -10 31c31,91 130,119 130,119 0,0 -27,14 -62,8 -34,-5 -66,-34 -66,-34 1,39 46,74 63,83 18,10 58,8 58,8l-1 41z"/>
   <path class="fil0" d="M1482 1318c0,-8 3,-14 2,-21 35,2 133,-26 133,-26 0,0 7,-89 -8,-105 0,0 -163,-78 -180,-112 -7,-13 -50,-66 -48,-82 3,-24 55,-8 55,-8l69 82 51 36 111 47 11 0c-2,24 -15,148 -30,183 -16,39 -60,178 -60,178l-52 -48 45 -127 -99 3zm356 -527c46,45 40,44 40,44 0,0 4,23 9,56l-75 -103 26 3zm57 271c-3,28 -12,50 -27,56 -17,8 -40,11 -62,13l89 -69zm-89 69c-31,2 -63,1 -88,-1l88 1z"/>
   <path class="fil0" d="M1882 858c11,64 36,238 -14,260 -17,8 -40,11 -62,13 -12,-3 -36,-9 -86,-18 -92,-19 -173,-94 -173,-94 25,14 76,3 76,3l87 55 -98 -83 35 -15c82,15 171,100 171,100 0,0 19,-6 25,-50 6,-43 -38,-208 -38,-208l77 37z"/>
   <path class="fil4" d="M1492 1034c-7,2 -37,-4 -44,-24 0,0 -19,10 -34,5 -15,-6 -20,-23 -9,-41 0,0 -14,0 -20,-6 -5,-6 -22,-39 3,-53 0,0 14,-32 62,-31 49,1 87,46 121,54 9,3 -17,-1 -23,9 -11,19 -44,51 -57,70 -6,9 1,17 1,17z"/>
   <path class="fil3" d="M1494 1045c-6,1 -22,0 -35,-7 -6,-4 -12,-8 -16,-14 -9,3 -22,6 -33,1 -2,0 -4,-1 -6,-2 -7,-5 -13,-12 -15,-20 -2,-6 -2,-13 0,-20 -4,-2 -9,-4 -12,-7 -1,-2 -3,-4 -5,-8 -4,-6 -7,-15 -8,-25 -1,-11 1,-23 11,-32 1,-1 3,-3 4,-4 6,-9 26,-36 72,-35 32,1 58,18 83,34 14,10 28,18 40,22 9,2 12,6 10,14l0 0c-2,8 -6,1 -13,1 -4,0 -22,3 -23,4 -6,10 -9,30 -21,44 -10,12 -21,24 -27,32 -1,2 0,3 0,3l14 15 -20 4zm-24 -27c2,1 5,2 7,3 1,-3 2,-6 4,-10 7,-10 18,-22 29,-35 12,-13 23,-26 29,-35 1,-1 1,-3 2,-4 -6,-3 -13,-8 -20,-12 -21,-14 -45,-29 -71,-30 -41,-1 -52,25 -52,25l-4 5c-2,1 -3,1 -4,2 -4,4 -4,9 -4,14 1,6 3,12 6,16 0,2 1,3 2,4 2,2 10,1 10,1l20 0 -10 17c-1,2 -2,4 -2,6 -2,4 -2,8 -1,12 0,2 2,5 5,6 0,0 1,1 2,1 10,4 25,-4 25,-4l11 -6 4 12c2,5 7,9 12,12z"/>
   <path class="fil4" d="M1402 486c32,0 57,29 57,64 0,35 -25,64 -57,64 -32,0 -57,-29 -57,-64 0,-35 25,-64 57,-64z"/>
   <path class="fil3" d="M1402 478c18,0 35,8 47,21 12,13 19,31 19,51 0,20 -7,38 -19,51 -12,13 -29,21 -47,21 -18,0 -35,-8 -47,-21 -12,-13 -19,-31 -19,-51 0,-20 7,-38 19,-51 12,-13 29,-21 47,-21zm34 33c-9,-10 -21,-16 -34,-16 -13,0 -25,6 -34,16 -9,10 -15,24 -15,39 0,16 6,29 15,39 9,10 21,16 34,16 13,0 26,-6 34,-16 9,-10 15,-23 15,-39 0,-15 -6,-29 -15,-39z"/>
   <path class="fil3" d="M1453 1382c0,0 20,-67 18,-114 -24,2 -69,9 -114,-16 -29,-17 -69,-54 -89,-91 -23,-42 -52,-88 -52,-88l-81 38 -4 2 -4 -3 -188 -110 -12 -7 12 -8c1,0 176,-108 273,-141 81,-27 135,-77 149,-90 -14,-46 -121,-412 -133,-489l-2 -9 9 -1c1,0 161,-17 185,7 7,7 48,61 100,130 101,135 249,331 295,375 43,41 57,61 60,71l4 0c1,0 54,263 -14,293 -55,23 -155,12 -185,8 -4,33 -16,147 -30,181 -17,39 -60,177 -61,177l-4 13 -9 -9 -120 -110 -4 -4 1 -5zm34 -124c5,42 -11,106 -16,124l106 98c12,-36 44,-135 57,-166 16,-38 30,-184 30,-185l1 -9 8 2c1,0 125,19 185,-7 56,-24 5,-273 5,-274l-2 -11 11 1c-1,0 -17,-3 -69,-52 -47,-45 -195,-242 -296,-376 -52,-70 -92,-123 -99,-129 -16,-16 -129,-6 -162,-3 19,98 132,481 132,483l2 4 -4 4c0,0 -60,65 -158,98 -80,27 -217,108 -258,132l172 102 103 -48 13 -6 -1 14c-1,35 16,63 33,95 19,33 48,65 74,80 52,28 123,22 123,22l8 -1 2 8z"/>
   <path class="fil4" d="M1211 1243c0,0 -31,-230 -202,-253 -171,-22 -184,165 -184,165l386 88z"/>
   <path class="fil0" d="M1195 1180c-10,-33 -27,-72 -52,-107 -50,-35 -124,-66 -213,-40 0,0 125,-4 211,94 20,22 39,40 54,53z"/>
   <path class="fil3" d="M1200 1232c-9,-47 -51,-215 -192,-233 -143,-19 -169,117 -173,150l365 83zm-190 -250c177,23 209,259 209,260l2 12 -12 -3 -385 -87 -8 -2 1 -7c0,-1 13,-197 193,-173z"/>
   <path class="fil4" d="M1477 163c0,0 40,10 71,40 31,30 -33,191 -80,199 -47,9 -75,-47 -79,-66 -3,-20 46,-193 88,-173z"/>
   <path class="fil0" d="M1477 163c0,0 40,10 71,40 14,14 8,56 -7,98l-58 21c0,0 -10,-108 -17,-122 -2,-4 -16,-6 -32,-5 14,-24 29,-39 43,-32z"/>
   <path class="fil3" d="M1480 155c5,1 43,13 74,42 5,5 8,12 9,20 4,22 -3,57 -15,90 -13,34 -31,67 -50,86 -9,9 -19,16 -28,18l0 0 0 0 0 0c-27,4 -49,-9 -64,-26 -14,-17 -23,-37 -25,-48l0 0 0 0 0 0c-2,-12 14,-80 37,-128 6,-14 13,-27 21,-37 8,-10 17,-17 27,-19l0 0c4,-1 9,0 14,2zm62 54c-30,-28 -67,-38 -67,-38l-2 -1c-1,-1 -3,-1 -4,0l0 0c-5,0 -11,5 -17,13 -6,8 -13,20 -19,33 -21,46 -37,107 -35,118l0 0 0 0 0 0c1,9 9,26 21,40 12,13 28,24 47,20l1 0 0 0 0 0c5,-1 12,-6 19,-13 17,-18 34,-48 46,-80 11,-31 18,-62 15,-81 -1,-5 -3,-8 -5,-11z"/>
   <path class="fil4" d="M1373 1379c0,0 101,-32 147,8 46,39 78,128 63,171l-210 -179z"/>
   <path class="fil0" d="M1575 1473c7,19 11,38 11,55l-45 -6 -61 -51c-2,-25 -5,-50 -6,-50 -1,2 64,46 64,46l-66 -61 -1 -20c13,7 62,49 104,87z"/>
   <path class="fil3" d="M1371 1371c0,0 105,-33 154,9 24,21 45,54 57,88 13,34 17,70 9,93l-5 12 -9 -8 -209 -180 -12 -10 15 -4zm143 22c-32,-27 -94,-17 -123,-10l187 160c2,-19 -3,-44 -12,-69 -11,-31 -30,-62 -52,-81z"/>
   <path class="fil5" d="M750 1117c0,0 171,-142 336,-5 165,137 446,412 562,453 115,41 35,193 -213,185 -249,-9 -470,-113 -628,-285 -159,-173 -154,-278 -57,-348z"/>
   <path class="fil0" d="M1153 1643c26,-11 55,-16 87,-11l-152 -71 133 -12 107 70 -58 -67 271 4c40,1 193,46 113,142 -44,31 -117,55 -219,52 -249,-9 -470,-113 -628,-285 -146,-159 -154,-261 -78,-330 -12,204 137,274 137,274 0,0 70,-29 62,-22 -9,7 36,-112 100,-113 63,0 158,177 158,177l-40 11 33 5 -29 41 -135 -34 -83 19c16,34 152,110 221,150z"/>
   <path class="fil3" d="M745 1111c0,0 176,-147 346,-6 48,40 105,91 165,144 148,132 314,279 394,308 29,10 46,26 54,46 6,15 5,31 -1,47 -6,16 -17,32 -34,46 -43,37 -122,66 -235,62 -124,-4 -241,-32 -348,-80 -108,-50 -205,-120 -286,-208 -80,-87 -119,-158 -126,-217 -7,-60 20,-106 71,-142l0 0zm336 7c-160,-132 -325,6 -326,6l0 0c-46,33 -70,74 -64,127 6,55 44,123 122,208 79,86 174,155 280,203 105,48 220,75 342,79 108,4 183,-23 223,-58 15,-12 24,-26 29,-39 5,-12 5,-24 1,-35 -6,-15 -20,-28 -43,-36 -84,-30 -251,-178 -400,-311 -60,-54 -117,-104 -164,-144z"/>
   <path class="fil4" d="M832 1400c0,0 -25,-37 -24,-51 0,-14 60,-38 60,-38 0,0 7,-8 38,36 32,45 -74,53 -74,53z"/>
   <path class="fil0" d="M830 1350c0,0 30,-22 38,-22 8,1 21,17 21,17l-45 23 -14 -18z"/>
   <path class="fil3" d="M825 1404c0,0 -26,-39 -26,-55 1,-20 65,-45 65,-45l1 0c5,-2 20,-1 48,39 40,56 -80,65 -80,65l-5 1 -3 -5zm-9 -55c0,9 14,32 20,42 19,-2 83,-11 64,-39 -26,-36 -27,-34 -27,-34l-2 1c0,0 -55,22 -55,30z"/>
   <path class="fil1" d="M752 1353c37,28 77,90 85,128 8,37 -23,62 -71,72 -47,9 -118,-100 -124,-131 -13,-73 66,-103 110,-69z"/>
   <path class="fil0" d="M752 1353c15,11 29,27 42,44 0,0 -29,-26 -43,-27l10 19 37 28c0,0 -48,-20 -51,-4 -3,17 9,47 16,50 7,3 64,-12 64,-12 5,11 8,21 10,30 8,37 -23,62 -71,72 -47,9 -118,-100 -124,-131 -5,-31 6,-55 23,-68l32 40c0,0 -4,59 49,93 0,0 -23,-60 -21,-81 3,-20 15,-22 15,-22 0,0 -31,-43 -33,-42 -1,0 4,-2 12,-3 12,2 24,6 33,14z"/>
   <path class="fil3" d="M757 1346c19,15 39,38 55,62 16,25 29,51 33,71l0 0 0 0 0 0c5,22 -2,40 -17,54 -13,13 -34,23 -59,28l0 0 -1 0 0 0 -1 0 0 0c-27,5 -59,-21 -85,-53 -25,-31 -45,-67 -48,-84l0 0 0 0 0 0c-5,-27 1,-49 13,-64 6,-8 13,-14 22,-19 7,-4 16,-8 25,-9 22,-4 45,0 63,14zm41 71c-15,-22 -33,-44 -51,-57 -14,-11 -32,-15 -49,-12 -8,2 -15,4 -21,8 -6,3 -12,8 -16,14 -10,12 -14,29 -10,50l0 0 0 1 0 0c3,14 21,47 44,76 23,28 49,51 69,48l0 0 1 -1 0 0 0 0 0 0c22,-4 40,-12 52,-23 10,-10 15,-23 12,-38l0 0 0 0 0 0c-4,-18 -16,-43 -31,-66z"/>
   <path class="fil3" d="M776 1416c0,0 -14,-26 -37,-22 -2,1 -3,1 -3,2 -3,4 -4,11 -3,19 1,9 3,20 7,30 5,15 13,27 19,30l0 0c5,2 11,2 17,1 6,0 12,-2 16,-5 5,-3 8,-6 9,-10 1,-2 2,-4 1,-7 -3,-19 -24,-35 -24,-35l-2 -3zm-40 -38c30,-6 49,21 54,29 5,4 25,22 29,45 1,5 0,11 -2,15 -3,7 -9,13 -16,18 -6,4 -14,7 -22,8 -9,2 -19,1 -27,-2l0 0c-10,-5 -21,-22 -28,-41 -4,-11 -7,-23 -8,-34 -1,-11 1,-22 6,-29 3,-5 8,-8 14,-9z"/>
   <path class="fil4" d="M938 1318c0,0 -128,70 -153,77 -25,8 -16,42 -8,58 9,16 47,9 83,0 37,-10 165,-48 165,-48l-87 -87z"/>
   <path class="fil0" d="M871 1450c26,-7 71,-20 106,-30 -20,-16 -45,-40 -57,-65 0,0 -105,52 -116,56 -12,4 -6,28 2,28 9,0 96,-59 96,-59 0,0 -58,49 -73,57 0,0 20,6 42,13z"/>
   <path class="fil3" d="M937 1328c-25,14 -127,69 -150,76 -1,0 -2,0 -3,1 -4,2 -6,7 -7,12 -1,6 1,13 3,20 1,5 3,9 5,12 2,5 11,6 23,5 14,-1 32,-5 50,-10 29,-7 117,-33 151,-43l-72 -73zm-154 59c24,-7 151,-76 151,-77l6 -3 4 5 87 87 10 10 -13 4c-1,1 -129,39 -166,48 -18,5 -37,9 -53,10 -19,1 -33,-2 -39,-14 -2,-4 -5,-9 -7,-15 -2,-9 -4,-19 -3,-28 2,-10 6,-19 16,-24 2,-1 4,-2 7,-3z"/>
   <path class="fil1" d="M1328 1728c-2,-4 -38,-41 -62,-47 -24,-7 -63,-3 -85,41 -23,44 28,119 68,128 40,9 94,-15 92,-62 -2,-46 -13,-60 -13,-60z"/>
   <path class="fil0" d="M1328 1728c-2,-4 -38,-41 -62,-47 -24,-7 -63,-3 -85,41 -5,9 -7,19 -6,29l48 11c0,0 3,-40 31,-45 28,-4 39,38 42,53 2,15 1,27 -16,30 -16,3 -44,-10 -44,-10l-37 -12c0,0 20,52 66,57 25,3 50,-6 67,-14 6,-9 10,-20 9,-33 -2,-46 -13,-60 -13,-60z"/>
   <path class="fil3" d="M1320 1732c-1,-2 -14,-16 -30,-28 -9,-7 -19,-13 -26,-15 -12,-3 -29,-4 -44,4 -12,5 -23,16 -32,33 -1,3 -3,6 -3,9 -4,17 2,39 13,58 11,20 28,37 43,45 3,2 7,3 10,4 6,1 12,2 18,2 14,-1 29,-5 40,-13 11,-7 20,-18 23,-30 1,-4 1,-8 1,-13 -2,-43 -11,-54 -11,-55l-2 -1zm-20 -41c16,11 30,26 35,32l0 0c0,0 13,15 15,65 0,6 0,11 -2,16 -4,18 -15,32 -30,41 -14,9 -31,15 -48,15 -8,1 -16,0 -23,-2 -4,-1 -9,-2 -14,-5 -18,-9 -37,-29 -50,-51 -13,-23 -20,-49 -15,-71 1,-5 3,-9 5,-13 11,-21 25,-33 40,-40 19,-10 40,-9 55,-5 10,2 22,9 32,18z"/>
   <path class="fil3" d="M1285 1737c-1,-1 -1,-2 -2,-3l0 0c-3,-3 -8,-7 -15,-9 -6,-1 -12,-2 -18,1l0 0c-2,0 -4,1 -5,3 -2,1 -3,3 -5,4 -4,7 -7,15 -7,24 0,9 2,18 8,25l0 0c1,1 3,3 5,5 7,4 14,7 20,7 6,0 11,0 15,-2 3,-1 6,-3 8,-6 1,-1 1,-2 1,-4 1,-15 -4,-41 -5,-45zm11 -13c2,2 4,4 5,7l0 1c0,0 7,32 6,51 0,5 -2,9 -4,13 -4,5 -10,9 -16,12 -7,2 -14,3 -21,3 -10,-1 -21,-4 -30,-11 -3,-2 -6,-5 -8,-8l0 0c-9,-10 -12,-22 -12,-35 0,-12 4,-24 11,-33 2,-3 4,-6 7,-8 3,-3 6,-5 10,-6l0 0c9,-4 20,-4 29,-1 10,3 18,8 23,15l0 0z"/>
   <path class="fil1" d="M1175 1375c-3,52 -53,75 -87,83 -50,11 -150,-95 -168,-155 -32,-104 56,-140 134,-110 67,26 125,107 121,182z"/>
   <path class="fil0" d="M1175 1375c-3,52 -53,75 -87,83 -34,7 -93,-41 -132,-92l5 -31 44 -13c0,0 64,94 117,63 52,-30 17,-69 23,-71 3,-1 14,8 27,22 2,13 4,26 3,39zm-259 -136c15,-54 79,-69 138,-46 18,7 36,18 52,33 -42,-15 -93,-18 -112,39l-59 20c0,0 -13,-27 -19,-46z"/>
   <path class="fil3" d="M1183 1376c-1,24 -12,43 -27,57 -19,18 -45,28 -66,33 -26,6 -63,-15 -97,-46 -37,-35 -71,-81 -81,-115 -10,-31 -9,-57 -1,-77 5,-12 12,-23 22,-31 9,-8 20,-14 33,-18 27,-8 59,-6 91,6 36,14 69,43 93,78 22,34 35,74 33,113zm-38 45c12,-12 20,-27 21,-46 2,-35 -10,-72 -31,-103 -21,-32 -52,-59 -84,-71 -28,-11 -57,-13 -80,-6 -11,3 -20,8 -27,15 -8,6 -14,14 -17,24 -7,17 -7,39 1,66 9,31 41,75 77,107 30,28 61,47 81,43 19,-5 42,-14 59,-29z"/>
   <path class="fil3" d="M1142 1288c17,35 19,58 13,74 -7,18 -22,26 -39,29 -16,4 -37,-8 -56,-26 -20,-19 -38,-46 -45,-66 -7,-25 -5,-42 4,-53 5,-8 13,-13 22,-15 8,-2 18,-2 28,1 27,5 58,26 73,56zm-3 68c4,-12 2,-30 -13,-60 -12,-26 -38,-43 -60,-48 -8,-1 -15,-2 -21,0 -5,1 -10,4 -13,8 -5,7 -6,19 0,38 5,17 22,41 40,59 15,14 30,24 40,22 12,-3 23,-8 27,-19z"/>
   <path class="fil4" d="M1378 1697c-28,6 -149,23 -126,69 19,39 143,-26 143,-26l-17 -43z"/>
   <path class="fil0" d="M1269 1752c0,0 47,-33 90,-35l5 23c0,0 -38,17 -66,20l36 -19 -45 18c0,0 -19,2 -20,-7z"/>
   <path class="fil3" d="M1373 1707l-5 1c-22,4 -61,11 -87,24 -17,8 -28,18 -21,31 12,26 99,-14 125,-27l-12 -29zm-8 -16c5,-1 8,-1 11,-2l7 -1 3 6 17 43 3 7 -7 4c0,0 -132,69 -155,22 -11,-24 4,-41 30,-53 28,-14 68,-22 91,-26z"/>
   <path class="fil1" d="M1585 1663c53,89 -5,180 -114,177 -109,-2 -109,-96 -109,-146 0,-112 149,-155 223,-31z"/>
   <path class="fil0" d="M1590 1783c-21,35 -63,59 -119,57 -50,-1 -77,-22 -92,-48l44 -26c0,0 32,47 77,40 44,-6 66,-47 67,-68l23 45z"/>
   <path class="fil0" d="M1585 1663c8,14 14,29 17,43l-44 3c0,0 -2,-10 -9,-36 -7,-25 -33,-58 -62,-57 -29,1 -48,43 -48,43 -27,-7 -54,1 -74,11 19,-93 151,-121 220,-7z"/>
   <path class="fil3" d="M1592 1658c15,26 22,51 21,75 0,20 -6,39 -16,55 -9,16 -23,30 -40,40 -23,14 -53,22 -86,21 -59,-2 -88,-28 -103,-61 -14,-31 -14,-68 -14,-94 0,-32 11,-59 30,-79 14,-15 33,-26 54,-32 21,-5 44,-5 67,2 32,10 63,34 87,73zm4 75c1,-21 -5,-44 -19,-66 -21,-36 -49,-57 -77,-65 -19,-7 -39,-7 -57,-2 -18,4 -35,14 -47,27 -16,17 -25,40 -25,67 0,24 0,59 13,87 12,28 37,50 87,51 30,1 57,-6 77,-18 15,-9 27,-21 35,-35 8,-14 13,-29 13,-46z"/>
   <path class="fil3" d="M1537 1634c17,18 25,42 29,65 5,34 -1,67 -8,77 -4,5 -15,12 -28,16 -11,3 -23,5 -35,4 -13,-1 -26,-5 -37,-14 -11,-9 -21,-23 -28,-43 -10,-34 -8,-69 4,-94 5,-13 13,-23 22,-29 10,-8 21,-11 33,-10 15,1 32,9 48,28zm12 68c-3,-21 -10,-42 -24,-57 -14,-15 -26,-22 -37,-22 -8,-1 -16,1 -22,6 -7,5 -12,13 -17,23 -10,21 -12,52 -2,82 5,17 12,28 21,35 9,6 19,10 28,10 10,1 20,-1 29,-3 10,-3 17,-8 20,-11 5,-6 9,-34 4,-63z"/>
   <path class="fil4" d="M1743 127c208,0 376,162 376,361 0,199 -168,360 -376,360 -207,0 -375,-161 -375,-360 0,-199 168,-361 375,-361z"/>
   <path class="fil0" d="M1743 127c208,0 376,162 376,361 0,199 -168,360 -376,360 -72,0 -140,-19 -197,-53 65,17 142,29 215,19 174,-26 232,-117 232,-117 0,0 -112,-19 -130,-42 -18,-23 41,-239 41,-239 0,0 180,50 174,51 -4,0 -35,-138 -151,-223 27,-5 47,-5 47,-5l-17 -17c-12,-2 -32,1 -56,5 -50,-29 -113,-48 -194,-46 -143,4 -241,77 -304,153 61,-122 190,-207 340,-207z"/>
   <path class="fil3" d="M1743 119c106,0 202,41 272,108 69,66 112,159 112,261 0,102 -43,194 -112,261 -70,67 -166,108 -272,108 -106,0 -202,-41 -271,-108 -70,-67 -113,-159 -113,-261 0,-102 43,-195 113,-261 69,-67 165,-108 271,-108zm260 120c-66,-64 -158,-103 -260,-103 -101,0 -193,39 -260,103 -66,63 -107,152 -107,249 0,97 41,185 107,249 67,63 159,103 260,103 102,0 194,-40 260,-103 66,-64 107,-152 107,-249 0,-97 -41,-186 -107,-249z"/>
   <path class="fil6" d="M1666 214c165,0 298,128 298,286 0,159 -133,287 -298,287 -165,0 -299,-128 -299,-287 0,-158 134,-286 299,-286z"/>
   <path class="fil0" d="M1666 214c160,0 290,121 298,273l-99 17c0,0 10,-79 -120,-146 -130,-68 -203,-37 -203,-37 60,-2 131,55 131,55 -100,-35 -203,-14 -285,19 44,-106 152,-181 278,-181z"/>
   <path class="fil3" d="M1666 205c84,0 161,33 217,87 55,53 90,127 90,208 0,82 -35,156 -90,209 -56,54 -133,87 -217,87 -85,0 -162,-33 -217,-87 -56,-53 -90,-127 -90,-209 0,-81 34,-155 90,-208 55,-54 132,-87 217,-87zm205 99c-52,-50 -125,-82 -205,-82 -80,0 -153,32 -205,82 -53,50 -85,120 -85,196 0,77 32,147 85,197 52,50 125,82 205,82 80,0 153,-32 205,-82 52,-50 85,-120 85,-197 0,-76 -33,-146 -85,-196z"/>
   <path class="fil0" d="M1552 929c0,0 149,16 184,34 0,0 -17,-62 -11,-89l18 -8c0,0 -9,69 7,91 16,22 49,38 49,64 0,0 -61,-72 -243,-74 0,0 -60,71 -60,77 0,5 50,47 171,97l0 17c0,0 -135,-47 -188,-103 -8,-21 52,-89 73,-106z"/>
   <path class="fil0" d="M1487 1264c0,0 5,-68 -4,-77 -8,-9 -62,8 -62,8 0,0 48,-2 52,3 4,5 -1,59 -1,56 0,-3 14,22 15,10z"/>
   <path class="fil0" d="M1227 1061c-1,-2 7,-15 7,-15 0,0 63,-51 84,-64 0,0 -66,63 -70,92 0,0 -13,-14 -21,-13z"/>
   <path class="fil0" d="M1245 840c0,0 78,-1 96,16 0,0 -8,-21 -47,-31 0,0 -53,17 -49,15z"/>
   <path class="fil0" d="M1267 12c0,0 13,8 18,54 6,45 6,66 6,66 0,0 8,-15 4,-41 -4,-26 2,-51 2,-54 -1,-2 19,4 20,1 1,-2 19,86 16,112 0,0 10,-13 7,-35 -3,-22 -11,-74 -11,-74 0,0 -9,-10 -16,-9 -7,0 -15,1 -17,0 -1,-2 -23,-18 -29,-20z"/>
   <path class="fil0" d="M1224 126c0,0 16,10 19,16 4,6 18,33 18,33 0,0 -11,-39 -15,-46 -4,-6 -10,3 -22,-3z"/>
   <path class="fil0" d="M1461 1020c0,0 -6,-7 -10,-18 -4,-10 -8,-18 -7,-38 0,-19 -5,-22 -5,-22 0,0 -5,6 -3,9 1,4 0,13 0,13 0,0 -24,-4 -33,-18 0,0 -7,-2 -6,4 2,6 12,14 20,16 0,0 -8,3 -20,1 -13,-1 3,12 4,12 1,0 16,-4 24,-10 0,0 5,2 10,2 0,0 -2,24 9,39 10,15 17,10 17,10z"/>
   <path class="fil0" d="M1381 921c0,0 -6,5 5,2 11,-2 32,-11 49,-6 18,5 19,11 19,11 0,0 2,-5 -4,-12 -7,-8 -18,-8 -27,-8 -9,1 -28,3 -28,3l-14 10z"/>
   <path class="fil4" d="M1829 702c32,0 57,22 57,49 0,28 -25,50 -57,50 -32,0 -57,-22 -57,-50 0,-27 25,-49 57,-49z"/>
   <path class="fil3" d="M1829 693c18,0 34,6 46,17 12,10 20,25 20,41 0,16 -8,31 -20,42 -12,10 -28,16 -46,16 -18,0 -34,-6 -46,-16 -12,-11 -20,-26 -20,-42 0,-16 8,-31 20,-41 12,-11 28,-17 46,-17zm35 29c-9,-7 -21,-12 -35,-12 -14,0 -26,5 -35,12 -9,8 -14,18 -14,29 0,11 5,21 14,29 9,8 21,12 35,12 14,0 26,-4 35,-12 9,-8 14,-18 14,-29 0,-11 -5,-21 -14,-29z"/>
   <path class="fil4" d="M2001 457c0,0 -27,-43 -8,-56 18,-12 195,70 205,100 10,31 -17,143 -57,155 -40,11 -172,1 -195,-23 -24,-23 55,-176 55,-176z"/>
   <path class="fil0" d="M1988 426c-3,-10 -2,-20 5,-25 18,-12 195,70 205,100 10,31 -17,143 -57,155 -25,7 -83,6 -130,-2 21,-7 48,-15 72,-17 50,-4 47,-20 47,-20 -31,-8 -59,-28 -59,-28l21 -32 51 31c0,0 -32,-28 -35,-28 -2,-1 9,-38 12,-38 2,1 50,24 50,24 2,-12 -6,-29 -6,-29 -17,-12 -96,-16 -96,-16 0,0 4,-26 1,-26 -3,0 -15,-16 -38,-35 -8,-6 -24,-10 -43,-14zm-4 223c-18,-4 -32,-9 -38,-16 -6,-6 -6,-20 -1,-38 31,27 60,32 58,31 -1,-2 -10,11 -19,23z"/>
   <path class="fil3" d="M1991 458c-6,-13 -24,-50 -3,-64 1,0 2,-1 4,-1 13,-5 61,12 108,33 46,22 92,49 103,67 1,2 2,4 3,5 0,1 0,2 1,2 4,17 0,54 -11,88 -11,35 -29,68 -51,76 -1,0 -2,0 -2,0 -22,6 -70,6 -114,1 -40,-4 -77,-13 -89,-26 -26,-25 39,-156 51,-181zm6 -49c-11,8 11,44 11,44l3 4 -3 4c0,1 -76,147 -56,166 9,10 42,17 79,21 42,5 87,6 107,0l1 0c17,-6 31,-34 41,-65 10,-31 14,-64 10,-78l0 -1c0,-1 0,-1 -1,-2 -10,-15 -53,-40 -97,-60 -42,-20 -85,-36 -95,-33z"/>
   <path class="fil4" d="M1993 401c0,0 40,11 71,41 31,30 -33,191 -80,199 -47,9 -75,-47 -79,-67 -3,-19 46,-192 88,-173z"/>
   <path class="fil0" d="M1993 401c0,0 40,11 71,41 10,10 10,32 4,59 0,-2 4,-26 1,-26 -3,0 -15,-16 -38,-35 -12,-9 -44,-15 -73,-18 11,-17 23,-26 35,-21zm-1 237c-3,2 -5,3 -8,3 -47,9 -75,-47 -79,-67 0,-3 1,-12 3,-24 40,67 97,78 95,76 -1,-1 -5,5 -11,12z"/>
   <path class="fil3" d="M1996 393c5,2 43,14 74,43 5,5 8,12 9,20 4,22 -3,56 -15,90 -13,33 -31,66 -50,86 -9,9 -19,16 -28,17l0 0 0 0 0 0c-27,5 -49,-8 -64,-25 -14,-17 -23,-37 -25,-48l0 0 0 0 0 0c-2,-12 14,-80 37,-129 6,-14 13,-26 21,-36 8,-10 17,-17 26,-19l0 0c5,-1 10,-1 15,1zm62 55c-30,-28 -67,-38 -67,-38l-2 -1c-1,-1 -3,-1 -4,-1l0 0c-5,1 -11,6 -17,14 -6,8 -13,20 -19,33 -21,46 -37,107 -35,118l0 0 0 0 0 0c1,9 9,26 21,40 12,13 28,23 47,20l0 0 1 0 0 0c5,-1 12,-6 19,-13 17,-18 34,-48 46,-80 11,-31 18,-62 15,-81 -1,-5 -3,-9 -5,-11z"/>
   <path class="fil0" d="M1495 1693c7,0 13,6 13,13 0,8 -6,14 -13,14 -7,0 -13,-6 -13,-14 0,-7 6,-13 13,-13z"/>
   <path class="fil0" d="M1489 1638c0,0 25,-1 41,39 15,39 12,65 12,65l-21 -23c0,0 9,-42 -32,-81z"/>
   <path class="fil0" d="M1077 1291c8,-5 18,-1 24,8 6,9 4,21 -4,25 -7,5 -18,1 -23,-8 -6,-9 -4,-20 3,-25z"/>
   <path class="fil0" d="M1080 1272l-17 8c0,0 -14,49 48,78 0,0 -48,-8 -63,-49 -26,-72 34,-57 32,-37z"/>
   <path class="fil0" d="M779 1195c0,0 77,-65 158,-72 82,-6 149,45 149,45l-16 -39c0,0 -77,-81 -145,-77 -69,5 -184,90 -181,95 3,5 1,59 35,48z"/>
   <path class="fil0" d="M1209 1251c0,0 237,223 303,258l-109 6c0,0 -152,-91 -194,-264z"/>
   <path class="fil0" d="M1972 481c0,0 9,-33 32,-37 23,-3 36,18 37,14 1,-3 -22,60 -22,60l3 -50c0,0 -16,23 -21,15 -5,-8 7,-29 7,-29 0,0 -10,-8 -36,27z"/>
   <path class="fil0" d="M2003 542c0,0 -7,34 -30,39 -22,5 -37,-15 -37,-12 -1,4 18,-60 18,-60l0 49c0,0 14,-23 20,-16 5,8 -5,30 -5,30 0,0 11,7 34,-30z"/>
   <path class="fil0" d="M1751 200c65,4 162,48 212,104 19,21 55,73 37,75l-29 4c0,0 -12,-127 -220,-183z"/>
   <path class="fil0" d="M1444 606c0,0 51,56 164,66 113,10 234,-51 234,-51l-106 118c0,0 -168,87 -292,-133z"/>
  </g>
 </g>
</svg>
