<?xml version="1.0" encoding="UTF-8"?>
<!DOCTYPE svg PUBLIC "-//W3C//DTD SVG 1.1//EN" "http://www.w3.org/Graphics/SVG/1.1/DTD/svg11.dtd">
<!-- Creator: CorelDRAW X7 -->
<svg xmlns="http://www.w3.org/2000/svg" xml:space="preserve" width="21cm" height="18.4623cm" version="1.1" style="shape-rendering:geometricPrecision; text-rendering:geometricPrecision; image-rendering:optimizeQuality; fill-rule:evenodd; clip-rule:evenodd"
viewBox="0 0 1878 1651"
 xmlns:xlink="http://www.w3.org/1999/xlink">
 <defs>
  <style type="text/css">
   <![CDATA[
    .fil1 {fill:black}
    .fil5 {fill:black}
    .fil4 {fill:#1A1A1A}
    .fil10 {fill:#333333}
    .fil2 {fill:#472710}
    .fil6 {fill:#4D4D4D}
    .fil7 {fill:blue}
    .fil11 {fill:#999999}
    .fil3 {fill:#B56438}
    .fil9 {fill:yellow}
    .fil8 {fill:#F08E58}
    .fil0 {fill:#F0F0F0}
    .fil21 {fill: red}
   ]]>
  </style>
 </defs>
 <g id="Layer_x0020_1">
  <metadata id="CorelCorpID_0Corel-Layer"/>
  <g id="_783973496">
   <path class="fil0" d="M1550 927c1,2 2,4 3,7 1,4 2,8 2,12 -1,10 -4,16 -10,22 4,4 7,9 9,15 1,3 2,7 2,11 -1,9 -4,16 -8,21 2,3 5,7 6,12 1,4 2,8 2,12 -1,15 -9,22 -19,30 -2,1 -3,2 -3,3 -8,12 -17,22 -30,28 0,0 0,0 0,0 -1,1 -3,2 -4,3l-1 83c16,5 31,14 43,26 7,0 13,1 20,3 18,-29 47,-48 84,-49 18,0 37,4 53,13 3,2 5,3 7,5 2,-1 3,-1 4,-1 40,-9 80,5 103,39 10,16 16,34 16,53l3 1c23,11 40,32 45,56l0 1 0 2c5,26 -7,48 -22,69 -11,15 -24,29 -38,41 -27,24 -62,44 -99,41 -17,-1 -33,-6 -47,-15 -19,12 -43,17 -66,14 -13,-2 -25,-6 -35,-13 -25,13 -53,19 -81,10l0 0 -1 -1c-9,-3 -17,-7 -25,-12 -12,4 -25,7 -39,7 -18,0 -35,-5 -49,-14 -23,15 -50,26 -78,24 -17,-1 -33,-6 -47,-15 -19,12 -43,17 -66,14 -13,-2 -25,-6 -36,-13 -7,-5 -13,-11 -19,-17 -28,17 -62,25 -95,18 -12,-2 -24,-6 -34,-13 -22,15 -47,26 -74,26 -9,0 -19,-1 -28,-3 -21,14 -46,20 -71,16 -10,-1 -19,-4 -28,-8 -1,-1 -2,-2 -4,-2 -31,77 -82,162 -171,162 -15,0 -29,-3 -43,-9 -36,-17 -59,-52 -66,-91 -4,-22 -2,-44 3,-66 -14,-2 -28,-6 -40,-14 -19,12 -43,17 -66,14 -13,-2 -25,-6 -36,-13 -7,-5 -13,-11 -19,-17 -28,17 -62,24 -95,18 -23,-4 -45,-17 -61,-35l-7 40c-9,48 -53,77 -101,70l0 0 -1 0c-9,-1 -17,-4 -25,-8 -69,-36 -50,-142 -34,-203 5,-19 11,-37 19,-55l-21 -23c-24,-29 -38,-65 -27,-102 14,-51 65,-77 113,-87 23,-5 48,-3 71,-2 25,2 50,4 75,5 1,-4 3,-8 6,-12 18,-32 52,-51 87,-55l0 -35 0 -59c-21,0 -41,1 -61,0 -9,0 -18,0 -28,0 -3,-1 -7,-1 -11,-2 -18,-4 -30,-19 -28,-37 0,-2 0,-4 0,-6 0,-6 0,-12 0,-18 1,-20 0,-40 0,-60 -2,-57 -7,-115 -17,-171 -9,-58 -31,-148 -74,-190 -15,-9 -20,-29 -11,-45 6,-12 18,-22 29,-29 10,-8 20,-17 30,-26 11,-9 22,-18 33,-26 18,-12 39,-21 58,-6 3,2 6,4 8,7 7,8 14,16 22,23 21,21 45,40 69,58 74,55 160,97 251,117 56,12 114,16 172,11 69,-6 137,-24 200,-51 186,-80 345,-235 470,-391l34 -29c20,-7 40,-14 60,-21 13,-4 26,-8 39,-12 5,-2 10,-3 15,-5 4,-1 9,-2 13,-3 16,-2 30,7 43,16 11,8 22,17 33,26 11,9 21,19 32,29 4,3 7,7 11,11 1,1 3,3 4,5 3,3 6,8 7,12 0,0 0,0 0,0 9,9 15,17 15,29l0 6 -2 5c-41,118 -81,235 -120,353 -23,69 -46,137 -68,206 -9,26 -17,53 -25,80 -4,13 -8,27 -12,41 1,2 2,4 2,6 1,4 2,8 2,12 -1,6 -2,11 -5,15 2,3 4,7 5,10 1,4 2,8 1,12 0,5 -1,9 -2,13 2,3 4,6 5,10 1,4 2,8 1,12 0,7 -2,13 -6,18z"/>
   <polygon class="fil1" points="1164,1251 1118,1253 1119,943 1117,804 1163,795 "/>
   <polygon class="fil2" points="1157,1245 1156,803 1124,810 1126,943 1125,1245 "/>
   <polygon class="fil1" points="1149,805 1124,810 1126,943 1125,1245 1140,1245 "/>
   <polygon class="fil1" points="1261,1267 1215,1268 1216,958 1214,819 1260,810 "/>
   <polygon class="fil2" points="1254,1260 1253,818 1221,825 1223,958 1222,1261 "/>
   <polygon class="fil1" points="1246,820 1221,825 1223,958 1222,1261 1237,1260 "/>
   <polygon class="fil1" points="1351,1271 1305,1272 1306,962 1304,823 1350,814 "/>
   <polygon class="fil2" points="1344,1264 1343,822 1311,829 1313,962 1312,1265 "/>
   <polygon class="fil1" points="1336,824 1311,829 1313,962 1312,1265 1327,1264 "/>
   <path class="fil1" d="M397 1111l646 -7 391 -4 0 47 -7 0c-63,2 -127,3 -191,5 -43,1 -87,1 -131,2 -14,1 -29,1 -43,1 -4,0 -8,1 -12,1 -2,0 -4,0 -5,0 -10,0 -19,0 -29,0 -24,0 -48,0 -72,1 -73,0 -146,1 -218,2 -107,0 -213,1 -319,2l-7 0 -3 -50z"/>
   <path class="fil2" d="M405 1118l638 -7 384 -4 0 33c0,0 -380,9 -382,9 -2,0 -638,5 -638,5l-2 -36z"/>
   <path class="fil1" d="M405 1118l30 0 -3 26 139 2 -1 -30 28 0 -2 27 129 0 2 -28 17 -1 1 28 149 -2 -1 -27 22 0 0 25 99 0 -1 -26 30 -1 10 0 4 31 370 -18 0 16c0,0 -380,9 -382,9 -2,0 -638,5 -638,5l-2 -36z"/>
   <path class="fil1" d="M1468 713l-35 323 -375 7 -658 21 -3 -287 5 -1c42,-14 84,-28 127,-41 92,-30 184,-60 275,-91 47,-16 93,-32 140,-48 41,-14 82,-29 122,-44 31,-11 61,-22 91,-35 9,-4 18,-8 27,-13 3,-1 10,-5 13,-8 25,-28 154,-53 193,-60 37,-7 74,-13 112,-17 15,-2 30,-4 45,-5 11,0 22,-1 33,0 4,0 9,2 13,5 15,14 3,48 -2,64 -6,16 -12,31 -19,46 -8,17 -17,34 -25,50 -17,32 -35,63 -54,93 -8,14 -16,28 -25,41z"/>
   <path class="fil3" d="M404 782l3 275 651 -21 369 -7 34 -318c0,0 184,-286 118,-290 -66,-4 -342,42 -377,80 -35,38 -798,281 -798,281z"/>
   <path class="fil2" d="M1177 1033l21 0 -4 -275 40 3 -3 272 19 -1 -2 -273 38 20 -5 253 15 -1 9 -251 34 7 -6 244 21 -1 1 -266c0,0 -172,-20 -172,-18 0,2 -5,32 -5,32l-1 255z"/>
   <path class="fil2" d="M405 928l1 39 641 -42 1 -49 -643 52zm1 83l1 15c170,-9 620,-32 623,-32 5,0 -4,-22 2,-22 5,0 -481,30 -626,39zm1 39l0 7 651 -21 369 -7 2 -17c-134,-1 -382,-5 -379,-5 5,1 -5,22 -5,22l-638 21z"/>
   <path class="fil1" d="M404 782l2 156c266,-24 652,-26 669,-41 17,-14 170,-229 170,-229l142 -90 4 245 54 40 16 -152c0,0 184,-286 118,-290 -66,-4 -342,42 -377,80 -35,38 -798,281 -798,281z"/>
   <polygon class="fil1" points="428,1279 382,1280 383,970 381,831 427,822 "/>
   <polygon class="fil2" points="421,1272 420,830 388,837 390,970 389,1272 "/>
   <polygon class="fil1" points="413,832 388,837 390,970 389,1272 404,1272 "/>
   <polygon class="fil1" points="582,1287 536,1289 537,979 536,840 582,831 "/>
   <polygon class="fil2" points="575,1281 575,839 543,846 544,979 543,1281 "/>
   <polygon class="fil1" points="567,841 543,846 544,979 543,1281 559,1281 "/>
   <polygon class="fil1" points="735,1275 688,1276 690,967 688,827 734,818 "/>
   <polygon class="fil2" points="728,1268 727,826 695,833 697,966 695,1269 "/>
   <polygon class="fil1" points="720,828 695,833 697,966 695,1269 711,1268 "/>
   <polygon class="fil1" points="905,1275 859,1276 860,966 858,827 904,818 "/>
   <polygon class="fil2" points="898,1268 897,826 865,833 867,966 866,1269 "/>
   <polygon class="fil1" points="890,828 865,833 867,966 866,1269 881,1268 "/>
   <polygon class="fil1" points="1064,1265 1018,1266 1019,957 1017,818 1063,808 "/>
   <polygon class="fil2" points="1057,1258 1056,817 1024,823 1026,957 1025,1259 "/>
   <polygon class="fil1" points="1049,818 1024,823 1026,957 1025,1259 1040,1259 "/>
   <path class="fil4" d="M1454 781l2 -21c-42,-4 -143,-13 -143,-13l136 -266 -52 -1 -138 263 -117 -9c0,0 -36,50 -41,46 -4,-3 327,25 327,25 0,0 13,-12 26,-24z"/>
   <path class="fil5" d="M1387 602l57 -110c-14,1 -32,2 -55,4l-66 125 64 -19zm-192 136l-53 -4c0,0 -36,50 -41,46 -1,-1 24,1 61,4l33 -46z"/>
   <path class="fil6" d="M1113 771c-6,6 -11,10 -12,9 -4,-3 327,25 327,25 0,0 9,-9 19,-18l-334 -17c1,0 0,0 0,1z"/>
   <path class="fil1" d="M1113 771c-6,6 -11,10 -12,9 -1,-1 24,1 61,4l8 -11 -57 -3c1,0 0,0 0,1z"/>
   <path class="fil1" d="M263 319c7,9 16,18 25,26 22,22 46,42 71,60 78,58 166,101 261,121 59,14 120,18 180,13 72,-7 142,-25 209,-54 192,-82 355,-242 483,-403l1 -2 2 0c22,-9 44,-17 67,-25 14,-5 29,-10 44,-15 6,-2 22,-7 27,-6 6,1 19,11 24,14 12,9 24,19 35,28 13,10 25,21 37,31 4,4 8,7 12,11 2,3 6,6 6,10l0 2 0 1c-41,117 -81,235 -120,353 -23,68 -46,137 -68,206 -9,27 -17,53 -25,80 -6,17 -11,35 -15,53l-2 5 -108 0 36 -404 -169 139 -210 287 -4 0c-133,8 -266,15 -400,22 -92,5 -184,9 -276,12 -30,1 -61,2 -91,2 -8,0 -17,0 -26,-1 -2,0 -5,0 -7,-1 -5,-1 -8,-3 -8,-8 0,-3 0,-6 1,-9 0,-6 0,-12 0,-18 0,-20 0,-40 -1,-61 -2,-58 -7,-117 -17,-175 -11,-65 -34,-160 -84,-206 -5,-2 -6,-7 -4,-12 4,-7 16,-16 22,-20 10,-9 21,-18 31,-26 10,-9 21,-17 31,-25 7,-4 19,-13 27,-7 1,0 2,1 3,2z"/>
   <path class="fil7" d="M257 323c0,0 547,635 1240,-237 0,0 125,-47 135,-45 10,1 108,83 108,87 0,0 -203,587 -228,693l-96 3 38 -417 -183 151 -209 285c0,0 -802,48 -801,33 2,-14 11,-372 -105,-475 0,0 -8,-1 19,-21 26,-20 77,-68 82,-57z"/>
   <path class="fil3" d="M1412 744l42 -337 -183 151 -39 53c0,0 322,-505 351,-534 30,-28 111,36 112,34 1,-1 -170,380 -283,633z"/>
   <path class="fil1" d="M1456 376l-1 -13 24 -15 31 3 2 63 -3 2c-55,47 -111,94 -167,140 -38,32 -76,64 -115,95 -13,10 -26,21 -39,31 -3,3 -7,6 -11,8 -4,3 -9,6 -13,2 -4,-3 -3,-7 -1,-11 1,-2 2,-5 4,-7 4,-7 10,-15 15,-22 16,-21 32,-42 48,-63 24,-30 48,-60 72,-90l0 -1 154 -122z"/>
   <path class="fil2" d="M1503 357l-22 -2 -19 12 1 12 -156 124c0,0 -144,180 -139,184 6,4 336,-276 336,-276l-1 -54z"/>
   <path class="fil1" d="M1478 357l-16 10 1 12 -156 124c0,0 -92,115 -126,163 48,-43 297,-255 297,-255l0 -54z"/>
   <path class="fil1" d="M1582 90l17 -4 -519 764 -44 1 516 -762 4 0c4,0 9,0 14,0 2,0 5,1 8,1 1,0 3,0 4,0z"/>
   <path class="fil2" d="M1583 97l-507 746 -26 1 505 -748c0,0 26,1 28,1z"/>
   <path class="fil1" d="M1714 113c-15,32 -29,63 -43,95 -31,68 -61,137 -91,206 -26,61 -51,122 -75,184 -9,23 -18,46 -25,70 -3,8 -6,17 -8,26 -1,6 -3,12 -4,18l-3 30 -10 -29c-2,-5 -4,-11 -5,-16 -3,-12 -5,-24 -6,-37 -2,-14 -1,-31 6,-44 2,-3 3,-7 5,-10 3,-6 6,-12 9,-18 9,-20 18,-39 27,-59 26,-55 52,-110 77,-165 26,-57 52,-113 78,-170 9,-19 18,-39 26,-58 3,-6 6,-12 8,-18 1,-3 3,-6 4,-9l0 -1 1 -1c2,-3 5,-5 8,-6 7,-4 15,-1 20,5l2 3 -1 4z"/>
   <path class="fil2" d="M1707 110c0,0 -236,516 -246,601 0,0 -21,-63 -5,-92 16,-28 228,-486 234,-508 0,0 9,-11 17,-1z"/>
   <path class="fil1" d="M1632 100c-12,3 -25,6 -38,8 -8,2 -15,3 -23,4 -6,1 -13,2 -18,1 -16,-3 -36,-24 -46,-36l-6 -7 10 -4c20,-7 40,-14 60,-21 12,-4 25,-8 38,-12 4,-2 9,-3 14,-4 3,-1 6,-2 9,-2 8,-1 19,7 25,11 10,7 21,16 30,24 11,9 22,19 32,28 3,3 6,7 10,10 1,1 2,2 3,3 1,2 3,5 2,8 -2,8 -22,17 -29,19 -3,1 -6,1 -9,2 -11,1 -27,-8 -36,-14 -9,-5 -19,-12 -28,-18z"/>
   <path class="fil1" d="M1513 73c0,0 24,30 41,33 16,2 80,-14 80,-14 0,0 46,35 61,33 15,-2 32,-13 32,-16 1,-2 -80,-77 -94,-76 -14,2 -120,40 -120,40z"/>
   <path class="fil8" d="M1513 73c0,0 24,30 41,33 16,2 80,-14 80,-14 0,0 46,35 61,33 5,-1 11,-3 16,-5 -28,-9 -70,-38 -73,-41 -3,-4 -55,12 -76,13 -13,0 -28,-12 -38,-23 -7,2 -11,4 -11,4z"/>
   <path class="fil1" d="M252 346c0,0 439,509 1056,-32l-265 270 137 -157c0,0 -96,68 -163,99l-118 109 93 -101 -155 140 60 -103c0,0 -53,25 -176,25l-24 48 8 -47 -41 74 22 -71 -49 89 5 -91 -17 49 2 -50 -21 72 3 -76 -41 137 27 -139 -22 69 -26 -60c0,0 -112,-23 -157,-72l-21 107 0 -110 -28 194 0 -224 -29 127 5 -105 -14 60 0 -67 -19 86 -6 -165c0,0 -40,-24 -26,-85z"/>
   <path class="fil1" d="M1560 342l0 14 -13 9 -34 -1 -1 -37c-10,-4 -20,-9 -30,-14 -7,-3 -14,-7 -21,-11 -5,-3 -12,-7 -14,-12 -3,-8 -2,-23 -1,-31l1 -9 65 25 0 -17 17 -17 31 6 0 48c9,4 18,8 27,12 7,2 19,7 26,7l8 1 -1 8c-1,5 -4,12 -7,17 -5,8 -12,13 -21,11 -5,0 -11,-2 -16,-4 -5,-1 -11,-3 -16,-5z"/>
   <path class="fil2" d="M1519 261l12 -13 22 5 0 46c0,0 43,22 60,22 0,0 -5,25 -20,23 -15,-2 -39,-12 -39,-12l-1 20 -8 6 -25 -1 -1 -34c0,0 -62,-27 -65,-35 -3,-9 -1,-28 -1,-28l67 26 -1 -25z"/>
   <path class="fil1" d="M1519 261l12 -13 1 97 21 7 -8 6 -25 -1 -1 -34c0,0 -62,-27 -65,-35 -2,-6 -2,-16 -1,-22 0,7 3,19 18,27 23,12 51,27 53,25 2,-1 0,-29 0,-29l-4 -3 -1 -25z"/>
   <path class="fil1" d="M1477 495c10,3 19,5 28,7 7,2 21,5 28,4l6 -1 2 6c1,5 1,11 1,16 -2,11 -9,19 -21,21 -3,1 -6,2 -9,2 -10,1 -21,0 -32,-1l-9 752 -60 4 -4 -769c-4,-1 -9,-2 -13,-3 -14,-3 -27,-6 -40,-11 -20,-7 -61,-23 -53,-51l1 -6 7 1c17,3 34,6 51,8 10,2 21,4 32,6 3,0 7,1 11,1l0 -25 2 -2c6,-6 13,-12 20,-18 4,-4 9,-8 13,-12 2,-1 3,-3 5,-4 2,-2 5,-3 8,-3 2,1 5,3 7,5 3,2 5,4 7,6 4,3 8,6 11,10l2 2 -1 55z"/>
   <path class="fil2" d="M1410 460c0,0 38,-36 40,-36 2,0 21,19 21,19l-1 57c0,0 49,15 64,13 0,0 6,24 -14,29 -21,4 -47,-2 -47,-2l-9 755 -46 3 -4 -768c0,0 -117,-19 -107,-57 0,0 102,17 103,16l0 -29z"/>
   <path class="fil1" d="M1410 460c0,0 38,-36 40,-36l-6 872 -26 2 -4 -768c0,0 -117,-19 -107,-57 0,0 3,0 6,1 6,17 30,41 114,52 0,0 5,-33 1,-34 -4,-1 -18,-3 -18,-3l0 -29z"/>
   <path class="fil1" d="M1625 107l-61 126 44 -115 -23 6 -11 56 -4 -27c0,0 -20,81 -20,79 0,-2 10,-71 10,-71l-63 90 85 -135 43 -9z"/>
   <path class="fil1" d="M1633 111c0,3 -64,144 -64,144l68 -132 -26 70 35 -60 -42 106 18 -24 -21 55 63 -140 -31 -19z"/>
   <polygon class="fil1" points="1199,571 1032,825 765,840 833,689 803,817 923,801 1030,596 947,797 1121,538 985,798 1061,699 1025,800 "/>
   <path class="fil1" d="M273 651c0,0 15,151 11,199l433 -18 -242 -12 1 -193 -33 185 -21 -85 -11 91 -97 -3c0,0 -11,-116 -41,-164z"/>
   <polygon class="fil1" points="1492,140 1238,518 1398,230 "/>
   <polygon class="fil1" points="1712,140 1573,477 1669,278 1620,412 1651,349 1634,414 1727,151 1727,132 "/>
   <polygon class="fil1" points="1507,802 1589,541 1509,735 1539,622 1505,690 1536,567 1489,673 1492,811 "/>
   <path class="fil1" d="M1383 673c-4,-3 -7,-8 -5,-13 4,-7 14,-6 20,-4 4,1 9,3 12,6 3,4 6,8 10,12 4,5 8,11 13,15 5,5 13,11 20,13 9,1 17,-2 25,-5 4,-2 7,-4 11,-6 3,-1 6,-3 10,-3 7,-1 22,-3 25,6 0,1 0,2 0,3 0,5 -5,8 -8,11 -4,2 -7,5 -10,9 -5,8 -10,14 -18,18 -11,6 -24,5 -35,3 -15,-2 -30,-16 -39,-27 -8,-7 -14,-16 -21,-24 -2,-3 -4,-6 -6,-9 -1,-2 -3,-3 -4,-5z"/>
   <path class="fil21" d="M1405 667c7,8 26,38 47,41 22,4 40,-13 47,-13 8,-1 17,-2 18,1 1,3 -9,5 -17,18 -7,12 -19,22 -46,18 -27,-5 -62,-61 -66,-64 -13,-10 12,-7 17,-1z"/>
   <path class="fil1" d="M1514 694c2,1 3,1 3,2 1,3 -9,5 -17,18 -7,12 -19,22 -46,18 -27,-5 -62,-61 -66,-64 -2,-2 -3,-3 -3,-4 8,7 21,18 33,31 19,21 59,42 75,21 7,-10 14,-17 21,-22z"/>
   <path class="fil1" d="M1440 695c8,-1 24,-3 31,1 5,4 8,14 10,20 1,4 2,9 2,13 0,5 0,11 -6,13 0,0 -1,1 -2,1 -7,-1 -13,-1 -20,-1 -4,0 -9,-1 -14,-1 -4,-1 -10,-3 -11,-8 -2,-5 -1,-13 0,-18 1,-3 1,-7 2,-10 2,-4 3,-8 7,-10l1 0 0 0z"/>
   <path class="fil10" d="M1442 702c0,0 19,-3 25,0 6,4 12,34 8,34 -4,-1 -37,0 -39,-5 -1,-5 3,-28 6,-29z"/>
   <path class="fil1" d="M1475 724c1,6 2,12 0,12 -4,-1 -37,0 -39,-5 0,-2 0,-7 1,-12 12,-2 26,1 38,5z"/>
   <path class="fil1" d="M1383 707c-4,-3 -7,-8 -5,-14 4,-7 14,-5 20,-4 4,1 9,3 12,7 3,4 6,8 10,12 4,5 8,10 13,15 5,5 13,11 20,12 9,2 17,-1 25,-5 4,-1 7,-3 11,-5 3,-2 6,-3 10,-4 7,0 22,-2 25,7 0,1 0,2 0,3 0,5 -5,7 -8,10 -4,3 -7,6 -10,10 -5,8 -10,14 -18,18 -11,5 -24,5 -35,3 -15,-3 -30,-16 -39,-27 -8,-8 -14,-16 -21,-25 -2,-3 -4,-6 -6,-9 -1,-1 -3,-3 -4,-4z"/>
   <path class="fil9" d="M1405 700c7,9 26,39 47,42 22,4 40,-13 47,-14 8,0 17,-1 18,2 1,3 -9,5 -17,17 -7,13 -19,23 -46,18 -27,-5 -62,-60 -66,-63 -13,-11 12,-7 17,-2z"/>
   <path class="fil1" d="M1514 728c2,0 3,1 3,2 1,3 -9,5 -17,17 -7,13 -19,23 -46,18 -27,-5 -62,-60 -66,-63 -2,-2 -3,-3 -3,-4 8,6 21,18 33,31 19,20 59,42 75,20 7,-9 14,-16 21,-21z"/>
   <path class="fil1" d="M1440 728c8,-1 24,-2 31,2 5,3 8,14 10,20 1,4 2,9 2,13 0,5 0,11 -6,13 0,0 -1,0 -2,0 -7,0 -13,0 -20,0 -4,-1 -9,-1 -14,-2 -4,-1 -10,-2 -11,-7 -2,-5 -1,-13 0,-18 1,-4 1,-7 2,-11 2,-3 3,-7 7,-9l1 0 0 -1z"/>
   <path class="fil10" d="M1442 735c0,0 19,-3 25,1 6,4 12,33 8,33 -4,0 -37,0 -39,-5 -1,-5 3,-27 6,-29z"/>
   <path class="fil11" d="M1475 758c1,6 2,11 0,11 -4,0 -37,0 -39,-5 0,-2 0,-6 1,-11 12,-2 26,1 38,5z"/>
   <path class="fil1" d="M1381 730c-4,-4 -8,-9 -5,-14 3,-7 13,-6 19,-4 5,1 10,3 13,6 3,4 6,9 9,12 4,6 8,11 13,15 6,6 13,12 21,13 9,1 17,-1 25,-5 3,-2 7,-4 10,-5 3,-2 7,-4 10,-4 8,-1 23,-3 25,7 1,1 1,2 1,2 -1,6 -5,8 -9,11 -3,3 -7,6 -9,10 -5,7 -11,14 -19,18 -11,5 -23,5 -35,3 -14,-3 -29,-17 -39,-27 -7,-8 -14,-16 -20,-25 -2,-3 -5,-6 -7,-9 -1,-1 -2,-3 -3,-4z"/>
   <path class="fil9" d="M1402 723c8,8 26,38 48,42 21,3 39,-14 47,-14 8,-1 17,-1 18,2 1,3 -9,5 -17,17 -8,12 -19,23 -47,18 -27,-5 -62,-60 -65,-64 -13,-10 12,-7 16,-1z"/>
   <path class="fil1" d="M1512 751c1,0 2,1 3,2 1,3 -9,5 -17,17 -8,12 -19,23 -47,18 -27,-5 -62,-60 -65,-64 -3,-1 -4,-3 -4,-4 8,7 22,18 34,31 19,21 58,43 74,21 7,-9 15,-16 22,-21z"/>
   <path class="fil1" d="M1438 751c8,-1 23,-3 30,2 6,3 9,13 10,19 1,5 2,9 3,14 0,5 -1,10 -6,12 -1,1 -2,1 -3,1 -6,0 -13,0 -19,-1 -5,0 -10,0 -14,-1 -5,-1 -10,-3 -12,-8 -1,-4 0,-13 1,-18 0,-3 1,-7 2,-10 1,-4 3,-8 6,-9l1 -1 1 0z"/>
   <path class="fil10" d="M1439 758c0,0 19,-3 25,1 6,3 12,33 8,33 -4,0 -37,0 -38,-5 -2,-5 2,-28 5,-29z"/>
   <path class="fil1" d="M1473 781c1,6 1,11 -1,11 -4,0 -37,0 -38,-5 -1,-2 -1,-7 0,-12 13,-1 27,2 39,6z"/>
   <path class="fil1" d="M1384 774c-4,-3 -8,-8 -5,-14 3,-7 13,-5 19,-4 4,1 10,3 13,7 3,3 6,8 9,12 4,5 8,10 13,15 6,5 13,11 21,12 8,2 17,-1 25,-5 3,-1 7,-3 10,-5 3,-2 7,-4 10,-4 8,0 22,-2 25,7 1,1 1,2 1,3 -1,5 -5,7 -9,10 -4,3 -7,6 -9,10 -5,8 -11,14 -19,18 -11,5 -23,5 -35,3 -15,-3 -29,-16 -39,-27 -7,-8 -14,-16 -20,-25 -2,-3 -5,-6 -7,-9 -1,-1 -2,-3 -3,-4z"/>
   <path class="fil9" d="M1405 767c7,8 26,38 48,42 21,4 39,-13 47,-14 7,-1 17,-1 18,2 1,3 -9,5 -17,17 -8,12 -19,23 -47,18 -27,-5 -62,-60 -66,-63 -12,-11 12,-7 17,-2z"/>
   <path class="fil1" d="M1514 795c2,0 3,1 4,2 1,3 -9,5 -17,17 -8,12 -19,23 -47,18 -27,-5 -62,-60 -66,-63 -2,-2 -3,-3 -3,-4 8,6 22,18 34,31 18,20 58,42 74,20 7,-9 15,-16 21,-21z"/>
   <path class="fil1" d="M1441 795c8,-1 23,-3 30,2 6,3 9,13 10,20 1,4 2,9 2,13 1,5 0,11 -5,13 -1,0 -2,0 -3,0 -6,0 -13,0 -19,0 -5,-1 -10,-1 -14,-2 -5,-1 -10,-3 -12,-8 -1,-4 0,-13 1,-17 0,-4 1,-7 2,-11 1,-3 2,-7 6,-9l1 0 1 -1z"/>
   <path class="fil10" d="M1442 802c0,0 19,-3 25,1 6,3 12,33 8,33 -4,0 -37,0 -38,-5 -2,-5 2,-27 5,-29z"/>
   <path class="fil1" d="M1476 825c1,6 1,11 -1,11 -4,0 -37,0 -38,-5 -1,-2 -1,-6 0,-11 12,-2 27,1 39,5z"/>
   <path class="fil1" d="M1383 811c-3,-3 -7,-8 -5,-13 4,-7 14,-6 20,-4 4,1 9,3 12,6 3,4 7,8 10,12 4,5 8,11 13,15 5,6 13,11 20,13 9,1 17,-2 25,-5 4,-2 7,-4 11,-6 3,-1 7,-3 10,-3 8,-1 22,-3 25,6 0,1 0,2 0,3 0,5 -4,8 -8,11 -4,2 -7,5 -10,9 -4,8 -10,14 -18,18 -11,6 -24,5 -35,3 -15,-2 -29,-16 -39,-27 -7,-7 -14,-16 -20,-24 -3,-3 -5,-6 -7,-9 -1,-2 -2,-3 -4,-5z"/>
   <path class="fil9" d="M1405 805c7,8 26,38 47,42 22,3 40,-14 48,-14 7,-1 16,-2 17,1 1,3 -8,5 -16,18 -8,12 -20,22 -47,18 -27,-5 -62,-61 -66,-64 -13,-10 12,-7 17,-1z"/>
   <path class="fil1" d="M1514 832c2,1 3,1 3,2 1,3 -8,5 -16,18 -8,12 -20,22 -47,18 -27,-5 -62,-61 -66,-64 -2,-2 -3,-3 -3,-4 8,7 21,18 33,31 19,21 59,42 75,21 7,-10 15,-17 21,-22z"/>
   <path class="fil1" d="M1440 833c9,-1 24,-3 31,1 5,4 8,14 10,20 1,4 2,9 2,13 0,5 0,11 -6,13 0,0 -1,1 -2,1 -7,-1 -13,-1 -20,-1 -4,0 -9,-1 -13,-1 -5,-1 -11,-3 -12,-8 -2,-5 -1,-13 0,-18 1,-3 2,-7 3,-10 1,-4 2,-8 6,-10l1 0 0 0z"/>
   <path class="fil10" d="M1442 840c0,0 19,-3 25,0 6,4 12,34 8,34 -4,0 -37,0 -39,-5 -1,-5 3,-28 6,-29z"/>
   <path class="fil1" d="M1475 862c2,7 2,12 0,12 -4,0 -37,0 -39,-5 0,-2 0,-7 1,-12 12,-2 26,1 38,5z"/>
   <path class="fil1" d="M1385 849c-4,-3 -7,-8 -5,-13 3,-7 13,-6 20,-5 4,2 9,4 12,7 3,4 6,8 9,12 4,5 9,10 13,15 6,5 13,11 21,12 9,2 17,-1 25,-4 4,-2 7,-4 11,-6 3,-2 6,-3 10,-4 7,0 22,-2 25,7 0,1 0,2 0,3 0,5 -5,8 -8,10 -4,3 -7,6 -10,10 -5,8 -10,14 -19,18 -10,5 -23,5 -34,3 -15,-2 -30,-16 -40,-27 -7,-8 -13,-16 -20,-24 -2,-4 -4,-7 -7,-10 -1,-1 -2,-3 -3,-4z"/>
   <path class="fil9" d="M1407 842c7,9 25,39 47,42 22,4 40,-13 47,-14 8,0 17,-1 18,2 1,3 -9,5 -17,17 -8,13 -19,23 -46,18 -27,-4 -62,-60 -66,-63 -13,-11 12,-7 17,-2z"/>
   <path class="fil1" d="M1516 870c1,1 3,1 3,2 1,3 -9,5 -17,17 -8,13 -19,23 -46,18 -27,-4 -62,-60 -66,-63 -2,-2 -3,-3 -4,-4 9,6 22,18 34,31 19,21 59,42 75,20 6,-9 14,-16 21,-21z"/>
   <path class="fil1" d="M1442 871c8,-2 23,-3 30,1 6,4 9,14 10,20 2,4 3,9 3,13 0,5 0,11 -6,13 -1,0 -2,0 -2,0 -7,0 -13,0 -20,0 -5,-1 -9,-1 -14,-2 -4,-1 -10,-2 -12,-7 -1,-5 0,-13 1,-18 0,-4 1,-7 2,-11 1,-3 3,-7 6,-9l1 0 1 0z"/>
   <path class="fil10" d="M1443 877c0,0 20,-3 26,1 6,4 12,33 8,33 -4,0 -37,0 -39,-5 -2,-4 3,-27 5,-29z"/>
   <path class="fil1" d="M1477 900c1,6 1,11 0,11 -4,0 -37,0 -39,-5 -1,-1 0,-6 0,-11 13,-2 27,1 39,5z"/>
   <path class="fil1" d="M1389 884c-4,-4 -8,-8 -5,-14 3,-7 13,-5 19,-4 5,1 10,3 13,7 3,3 6,8 9,12 4,5 9,10 13,15 6,5 13,11 21,12 9,1 17,-1 25,-5 3,-1 7,-3 10,-5 4,-2 7,-4 11,-4 7,-1 22,-2 25,7 0,1 0,2 0,3 0,5 -5,7 -9,10 -3,3 -6,6 -9,10 -5,7 -11,14 -19,18 -11,5 -23,5 -35,3 -14,-3 -29,-17 -39,-27 -7,-8 -14,-16 -20,-25 -2,-3 -4,-6 -7,-9 -1,-1 -2,-3 -3,-4z"/>
   <path class="fil9" d="M1411 877c7,8 25,38 47,42 22,4 40,-13 47,-14 8,-1 17,-1 18,2 1,3 -9,5 -17,17 -8,12 -19,23 -46,18 -28,-5 -62,-60 -66,-63 -13,-11 12,-7 17,-2z"/>
   <path class="fil1" d="M1520 905c1,0 3,1 3,2 1,3 -9,5 -17,17 -8,12 -19,23 -46,18 -28,-5 -62,-60 -66,-63 -2,-2 -3,-3 -4,-5 9,7 22,19 34,32 19,20 58,42 74,20 7,-9 15,-16 22,-21z"/>
   <path class="fil1" d="M1446 905c8,-1 23,-3 30,2 6,3 9,13 10,19 2,5 2,9 3,14 0,5 0,11 -6,13 -1,0 -2,0 -3,0 -6,0 -13,0 -19,-1 -5,0 -9,0 -14,-1 -5,-1 -10,-3 -12,-8 -1,-4 0,-13 1,-17 0,-4 1,-7 2,-11 1,-3 3,-8 6,-9l1 -1 1 0z"/>
   <path class="fil10" d="M1447 912c0,0 20,-3 26,1 5,3 12,33 8,33 -5,0 -37,0 -39,-5 -2,-5 2,-28 5,-29z"/>
   <path class="fil1" d="M1481 935c1,6 1,11 0,11 -5,0 -37,0 -39,-5 -1,-2 0,-6 0,-11 13,-2 27,1 39,5z"/>
   <path class="fil1" d="M1387 921c-3,-4 -7,-8 -5,-14 4,-7 14,-5 20,-4 4,1 9,3 12,7 4,3 7,8 10,12 4,5 8,10 13,15 5,5 13,11 20,12 9,1 17,-1 25,-5 4,-1 7,-3 11,-5 3,-2 7,-4 10,-4 8,-1 22,-3 25,7 0,1 0,2 0,3 0,5 -4,7 -8,10 -4,3 -7,6 -10,10 -4,7 -10,14 -18,18 -11,5 -24,5 -35,3 -15,-3 -29,-17 -39,-27 -7,-8 -14,-16 -20,-25 -3,-3 -5,-6 -7,-9 -1,-1 -2,-3 -4,-4z"/>
   <path class="fil9" d="M1409 914c7,8 26,38 47,42 22,3 40,-13 48,-14 7,-1 16,-1 17,2 1,3 -8,5 -16,17 -8,12 -20,23 -47,18 -27,-5 -62,-60 -66,-63 -13,-11 12,-7 17,-2z"/>
   <path class="fil1" d="M1518 942c2,0 3,1 3,2 1,3 -8,5 -16,17 -8,12 -20,23 -47,18 -27,-5 -62,-60 -66,-63 -2,-2 -3,-4 -3,-5 8,7 21,18 33,32 19,20 59,42 75,20 7,-9 15,-16 21,-21z"/>
   <path class="fil1" d="M1445 942c8,-1 23,-3 30,2 5,3 8,13 10,19 1,5 2,9 2,14 0,5 0,11 -6,13 0,0 -1,0 -2,0 -7,0 -13,0 -20,-1 -4,0 -9,0 -13,-1 -5,-1 -11,-3 -12,-8 -2,-4 -1,-13 0,-17 1,-4 2,-8 3,-11 1,-3 2,-8 6,-9l1 -1 1 0z"/>
   <path class="fil10" d="M1446 949c0,0 19,-3 25,1 6,3 12,33 8,33 -4,0 -37,0 -39,-5 -1,-5 3,-28 6,-29z"/>
   <path class="fil1" d="M1479 972c2,6 2,11 0,11 -4,0 -37,0 -39,-5 0,-2 0,-6 1,-11 12,-2 26,1 38,5z"/>
   <path class="fil1" d="M1388 969c-4,-3 -7,-8 -5,-13 4,-7 14,-6 20,-4 4,1 9,3 12,6 3,4 6,8 9,12 4,5 9,10 14,15 5,5 12,11 20,13 9,1 17,-2 25,-5 4,-2 7,-4 11,-6 3,-1 6,-3 10,-3 7,-1 22,-3 25,6 0,1 0,2 0,3 0,5 -5,8 -8,10 -4,3 -7,6 -10,10 -5,8 -10,14 -19,18 -10,5 -23,5 -34,3 -15,-2 -30,-16 -39,-27 -8,-7 -14,-16 -21,-24 -2,-3 -4,-6 -7,-9 0,-2 -2,-4 -3,-5z"/>
   <path class="fil9" d="M1410 963c7,8 25,38 47,41 22,4 40,-13 47,-13 8,-1 17,-2 18,1 1,3 -9,5 -17,18 -8,12 -19,22 -46,17 -27,-4 -62,-60 -66,-63 -13,-10 12,-7 17,-1z"/>
   <path class="fil1" d="M1519 990c2,1 3,1 3,2 1,3 -9,5 -17,18 -8,12 -19,22 -46,17 -27,-4 -62,-60 -66,-63 -2,-2 -3,-3 -4,-4 9,7 22,18 34,31 19,21 59,42 75,21 7,-10 14,-17 21,-22z"/>
   <path class="fil1" d="M1445 991c8,-2 23,-3 30,1 6,4 9,14 11,20 1,4 2,9 2,13 0,5 0,11 -6,13 -1,0 -1,0 -2,0 -7,0 -13,0 -20,0 -4,0 -9,-1 -14,-2 -4,0 -10,-2 -11,-7 -2,-5 -1,-13 0,-18 1,-3 1,-7 2,-10 1,-4 3,-8 7,-10l0 0 1 0z"/>
   <path class="fil10" d="M1446 998c0,0 20,-4 26,0 6,4 12,34 8,33 -4,0 -37,1 -39,-4 -1,-5 3,-28 5,-29z"/>
   <path class="fil1" d="M1480 1020c1,6 1,11 0,11 -4,0 -37,1 -39,-4 0,-2 0,-7 0,-12 13,-2 27,1 39,5z"/>
   <path class="fil1" d="M1388 1014c-4,-3 -7,-8 -5,-14 4,-7 14,-5 20,-4 4,1 9,3 12,7 3,4 6,8 10,12 4,5 8,10 13,15 5,5 13,11 20,12 9,2 17,-1 25,-5 4,-1 7,-3 11,-5 3,-2 6,-3 10,-4 8,0 22,-2 25,7 0,1 0,2 0,3 0,5 -4,7 -8,10 -4,3 -7,6 -10,10 -4,8 -10,14 -18,18 -11,5 -24,5 -35,3 -15,-3 -30,-16 -39,-27 -8,-8 -14,-16 -21,-25 -2,-3 -4,-6 -6,-9 -1,-1 -3,-3 -4,-4z"/>
   <path class="fil9" d="M1410 1007c7,9 26,39 47,42 22,4 40,-13 48,-14 7,0 16,-1 17,2 1,3 -9,5 -16,17 -8,13 -20,23 -47,18 -27,-5 -62,-60 -66,-63 -13,-11 12,-7 17,-2z"/>
   <path class="fil1" d="M1519 1035c2,0 3,1 3,2 1,3 -9,5 -16,17 -8,13 -20,23 -47,18 -27,-5 -62,-60 -66,-63 -2,-2 -3,-3 -3,-4 8,6 21,18 33,31 19,20 59,42 75,20 7,-9 14,-16 21,-21z"/>
   <path class="fil1" d="M1445 1035c8,-1 24,-2 31,2 5,3 8,14 10,20 1,4 2,9 2,13 0,5 0,11 -6,13 0,0 -1,0 -2,0 -7,0 -13,0 -20,0 -4,-1 -9,-1 -14,-2 -4,-1 -10,-2 -11,-7 -2,-5 -1,-13 0,-18 1,-4 1,-7 2,-11 2,-3 3,-7 7,-9l1 0 0 -1z"/>
   <path class="fil10" d="M1447 1042c0,0 19,-3 25,1 6,4 12,33 8,33 -4,0 -37,0 -39,-5 -1,-5 3,-27 6,-29z"/>
   <path class="fil1" d="M1480 1065c1,6 2,11 0,11 -4,0 -37,0 -39,-5 0,-2 0,-6 1,-11 12,-2 26,1 38,5z"/>
   <path class="fil5" d="M1161 1233c13,-23 35,-40 64,-40 14,-1 28,3 40,9 5,3 10,7 14,11 5,-2 10,-3 16,-4 29,-7 58,3 75,28 3,5 5,10 7,15 7,-9 14,-16 23,-23 21,-17 49,-26 77,-22 21,4 40,15 54,31 15,-1 29,3 42,12 13,-31 37,-56 74,-57 13,-1 27,3 39,9 6,3 11,7 15,11 5,-2 10,-3 15,-4 29,-7 58,3 75,28 11,16 14,36 10,54l20 9c15,7 27,22 30,38l0 0 0 1c3,18 -7,35 -17,49 -10,14 -22,27 -34,38 -22,19 -50,36 -80,34 -19,-2 -36,-9 -48,-23 -15,17 -39,25 -63,22 -16,-2 -28,-9 -37,-19 -22,16 -48,25 -74,17l-1 0 0 -1c-12,-4 -21,-10 -29,-17 -14,6 -29,10 -44,10 -20,0 -36,-8 -49,-20 -22,18 -49,33 -76,31 -19,-2 -36,-9 -49,-23 -15,17 -38,25 -62,22 -9,-1 -18,-4 -25,-9 -13,-8 -21,-20 -26,-33 -26,23 -63,37 -98,30 -15,-2 -29,-9 -40,-19 -21,18 -47,32 -73,32 -12,0 -24,-2 -34,-7 -15,16 -38,24 -62,20 -6,-1 -13,-3 -18,-6 -12,-6 -21,-15 -27,-26 -25,72 -71,184 -161,184 -11,0 -22,-2 -32,-7 -28,-13 -46,-41 -51,-71 -5,-32 2,-65 19,-93 -11,4 -22,6 -33,6 -19,-2 -36,-9 -49,-23 -15,17 -38,25 -63,22 -8,-1 -17,-4 -24,-9 -13,-8 -21,-20 -26,-33 -27,23 -63,37 -98,30 -24,-4 -45,-20 -57,-41 -18,-30 -16,-66 -7,-98 1,-4 2,-9 4,-14 -4,9 -8,17 -12,26 -8,19 -14,39 -19,59 -3,10 -9,32 -12,51l12 0 -8 43c-6,34 -38,54 -71,49l-1 0 0 0c-6,-1 -11,-3 -17,-5 -54,-28 -33,-128 -21,-174 6,-22 15,-45 25,-66l-32 -36c-19,-21 -30,-48 -22,-77 12,-41 55,-60 93,-68 20,-4 44,-3 65,-1 25,1 50,3 76,5 25,2 51,3 76,0 7,-1 28,-4 33,-9l35 -59 30 63c7,14 9,34 7,50 -6,39 -38,62 -74,71 -1,1 -1,1 -1,1 7,4 14,9 20,16 13,-23 35,-40 64,-40 14,-1 28,3 40,9 5,3 10,7 14,11 5,-2 10,-3 16,-4 29,-7 58,3 75,28 3,5 5,10 7,15 6,-9 14,-17 22,-23 22,-17 50,-26 78,-22l0 1 0 0c22,4 41,15 55,31 12,-2 25,1 37,6 7,-21 15,-41 24,-61 16,-34 38,-70 63,-98 24,-26 57,-51 95,-47 14,2 26,7 38,15l38 27 -36 31c-7,6 -17,18 -23,26 -16,21 -30,44 -42,68 12,-1 24,2 36,8 7,3 13,7 18,12 2,2 3,4 5,6 10,-12 22,-22 35,-25l11 -2 11 4c2,1 4,2 6,2 19,-7 41,-7 60,3 10,5 18,11 25,19z"/>
   <g>
    <path class="fil9" d="M94 1353c-18,69 -19,129 8,133 26,3 30,-19 30,-19 -18,0 8,-111 29,-162 35,-80 73,-112 73,-112 -49,-35 -118,76 -140,160zm310 -243c-32,55 -220,12 -275,22 -53,11 -87,42 -50,85 19,-77 213,-18 281,-36 69,-18 44,-71 44,-71z"/>
    <path class="fil9" d="M347 1247c-16,-9 -36,-3 -46,12 -3,-7 -8,-12 -17,-16 -13,3 -35,36 -46,75 -18,64 15,90 36,93 18,4 60,-2 85,-43 34,-54 21,-105 -12,-121zm-19 26c21,-8 43,22 24,61 -46,-17 -37,-55 -24,-61zm-30 106c-26,-3 -22,-53 -5,-81 10,38 41,46 51,49 -6,8 -24,35 -46,32z"/>
    <path class="fil9" d="M622 1346c-2,-9 -10,-12 -10,-12 -9,16 -52,64 -64,55 -12,-8 5,-51 23,-101 12,-36 -35,-80 -103,3 4,-16 9,-33 15,-48 3,-9 -54,-39 -73,34 -21,84 -22,141 10,145 32,4 37,-22 37,-22 -12,0 -9,-31 0,-70 17,-22 60,-67 66,-54 7,14 -65,142 6,147 41,3 94,-68 93,-77z"/>
    <path class="fil9" d="M744 1289c-4,-24 -24,-41 -45,-45 -31,-6 -71,18 -85,74 -14,48 7,94 38,94 15,0 34,-7 53,-25 -2,9 -5,17 -8,25 -33,3 -78,17 -105,60 -33,54 -10,116 32,116 94,0 135,-197 173,-295 -15,-20 -34,-25 -53,-4zm-109 250c-25,10 -28,-29 -17,-52 14,-31 43,-48 71,-52 -18,46 -36,97 -54,104zm37 -160c-26,-3 -20,-58 -1,-85 19,-25 51,-28 62,10 -5,11 -11,26 -16,44 0,2 -1,3 -2,4 -13,15 -29,29 -43,27z"/>
    <path class="fil9" d="M1019 1346c-2,-9 -10,-12 -10,-12 -10,16 -54,60 -69,59 -24,-2 -12,-43 -12,-44 60,-10 79,-86 46,-102 -30,-15 -65,15 -92,48 8,-28 17,-55 25,-75 42,-97 88,-136 88,-136 -59,-43 -143,92 -169,193 -22,83 -23,156 9,160 32,5 37,-22 37,-22 -12,-1 -8,-38 1,-82 19,-26 64,-71 81,-67 11,2 -23,67 -62,64 -13,41 -17,93 34,93 41,0 94,-68 93,-77z"/>
    <path class="fil9" d="M1119 1247c-16,-9 -36,-3 -46,12 -3,-7 -8,-12 -17,-16 -12,3 -35,36 -46,75 -18,64 16,90 36,93 18,4 60,-2 85,-43 34,-54 21,-105 -12,-121zm-18 26c21,-8 42,22 23,61 -46,-17 -37,-55 -23,-61zm-31 106c-26,-3 -22,-53 -5,-81 10,38 41,46 51,49 -6,8 -24,35 -46,32z"/>
    <path class="fil9" d="M1394 1346c-2,-9 -9,-12 -9,-12 -10,16 -53,64 -65,55 -12,-8 5,-51 23,-101 12,-36 -35,-80 -103,3 4,-16 10,-33 15,-48 3,-9 -54,-39 -73,34 -21,84 -22,141 11,145 31,4 36,-22 36,-22 -11,0 -9,-31 0,-70 17,-22 60,-67 67,-54 6,14 -66,142 5,147 41,3 95,-68 93,-77z"/>
    <path class="fil9" d="M1601 1346c-2,-9 -9,-11 -9,-11 -10,17 -47,60 -60,56 -16,-6 24,-90 33,-98 -16,-23 -34,-22 -50,-9 -5,-21 -24,-37 -44,-40 -31,-6 -70,18 -85,74 -14,48 7,94 38,94 16,0 37,-7 57,-29 2,18 10,32 28,39 34,11 80,-50 85,-56 4,-5 9,-11 7,-20zm-156 33c-27,-3 -21,-58 -1,-85 17,-24 47,-28 60,5 -4,6 -8,13 -11,21 -5,12 -8,26 -11,38 -12,13 -26,22 -37,21z"/>
    <path class="fil9" d="M1815 1346c-2,-9 -9,-12 -9,-12 -10,16 -53,64 -65,55 -11,-8 5,-51 23,-101 12,-36 -34,-80 -103,3 5,-16 10,-33 15,-48 3,-9 -54,-39 -73,34 -21,84 -22,141 11,145 31,4 36,-22 36,-22 -11,0 -8,-31 0,-70 17,-22 60,-67 67,-54 6,14 -66,142 6,147 40,3 94,-68 92,-77z"/>
   </g>
   <path class="fil5" d="M448 1101c8,-5 18,-6 28,-3 6,2 11,5 15,9 1,1 1,1 2,2 2,-3 5,-5 8,-7 12,-7 28,-8 39,2 7,-8 16,-13 28,-13 7,-1 14,1 20,4 2,1 3,3 5,4 2,0 3,-1 5,-1 10,-3 21,-1 30,5 5,-3 10,-5 16,-6 14,-2 28,3 36,15 0,0 1,1 1,1 11,-12 26,-19 44,-16 10,2 19,7 25,14 5,0 10,1 15,3 3,-9 6,-17 10,-25 13,-27 40,-71 75,-67 7,0 13,3 19,7l22 15 -21 18c-2,2 -7,7 -9,11 -6,7 -11,16 -16,24 10,1 18,6 24,15 5,7 7,17 6,25l2 1c14,3 23,17 21,31 -3,12 -18,27 -26,35 -11,9 -24,16 -38,15 -7,-1 -13,-3 -19,-6 -7,9 -20,14 -33,12 -9,-1 -15,-6 -20,-12 -9,5 -19,8 -30,4l0 0 0 0c-5,-2 -9,-4 -13,-7 -6,3 -12,4 -18,4 -9,0 -16,-3 -22,-8 -11,8 -22,14 -35,13 -8,-1 -16,-4 -22,-10 -8,8 -19,11 -30,9 -5,-1 -10,-4 -14,-7 -7,6 -18,9 -28,7 -7,-1 -13,-3 -17,-7 -9,5 -18,9 -28,8 -8,-1 -14,-3 -19,-6 -10,9 -23,14 -37,11 0,0 -1,0 -2,0 -12,24 -45,36 -72,21 -5,-3 -10,-8 -15,-12 -7,6 -17,9 -28,8 -19,-3 -25,-23 -26,-40 0,-15 2,-31 6,-45 0,-2 0,-4 1,-6 -4,-2 -7,-3 -10,-5 -23,-16 -24,-48 -11,-71 23,-42 83,-54 123,-30 21,14 32,35 33,57z"/>
   <g>
    <path class="fil9" d="M430 1198c-4,-20 -31,-18 -34,-6 16,2 15,19 3,20 -14,1 -30,-32 -33,-46 12,1 27,-2 41,-16 29,-26 27,-69 -3,-88 -32,-20 -78,-7 -94,22 -13,22 -3,46 16,47 6,0 12,-2 17,-4 -4,8 -7,16 -9,24 -8,31 -11,68 1,69 12,2 14,-8 14,-8 -5,0 -2,-23 4,-46 4,20 14,51 32,61 23,13 51,-6 45,-29zm-91 -113c6,11 -2,36 -11,35 -18,-2 -4,-60 43,-59 31,2 47,41 25,71 -6,9 -20,20 -39,21 2,-9 5,-17 7,-23 16,-36 33,-51 33,-51 -12,-8 -27,3 -40,22 -1,-8 -6,-15 -18,-16z"/>
    <path class="fil9" d="M548 1163c-1,-3 -4,-5 -4,-5 -5,7 -24,29 -29,25 -5,-4 5,-30 13,-53 6,-17 -16,-15 -22,-5 1,2 -1,9 -4,18 -9,15 -25,42 -34,40 -11,-2 5,-48 11,-57 2,-4 -17,-17 -26,-1 -18,35 -18,75 1,79 11,3 26,-12 39,-30 -1,13 1,23 13,24 19,1 43,-30 42,-35z"/>
    <path class="fil9" d="M687 1163c0,-3 -4,-5 -4,-5 -4,7 -23,29 -29,25 -5,-4 3,-23 10,-46 6,-15 -13,-34 -42,-2 2,-16 -18,-32 -48,5 2,-7 4,-16 7,-23 1,-4 -24,-17 -33,16 -9,37 -10,63 5,65 14,2 16,-10 16,-10 -5,0 -4,-13 0,-30 7,-10 28,-32 31,-26 1,4 -28,61 -3,66 11,2 15,-10 15,-10 -7,0 -3,-17 3,-33 8,-10 25,-28 28,-23 3,7 -29,64 3,66 18,1 42,-30 41,-35z"/>
    <path class="fil9" d="M780 1163c-1,-3 -4,-4 -4,-4 -5,7 -21,27 -27,25 -7,-3 11,-41 15,-44 -8,-11 -16,-10 -22,-4 -3,-9 -11,-17 -21,-18 -13,-3 -31,8 -38,33 -6,22 4,42 18,42 7,0 16,-3 25,-13 1,8 5,15 13,18 15,5 35,-23 38,-26 2,-2 4,-4 3,-9zm-70 15c-12,-1 -9,-26 -1,-38 8,-11 22,-12 27,2 -2,3 -3,6 -5,10 -2,5 -3,11 -4,17 -6,6 -12,10 -17,9z"/>
    <path class="fil9" d="M872 1158c-4,7 -23,29 -29,25 -5,-4 3,-23 11,-46 5,-16 -16,-36 -47,3 3,-12 7,-24 11,-33 18,-44 39,-61 39,-61 -27,-19 -64,41 -76,87 -10,37 -10,70 4,71 14,2 17,-10 17,-10 -6,0 -4,-17 0,-37 8,-10 28,-31 30,-25 3,7 -29,64 3,66 18,1 42,-28 42,-33 1,-6 -5,-7 -5,-7z"/>
   </g>
  </g>
 </g>
</svg>
